<svg width="342" height="472" viewBox="0 0 342 472" fill="none" xmlns="http://www.w3.org/2000/svg">
<path d="M132.283 263.671C132.097 267.546 131.726 271.743 131.148 276.089C126.775 310.236 111.116 359.283 93.7451 389.208C90.2639 395.391 86.2458 401.111 81.7588 406.269C68.0807 421.393 46.3362 424.249 31.1521 413.72C26.5684 410.542 22.6625 406.122 19.7441 400.812C16.8256 395.501 14.9748 389.445 14.3383 383.124C13.6787 377.644 13.6232 372.082 14.1732 366.584C17.0821 335.566 34.6387 282.421 55.8262 244.077C58.24 239.657 60.7157 235.435 63.2326 231.486C75.1983 212.612 87.8654 199.45 99.4391 198.01C101.832 197.683 104.255 197.91 106.577 198.68C125.743 205.237 133.995 223.39 132.283 263.671Z" fill="#FED81D"/>
<path d="M97.1696 282.173C91.3491 306.247 89.0181 331.349 90.279 356.377C90.931 367.422 92.088 378.416 93.7449 389.307C90.2637 395.49 86.2456 401.209 81.7586 406.368C68.0806 421.492 46.336 424.348 31.152 413.819C26.5579 410.631 22.6456 406.196 19.7266 400.867C16.8075 395.538 14.9624 389.462 14.3381 383.124C27.8305 400.508 41.9417 404.258 53.1235 399.862C69.2359 393.604 79.3654 370.558 73.135 346.94C62.2215 305.467 86.8543 281.75 98.6137 274.921C98.2217 277.255 97.6853 279.714 97.1696 282.173Z" fill="#FCC71F"/>
<path d="M132.283 263.671C132.097 267.546 131.726 271.743 131.148 276.089C129.127 272.504 127.465 268.645 126.197 264.59C120.235 245.443 109.507 234.665 97.6032 229.996C86.3448 225.773 74.2301 226.263 63.2328 231.387C75.1984 212.513 87.8656 199.351 99.4393 197.91C101.832 197.583 104.255 197.811 106.577 198.581C125.743 205.237 133.995 223.39 132.283 263.671Z" fill="#FED81D"/>
<path d="M177.978 230.791C156.296 233.97 151.633 213.059 151.489 183.184C151.489 176.156 151.674 168.631 152.005 160.833C152.177 156.212 152.591 151.609 153.242 147.05C160.628 96.1648 195.617 102.348 197.412 132.299C198.114 143.648 204.777 226.867 177.978 230.791Z" fill="#B25E47"/>
<path d="M177.463 151.818C176.308 171.909 164.301 182.24 151.51 183.184C151.51 176.156 151.696 168.631 152.026 160.833C152.199 156.212 152.612 151.609 153.264 147.05C160.299 143.374 178.371 135.527 177.463 151.818Z" fill="#914839"/>
<path d="M261.408 349.747C260.272 354.345 259.37 359.023 258.706 363.753C258.52 365.044 258.334 366.237 258.169 367.602C251.526 417.469 250.701 463.686 250.247 468.479C249.793 473.272 212.7 471.633 185.117 470.019C174.368 469.373 160.484 469.547 147.363 469.671C126.732 469.87 108.165 469.919 106.679 466.418C105.689 464.158 103.028 450.871 100.14 433.835C99.6857 431.203 99.2112 428.471 98.7574 425.69C98.5304 424.299 98.2829 422.883 98.0766 421.468C97.8703 420.052 97.5608 418.215 97.2926 416.501C97.0244 414.787 96.7562 413.024 96.4674 411.261C95.8897 407.387 95.2915 403.438 94.7344 399.539C94.1774 395.64 93.6616 391.791 93.1665 388.016C91.6202 377.106 90.5528 366.106 89.9688 355.061C88.9458 330.013 91.4998 304.94 97.5195 280.931C97.6846 280.31 97.829 279.714 97.9528 279.093C98.1797 278.05 98.386 277.007 98.5923 275.964C98.7161 275.418 98.7986 274.872 98.9018 274.325C99.0049 273.779 99.0875 273.232 99.17 272.686C99.2525 272.14 99.3557 271.593 99.4382 271.047C99.5207 270.501 99.5826 269.979 99.6445 269.433C99.7889 268.365 99.9127 267.297 100.016 266.254C100.263 263.771 100.449 261.113 100.532 258.63C100.532 258.282 100.532 257.935 100.532 257.612C100.532 255.849 100.532 254.11 100.532 252.397C100.376 244.487 99.6445 236.609 98.3448 228.854C96.2817 215.617 93.3728 205.683 94.0742 201.114C94.4043 198.854 96.3642 197.513 99.7476 196.917C99.9811 196.894 100.216 196.894 100.449 196.917C108.701 195.725 124.917 198.581 146.826 204.044C147.305 198.115 148.118 192.233 149.261 186.437C149.476 185.533 149.936 184.742 150.568 184.188C151.2 183.635 151.967 183.351 152.747 183.382C155.675 183.491 158.593 183.864 161.474 184.5C166.735 185.096 184.663 181.147 193.885 175.311C195.743 174.03 197.788 173.187 199.909 172.828C204.324 172.356 205.85 176.553 206.428 182.265V183.01C206.428 183.283 206.428 183.556 206.428 183.829C206.428 184.103 206.428 184.872 206.531 185.419C206.634 185.965 206.531 186.238 206.531 186.66V188.349C206.531 189.02 206.531 189.69 206.531 190.386V192.347C206.531 192.67 206.531 192.993 206.531 193.341C206.531 193.689 206.531 193.912 206.531 194.185C206.531 194.458 206.531 194.955 206.531 195.352C206.531 195.75 206.531 196.321 206.531 196.793C206.531 197.265 206.531 197.737 206.531 198.208V199.127C206.531 203.275 206.531 206.404 206.531 206.404C223.18 198.804 248.308 191.056 267.329 205.137C273.526 209.862 278.651 216.364 282.245 224.061C283.226 226.049 284.121 228.096 284.927 230.195C301.184 270.848 272.26 305.418 261.408 349.747Z" fill="#FED81D"/>
<path d="M282.843 224.061C266.772 226.42 248.803 238.961 231.907 263.125C229.287 266.875 226.708 270.873 224.129 275.194C197 320.914 149.735 308.795 131.539 275.443C129.561 271.834 127.94 267.958 126.712 263.895C120.894 244.648 110.207 233.746 98.4067 228.928C96.3436 215.692 93.4347 205.758 94.1362 201.188C94.4663 198.929 96.4261 197.588 99.8096 196.991C100.043 196.969 100.278 196.969 100.511 196.991C108.763 195.799 124.979 198.655 146.888 204.119C147.343 198.167 148.136 192.259 149.261 186.437C149.476 185.533 149.936 184.742 150.568 184.188C151.2 183.635 151.967 183.351 152.747 183.382C155.676 183.491 158.593 183.864 161.474 184.5C166.735 185.096 184.663 181.147 193.885 175.311C195.743 174.03 197.788 173.187 199.909 172.828C204.324 172.356 205.85 176.553 206.428 182.265V183.01C206.428 183.283 206.428 183.556 206.428 183.829C206.428 184.103 206.428 184.872 206.531 185.419C206.634 185.965 206.531 186.238 206.531 186.66V188.349C206.531 189.02 206.531 189.69 206.531 190.386V192.347C206.531 192.67 206.531 192.993 206.531 193.341C206.531 193.689 206.531 193.912 206.531 194.185C206.531 194.458 206.531 194.955 206.531 195.352C206.531 195.75 206.531 196.321 206.531 196.793C206.531 197.265 206.531 197.737 206.531 198.208V199.127C206.531 203.275 206.531 206.404 206.531 206.404C223.18 198.804 248.308 191.056 267.329 205.137C273.745 209.768 279.082 216.278 282.843 224.061Z" fill="#FED81D"/>
<path d="M100.036 257.761C99.9848 263.496 99.5084 269.214 98.6129 274.847C98.2209 277.33 97.7464 279.814 97.1688 282.297C91.3482 306.372 89.0173 331.474 90.2782 356.501C90.9302 367.546 92.0872 378.54 93.7441 389.432C94.2598 393.206 94.8169 397.056 95.4151 400.93C97.1894 412.602 99.2112 424.572 101.109 435.102C104.162 452.088 106.927 465.325 107.938 467.585" stroke="#FCC71F" stroke-width="1.15577" stroke-linecap="round" stroke-linejoin="round"/>
<path d="M258.603 366.733C252.413 416.675 251.98 462.916 251.568 467.709C251.155 472.502 214.061 471.335 186.458 470.193C175.709 469.671 161.804 470.044 148.704 470.193C159.473 459.39 181.713 441.658 203.127 452.809C232.773 468.38 246.761 419.233 228.647 414.837C210.533 410.441 209.688 385.682 206.077 365.591L220.89 358.389L258.603 366.733Z" fill="#FCC71F"/>
<path d="M145.857 204.541C145.682 208.413 145.682 212.292 145.857 216.164" stroke="#FCC71F" stroke-width="1.15577" stroke-linecap="round" stroke-linejoin="round"/>
<path d="M206.036 205.435C205.809 213.034 205.5 218.001 205.5 218.001" stroke="#FCC71F" stroke-width="1.15577" stroke-linecap="round" stroke-linejoin="round"/>
<path d="M160.236 217.182C168.488 219.988 180.867 220.162 188.067 217.182" stroke="#FCC71F" stroke-width="1.15577" stroke-linecap="round" stroke-linejoin="round"/>
<path d="M336.402 396.112C328.046 408.951 305.105 411.435 286.496 393.629C281.312 388.571 276.87 382.502 273.355 375.674C271.292 371.775 268.672 365.74 265.722 358.786C264.422 355.682 263.04 352.354 261.595 348.853C253.756 329.581 244.823 306.187 239.067 292.827C236.218 286.071 234.083 278.913 232.713 271.519C232.135 268.588 231.681 265.608 231.33 262.628C227.039 226.619 237.767 188.821 266.753 204.119H266.856C272.633 207.198 278.781 213.804 284.949 222.521C299.927 243.63 314.967 277.156 324.56 302.413C326.726 308.149 328.686 313.439 330.171 318.083C341.435 351.584 346.861 379.945 336.402 396.112Z" fill="#FED81D"/>
<path d="M292.376 339.167C291.736 351.733 279.461 356.924 265.721 358.637C264.421 355.533 263.039 352.205 261.595 348.704C253.755 329.432 244.822 306.038 239.066 292.678C236.217 285.922 234.083 278.764 232.712 271.37C244.534 271.668 257.324 276.858 258.5 301.171C259.388 317.909 293.882 310.434 292.376 339.167Z" fill="#FCC71F"/>
<path d="M285.011 222.447C283.996 222.501 282.983 222.617 281.978 222.794C265.948 225.278 248.061 238.142 231.392 262.529C227.101 226.519 237.829 188.722 266.815 204.02H266.918C272.694 207.223 278.842 213.829 285.011 222.447Z" fill="#FED81D"/>
<path d="M273.355 375.599C271.292 371.7 268.672 365.665 265.722 358.712C264.422 355.607 263.04 352.28 261.596 348.778C253.756 329.507 244.823 306.113 239.067 292.752C236.218 285.997 234.084 278.839 232.713 271.444C232.136 268.514 231.682 265.534 231.331 262.554" stroke="#FCC71F" stroke-width="1.15577" stroke-linecap="round" stroke-linejoin="round"/>
<path d="M336.401 396.112C328.046 408.951 305.105 411.435 286.496 393.629C291.082 391.857 295.943 391.364 300.711 392.188C319.67 395.516 338.361 386.179 323.796 359.556C312.016 338.025 320.433 311.005 324.621 302.438C326.788 308.174 328.747 313.464 330.233 318.108C341.435 351.584 346.861 379.945 336.401 396.112Z" fill="#FCC71F"/>
<path d="M214.702 55.7349C211.153 58.7646 208.966 59.2613 209.049 63.9053C209.131 68.5493 207.481 69.8159 205.83 70.5857C204.18 71.3556 206.016 74.7082 205.5 78.036C204.985 81.3638 197.991 84.468 197.991 84.468L151.49 58.1438C147.611 52.4816 149.303 49.3277 150.541 46.2979C150.662 46.0092 150.725 45.6902 150.725 45.3666C150.725 45.043 150.662 44.724 150.541 44.4353C149.901 42.3244 147.054 40.4867 147.797 38.1274C148.725 35.1225 151.242 34.601 154.151 34.4768C157.06 34.3526 156.503 24.2948 155.121 21.6375C153.738 18.9803 154.791 12.3247 159.474 12.722C164.157 13.1194 165.972 11.977 166.385 9.31976C166.668 8.39635 167.107 7.55336 167.674 6.84358C168.241 6.13379 168.923 5.5725 169.679 5.19484C170.434 4.81718 171.246 4.63129 172.063 4.6488C172.881 4.66631 173.687 4.88685 174.431 5.29662C178.082 7.58136 181.218 5.04827 183.426 2.54002C183.549 2.38031 183.687 2.23861 183.838 2.11784C186.252 -0.142073 191.286 -1.38378 193.349 2.54002C194.28 4.46282 195.624 6.04897 197.239 7.13247C198.854 8.21597 200.681 8.75699 202.53 8.6989C206.924 9.07142 208.182 13.4671 207.233 17.8627C206.284 22.2584 207.646 23.7981 210.493 25.8097C211.974 27.2257 213.065 29.1486 213.621 31.3251C214.177 33.5016 214.173 35.8298 213.608 38.0033C213.037 39.2797 212.831 40.7469 213.021 42.1786C213.211 43.6103 213.787 44.9269 214.66 45.9254C216.042 47.5644 218.25 52.7051 214.702 55.7349Z" fill="#683F1D"/>
<path d="M197.001 127.68C193.319 129.549 189.335 130.397 185.344 130.163C169.376 129.269 130.385 146.628 130.385 146.628C123.845 147.597 119.843 150.328 122.813 154.252C125.784 158.176 128.549 169.525 120.977 170.469C119.488 170.628 117.99 170.628 116.5 170.469C112.065 169.997 110.084 167.737 110.641 165.651C111.363 162.944 116.17 163.54 117.078 162.447C117.986 161.355 118.213 158.871 115.242 155.544C112.271 152.216 110.126 147.05 113.179 141.81C116.232 136.57 122.277 131.877 118.605 128.077C114.932 124.277 111.941 121.049 113.488 116.604C115.036 112.158 123.804 105.9 119.677 100.486C115.551 95.0723 112.127 88.069 119.904 79.5509C127.682 71.0328 135.542 72.647 134.346 65.3706C133.149 58.0941 134.139 51.0909 142.598 52.8045C151.056 54.518 152.212 53.7978 155.905 51.3392C159.597 48.8807 164.487 50.2217 169.211 55.1389C173.936 60.0561 178.413 54.518 184.127 55.8839C189.842 57.2498 184.127 63.8805 191.389 65.3706C198.651 66.8606 201.127 67.2331 201.952 75.6023C202.777 83.9714 207.584 84.0707 208.595 86.6783C210.658 91.9928 207.378 95.6931 206.429 98.7726C205.48 101.852 207.543 103.739 209.173 107.018C211.896 112.456 206.408 122.862 197.001 127.68Z" fill="#683F1D"/>
<path d="M199.517 112.878C198.989 117.914 198.148 122.895 197 127.779C193.318 129.648 189.335 130.497 185.344 130.262C169.376 129.368 130.384 146.727 130.384 146.727C123.844 147.696 119.842 150.428 122.813 154.352C125.784 158.275 128.548 169.625 120.977 170.568C119.487 170.727 117.989 170.727 116.5 170.568C122.173 169.451 123.679 164.583 120.77 158.151C116.644 149.285 118.192 144.045 122.235 138.954C126.279 133.863 119.656 121.893 122.235 115.585C124.814 109.277 129.167 107.018 127.413 97.4812C125.66 87.9449 126.568 83.3754 132.757 78.0857C138.946 72.796 144.289 71.7778 147.631 65.4451C150.973 59.1124 159.721 55.1389 162.692 62.6885C165.662 70.2381 166.632 75.4036 175.07 72.3242C183.508 69.2448 189.037 73.0196 186.066 81.6619C183.095 90.3042 184.498 98.5243 189.738 99.5921C194.978 100.66 200.528 100.759 199.517 112.878Z" fill="#683F1D"/>
<path d="M193.514 141.81C162.094 169.327 148.56 178.366 133.541 163.168C126.527 156.09 125.289 141.637 126.712 126.91C127.216 121.647 128.002 116.43 129.064 111.289C130.637 102.926 133.04 94.8215 136.223 87.1504C143.011 72.4982 158.483 71.778 160.051 72.4982C161.619 73.2184 162.114 74.3111 160.588 78.6571C159.061 83.0031 160.753 86.1073 165.106 86.2563C169.459 86.4053 174.431 90.056 173.977 95.296C173.686 97.8516 174.031 100.454 174.967 102.774C175.903 105.094 177.389 107.029 179.238 108.334C183.364 111.413 182.539 116.107 183.137 119.013C183.735 121.918 188.707 125.172 190.069 121.173C191.43 117.175 199.229 108.756 205.542 116.48C211.855 124.203 206.284 142.357 193.514 141.81Z" fill="#B25E47"/>
<path d="M155.863 122.141C157.369 125.916 162.816 126.537 168.015 123.532C173.213 120.527 176.267 114.989 174.678 111.115C173.09 107.241 167.726 106.719 162.527 109.749C157.328 112.779 154.337 118.367 155.863 122.141Z" fill="#914839"/>
<path d="M134.676 125.445C133.253 127.928 130.076 128.3 126.713 126.91C127.216 121.647 128.002 116.43 129.065 111.289L129.89 111.935C134.573 115.983 136.719 122.042 134.676 125.445Z" fill="#914839"/>
<path d="M134.077 107.167C134.077 107.658 134.198 108.138 134.425 108.546C134.651 108.955 134.973 109.273 135.35 109.461C135.727 109.649 136.142 109.698 136.542 109.602C136.943 109.507 137.31 109.27 137.599 108.923C137.887 108.575 138.084 108.133 138.163 107.651C138.243 107.17 138.202 106.67 138.046 106.216C137.89 105.763 137.625 105.375 137.286 105.102C136.947 104.829 136.548 104.683 136.14 104.683C135.593 104.683 135.068 104.945 134.681 105.411C134.294 105.876 134.077 106.508 134.077 107.167Z" fill="#683F1D"/>
<path d="M147.198 108.533C147.198 109.218 147.425 109.875 147.827 110.359C148.229 110.843 148.775 111.115 149.344 111.115C149.913 111.115 150.459 110.843 150.861 110.359C151.264 109.875 151.49 109.218 151.49 108.533C151.49 107.848 151.264 107.191 150.861 106.706C150.459 106.222 149.913 105.95 149.344 105.95C148.775 105.95 148.229 106.222 147.827 106.706C147.425 107.191 147.198 107.848 147.198 108.533Z" fill="#683F1D"/>
<path d="M192.359 130.213C192.792 124.65 198.073 116.976 203.767 122.762" stroke="#914839" stroke-width="1.15577" stroke-linecap="round" stroke-linejoin="round"/>
<path d="M192.586 128.847C196.547 120.651 204.49 131.877 195.206 134.087" stroke="#914839" stroke-width="1.15577" stroke-linecap="round" stroke-linejoin="round"/>
<path d="M140.225 123.756C137.874 122.44 136.925 119.857 137.131 119.211C137.337 118.566 144.702 112.059 143.32 102.001" stroke="#914839" stroke-width="1.15577" stroke-linecap="round" stroke-linejoin="round"/>
<path d="M149.261 89.4103C148.601 94.6503 159.185 99.791 160.815 96.4632C162.279 93.6321 150.334 81.7117 149.261 89.4103Z" fill="#683F1D"/>
<path d="M131.581 92.8623C131.581 94.3772 143.052 94.0792 142.887 88.7895C142.722 83.4998 131.293 88.3425 131.581 92.8623Z" fill="#683F1D"/>
<path d="M141.319 129.046C145.259 127.782 149.103 126.121 152.81 124.079C152.81 124.079 153.986 132.821 149.344 134.435C148.524 134.719 147.664 134.804 146.816 134.687C145.967 134.569 145.146 134.251 144.401 133.75C143.655 133.249 142.998 132.576 142.47 131.768C141.941 130.961 141.55 130.036 141.319 129.046Z" fill="white" stroke="#914839" stroke-width="1.15577" stroke-linecap="round" stroke-linejoin="round"/>
<path d="M201.127 34.4769C199.373 41.0083 193.06 34.2534 192.565 43.5662C192.07 52.879 176.597 50.2714 171.934 41.2069C168.056 33.7567 157.08 36.563 150.623 44.4354C149.984 42.3245 147.137 40.4868 147.879 38.1275C148.808 35.1226 151.325 34.601 154.233 34.4769C157.142 34.3527 156.585 24.2949 155.203 21.6376C153.821 18.9803 154.873 12.3248 159.556 12.7221C164.239 13.1195 166.055 11.9771 166.467 9.31984C166.751 8.39643 167.19 7.55344 167.757 6.84366C168.323 6.13387 169.006 5.57258 169.761 5.19492C170.516 4.81726 171.328 4.63137 172.146 4.64888C172.964 4.66639 173.77 4.88693 174.513 5.2967C178.165 7.58144 181.301 5.04836 183.508 2.5401C183.631 2.38039 183.77 2.23869 183.921 2.11792C185.716 8.2768 187.036 16.6708 193.988 17.391C203.747 18.4588 202.901 27.9206 201.127 34.4769Z" fill="#683F1D"/>
<path d="M0 213.655C0.866481 206.975 16.5044 201.983 25.5406 199.897L29.0065 226.867C29.0065 226.867 4.06421 222.571 0 213.655Z" fill="#FCC71F"/>
<path d="M14.503 228.009C12.7288 198.78 12.7288 174.219 12.213 164.906C11.6972 155.593 12.0892 145.684 21.1873 141.164C21.1873 141.164 21.1873 132.547 31.5025 130.957C31.5025 130.957 30.2028 123.234 38.8676 123.507C38.8494 122.782 38.9712 122.061 39.2235 121.402C39.4757 120.743 39.8515 120.163 40.3213 119.708C40.7912 119.253 41.3422 118.936 41.9312 118.78C42.5202 118.625 43.131 118.637 43.7158 118.814C45.2189 118.995 46.6707 119.572 47.9683 120.503C49.2659 121.434 50.3778 122.697 51.2253 124.203C58.7554 122.266 62.964 131.653 62.5927 139.426C62.2213 147.199 61.7262 155.692 58.6316 163.465C55.5371 171.239 51.5554 184.202 51.5554 184.202L51.8029 200.617C51.8029 200.617 46.1089 253.34 14.503 228.009Z" fill="#B25E47"/>
<path d="M12.2138 164.906C11.6774 155.593 12.09 145.684 21.1881 141.164C21.1881 141.164 21.1881 132.547 31.5033 130.957C31.5033 130.957 30.2036 123.234 38.8684 123.507C38.8502 122.782 38.972 122.061 39.2243 121.402C39.4765 120.743 39.8523 120.163 40.3222 119.708C40.792 119.253 41.343 118.936 41.932 118.78C42.521 118.625 43.1319 118.637 43.7166 118.814C45.2198 118.995 46.6715 119.572 47.9691 120.503C49.2667 121.434 50.3786 122.697 51.2261 124.203C58.7562 122.266 62.9649 131.653 62.5935 139.426" stroke="#914839" stroke-width="1.15577" stroke-linecap="round" stroke-linejoin="round"/>
<path d="M51.2877 124.153C43.5306 128.747 37.8366 137.365 40.1678 141.537C42.4991 145.709 51.2877 140.444 52.5461 139.053" stroke="#914839" stroke-width="1.15577" stroke-linecap="round" stroke-linejoin="round"/>
<path d="M38.2694 123.457C41.318 124.449 44.2452 125.918 46.9755 127.828" stroke="#914839" stroke-width="1.15577" stroke-linecap="round" stroke-linejoin="round"/>
<path d="M31.6677 130.957C35.0685 131.125 38.4013 132.157 41.4466 133.987" stroke="#914839" stroke-width="1.15577" stroke-linecap="round" stroke-linejoin="round"/>
<path d="M39.9203 153.606C42.5197 151.123 44.7685 147.075 44.0464 143.201" stroke="#914839" stroke-width="1.15577" stroke-linecap="round" stroke-linejoin="round"/>
<path d="M21.1877 141.164C27.3769 138.11 33.566 134.633 35.6291 139.724C37.6921 144.815 38.5173 160.461 35.6291 162.571C32.7408 164.682 27.872 162.944 27.0468 158.846C26.2216 154.749 25.6026 149.161 25.6026 149.161" stroke="#914839" stroke-width="1.15577" stroke-linecap="round" stroke-linejoin="round"/>
<path d="M32.6784 163.466C35.2778 167.34 34.432 181.048 31.5643 185.618" stroke="#914839" stroke-width="1.15577" stroke-linecap="round" stroke-linejoin="round"/>
<path d="M53.1235 399.862C48.0484 411.385 40.7452 417.669 31.152 413.745C12.8734 406.294 5.61143 385.21 2.9501 364.623C0.164979 343.141 2.35181 322.156 2.26929 317.711C2.08361 308.969 0.0824585 213.705 0.0824585 213.705C3.25956 215.22 8.04583 215.245 13.8636 213.954C18.2891 212.899 22.6308 211.387 26.8402 209.434C35.6666 205.383 44.0605 200.081 51.8444 193.639L52.1951 193.366C52.1951 193.366 53.763 216.983 55.9086 244.127C57.7241 267.372 60.0347 293.2 61.9121 309.019C65.0067 334.499 63.1293 377.238 53.1235 399.862Z" fill="#FED81D"/>
<path d="M53.1238 399.862C48.0487 411.385 40.7455 417.669 31.1523 413.745C12.8737 406.294 5.61177 385.21 2.95044 364.623C6.20877 371.271 10.0471 377.481 14.4004 383.149C27.8308 400.508 41.9833 404.258 53.1238 399.862Z" fill="#FCC71F"/>
<path d="M52.1121 193.316C52.1121 193.316 57.5585 274.723 61.8291 308.969C64.1596 330.751 63.5885 352.842 60.1374 374.407" stroke="#FCC71F" stroke-width="1.15577" stroke-linecap="round" stroke-linejoin="round"/>
<path d="M245.15 291.256L180.236 258.616C175.116 256.042 169.231 258.952 167.093 265.115L128.544 376.209C126.405 382.373 128.822 389.456 133.942 392.031L198.857 424.67C203.977 427.244 209.862 424.335 212 418.171L250.549 307.077C252.688 300.914 250.271 293.83 245.15 291.256Z" fill="#DDDDDD"/>
<path d="M237.866 287.577L180.243 258.604C175.123 256.029 169.238 258.939 167.099 265.102L128.551 376.197C126.412 382.36 128.829 389.443 133.949 392.018L191.573 420.991C196.693 423.566 202.578 420.656 204.716 414.493L243.265 303.398C245.404 297.235 242.987 290.152 237.866 287.577Z" fill="#F9F9F9" stroke="#DDDDDD" stroke-width="1.55503" stroke-linecap="round" stroke-linejoin="round"/>
<path d="M184.046 277.082C184.042 278.122 183.782 279.138 183.299 280C182.816 280.863 182.131 281.534 181.332 281.928C180.532 282.323 179.653 282.424 178.806 282.218C177.959 282.012 177.182 281.509 176.572 280.771C175.963 280.034 175.548 279.096 175.381 278.075C175.214 277.055 175.302 275.997 175.633 275.037C175.965 274.076 176.526 273.255 177.244 272.678C177.963 272.101 178.808 271.792 179.672 271.792C180.248 271.792 180.819 271.929 181.351 272.196C181.883 272.462 182.366 272.852 182.772 273.343C183.179 273.835 183.5 274.418 183.719 275.06C183.937 275.701 184.049 276.389 184.046 277.082Z" fill="#DDDDDD"/>
<path d="M191.265 282.372C191.265 282.893 191.137 283.402 190.897 283.834C190.656 284.267 190.315 284.605 189.915 284.804C189.516 285.003 189.076 285.055 188.652 284.954C188.228 284.852 187.838 284.601 187.532 284.233C187.226 283.865 187.018 283.396 186.934 282.885C186.849 282.375 186.893 281.846 187.058 281.365C187.224 280.884 187.504 280.472 187.864 280.183C188.223 279.894 188.646 279.739 189.078 279.739C189.366 279.736 189.652 279.802 189.919 279.933C190.185 280.064 190.427 280.258 190.631 280.503C190.835 280.748 190.996 281.04 191.104 281.361C191.213 281.682 191.268 282.025 191.265 282.372Z" fill="#DDDDDD"/>
<path d="M188.067 369.639C183.776 367.851 181.548 357.868 180.97 349.275L197.805 351.759C197.805 351.759 197.929 370.955 188.067 369.639Z" fill="#FCC71F"/>
<path d="M193.721 364.573C188.949 360.463 184.005 356.65 178.908 353.149C176.99 351.882 166.118 350.417 158.526 345.401C153.429 341.921 148.516 338.065 143.816 333.853L140.825 340.558C140.825 340.558 134.945 332.909 134.058 326.005C133.171 319.101 135.543 318.878 136.946 317.413C138.349 315.947 137.462 313.737 137.379 310.161C137.297 306.585 139.814 305.865 140.598 304.623C141.382 303.381 140.598 300.103 140.598 295.707C140.598 291.312 144.724 291.088 145.466 288.58C146.209 286.072 146.766 277.976 152.687 280.087C158.608 282.198 184.396 305.244 186.129 306.287C188.634 307.374 191.199 308.254 193.804 308.919C193.804 308.919 214.785 348.629 193.721 364.573Z" fill="#B25E47"/>
<path d="M143.816 333.853L140.825 340.558C140.825 340.558 134.945 332.909 134.058 326.005C133.171 319.101 135.543 318.878 136.946 317.413C138.349 315.947 137.462 313.737 137.379 310.161C137.297 306.585 139.814 305.865 140.598 304.623C141.382 303.381 140.598 300.103 140.598 295.707C140.598 291.312 144.724 291.088 145.466 288.58C146.209 286.072 146.766 277.976 152.687 280.087" stroke="#914839" stroke-width="1.15577" stroke-linecap="round" stroke-linejoin="round"/>
<path d="M143.815 333.853C140.865 330.898 140.246 330.401 140.246 330.401" stroke="#914839" stroke-width="1.15577" stroke-linecap="round" stroke-linejoin="round"/>
<path d="M339.681 390.773C334.276 410.64 314.141 428.422 268.217 407.536L265.721 406.369C218.023 383.646 188.047 369.639 188.047 369.639C192.177 348.63 192.177 326.75 188.047 305.741C215.465 314.979 287.961 332.885 313.708 341.974C315.399 342.57 317.029 343.216 318.556 343.911C340.156 353.571 344.901 371.452 339.681 390.773Z" fill="#FED81D"/>
<path d="M265.721 406.369C218.024 383.646 188.068 369.639 188.068 369.639" stroke="#FCC71F" stroke-width="1.15577" stroke-linecap="round" stroke-linejoin="round"/>
<path d="M188.068 305.741C212.928 314.11 274.964 329.631 305.435 339.242" stroke="#FCC71F" stroke-width="1.15577" stroke-linecap="round" stroke-linejoin="round"/>
<path d="M339.681 390.773C334.276 410.64 314.14 428.421 268.217 407.536C268.217 407.536 281.751 388.811 300.71 392.114C319.669 395.417 338.361 386.104 323.796 359.482C321.207 354.762 319.426 349.468 318.555 343.911C340.156 353.571 344.901 371.452 339.681 390.773Z" fill="#FCC71F"/>
</svg>
