<?xml version="1.0" encoding="utf-8"?>
<!-- Generator: Adobe Illustrator 26.0.0, SVG Export Plug-In . SVG Version: 6.00 Build 0)  -->
<svg version="1.1" id="Calque_1" xmlns="http://www.w3.org/2000/svg" xmlns:xlink="http://www.w3.org/1999/xlink" x="0px" y="0px"
	 viewBox="0 0 80 80" style="enable-background:new 0 0 80 80;" xml:space="preserve">
<style type="text/css">
	.st0{fill:#FFFFFF;}
</style>
<path class="st0" d="M40,0C17.9,0,0,17.9,0,40s17.9,40,40,40s40-17.9,40-40S62.1,0,40,0z M40,12c6.6,0,12,5.4,12,12s-5.4,12-12,12
	s-12-5.4-12-12S33.4,12,40,12z M40,68.8c-10,0-18.8-5.1-24-12.9c0.1-8,16-12.3,24-12.3c8,0,23.9,4.4,24,12.3
	C58.8,63.7,50,68.8,40,68.8z"/>
</svg>
