<svg width="139" height="139" viewBox="0 0 139 139" fill="none" xmlns="http://www.w3.org/2000/svg">
<path d="M50.4562 122.5V123.29L60.9977 125.29L74.1679 128.908C74.1679 128.908 74.8774 128.093 73.5453 126.678C72.2132 125.263 64.8397 123.445 61.0935 124.45C61.0935 124.435 57.2852 120.623 50.4562 122.5Z" fill="#DDDDDD" stroke="#DDDDDD" stroke-linecap="round" stroke-linejoin="round"/>
<path d="M49.2518 122.725C49.2518 122.725 57.5247 122.163 60.0364 125.005C61.1006 126.205 61.9059 125.295 63.1138 125.255C64.3218 125.215 70.8439 124.188 74.466 129.285L81.1708 121.698C81.1708 121.698 77.1568 115.518 70.044 119.215C70.044 119.215 67.9154 115.583 60.2173 117.415C60.1499 117.55 49.2518 122.725 49.2518 122.725Z" fill="#F9F9F9" stroke="#DDDDDD" stroke-linecap="round" stroke-linejoin="round"/>
<path d="M70.0458 119.223L60.8115 124.435" stroke="#DDDDDD" stroke-linecap="round" stroke-linejoin="round"/>
<path d="M127.287 49.2175V123.41C118.2 119.683 106.002 117.248 92.6986 115.808V49.2175H127.287Z" fill="#F9F9F9" stroke="#DDDDDD" stroke-linecap="round" stroke-linejoin="round"/>
<path d="M127.287 69.495H124.76V82.14" stroke="#DDDDDD" stroke-linecap="round" stroke-linejoin="round"/>
<path d="M110.546 81.3203V68.7078L108.29 68.8953V81.8703" stroke="#DDDDDD" stroke-linecap="round" stroke-linejoin="round"/>
<path d="M105.84 82.7324V69.8199L108.29 69.6924" stroke="#DDDDDD" stroke-linecap="round" stroke-linejoin="round"/>
<path d="M103.941 82.7326L103.811 71.1301H105.84V82.7326" fill="#DDDDDD"/>
<path d="M103.941 82.7326L103.811 71.1301H105.84V82.7326" stroke="#DDDDDD" stroke-linecap="round" stroke-linejoin="round"/>
<path d="M95.0772 82.7329L92.6932 71.4279L94.5397 70.8229" stroke="#DDDDDD" stroke-width="0.75" stroke-linecap="round" stroke-linejoin="round"/>
<path d="M96.9823 82.6826C96.9611 82.7326 94.2773 69.5326 94.2773 69.5326L96.4502 69.3126L99.3361 82.7326" fill="#DDDDDD"/>
<path d="M96.9823 82.6826C96.9611 82.7326 94.2773 69.5326 94.2773 69.5326L96.4502 69.3126L99.3361 82.7326" stroke="#DDDDDD" stroke-linecap="round" stroke-linejoin="round"/>
<path d="M97.2004 72.7977L99.9657 72.3552L103.118 82.7327" stroke="#DDDDDD" stroke-width="0.75" stroke-linecap="round" stroke-linejoin="round"/>
<path d="M105.363 63.9075C105.388 63.9075 107.749 51.3325 107.749 51.3325L109.345 51.6475L107.112 63.8975" fill="#DDDDDD"/>
<path d="M105.363 63.9075C105.388 63.9075 107.749 51.3325 107.749 51.3325L109.345 51.6475L107.112 63.8975" stroke="#DDDDDD" stroke-miterlimit="10"/>
<path d="M109.697 63.6028L109.631 50.4478H112.435L112.31 63.1328" fill="#F9F9F9"/>
<path d="M109.697 63.6028L109.631 50.4478H112.435L112.31 63.1328" stroke="#DDDDDD" stroke-width="0.75" stroke-linecap="round" stroke-linejoin="round"/>
<path d="M112.427 51.3325H115.667L115.44 63.2625" fill="#F9F9F9"/>
<path d="M112.427 51.3325H115.667L115.44 63.2625" stroke="#DDDDDD" stroke-width="0.75" stroke-linecap="round" stroke-linejoin="round"/>
<path d="M122.849 50.1702L125.166 50.4477L122.611 63.9077L120.706 62.9827L122.849 50.1702Z" stroke="#DDDDDD" stroke-linecap="round" stroke-linejoin="round"/>
<path d="M124.997 63.78L127.287 51.9725L124.997 51.3325L122.611 63.9075" fill="#DDDDDD"/>
<path d="M124.997 63.78L127.287 51.9725L124.997 51.3325L122.611 63.9075" stroke="#DDDDDD" stroke-linecap="round" stroke-linejoin="round"/>
<path d="M102.795 60.5101H104.113V63.9076" stroke="#DDDDDD" stroke-linecap="round" stroke-linejoin="round"/>
<path d="M94.8253 60.7452L94.8839 63.9077" stroke="#DDDDDD" stroke-linecap="round" stroke-linejoin="round"/>
<path d="M104.469 56.2325H94.8839V58.39H104.469V56.2325Z" stroke="#DDDDDD" stroke-linecap="round" stroke-linejoin="round"/>
<path d="M94.8839 58.3899H93.6688V60.7774L102.795 60.5099V58.3899" fill="#DDDDDD"/>
<path d="M94.8839 58.3899H93.6688V60.7774L102.795 60.5099V58.3899" stroke="#DDDDDD" stroke-linecap="round" stroke-linejoin="round"/>
<path d="M127.287 63.9077H92.6932V67.2127H127.287V63.9077Z" stroke="#DDDDDD" stroke-linecap="round" stroke-linejoin="round"/>
<path d="M127.287 82.7327H92.6932V86.0377H127.287V82.7327Z" stroke="#DDDDDD" stroke-linecap="round" stroke-linejoin="round"/>
<path d="M129.831 44.8651V124.525C129.012 124.14 128.165 123.769 127.287 123.41C118.2 119.683 106.002 117.248 92.6986 115.808C91.8567 115.714 91.0088 115.627 90.155 115.545V44.8651H129.831Z" stroke="#DDDDDD" stroke-width="2" stroke-linecap="round" stroke-linejoin="round"/>
<path d="M1 119.8C4.09523 118.778 8.54917 117.83 13.9822 117.015C16.1107 116.695 18.4007 116.395 20.8166 116.118C21.7626 116.011 22.7263 115.906 23.7078 115.803C24.4019 115.733 25.1055 115.664 25.8186 115.598C27.8383 115.406 29.9243 115.23 32.0765 115.07C41.9581 114.343 53.0779 113.988 64.3697 114.158C65.0721 114.168 65.7757 114.181 66.4805 114.198C67.8995 114.224 69.3138 114.262 70.7234 114.31C72.1838 114.36 73.643 114.418 75.101 114.483C80.1847 114.715 85.2346 115.063 90.1497 115.545C91.0023 115.627 91.8502 115.714 92.6933 115.808L93.2822 115.873C97.8798 116.373 102.328 117.008 106.575 117.77C113.56 119.02 119.947 120.635 125.377 122.66C126.03 122.905 126.669 123.155 127.294 123.41C128.172 123.77 129.02 124.142 129.838 124.525C132.853 125.943 135.457 127.525 137.548 129.293" stroke="#DDDDDD" stroke-width="2" stroke-linecap="round" stroke-linejoin="round"/>
<path d="M64.3697 30.5701V114.158C50.6248 113.953 37.1299 114.525 25.8186 115.598V30.5701H64.3697Z" fill="#F9F9F9" stroke="#DDDDDD" stroke-linecap="round" stroke-linejoin="round"/>
<path d="M52.056 109.048L54.9881 96.4503L56.682 96.6853L54.1065 109.025" stroke="#DDDDDD" stroke-linecap="round" stroke-linejoin="round"/>
<path d="M56.4214 109.025L59.3978 93.6801H57.326L56.6821 96.6851" stroke="#DDDDDD" stroke-linecap="round" stroke-linejoin="round"/>
<path d="M58.4612 109.025L60.643 96.1128L58.9543 95.9653L56.4214 109.025" fill="#DDDDDD"/>
<path d="M58.4612 109.025L60.643 96.1128L58.9543 95.9653L56.4214 109.025" stroke="#DDDDDD" stroke-linecap="round" stroke-linejoin="round"/>
<path d="M64.3698 93.2802C64.3698 93.3402 61.0387 93.2802 61.0387 93.2802L61.1611 108.9" stroke="#DDDDDD" stroke-linecap="round" stroke-linejoin="round"/>
<path d="M50.8873 75.9252H53.4185L55.4459 87.9877H53.1719" fill="#DDDDDD"/>
<path d="M50.8873 75.9252H53.4185L55.4459 87.9877H53.1719" stroke="#DDDDDD" stroke-linecap="round" stroke-linejoin="round"/>
<path d="M57.4733 74.6725H55.4459C55.4459 74.6725 55.6127 88 55.79 88H57.7412" fill="#F9F9F9"/>
<path d="M57.4733 74.6725H55.4459C55.4459 74.6725 55.6127 88 55.79 88H57.7412" stroke="#DDDDDD" stroke-linecap="round" stroke-linejoin="round"/>
<path d="M57.741 88.0002C57.6186 87.7902 57.4696 72.4352 57.4696 72.4352H59.9085V88.0002" fill="#F9F9F9"/>
<path d="M57.741 88.0002C57.6186 87.7902 57.4696 72.4352 57.4696 72.4352H59.9085V88.0002" stroke="#DDDDDD" stroke-linecap="round" stroke-linejoin="round"/>
<path d="M61.6435 88.0004L64.1268 74.9529L62.353 74.0929C62.353 74.0929 59.9034 85.9429 59.9034 86.0404V88.0004" fill="#DDDDDD"/>
<path d="M61.6435 88.0004L64.1268 74.9529L62.353 74.0929C62.353 74.0929 59.9034 85.9429 59.9034 86.0404V88.0004" stroke="#DDDDDD" stroke-linecap="round" stroke-linejoin="round"/>
<path d="M51.2491 87.9876L48.6008 74.2951L50.5662 73.8451L53.1718 87.9876" fill="#F9F9F9"/>
<path d="M51.2491 87.9876L48.6008 74.2951L50.5662 73.8451L53.1718 87.9876" stroke="#DDDDDD" stroke-linecap="round" stroke-linejoin="round"/>
<path d="M40.0956 81.46L39.2903 81.375V82.66" stroke="#DDDDDD" stroke-linecap="round" stroke-linejoin="round"/>
<path d="M48.3437 82.0178L48.271 84.0528" stroke="#DDDDDD" stroke-linecap="round" stroke-linejoin="round"/>
<path d="M40.5533 78.8627L40.3475 76.5251H48.4342V78.8627" stroke="#DDDDDD" stroke-linecap="round" stroke-linejoin="round"/>
<path d="M40.0956 81.4602L39.9625 78.8627H49.0407L49.1453 82.0427L40.0956 81.4602Z" fill="#DDDDDD" stroke="#DDDDDD" stroke-miterlimit="10"/>
<path d="M39.9625 83.7351L48.7693 84.0526V87.9876" stroke="#DDDDDD" stroke-linecap="round" stroke-linejoin="round"/>
<path d="M42.3323 58.9799H31.6028V61.4024H42.3323V58.9799Z" stroke="#DDDDDD" stroke-width="0.75" stroke-linecap="round" stroke-linejoin="round"/>
<path d="M41.8357 66.8975C41.9244 67.1275 41.8357 63.5275 41.8357 63.5275L33.1052 63.36V66.9475" stroke="#DDDDDD" stroke-width="0.75" stroke-linecap="round" stroke-linejoin="round"/>
<path d="M41.3107 61.4027V63.5177" stroke="#DDDDDD" stroke-width="0.75" stroke-linecap="round" stroke-linejoin="round"/>
<path d="M43.3186 66.9677L43.6893 50.3276L46.4511 50.5526L46.2134 66.9502" fill="#DDDDDD"/>
<path d="M43.3186 66.9677L43.6893 50.3276L46.4511 50.5526L46.2134 66.9502" stroke="#DDDDDD" stroke-linecap="round" stroke-linejoin="round"/>
<path d="M46.437 51.5149H48.7394L48.5301 66.9499" stroke="#DDDDDD" stroke-width="0.75" stroke-linecap="round" stroke-linejoin="round"/>
<path d="M33.7118 61.5674L33.8005 63.3724" stroke="#DDDDDD" stroke-width="0.75" stroke-linecap="round" stroke-linejoin="round"/>
<path d="M25.8186 53.1027H28.3054L28.7436 66.9677" stroke="#DDDDDD" stroke-linecap="round" stroke-linejoin="round"/>
<path d="M30.8135 66.8975L30.5244 54.2125L28.3356 54.0475" stroke="#DDDDDD" stroke-linecap="round" stroke-linejoin="round"/>
<path d="M48.7393 66.9501L51.1888 52.6851L53.7608 53.5151" stroke="#DDDDDD" stroke-linecap="round" stroke-linejoin="round"/>
<path d="M51.1409 66.9499L54.1119 51.5149L56.6555 52.9199L54.0428 66.9499" stroke="#DDDDDD" stroke-linecap="round" stroke-linejoin="round"/>
<path d="M60.2474 66.9677L60.0948 50.3276L56.6697 50.1451V66.9677" stroke="#DDDDDD" stroke-linecap="round" stroke-linejoin="round"/>
<path d="M63.1812 66.9676L63.0021 51.6801H60.0948L60.345 66.9676" fill="#DDDDDD"/>
<path d="M63.1812 66.9676L63.0021 51.6801H60.0948L60.345 66.9676" stroke="#DDDDDD" stroke-linecap="round" stroke-linejoin="round"/>
<path d="M64.3697 66.9478H25.8168V70.2553H64.3697V66.9478Z" stroke="#DDDDDD" stroke-linecap="round" stroke-linejoin="round"/>
<path d="M64.3697 87.9875H25.8168V91.2926H64.3697V87.9875Z" stroke="#DDDDDD" stroke-linecap="round" stroke-linejoin="round"/>
<path d="M64.3697 109.025H25.8168V112.332H64.3697V109.025Z" stroke="#DDDDDD" stroke-width="2" stroke-linecap="round" stroke-linejoin="round"/>
<path d="M66.4805 26.3551V114.198C65.7709 114.181 65.0674 114.168 64.3697 114.158C50.6247 113.953 37.1299 114.525 25.8185 115.598C25.109 115.663 24.4054 115.731 23.7078 115.803V26.3551H66.4805Z" stroke="#DDDDDD" stroke-width="2" stroke-linecap="round" stroke-linejoin="round"/>
<path d="M49.7272 32.2848L49.3335 34.0248L46.6426 45.9124H44.9966L48.2089 31.7098L49.7272 32.2848Z" stroke="#DDDDDD" stroke-width="0.75" stroke-linecap="round" stroke-linejoin="round"/>
<path d="M49.3352 34.0251L51.634 34.8851L49.2518 45.9127" stroke="#DDDDDD" stroke-width="0.75" stroke-linecap="round" stroke-linejoin="round"/>
<path d="M51.689 30.5726L51.4939 45.9102" stroke="#DDDDDD" stroke-width="0.75" stroke-linecap="round" stroke-linejoin="round"/>
<path d="M52.5369 31.8024H54.8658" stroke="#DDDDDD" stroke-width="0.75" stroke-linecap="round" stroke-linejoin="round"/>
<path d="M55.5559 30.5726V45.9102" stroke="#DDDDDD" stroke-width="0.75" stroke-linecap="round" stroke-linejoin="round"/>
<path d="M55.5559 38.6925L57.1168 45.91" stroke="#DDDDDD" stroke-width="0.75" stroke-linecap="round" stroke-linejoin="round"/>
<path d="M58.5323 45.9099L60.095 44.9874L56.9217 33.4574L55.5559 34.0249" stroke="#DDDDDD" stroke-width="0.75" stroke-linecap="round" stroke-linejoin="round"/>
<path d="M59.806 45.1574L59.9993 45.9099H60.6716L61.8228 45.0899L59.7776 35.1549L57.6047 35.9399" stroke="#DDDDDD" stroke-width="0.75" stroke-linecap="round" stroke-linejoin="round"/>
<path d="M64.3697 45.9099H25.8168V49.2149H64.3697V45.9099Z" stroke="#DDDDDD" stroke-linecap="round" stroke-linejoin="round"/>
<path d="M30.0366 45.9127H28.2451L25.8186 34.8901L27.7502 34.0251L30.0544 44.4552" stroke="#DDDDDD" stroke-linecap="round" stroke-linejoin="round"/>
<path d="M32.5057 45.9126H30.0366L30.0544 44.4551L30.2087 32.0376H32.3266L32.378 35.8851L32.5128 45.9126" stroke="#DDDDDD" stroke-linecap="round" stroke-linejoin="round"/>
<path d="M37.5592 45.9124H34.746L34.62 35.0248L34.5828 31.8198L37.0572 31.7098C37.0572 31.7098 37.0802 32.3573 37.1157 33.3923C37.2221 36.4998 37.451 43.0624 37.5592 45.9124Z" stroke="#DDDDDD" stroke-linecap="round" stroke-linejoin="round"/>
<path d="M32.5056 45.9123L32.3779 35.8848L32.3584 34.2748L34.62 35.0248H34.6217L34.7459 45.9123H32.5127" fill="#DDDDDD"/>
<path d="M32.5056 45.9123L32.3779 35.8848L32.3584 34.2748L34.62 35.0248H34.6217L34.7459 45.9123H32.5127" stroke="#DDDDDD" stroke-linecap="round" stroke-linejoin="round"/>
<path d="M37.5592 45.9127H40.0158L39.7994 34.0252L39.7888 33.3927H37.1157L37.5592 45.9127Z" fill="#DDDDDD" stroke="#DDDDDD" stroke-linecap="round" stroke-linejoin="round"/>
<path d="M39.7996 34.0251H42.501L42.5844 45.9127H40.016" stroke="#DDDDDD" stroke-linecap="round" stroke-linejoin="round"/>
<path d="M92.4592 132.13L105.262 125.25L117.968 127.25C117.968 127.25 118.839 127.68 118.427 129.193L105.858 138L92.4592 132.13Z" fill="#F9F9F9" stroke="#DDDDDD" stroke-linecap="round" stroke-linejoin="round"/>
<path d="M106.009 135.663C106.009 135.663 114.312 130.21 117.968 127.26Z" fill="#F9F9F9"/>
<path d="M106.009 135.663C106.009 135.663 114.312 130.21 117.968 127.26" stroke="#DDDDDD" stroke-linecap="round" stroke-linejoin="round"/>
<path d="M92.4592 132.13C92.4592 132.13 105.262 134.785 106.009 135.663C106.35 136.063 106.38 138.123 105.635 137.988C104.89 137.853 92.4592 135.215 92.4592 135.215C92.4592 135.215 94.2809 134.045 92.4592 132.13Z" fill="#DDDDDD" stroke="#DDDDDD" stroke-linecap="round" stroke-linejoin="round"/>
<path d="M109.387 38.3747C112.78 37.3991 114.97 32.7314 114.277 27.949C113.585 23.1667 110.273 20.0807 106.88 21.0563C103.487 22.0319 101.298 26.6996 101.99 31.4819C102.682 36.2643 105.994 39.3502 109.387 38.3747Z" stroke="#DDDDDD" stroke-width="2" stroke-linecap="round" stroke-linejoin="round"/>
<path d="M111.169 32.1927L108.874 29.8677C108.88 29.8156 108.883 29.7629 108.884 29.7102C108.884 29.5187 108.847 29.331 108.776 29.1671C108.706 29.0033 108.605 28.8695 108.485 28.7802C108.444 27.5727 108.37 25.3652 108.299 23.2952C108.285 22.8677 107.994 22.8702 107.981 23.2952L107.804 28.7552C107.653 28.8605 107.532 29.0342 107.46 29.2483C107.388 29.4624 107.37 29.7045 107.407 29.9355C107.445 30.1665 107.536 30.3729 107.667 30.5216C107.798 30.6703 107.96 30.7526 108.129 30.7552C108.286 30.7552 108.44 30.6842 108.567 30.5527L110.99 32.5527C111.258 32.7902 111.417 32.4427 111.169 32.1927Z" fill="#DDDDDD" stroke="#DDDDDD" stroke-miterlimit="10"/>
<path d="M45.0161 123.795L62.3529 128.4C62.3529 128.4 61.1645 131.128 62.7077 131.93L50.1937 136.75C50.1937 136.75 34.2103 131.578 33.6338 131.223C33.0573 130.868 32.4347 129.17 33.875 128.51C35.3153 127.85 45.0161 123.795 45.0161 123.795Z" fill="#F9F9F9" stroke="#DDDDDD" stroke-linecap="round" stroke-linejoin="round"/>
<path d="M50.1939 136.75C49.5464 136.643 49.1172 134.673 50.4173 134C51.6696 133.35 62.346 128.41 62.346 128.41" fill="#F9F9F9"/>
<path d="M50.1939 136.75C49.5464 136.643 49.1172 134.673 50.4173 134C51.6696 133.35 62.346 128.41 62.346 128.41" stroke="#DDDDDD" stroke-linecap="round" stroke-linejoin="round"/>
<path d="M35.9983 129.83L47.6573 133.748" stroke="#DDDDDD" stroke-linecap="round" stroke-linejoin="round"/>
<path d="M11.2559 130.915C13.1007 130.313 12.769 129.488 12.2865 127.893C11.804 126.298 10.3353 124.733 8.04541 125.413C5.75547 126.093 5.75547 129.183 7.54343 130.065C9.33139 130.948 10.3212 131.22 11.2559 130.915Z" fill="#F9F9F9" stroke="#DDDDDD" stroke-linecap="round" stroke-linejoin="round"/>
<path d="M11.6746 128.618C11.8927 129.204 12.0709 129.819 12.2067 130.453Z" fill="#F9F9F9"/>
<path d="M11.6746 128.618C11.8927 129.204 12.0709 129.819 12.2067 130.453" stroke="#DDDDDD" stroke-linecap="round" stroke-linejoin="round"/>
<path d="M10.8567 127.717C11.0189 128.067 11.2036 128.395 11.4083 128.697C11.6425 129.025 11.8926 128.895 11.8465 128.547C11.7599 128 11.5769 127.492 11.3143 127.07C11.2515 127 11.1726 126.965 11.0927 126.972C11.0127 126.978 10.9373 127.026 10.8808 127.106C10.8243 127.186 10.7906 127.293 10.7861 127.405C10.7817 127.518 10.8068 127.629 10.8567 127.717V127.717Z" fill="#F9F9F9" stroke="#DDDDDD" stroke-linecap="round" stroke-linejoin="round"/>
<path d="M91.4747 1V31.5225C91.3839 31.6148 91.3099 31.7361 91.2588 31.8765C91.2076 32.0168 91.1807 32.1722 91.1803 32.33V33.1625C91.1807 33.3203 91.2076 33.4758 91.2588 33.6161C91.3099 33.7564 91.3839 33.8777 91.4747 33.97V35.155H92.3066V33.97C92.3971 33.8775 92.4708 33.7561 92.5216 33.6157C92.5725 33.4754 92.5991 33.3201 92.5993 33.1625V32.33C92.5991 32.1725 92.5725 32.0172 92.5216 31.8768C92.4708 31.7365 92.3971 31.6151 92.3066 31.5225V1" fill="#DDDDDD"/>
<path d="M91.4747 1V31.5225C91.3839 31.6148 91.3099 31.7361 91.2588 31.8765C91.2076 32.0168 91.1807 32.1722 91.1803 32.33V33.1625C91.1807 33.3203 91.2076 33.4758 91.2588 33.6161C91.3099 33.7564 91.3839 33.8777 91.4747 33.97V35.155H92.3066V33.97C92.3971 33.8775 92.4708 33.7561 92.5216 33.6157C92.5725 33.4754 92.5991 33.3201 92.5993 33.1625V32.33C92.5991 32.1725 92.5725 32.0172 92.5216 31.8768C92.4708 31.7365 92.3971 31.6151 92.3066 31.5225V1" stroke="#DDDDDD" stroke-width="2" stroke-linecap="round" stroke-linejoin="round"/>
<path d="M55.506 1V31.5225C55.4156 31.6151 55.3419 31.7365 55.291 31.8768C55.2402 32.0172 55.2136 32.1725 55.2134 32.33V33.1625C55.2136 33.3201 55.2402 33.4754 55.291 33.6157C55.3419 33.7561 55.4156 33.8775 55.506 33.97V35.155H56.3379V33.97C56.4287 33.8777 56.5028 33.7564 56.5539 33.6161C56.6051 33.4758 56.632 33.3203 56.6324 33.1625V32.33C56.632 32.1722 56.6051 32.0168 56.5539 31.8765C56.5028 31.7361 56.4287 31.6148 56.3379 31.5225V1" fill="#DDDDDD"/>
<path d="M55.506 1V31.5225C55.4156 31.6151 55.3419 31.7365 55.291 31.8768C55.2402 32.0172 55.2136 32.1725 55.2134 32.33V33.1625C55.2136 33.3201 55.2402 33.4754 55.291 33.6157C55.3419 33.7561 55.4156 33.8775 55.506 33.97V35.155H56.3379V33.97C56.4287 33.8777 56.5028 33.7564 56.5539 33.6161C56.6051 33.4758 56.632 33.3203 56.6324 33.1625V32.33C56.632 32.1722 56.6051 32.0168 56.5539 31.8765C56.5028 31.7361 56.4287 31.6148 56.3379 31.5225V1" stroke="#DDDDDD" stroke-width="2" stroke-linecap="round" stroke-linejoin="round"/>
<path d="M94.0521 32.6401H53.7609V36.1801H94.0521V32.6401Z" fill="#DDDDDD" stroke="#DDDDDD" stroke-width="2" stroke-linecap="round" stroke-linejoin="round"/>
<path d="M94.5983 33.5526H94.052V35.2701H94.5983V33.5526Z" fill="#F9F9F9" stroke="#DDDDDD" stroke-linecap="round" stroke-linejoin="round"/>
<path d="M92.3226 36.1803H55.4885C55.1701 36.1803 54.912 36.5441 54.912 36.9928V37.0428C54.912 37.4915 55.1701 37.8553 55.4885 37.8553H92.3226C92.641 37.8553 92.8991 37.4915 92.8991 37.0428V36.9928C92.8991 36.5441 92.641 36.1803 92.3226 36.1803Z" fill="#F9F9F9" stroke="#DDDDDD" stroke-linecap="round" stroke-linejoin="round"/>
<path d="M89.5342 129.093L102.14 122.038L114.651 123.855C114.651 123.855 115.499 125.245 114.922 126.825L102.727 134.765L89.5342 129.093Z" fill="#F9F9F9" stroke="#DDDDDD" stroke-linecap="round" stroke-linejoin="round"/>
<path d="M102.876 132.43C102.876 132.43 113.047 125.878 114.651 123.855Z" fill="#F9F9F9"/>
<path d="M102.876 132.43C102.876 132.43 113.047 125.878 114.651 123.855" stroke="#DDDDDD" stroke-linecap="round" stroke-linejoin="round"/>
<path d="M89.5342 129.093C89.5342 129.093 102.14 131.563 102.876 132.43C103.21 132.825 103.242 134.885 102.506 134.76C101.77 134.635 89.5342 132.178 89.5342 132.178C89.5342 132.178 91.3204 130.983 89.5342 129.093Z" fill="#F9F9F9" stroke="#DDDDDD" stroke-linecap="round" stroke-linejoin="round"/>
<path d="M45.2094 100.25C46.726 102.938 50.4633 113.75 47.549 116.918C43.519 121.298 38.8575 109.193 38.0026 105.668L45.2094 100.25Z" fill="#FEBD9D"/>
<path d="M45.6315 99.8024C45.6315 99.8024 45.0639 100.42 44.1628 101.272C42.5274 102.82 39.794 105.135 37.3711 105.895C37.3711 105.895 37.121 105.19 36.7396 104.127L35.8882 101.75C35.3756 100.312 34.8062 98.7174 34.3202 97.3499L33.7543 95.7499C33.6497 95.4549 33.5557 95.1874 33.4759 94.9549C32.0568 90.9024 30.4693 81.3549 35.1308 80.7199C35.5291 80.6615 35.9302 80.6498 36.3299 80.6849H36.3494C36.4593 80.6974 36.5658 80.7124 36.6704 80.7324L36.7591 80.7499L36.9152 80.7899C36.9773 80.8049 37.0394 80.8249 37.0926 80.8449C37.1458 80.8649 37.1884 80.8774 37.2345 80.8974L37.3001 80.9199L37.4349 80.9824C37.4777 81.0006 37.5198 81.0223 37.5609 81.0474C37.604 81.0655 37.646 81.088 37.6868 81.1149C37.7358 81.1412 37.7837 81.1713 37.8305 81.2049C37.8734 81.2302 37.9155 81.2585 37.9564 81.2899V81.2899C38.012 81.3265 38.0652 81.3665 38.116 81.4099C38.1622 81.4449 38.2065 81.4824 38.2491 81.5199L38.359 81.6224C38.4883 81.7433 38.6127 81.8743 38.7315 82.0149C38.783 82.0749 38.8326 82.1324 38.8805 82.1974C39.042 82.4038 39.1954 82.6224 39.3399 82.8524C39.3878 82.9299 39.4375 83.0099 39.4854 83.1024C39.5333 83.1949 39.5599 83.2299 39.5971 83.2949C39.6574 83.3999 39.7178 83.5099 39.7745 83.6249C39.8153 83.6974 39.8543 83.7749 39.8934 83.8524C39.9537 83.9699 40.014 84.1024 40.0707 84.2174C40.1275 84.3324 40.1647 84.4099 40.2109 84.5149L40.3563 84.8399C40.406 84.9499 40.4539 85.0624 40.5035 85.1799C40.6171 85.4424 40.7288 85.7199 40.8423 86.0074C40.8778 86.1024 40.9168 86.1999 40.9541 86.2974C40.9913 86.3949 41.0552 86.5624 41.1066 86.6999C41.1581 86.8374 41.206 86.9499 41.2538 87.0949C41.3017 87.2399 41.3656 87.3974 41.4224 87.5549C41.5394 87.8799 41.6565 88.2074 41.7771 88.5374C43.1145 92.3049 44.4803 96.3799 45.1632 98.4424C45.4648 99.2924 45.6315 99.8024 45.6315 99.8024Z" fill="#FED81D"/>
<path d="M41.7948 88.5349C40.4892 88.5997 39.2535 89.3822 38.352 90.7149C38.2268 90.8996 38.1084 91.0931 37.9972 91.2949C36.8698 93.257 35.4109 94.7888 33.7543 95.7499C33.6497 95.4549 33.5557 95.1874 33.4759 94.9549C32.0568 90.9024 30.4693 81.3549 35.1308 80.7199C35.5291 80.6615 35.9302 80.6498 36.3299 80.6849H36.3494C36.4593 80.6974 36.5658 80.7124 36.6704 80.7324L36.7591 80.7499L36.9152 80.7899C36.9773 80.8049 37.0394 80.8249 37.0926 80.8449C37.1458 80.8649 37.1884 80.8774 37.2345 80.8974L37.3001 80.9199L37.4349 80.9824C37.4777 81.0006 37.5198 81.0223 37.5609 81.0474C37.604 81.0655 37.646 81.088 37.6868 81.1149C37.7358 81.1412 37.7837 81.1713 37.8305 81.2049C37.8734 81.2302 37.9155 81.2585 37.9564 81.2899V81.2899C38.012 81.3265 38.0652 81.3665 38.116 81.4099C38.1622 81.4449 38.2065 81.4824 38.2491 81.5199L38.359 81.6224C38.4883 81.7433 38.6127 81.8743 38.7315 82.0149C38.783 82.0749 38.8326 82.1324 38.8805 82.1974C39.042 82.4038 39.1954 82.6224 39.3399 82.8524C39.3878 82.9299 39.4375 83.0099 39.4854 83.1024C39.5333 83.1949 39.5599 83.2299 39.5971 83.2949C39.6575 83.3999 39.7178 83.5099 39.7745 83.6249C39.8153 83.6974 39.8543 83.7749 39.8934 83.8524C39.9537 83.9699 40.014 84.1024 40.0707 84.2174C40.1275 84.3324 40.1647 84.4099 40.2109 84.5149L40.3563 84.8399C40.406 84.9499 40.4539 85.0624 40.5035 85.1799C40.6171 85.4424 40.7288 85.7199 40.8423 86.0074C40.8778 86.1024 40.9168 86.1999 40.9541 86.2974C40.9913 86.3949 41.0552 86.5624 41.1066 86.6999C41.1581 86.8374 41.206 86.9499 41.2538 87.0949C41.3017 87.2399 41.3656 87.3974 41.4224 87.5549C41.5625 87.8774 41.6795 88.2049 41.7948 88.5349Z" fill="#FED81D"/>
<path d="M44.1627 101.273C42.5273 102.82 39.7939 105.135 37.371 105.895C37.371 105.895 37.1209 105.19 36.7395 104.128L35.8881 101.75C35.3755 100.313 34.8061 98.7179 34.3201 97.3504L37.0907 93.5529C37.1989 93.4954 39.3186 93.6479 38.664 96.1529C38.0095 98.6579 36.8548 100.335 37.7967 101.353C38.7385 102.37 41.4595 94.1654 43.8594 100.243C43.9902 100.567 44.092 100.913 44.1627 101.273V101.273Z" fill="#FCC71F"/>
<path d="M38.6518 86.8577C38.6518 86.9902 38.6518 87.1252 38.6376 87.2652C38.6074 87.9627 38.5524 88.7452 38.4779 89.6252C38.4513 89.9577 38.4088 90.3202 38.352 90.7152C38.2864 91.1927 38.2012 91.7152 38.1037 92.2627C37.7933 93.9827 37.3339 96.0352 36.7929 98.2252C36.729 98.4752 36.6634 98.7502 36.596 99.0127C36.4771 99.4902 36.353 99.9702 36.2288 100.453C36.1176 100.883 36.0041 101.315 35.8882 101.75C34.5615 106.75 33.0342 111.91 32.0764 115.07C29.9266 115.229 27.8406 115.404 25.8185 115.598C25.109 115.663 24.4054 115.731 23.7078 115.803C22.7251 115.906 21.7613 116.011 20.8165 116.118C18.4006 116.395 16.116 116.695 13.9822 117.015C14.3706 114.323 15.4225 107.19 16.6588 99.7402C17.3399 95.6402 18.0778 91.4427 18.7873 87.8377C19.2893 85.3002 19.7806 83.0577 20.2294 81.3377C20.6977 79.5652 21.1163 78.3577 21.471 77.9752C22.702 76.6502 23.7627 76.2252 25.0913 76.4552C25.2367 76.4827 25.384 76.5152 25.5365 76.5552C25.6891 76.5952 25.8434 76.6452 26.003 76.7002C26.0616 76.7177 26.1201 76.7402 26.1804 76.7627C26.2407 76.7852 26.3063 76.8127 26.3702 76.8377L26.5706 76.9177C26.8864 77.051 27.2216 77.2069 27.5764 77.3852L27.7963 77.4952C27.9737 77.5852 28.1511 77.6802 28.3426 77.7827C28.6974 77.9702 29.0734 78.1802 29.4743 78.4027C30.4765 78.9652 31.7961 79.7202 34.5934 80.5502C34.7796 80.6027 34.9588 80.6602 35.1255 80.7152L35.2745 80.7627L35.4182 80.8127C35.4891 80.8352 35.5619 80.8627 35.6293 80.8877C35.6967 80.9127 35.7658 80.9377 35.8315 80.9627C35.9645 81.0127 36.0922 81.0627 36.2146 81.1177C36.4115 81.2052 36.596 81.2952 36.768 81.3927L36.9294 81.4877C37.0323 81.5552 37.1299 81.6227 37.2203 81.6927L37.341 81.7877C37.5276 81.9419 37.7004 82.1274 37.8553 82.3402L37.8855 82.3827L37.9281 82.4477L37.9848 82.5377C38.0409 82.6313 38.0936 82.729 38.1427 82.8302C38.1693 82.8877 38.1941 82.9427 38.219 83.0052C38.2438 83.0677 38.258 83.1002 38.2757 83.1527L38.3006 83.2227C38.4445 83.6578 38.5403 84.1216 38.5844 84.5977C38.5844 84.6602 38.5968 84.7227 38.6039 84.7902C38.611 84.8577 38.6039 84.8727 38.6145 84.9177C38.6252 84.9627 38.6252 85.0602 38.6287 85.1327C38.6323 85.2052 38.6376 85.2927 38.6394 85.3827V85.4902C38.6394 85.5777 38.6394 85.6677 38.6394 85.7602C38.6677 86.0977 38.6642 86.4627 38.6518 86.8577Z" fill="#FED81D"/>
<path d="M32.0764 115.07C33.0343 111.91 34.5597 106.758 35.8882 101.75C36.0065 101.315 36.12 100.883 36.2288 100.453C36.353 99.9701 36.4771 99.4901 36.596 99.0126C36.6634 98.7501 36.729 98.4851 36.7929 98.2251C37.325 96.0351 37.7933 93.9751 38.1037 92.2626" stroke="#FCC71F" stroke-width="0.75" stroke-linecap="round" stroke-linejoin="round"/>
<path d="M38.4778 89.625C38.4512 89.9575 38.4086 90.32 38.3519 90.715C38.2267 90.8997 38.1083 91.0932 37.9971 91.295C36.8697 93.2571 35.4108 94.7889 33.7542 95.75C31.1858 97.1825 28.1828 96.8275 26.2423 91.225C25.9 90.225 25.5647 89.33 25.2401 88.5075C23.4948 84.115 21.9427 82.0075 20.2328 81.3424C20.7011 79.5699 21.1197 78.3624 21.4744 77.9799C22.7054 76.6549 23.7661 76.2299 25.0947 76.4599C25.2401 76.4874 25.3874 76.5199 25.5399 76.5599C25.6925 76.5999 25.8468 76.6499 26.0064 76.7049C26.0649 76.7224 26.1235 76.7449 26.1838 76.7674C26.2441 76.7899 26.3097 76.8174 26.3736 76.8424L26.574 76.9224C26.8897 77.0558 27.225 77.2116 27.5797 77.3899L27.7997 77.4999C27.9771 77.5899 28.1544 77.6849 28.346 77.7874C28.4932 77.8674 28.6476 77.9474 28.8036 78.0374C28.9083 78.0924 29.0112 78.1499 29.1194 78.2124L29.4741 78.41C30.4763 78.9725 31.796 79.7275 34.5932 80.5575C34.7795 80.61 34.9586 80.6675 35.1254 80.7225C38.4068 81.7725 39.0507 82.9275 38.4778 89.625Z" fill="#FED81D"/>
<path d="M36.3351 80.6852C35.7657 83.1602 34.3432 85.7227 32.1703 85.2577C29.7988 84.7577 28.3372 81.3052 28.3478 77.7877C28.7026 77.9752 29.0786 78.1852 29.4795 78.4077C30.4817 78.9702 31.8014 79.7252 34.5986 80.5552C34.7848 80.6077 34.964 80.6652 35.1307 80.7202C35.5308 80.6615 35.9337 80.6498 36.3351 80.6852V80.6852Z" fill="white"/>
<path d="M27.2801 112.678C26.3454 113.728 23.8089 115.178 20.8165 116.118C18.4006 116.395 16.116 116.695 13.9822 117.015C14.3706 114.323 15.4225 107.19 16.6588 99.7402C17.3399 95.6402 18.0778 91.4427 18.7873 87.8376C24.0093 88.8726 25.4017 96.6652 23.0302 99.3002C20.3695 102.265 20.0769 104.728 23.4452 104.663C26.8136 104.598 29.9124 109.725 27.2801 112.678Z" fill="#FCC71F"/>
<path d="M35.6063 71.1999C35.5815 71.5549 35.5548 71.8924 35.5318 72.2149C35.3225 75.0999 35.2285 76.8724 35.2143 78.4999C35.2143 79.3599 35.2143 80.1799 35.2569 81.1024C35.2569 81.1024 34.4267 84.9424 31.4699 83.3524C29.3839 82.2274 29.4797 78.4149 29.4797 78.4149C30.0899 75.6879 30.4959 72.8785 30.6912 70.0324C30.7621 68.6049 35.9894 66.0349 35.6063 71.1999Z" fill="#FEBD9D"/>
<path d="M35.5316 72.2151C35.3223 75.1001 35.2283 76.8726 35.2141 78.5001C33.5184 79.2251 31.7517 76.4326 32.7308 73.3676C33.4404 71.1951 34.7104 71.6251 35.5316 72.2151Z" fill="#F4A789"/>
<path d="M45.6314 99.8028C45.6314 99.8028 41.126 104.715 37.371 105.895C37.371 105.895 37.1209 105.19 36.7395 104.128C39.8259 102.628 43.0577 100.44 45.1809 98.4403C45.4647 99.2928 45.6314 99.8028 45.6314 99.8028Z" fill="white"/>
<path d="M36.7645 75.0328C35.7712 76.8553 34.0063 76.4303 31.2552 72.4953C30.214 70.9953 29.0131 68.5778 29.0451 66.6653C29.077 64.7528 30.7195 60.7253 33.8342 63.0378C35.0369 63.9328 35.8971 65.6578 36.4435 67.5378C36.65 68.2568 36.8143 68.9984 36.9348 69.7553C37.2984 72.0478 37.2257 74.1853 36.7645 75.0328Z" fill="#FEBD9D"/>
<path d="M33.3588 69.6227C33.1902 70.2152 32.4967 70.3852 31.8085 70.0002C31.1203 69.6152 30.6963 68.8202 30.8648 68.2277C31.0333 67.6352 31.7251 67.4627 32.4151 67.8477C33.1051 68.2327 33.5255 69.0277 33.3588 69.6227Z" fill="#F4A789"/>
<path d="M36.9294 69.75C36.4966 69.975 36.0833 69.9125 35.8917 69.55C35.6274 69.05 35.8722 68.1575 36.4381 67.5325C36.6446 68.2515 36.8089 68.9931 36.9294 69.75Z" fill="#F4A789"/>
<path d="M36.227 68.0703C36.9147 68.0703 37.4722 67.2846 37.4722 66.3153C37.4722 65.346 36.9147 64.5603 36.227 64.5603C35.5393 64.5603 34.9818 65.346 34.9818 66.3153C34.9818 67.2846 35.5393 68.0703 36.227 68.0703Z" stroke="#683F1D" stroke-miterlimit="10"/>
<path d="M33.4528 67.2501C33.4524 67.3224 33.4673 67.3932 33.4955 67.4535C33.5238 67.5139 33.5641 67.5611 33.6114 67.5891C33.6587 67.6171 33.7108 67.6247 33.7612 67.6109C33.8115 67.5971 33.8578 67.5625 33.8942 67.5116C33.9306 67.4606 33.9555 67.3956 33.9656 67.3247C33.9757 67.2538 33.9707 67.1803 33.9512 67.1135C33.9316 67.0466 33.8984 66.9895 33.8558 66.9493C33.8132 66.909 33.763 66.8876 33.7117 66.8876C33.6434 66.8876 33.5778 66.9257 33.5292 66.9936C33.4807 67.0615 33.4532 67.1537 33.4528 67.2501Z" fill="#683F1D"/>
<path d="M35.2567 66.6802C35.2567 66.7524 35.2719 66.8229 35.3004 66.883C35.3288 66.943 35.3693 66.9898 35.4166 67.0174C35.4639 67.045 35.516 67.0523 35.5662 67.0382C35.6164 67.0241 35.6626 66.9893 35.6988 66.9383C35.735 66.8872 35.7597 66.8222 35.7697 66.7514C35.7797 66.6806 35.7745 66.6072 35.7549 66.5405C35.7353 66.4738 35.7021 66.4168 35.6596 66.3767C35.617 66.3366 35.5669 66.3152 35.5157 66.3152C35.447 66.3152 35.3811 66.3536 35.3326 66.4221C35.284 66.4905 35.2567 66.5834 35.2567 66.6802Z" fill="#683F1D"/>
<path d="M31.5141 72.235C30.8791 72.75 29.8929 72.75 29.5523 71.325C29.2118 69.9 30.182 69.185 30.7319 69.325C31.4095 69.5 31.7855 70.9 31.5141 72.235Z" fill="#FEBD9D"/>
<path d="M31.1752 70.9303C30.8666 70.1053 30.1695 69.9303 29.8733 71.0478" stroke="#F4A789" stroke-width="0.75" stroke-linecap="round" stroke-linejoin="round"/>
<path d="M31.0032 70.59C30.2494 70.1125 30.0986 71.925 30.9678 71.4675" stroke="#F4A789" stroke-width="0.75" stroke-linecap="round" stroke-linejoin="round"/>
<path d="M36.0478 66.3675C35.7391 65.5377 35.3426 64.779 34.8718 64.1175C34.1073 64.7225 33.5947 64.17 33.5947 64.17C33.5947 64.17 32.8497 65.2925 32.1544 65.02C31.4591 64.7475 31.5105 64.065 31.0724 63.91C30.6343 63.755 30.2121 64.41 30.2121 64.5975C30.2121 64.785 30.4392 64.9025 30.856 66.295C31.2728 67.6875 31.1487 69.64 30.2973 69.86C30.0259 69.93 28.6689 69.6675 27.9914 68.225C27.9778 68.2012 27.9653 68.1762 27.9541 68.15C27.2925 66.6375 27.6792 65.55 27.9044 65.15C28.1297 64.75 28.4827 64.9275 28.5324 64.5475C28.8197 62.385 30.2334 60.525 31.7482 60.325C33.263 60.125 33.2151 60.9025 33.2151 60.9025C33.2151 60.9025 34.7281 60.74 35.5494 62.2125C35.5991 62.3 35.6452 62.3875 35.686 62.475C35.9605 63.0372 36.1365 63.6832 36.1994 64.3599C36.2623 65.0366 36.2103 65.7246 36.0478 66.3675V66.3675Z" fill="#7F542D"/>
<path d="M36.0478 66.3675C35.7391 65.5377 35.3425 64.779 34.8718 64.1175C34.1073 64.7225 33.5947 64.17 33.5947 64.17C33.5947 64.17 32.8497 65.2925 32.1544 65.02C31.4591 64.7475 31.5105 64.065 31.0724 63.91C30.6342 63.755 30.2121 64.41 30.2121 64.5975C30.2121 64.785 30.4391 64.9025 30.856 66.295C31.2728 67.6875 31.1486 69.64 30.2972 69.86C30.0258 69.93 28.6689 69.6675 27.9913 68.225C29.7651 67.76 29.8236 66.43 29.4441 64.29C29.1957 62.88 31.0404 61.56 32.071 62.4575C32.7131 63.02 34.4762 62.8425 35.6859 62.475C35.9605 63.0371 36.1364 63.6831 36.1994 64.3598C36.2623 65.0365 36.2103 65.7246 36.0478 66.3675V66.3675Z" fill="#683F1D"/>
<path d="M33.2186 60.9052C32.6061 60.9027 31.9995 61.0727 31.4342 61.4052" stroke="#BF8228" stroke-width="0.75" stroke-linecap="round" stroke-linejoin="round"/>
<path d="M33.4102 62.4249C33.6904 62.4949 34.5738 63.5674 34.8717 64.1199C34.8717 64.1199 35.3666 64.6199 35.6061 63.9099" stroke="#BF8228" stroke-width="0.75" stroke-linecap="round" stroke-linejoin="round"/>
<path d="M31.7908 63.0602C32.0373 62.7552 32.518 62.8402 32.855 63.3602C33.0705 63.6789 33.3172 63.9525 33.5876 64.1727" stroke="#BF8228" stroke-width="0.75" stroke-linecap="round" stroke-linejoin="round"/>
<path d="M34.235 65.5C34.1552 66.75 34.4337 67.3375 34.815 67.37C35.1964 67.4025 35.7019 67.5825 35.6062 68.425" stroke="#F4A789" stroke-width="0.75" stroke-linecap="round" stroke-linejoin="round"/>
<path d="M33.7952 70.0253C34.3222 70.1536 34.8568 70.2114 35.3916 70.1978C35.3916 70.1978 35.2142 71.1578 34.5561 71.0478C34.3685 71.014 34.1935 70.8965 34.0566 70.7126C33.9197 70.5286 33.8281 70.2878 33.7952 70.0253V70.0253Z" fill="white" stroke="#F4A789" stroke-width="0.75" stroke-linecap="round" stroke-linejoin="round"/>
<path d="M32.048 67.6252C32.048 67.9714 32.1208 68.3097 32.2572 68.5975C32.3937 68.8853 32.5876 69.1096 32.8145 69.242C33.0413 69.3745 33.291 69.4092 33.5318 69.3416C33.7727 69.2741 33.9939 69.1074 34.1676 68.8627C34.3412 68.6179 34.4595 68.3061 34.5074 67.9667C34.5553 67.6272 34.5307 67.2753 34.4367 66.9556C34.3428 66.6358 34.1836 66.3625 33.9794 66.1702C33.7752 65.9779 33.5352 65.8752 33.2896 65.8752C32.9603 65.8752 32.6445 66.0596 32.4116 66.3878C32.1788 66.716 32.048 67.1611 32.048 67.6252V67.6252Z" stroke="#683F1D" stroke-miterlimit="10"/>
<path d="M34.4266 64.77C34.4035 65.395 35.6469 65.27 35.6576 65C35.6682 64.73 34.4496 64.175 34.4266 64.77Z" fill="#7F542D"/>
<path d="M32.3477 66.235C32.4754 66.595 33.6957 65.665 33.4119 65.015C33.1281 64.365 32.1721 65.75 32.3477 66.235Z" fill="#7F542D"/>
<path d="M31.5141 72.235C31.1983 72.497 30.8279 72.5969 30.4658 72.5175" stroke="#F4A789" stroke-width="0.75" stroke-linecap="round" stroke-linejoin="round"/>
<path d="M23.9756 91.7227C22.4094 94.9302 21.127 98.1677 19.9722 101.148C17.1218 108.5 15.4917 113.85 11.9779 113.785C8.77266 113.723 8.43032 107.085 12.1677 96.2852L11.224 95.0477C11.224 95.0477 13.9716 89.4026 16.6145 83.7326C19.002 78.6151 21.0915 74.9051 25.0967 76.4551C27.4611 77.3776 26.7569 86.0001 23.9756 91.7227Z" fill="#FEBD9D"/>
<path d="M25.2403 88.5002C24.8871 89.6226 24.4639 90.6985 23.9756 91.7152C22.734 94.2502 21.6786 96.8027 20.719 99.2327C20.4618 99.8777 20.2134 100.515 19.9722 101.14C18.8509 100.761 17.7449 100.297 16.6588 99.7502C14.9932 98.8777 13.3206 97.7502 12.1552 96.2877L11.2115 95.0502C11.2115 95.0502 11.5131 94.4327 12.0097 93.4052C13.0155 91.3177 14.8318 87.5327 16.602 83.7352C17.01 82.8577 17.4109 82.0227 17.8135 81.2477C19.7647 77.4977 21.7655 75.1727 25.086 76.4577C27.0549 77.2327 26.9076 83.2277 25.2403 88.5002Z" fill="#FED81D"/>
<path d="M20.719 99.2498C20.4618 99.8948 20.2135 100.532 19.9722 101.157C17.5173 100.302 14.1188 98.7573 12.1676 96.2973L11.224 95.0598C11.224 95.0598 11.5255 94.4423 12.0222 93.4148C13.4785 95.6423 15.4296 97.0598 20.719 99.2498Z" fill="white"/>
<path d="M25.2401 88.4999C23.4947 84.1074 21.9427 81.9999 20.2328 81.3349C19.4438 81.0492 18.6195 81.0168 17.8204 81.2399C19.7716 77.4899 21.7724 75.1649 25.0929 76.4499C27.0547 77.2324 26.9075 83.2274 25.2401 88.4999Z" fill="#FED81D"/>
<path d="M25.2509 88.4698C24.8966 89.6055 24.4697 90.6933 23.9756 91.7199C22.4093 94.9274 21.1269 98.1649 19.9722 101.145" stroke="#FCC71F" stroke-width="0.75" stroke-linecap="round" stroke-linejoin="round"/>
<path d="M25.0345 84.0601C25.3893 85.8476 25.9515 86.6776 24.795 89.8101" stroke="#FCC71F" stroke-width="0.75" stroke-linecap="round" stroke-linejoin="round"/>
<path d="M9.85822 108.895C11.2187 104.272 16.2012 104.12 22.2179 107.212C28.2345 110.305 34.8489 113.402 35.851 113.785C36.8532 114.167 36.6652 118.98 34.1429 118.712C31.6206 118.445 22.0813 119.61 16.4992 118.147C10.9172 116.685 8.96247 111.917 9.85822 108.895Z" fill="#FEBD9D"/>
<path d="M12.6643 105.563C14.2607 104.898 16.3573 104.995 18.7537 105.758" stroke="#F4A789" stroke-width="0.75" stroke-linecap="round" stroke-linejoin="round"/>
<path d="M50.2077 113.928C52.8684 108.538 54.2413 87.2578 54.2413 87.2578C54.2413 87.2578 56.9108 85.5078 57.3543 85.0853C57.7977 84.6628 58.6598 82.5478 58.8088 81.9153C58.8088 81.9153 59.5573 81.2703 59.5342 80.9153C59.5112 80.5603 59.2362 80.5603 59.2362 80.5603C59.2362 80.5603 59.4136 79.7528 58.4469 79.9803C58.4013 79.8957 58.3395 79.8311 58.2689 79.794C58.1983 79.7568 58.1216 79.7486 58.0478 79.7703C57.7605 79.8178 54.3406 81.2528 54.3406 81.2528C54.3406 81.2528 55.7366 79.8828 55.7596 79.3353C55.7827 78.7878 55.3109 79.0003 54.9898 79.2728C54.3395 79.8127 53.6401 80.2256 52.911 80.5003C52.5686 80.6403 51.492 81.8553 50.5199 84.4828C49.5479 87.1103 43.8435 104.41 43.2209 106.75C41.1846 114.445 45.7786 122.87 50.2077 113.928Z" fill="#FEBD9D"/>
<path d="M45.2679 100.233C44.2604 103.373 43.4356 105.953 43.2209 106.75" stroke="#F4A789" stroke-width="0.75" stroke-linecap="round" stroke-linejoin="round"/>
<path d="M57.3543 85.0853C57.7995 84.6653 58.6598 82.5478 58.8088 81.9153C58.8088 81.9153 59.5573 81.2703 59.5343 80.9153C59.5112 80.5603 59.2363 80.5603 59.2363 80.5603C59.2363 80.5603 59.4137 79.7528 58.447 79.9803C58.4013 79.8957 58.3396 79.8311 58.2689 79.794C58.1983 79.7568 58.1217 79.7486 58.0479 79.7703C57.7605 79.8178 54.3407 81.2528 54.3407 81.2528C54.3407 81.2528 55.7366 79.8828 55.7597 79.3353C55.7827 78.7878 55.3109 79.0003 54.9899 79.2728C54.3395 79.8127 53.6402 80.2256 52.911 80.5003" stroke="#F4A789" stroke-width="0.75" stroke-linecap="round" stroke-linejoin="round"/>
<path d="M54.3407 81.25L53.8085 81.765C53.8085 81.765 54.2449 83.1325 53.1718 84.265" stroke="#F4A789" stroke-width="0.75" stroke-linecap="round" stroke-linejoin="round"/>
<path d="M55.2703 82.0426L58.4471 79.9801" stroke="#F4A789" stroke-width="0.75" stroke-linecap="round" stroke-linejoin="round"/>
<path d="M56.4817 83.555C56.5083 83.53 57.4448 82.9075 57.4448 82.9075C57.4448 82.9075 58.408 80.7925 58.6634 80.685C58.9189 80.5775 59.2115 80.7525 58.8089 81.915" stroke="#F4A789" stroke-width="0.75" stroke-linecap="round" stroke-linejoin="round"/>
<path d="M55.7898 82.7602L58.5516 80.7927" stroke="#F4A789" stroke-width="0.75" stroke-linecap="round" stroke-linejoin="round"/>
<path d="M59.2363 80.5601L58.8798 80.6819" stroke="#F4A789" stroke-width="0.75" stroke-linecap="round" stroke-linejoin="round"/>
<path d="M48.4146 107.165C46.8466 113.805 44.1097 123.303 44.1097 123.303L25.8239 129.15L13.1556 124.92V123.618L27.6385 119.313C28.6815 115.588 30.0118 108.495 30.6698 108.313C31.7465 108.013 46.8023 104.708 47.9393 104.665C49.0142 104.623 48.7552 105.723 48.4146 107.165Z" fill="#F9F9F9" stroke="#DDDDDD" stroke-linecap="round" stroke-linejoin="round"/>
<path d="M27.6385 119.312L25.6589 126.678" stroke="#DDDDDD" stroke-linecap="round" stroke-linejoin="round"/>
<path d="M25.8523 127.718L25.8239 129.15L13.1556 124.92V123.618L25.8523 127.718Z" fill="#DDDDDD" stroke="#DDDDDD" stroke-linecap="round" stroke-linejoin="round"/>
<path d="M94.5787 102.518C94.5645 102.745 94.5521 102.97 94.5397 103.19C94.0821 110.44 93.5765 114.163 93.2821 115.873L92.6932 115.808C91.8512 115.714 91.0034 115.627 90.1496 115.545C85.2345 115.063 80.1846 114.715 75.1009 114.483C73.6453 114.416 72.186 114.358 70.7233 114.31C71.7875 111.19 73.1143 105.44 74.2105 100.31C74.3577 99.605 74.5049 98.915 74.6433 98.2425C74.7616 97.6825 74.8739 97.1392 74.9803 96.6125C74.9945 96.5375 75.0105 96.4625 75.0264 96.3875C75.0424 96.3125 75.0637 96.1975 75.085 96.1025C75.1329 95.8675 75.179 95.63 75.2269 95.3925C75.2517 95.2825 75.273 95.1725 75.2943 95.0625C75.3297 94.89 75.3635 94.7175 75.3972 94.5475C75.4309 94.3775 75.4575 94.2525 75.4858 94.11C75.5302 93.8875 75.5728 93.6675 75.6153 93.4575C75.6402 93.3225 75.6685 93.19 75.6916 93.0625L75.869 92.195C75.8903 92.095 75.9062 92.0025 75.9222 91.9175C75.9577 91.745 75.9843 91.6025 76.0073 91.4975C76.0073 91.4725 76.0162 91.4475 76.0197 91.4275C76.0233 91.4075 76.0286 91.3825 76.0322 91.3625C76.0326 91.3517 76.0326 91.3408 76.0322 91.33V91.2975C76.0481 91.21 76.0641 91.13 76.0783 91.0475L76.1421 90.715C76.2379 90.215 76.2894 89.9475 76.2894 89.9475C75.9755 90.1242 75.635 90.1861 75.2996 90.1275C73.7635 89.965 71.509 88.3125 71.2394 86.1275C71.2336 86.0845 71.2294 86.0411 71.227 85.9975C71.2185 85.9147 71.2138 85.8312 71.2128 85.7475C71.213 85.0627 71.3816 84.3992 71.69 83.87C73.517 80.4475 74.716 79.2425 75.9133 78.6475C76.057 78.58 76.1971 78.5175 76.3408 78.46C77.6906 77.9375 81.8288 77.535 81.8288 77.535C82.3273 76.535 83.3046 73.19 83.803 69.8975C84.376 66.105 86.5205 65.53 87.6592 67.6475C88.0867 68.44 88.3687 69.6075 88.3847 71.1225C88.3971 73.0075 88.4184 75.305 88.4308 76.6825C88.4397 77.4325 88.445 77.9 88.445 77.9C88.445 77.9 90.4582 76.8325 93.6812 76.7675C94.3641 76.755 95.0328 76.9825 95.5277 77.6225C96.2585 78.5675 96.9467 80.465 97.5675 82.765C99.0468 88.25 100.134 96.015 100.489 98.825C100.959 102.708 94.5787 102.518 94.5787 102.518Z" fill="#A7CAF0"/>
<path d="M95.9125 97.37C94.3271 97.8769 92.6746 97.7829 91.1233 97.0975C89.4666 98.145 83.379 99.7575 79.3047 99.2075C75.2303 98.6575 75.0565 96.6375 75.0565 96.6375L74.9731 96.61C75.4609 94.2225 76.0374 91.295 76.0374 91.295C76.0374 91.295 76.2893 91.3675 76.7469 91.47C80.6839 92.2754 84.6914 92.0807 88.5797 90.895C88.5797 90.895 91.7725 92.165 94.9547 91.225L95.9125 97.37Z" fill="#83ADDF"/>
<path d="M96.2568 99.5828C96.2568 99.5828 90.7421 100.683 85.9689 101.748C81.1957 102.813 76.2132 102.248 74.2141 100.308L74.6487 98.2378C76.4366 100.425 78.9643 100.97 83.5583 100.695C88.1524 100.42 91.0578 98.4778 91.0578 98.4778C93.4382 99.3703 95.2315 98.9778 96.1166 98.6378L96.2568 99.5828Z" fill="#83ADDF"/>
<path d="M97.5764 82.7724C95.0807 82.5049 92.0653 84.1824 89.5571 87.3349C87.386 90.0599 83.1946 93.5149 80.0338 89.0849C79.3934 88.1991 78.647 87.4797 77.829 86.9599C75.9399 85.7499 73.6163 85.3899 71.2217 85.7499C71.2219 85.0652 71.3905 84.4016 71.6988 83.8724C73.5258 80.4499 74.7249 79.2449 75.9222 78.6499C76.0658 78.5824 76.206 78.5199 76.3497 78.4624C77.6995 77.9399 81.8377 77.5374 81.8377 77.5374C82.3361 76.5374 83.3135 73.1924 83.8119 69.8999C84.3848 66.1074 86.5293 65.5324 87.6681 67.6499C88.0956 68.4424 88.3776 69.6099 88.3935 71.1249C88.406 73.0099 88.4273 75.3074 88.4397 76.6849C88.4485 77.4349 88.4539 77.9024 88.4539 77.9024C88.4539 77.9024 90.4671 76.8349 93.69 76.7699C94.3729 76.7574 95.0416 76.9849 95.5365 77.6249C96.2673 78.5749 96.9555 80.4724 97.5764 82.7724Z" fill="#A7CAF0"/>
<path d="M94.5397 103.19C94.0821 110.44 93.5765 114.162 93.2821 115.872L92.6932 115.807C91.8513 115.714 91.0034 115.627 90.1496 115.545C85.2345 115.062 80.1846 114.715 75.101 114.482C76.9404 111.757 80.2892 110.665 82.4497 112.205C84.8744 113.932 88.8353 112.31 87.7923 108.165C87.1732 105.707 87.5617 102.772 91.0507 100.707L94.5397 103.19Z" fill="#A7CAF0"/>
<path d="M95.5365 77.6299C94.4989 77.8624 93.1242 78.6674 91.4409 79.5549C90.8485 79.8674 90.2205 80.1899 89.5572 80.4999C87.4084 81.5458 85.1691 82.1765 82.9002 82.3749C82.0493 82.4462 81.196 82.437 80.346 82.3474C79.6941 82.2859 79.0495 82.1181 78.425 81.8474C77.0893 81.2374 76.3443 80.1599 75.9204 78.6599C76.0641 78.5924 76.206 78.5299 76.3497 78.4724C76.9581 78.2374 78.1376 78.0274 79.2445 77.8649C79.9451 77.7599 80.6209 77.6799 81.1051 77.6274C81.5521 77.5749 81.8377 77.5474 81.8377 77.5474C82.3361 76.5474 83.3135 73.2024 83.8119 69.9099C84.3848 66.1174 86.5293 65.5424 87.6681 67.6599C88.0956 68.4524 88.3776 69.6199 88.3936 71.1349C88.406 73.0199 88.4273 75.3174 88.4397 76.6949C88.4486 77.4449 88.4539 77.9124 88.4539 77.9124C88.9345 77.6793 89.4258 77.4922 89.9243 77.3524C90.4068 77.2074 90.9992 77.0649 91.6857 76.9549C92.3513 76.8495 93.0203 76.7911 93.69 76.7799C94.3546 76.7736 95.0027 77.0719 95.5365 77.6299V77.6299Z" fill="#B25E47"/>
<path d="M88.4397 76.6904C86.7351 76.5479 85.2824 74.6004 85.6424 72.1204C86.0451 69.3479 86.8114 68.0304 87.6681 67.6554C88.0956 68.4479 88.3776 69.6154 88.3936 71.1304C88.406 73.0154 88.4273 75.3129 88.4397 76.6904Z" fill="#914839"/>
<path d="M91.6856 76.95C91.5496 77.8063 91.4683 78.6781 91.4426 79.555C90.8501 79.8675 90.2222 80.19 89.5588 80.5C89.5877 79.4317 89.711 78.3727 89.926 77.3475C90.4067 77.2025 90.9991 77.06 91.6856 76.95Z" fill="#FED81D"/>
<path d="M81.1053 77.6251C80.7377 79.1583 80.4833 80.7408 80.3462 82.3476C79.6943 82.2861 79.0497 82.1183 78.4252 81.8476C78.6086 80.4867 78.883 79.1532 79.2447 77.8651C79.9453 77.7501 80.6229 77.6776 81.1053 77.6251Z" fill="#FED81D"/>
<path d="M97.1366 107.767C96.9486 110.332 96.6044 112.882 96.0067 114.665C95.6377 115.762 95.1712 116.565 94.5788 116.9C93.3886 117.577 92.3651 117.4 91.5492 116.762C90.0876 115.625 89.2965 113.037 89.4207 111.36C89.4207 111.28 89.4313 111.19 89.4384 111.11C89.4526 110.86 89.465 110.592 89.4774 110.292C89.4774 110.195 89.4774 110.092 89.4916 109.987C89.4916 109.967 89.4916 109.947 89.4916 109.925C89.4916 109.85 89.4916 109.772 89.4916 109.695C89.4916 109.557 89.5023 109.412 89.5058 109.27C89.5094 109.127 89.5058 109.045 89.5165 108.927C89.5165 108.887 89.5165 108.847 89.5165 108.807C89.5165 108.691 89.52 108.571 89.5271 108.447C89.5271 108.322 89.5271 108.197 89.5395 108.065C89.5395 107.78 89.5537 107.492 89.5608 107.192C89.5679 106.892 89.5732 106.66 89.5803 106.387C89.5803 106.27 89.5803 106.152 89.5803 106.037C89.5963 105.405 89.6087 104.747 89.6229 104.08C89.6318 103.66 89.6406 103.235 89.6513 102.807L89.6619 102.28L89.6779 101.557L89.6885 101.057C89.6885 100.767 89.7045 100.482 89.7098 100.197C89.7204 99.7847 89.7311 99.3747 89.7417 98.9722C89.7417 98.7072 89.7577 98.4447 89.7648 98.1847C89.779 97.6972 89.7949 97.2297 89.8109 96.7772L97.3139 98.2497C97.4051 101.424 97.3459 104.604 97.1366 107.767V107.767Z" fill="#A7CAF0"/>
<path d="M89.8231 96.7502C89.6457 101.555 89.5907 108.75 89.4098 111.355" stroke="#83ADDF" stroke-width="0.75" stroke-linecap="round" stroke-linejoin="round"/>
<path d="M97.1364 107.767C96.9484 110.332 96.6043 112.882 96.0066 114.665C95.6376 115.762 95.1711 116.565 94.5787 116.9C93.3885 117.577 92.365 117.4 91.5491 116.762C91.9704 116.497 92.4147 116.312 92.8705 116.21C94.8625 115.732 94.2346 112.28 95.1002 109.882C95.4496 108.925 96.0403 108.132 97.1364 107.767Z" fill="#A7CAF0"/>
<path d="M78.6892 122.038C78.1819 122.663 77.8467 125.288 79.0688 127.383C80.2909 129.478 81.4864 128.133 81.4864 128.133C81.4864 128.133 83.2389 126.005 82.0186 122.84C80.7982 119.675 78.6892 122.038 78.6892 122.038Z" fill="#83ADDF"/>
<path d="M81.3464 121.533C80.0622 122.405 79.1487 122.993 78.9181 122.97C78.6875 122.948 76.5359 123.32 75.9169 123.583C75.2978 123.845 73.8912 125.935 74.0296 126.24C74.168 126.545 74.7107 126.49 74.7107 126.49C74.7107 126.49 72.5822 128.693 72.3747 129.49C72.1671 130.288 72.8092 130.1 72.8092 130.1C72.4776 130.35 72.0217 131.685 73.18 131.19C72.9015 131.44 72.733 132.178 73.5205 131.91C74.6646 131.518 76.5359 130.428 76.5359 130.428C76.5359 130.428 75.2358 131.8 74.7107 132.15C74.1857 132.5 74.1538 133.305 75.2837 132.848C76.4135 132.39 78.6077 130.233 79.3633 129.468C80.119 128.703 80.848 128.053 81.0183 127.9C81.1885 127.748 82.8133 126.7 82.8133 126.7C82.8133 126.7 84.392 121.098 81.3464 121.533Z" fill="#B25E47"/>
<path d="M74.7106 126.5C75.4999 125.715 76.5979 124.57 76.8302 124.533" stroke="#914839" stroke-width="0.75" stroke-linecap="round" stroke-linejoin="round"/>
<path d="M72.8182 130.12C72.8502 129.998 76.0004 127.148 76.0004 127.148" stroke="#914839" stroke-width="0.75" stroke-linecap="round" stroke-linejoin="round"/>
<path d="M73.173 131.21C73.1889 131.07 76.4012 128.79 76.4012 128.79" stroke="#914839" stroke-width="0.75" stroke-linecap="round" stroke-linejoin="round"/>
<path d="M75.9169 123.583C75.2978 123.833 73.8912 125.935 74.0296 126.24C74.168 126.545 74.7107 126.49 74.7107 126.49C74.7107 126.49 72.5822 128.693 72.3747 129.49C72.1671 130.288 72.8092 130.1 72.8092 130.1C72.4776 130.35 72.0217 131.685 73.18 131.19C72.9015 131.44 72.733 132.178 73.5205 131.91C74.6646 131.518 76.5359 130.428 76.5359 130.428C76.5359 130.428 75.2358 131.8 74.7107 132.15C74.1857 132.5 74.1538 133.305 75.2837 132.848C75.5588 132.726 75.8258 132.57 76.0819 132.383" stroke="#914839" stroke-width="0.75" stroke-linecap="round" stroke-linejoin="round"/>
<path d="M96.0067 114.665C95.714 116.56 92.4148 119.7 89.0358 122.473C85.3641 125.473 81.5984 128.06 81.4866 128.135C82.2884 126.333 82.1199 121.458 78.6912 122.03C78.6912 122.03 87.7037 113.03 89.3976 111.08C89.4081 111.067 89.4194 111.056 89.4313 111.045C91.3612 108.855 93.7611 108.455 95.1074 109.883C95.9322 110.773 96.3561 112.363 96.0067 114.665Z" fill="#A7CAF0"/>
<path d="M96.0066 114.665C95.7139 116.56 92.4147 119.7 89.0356 122.473C89.456 119.723 90.0112 117.753 91.5455 116.763C91.9669 116.498 92.4112 116.312 92.867 116.21C94.8589 115.733 94.231 112.28 95.0966 109.883C95.9321 110.773 96.356 112.363 96.0066 114.665Z" fill="#A7CAF0"/>
<path d="M86.4265 114.218C87.7728 112.835 88.9009 111.655 89.3993 111.085C90.1152 110.253 90.9474 109.643 91.8418 109.295" stroke="#83ADDF" stroke-width="0.75" stroke-linecap="round" stroke-linejoin="round"/>
<path d="M77.829 86.9577C77.5311 88.4897 77.171 89.9963 76.7506 91.4702C76.2511 93.2317 75.6887 94.9564 75.0655 96.6377V96.6377C74.9177 97.0427 74.7645 97.4469 74.6061 97.8502C74.583 97.9127 74.5582 97.9777 74.5316 98.0402C74.3311 98.5552 74.1201 99.0702 73.9054 99.5802C73.3236 100.96 72.7661 102.229 72.2328 103.388C71.4245 105.184 70.5277 106.898 69.549 108.518C67.7504 111.42 66.1789 112.678 64.641 112.268C64.3454 112.187 64.0581 112.055 63.7861 111.873C63.4882 111.679 63.2216 111.402 63.0025 111.058C62.7835 110.714 62.6168 110.311 62.5125 109.873V109.873C62.4117 109.469 62.3474 109.049 62.3209 108.623C62.3209 108.623 62.3209 108.623 62.3209 108.623C62.2056 106.935 62.532 104.76 63.2362 102.273C63.6382 100.88 64.099 99.5226 64.6162 98.2077C64.7652 97.8277 64.9195 97.4577 65.0774 97.0627C65.5882 95.8327 66.1647 94.5627 66.7979 93.2727C66.8636 93.1427 66.9256 93.0227 66.9877 92.8852C67.197 92.4602 67.4004 92.0435 67.5979 91.6352L68.2028 90.3852C68.2489 90.2902 68.2932 90.1952 68.3393 90.1027C69.063 88.6027 69.7193 87.2202 70.3331 85.9802L70.3614 85.9202L70.7162 85.2177C72.7613 81.1677 74.3489 78.7727 76.3532 78.4677C78.5279 78.1477 78.8028 81.8377 77.829 86.9577Z" fill="#A7CAF0"/>
<path d="M77.829 86.9577C75.7147 85.5927 73.0558 85.3202 70.3579 85.9202L70.7127 85.2177C72.7578 81.1677 74.3453 78.7727 76.3497 78.4677C78.5279 78.1477 78.8028 81.8377 77.829 86.9577Z" fill="#A7CAF0"/>
<path d="M76.2965 89.9526C76.8641 86.8101 76.967 85.6301 76.967 85.6301" stroke="#83ADDF" stroke-width="0.75" stroke-linecap="round" stroke-linejoin="round"/>
<path d="M76.7506 91.4702C76.2512 93.2317 75.6888 94.9564 75.0656 96.6377V96.6377C75.0656 96.6377 70.6897 95.8652 68.3376 90.1027C69.0613 88.6027 69.7176 87.2202 70.3314 85.9802C71.0267 87.5527 72.7756 90.3127 76.7506 91.4702Z" fill="#83ADDF"/>
<path d="M74.9803 96.6101C75.4681 94.2226 75.8672 92.2176 76.0854 91.0526L76.1493 90.7201C76.245 90.2201 76.2965 89.9526 76.2965 89.9526" stroke="#83ADDF" stroke-width="0.75" stroke-linecap="round" stroke-linejoin="round"/>
<path d="M74.6042 97.8499L74.5297 98.0349L73.9035 99.5749C73.9035 99.5749 68.6425 98.1099 66.9858 92.8849C67.1951 92.4599 67.3985 92.0432 67.596 91.6349C69.9888 96.9824 74.6042 97.8499 74.6042 97.8499Z" fill="#83ADDF"/>
<path d="M71.1402 99.7878C71.1402 99.7878 70.8689 102.885 69.7567 107.703C69.6928 107.983 69.6237 108.253 69.5474 108.52C68.6605 111.693 67.0783 114.058 65.5138 114.865C64.9667 115.171 64.3676 115.243 63.7915 115.073C61.6772 114.388 60.7282 111.943 61.2994 107.703C61.5548 105.803 62.2572 103.973 63.2328 102.28C63.79 101.324 64.4009 100.433 65.0598 99.6153C65.8965 98.5742 66.7858 97.6201 67.7204 96.7603L71.1402 99.7878Z" fill="#A7CAF0"/>
<path d="M65.5138 114.865C64.9667 115.171 64.3676 115.244 63.7915 115.073C61.6772 114.388 60.7282 111.943 61.2994 107.703C61.5548 105.803 62.2572 103.973 63.2328 102.28C63.79 101.324 64.4009 100.433 65.0598 99.6154C65.2335 100.377 65.2612 101.189 65.14 101.97C65.0188 102.751 64.753 103.473 64.3698 104.063C63.4208 105.563 62.4364 107.24 62.3175 108.63C62.27 109.066 62.3382 109.511 62.5091 109.88V109.88C62.6795 110.222 62.9099 110.496 63.1778 110.675C63.7299 111.079 64.2248 111.622 64.6376 112.278C65.1414 113.083 65.466 114 65.5138 114.865Z" fill="#A7CAF0"/>
<path d="M69.7566 107.705C70.0191 106.565 70.2355 105.525 70.4111 104.595" stroke="#83ADDF" stroke-width="0.75" stroke-linecap="round" stroke-linejoin="round"/>
<path d="M65.9147 98.6025C63.6212 101.178 61.7516 104.325 61.3029 107.705" stroke="#83ADDF" stroke-width="0.75" stroke-linecap="round" stroke-linejoin="round"/>
<path d="M67.0303 99.3002C66.4982 100.603 65.7408 102.8 66.3794 104.228C67.0179 105.655 68.405 105.978 69.4639 104.598C70.5229 103.218 71.0603 101.848 71.1401 100.368L67.0303 99.3002Z" fill="#83ADDF"/>
<path d="M68.6373 96.4177C68.4085 96.0252 68.992 95.4977 69.416 95.8677C69.8413 96.2538 70.3028 96.5542 70.7871 96.7602C71.1418 96.8702 71.3653 98.1502 71.2022 98.3852C71.2022 98.3852 68.9158 96.8827 68.6373 96.4177Z" fill="#B25E47"/>
<path d="M70.7871 96.7502C71.1419 96.8602 71.3654 98.1402 71.2022 98.3752" stroke="#914839" stroke-width="0.75" stroke-linecap="round" stroke-linejoin="round"/>
<path d="M63.8091 93.5001C63.3302 93.0776 63.8286 91.8526 64.3093 92.1351C64.79 92.4176 71.9631 99.0001 71.9631 99.0001L72.4953 100.25L71.431 100.05C71.431 100.05 64.2082 93.8626 63.8091 93.5001Z" fill="#683F1D"/>
<path d="M67.0073 97.4478C66.8938 96.4878 67.7877 96.2328 68.2294 96.6803C68.6711 97.1278 70.2302 98.1478 70.7393 98.3853C71.2484 98.6228 71.5676 99.5178 71.2501 99.8303C71.2501 99.8303 71.5676 100.468 71.1952 100.76C71.0305 100.907 70.8511 101.018 70.663 101.09C70.663 101.09 70.8156 101.778 69.6573 102.495C69.6573 102.495 69.4799 103.495 68.8573 103.745C68.2347 103.995 67.0836 103.803 66.8157 103.495C66.5479 103.188 66.4148 102.245 66.6774 101.9C66.6774 101.9 66.0122 101.46 66.131 100.77C66.2907 99.8403 66.7448 100.11 66.6082 99.7428C66.4716 99.3753 66.2534 98.6828 66.594 98.3953C66.9346 98.1078 67.0694 97.9628 67.0073 97.4478Z" fill="#B25E47"/>
<path d="M70.7393 98.3851C71.2501 98.6226 71.5676 99.5176 71.2501 99.8301C71.2501 99.8301 71.5676 100.468 71.1951 100.76C71.0304 100.907 70.8511 101.018 70.663 101.09C70.663 101.09 70.8155 101.778 69.6573 102.495C69.6573 102.495 69.4799 103.495 68.8573 103.745" stroke="#914839" stroke-width="0.75" stroke-linecap="round" stroke-linejoin="round"/>
<path d="M67.2042 100.233C68.0846 100.696 69 101.015 69.9323 101.183C70.1797 101.181 70.4265 101.15 70.6702 101.09" stroke="#914839" stroke-width="0.75" stroke-linecap="round" stroke-linejoin="round"/>
<path d="M71.2501 99.8304C71.2501 99.8304 69.9553 99.8829 69.6803 99.8304C69.4373 99.7829 67.5837 98.7504 67.5837 98.7504" stroke="#914839" stroke-width="0.75" stroke-linecap="round" stroke-linejoin="round"/>
<path d="M67.5483 102.28C67.5483 102.28 68.9159 102.668 69.6644 102.495" stroke="#914839" stroke-width="0.75" stroke-linecap="round" stroke-linejoin="round"/>
<path d="M84.1152 62.5975C83.6993 63.6452 83.0996 64.525 82.3734 65.1525C81.1406 66.2375 80.0994 65.4225 79.656 64.5925C79.4928 64.2825 79.4963 63.44 79.6223 62.49C79.8369 60.8825 80.401 58.9575 81.0945 58.74C81.4963 58.6048 81.9144 58.598 82.3183 58.72C82.7222 58.842 83.1016 59.0897 83.4288 59.445C83.5412 59.5671 83.6419 59.7091 83.7285 59.8675C84.195 60.7075 84.2092 60.75 84.1152 62.5975Z" fill="#FFEACC"/>
<path d="M84.1152 62.5976C83.6993 63.6453 83.0996 64.525 82.3734 65.1526C81.1406 66.2376 80.0994 65.4226 79.656 64.5926C79.4928 64.2826 79.4963 63.4401 79.6223 62.4901C80.2236 63.9901 81.2825 64.5876 81.6994 64.1076C82.2918 63.4201 81.3907 60.0726 83.4288 59.4351C83.5412 59.5572 83.6419 59.6992 83.7285 59.8576C84.195 60.7076 84.2092 60.7501 84.1152 62.5976Z" fill="#EDD6B7"/>
<path d="M82.574 63.0003C82.9145 62.8753 82.9908 61.7903 82.6626 61.7203C82.3345 61.6503 82.0791 62.4128 82.1589 63.0003C82.2086 63.3728 82.409 63.6303 83.028 63.4203" stroke="#BF8228" stroke-width="0.75" stroke-linecap="round" stroke-linejoin="round"/>
<path d="M82.2191 64.1726C80.8303 64.1276 80.3141 63.7576 80.2095 62.8826C80.1048 62.0076 80.0427 60.5326 80.0427 60.5326" stroke="#BF8228" stroke-width="0.75" stroke-linecap="round" stroke-linejoin="round"/>
<path d="M81.49 64.105C81.1274 63.6731 80.8777 63.0826 80.7805 62.4275C80.667 61.4275 81.2328 60.0925 81.616 60.03C82.2776 59.925 83.7445 60.725 83.6274 62.3425" stroke="#BF8228" stroke-width="0.75" stroke-linecap="round" stroke-linejoin="round"/>
<path d="M89.3853 73.4127C88.0585 74.2927 85.6461 73.4127 84.2679 71.3027C82.5438 68.6602 84.0231 62.8027 85.992 61.9727C87.9609 61.1427 88.9808 64.0802 89.5573 66.4377L89.5679 66.4877C89.7173 67.1073 89.8416 67.7383 89.9404 68.3777C90.2509 70.3727 90.3537 72.7702 89.3853 73.4127Z" fill="#B25E47"/>
<path d="M84.2109 67.3753C84.1063 67.8903 84.6366 68.5578 85.3976 68.8753C86.1585 69.1928 86.8574 69.0103 86.962 68.4928C87.0667 67.9753 86.5363 67.3078 85.7772 66.9928C85.018 66.6778 84.3156 66.8578 84.2109 67.3753Z" fill="#914839"/>
<path d="M89.9403 68.3779C89.559 68.6054 89.2202 68.6129 89.0623 68.3504C88.8371 67.9704 89.0623 67.1729 89.5678 66.4879C89.7172 67.1075 89.8415 67.7385 89.9403 68.3779V68.3779Z" fill="#914839"/>
<path d="M88.2747 65.9251C88.2743 65.9975 88.2892 66.0684 88.3176 66.1288C88.3459 66.1893 88.3863 66.2364 88.4337 66.2644C88.4811 66.2923 88.5333 66.2997 88.5837 66.2857C88.6341 66.2717 88.6804 66.2369 88.7167 66.1857C88.7531 66.1345 88.7778 66.0693 88.7877 65.9982C88.7976 65.9272 88.7924 65.8536 88.7725 65.7868C88.7527 65.72 88.7193 65.663 88.6764 65.6231C88.6335 65.5832 88.5832 65.5621 88.5319 65.5626C88.4638 65.5633 88.3986 65.6017 88.3505 65.6695C88.3024 65.7374 88.2751 65.8292 88.2747 65.9251V65.9251Z" fill="#683F1D"/>
<path d="M86.8308 66.44C86.8308 66.5123 86.8461 66.5829 86.8746 66.643C86.9031 66.7031 86.9437 66.7499 86.9911 66.7774C87.0385 66.805 87.0907 66.812 87.141 66.7978C87.1912 66.7835 87.2374 66.7485 87.2735 66.6972C87.3097 66.6459 87.3342 66.5806 87.344 66.5096C87.3538 66.4387 87.3484 66.3652 87.3285 66.2985C87.3087 66.2319 87.2752 66.1751 87.2324 66.1353C87.1895 66.0955 87.1393 66.0745 87.088 66.075C87.0541 66.075 87.0205 66.0844 86.9892 66.1028C86.9579 66.1212 86.9294 66.1481 86.9055 66.182C86.8816 66.2159 86.8627 66.2562 86.8499 66.3005C86.8371 66.3447 86.8306 66.3922 86.8308 66.44V66.44Z" fill="#683F1D"/>
<path d="M86.1816 68.0003C86.1816 68.0344 86.1888 68.0677 86.2023 68.0961C86.2157 68.1245 86.2348 68.1466 86.2572 68.1596C86.2796 68.1727 86.3042 68.1761 86.3279 68.1694C86.3516 68.1628 86.3735 68.1464 86.3906 68.1222C86.4077 68.0981 86.4194 68.0674 86.4241 68.0339C86.4288 68.0005 86.4264 67.9658 86.4171 67.9343C86.4078 67.9027 86.3922 67.8758 86.372 67.8568C86.3519 67.8379 86.3282 67.8278 86.304 67.8278C86.2716 67.8278 86.2404 67.8459 86.2175 67.8783C86.1945 67.9106 86.1816 67.9545 86.1816 68.0003V68.0003Z" fill="#914839"/>
<path d="M86.7104 67.4751C86.778 67.4751 86.8328 67.3979 86.8328 67.3026C86.8328 67.2074 86.778 67.1301 86.7104 67.1301C86.6428 67.1301 86.588 67.2074 86.588 67.3026C86.588 67.3979 86.6428 67.4751 86.7104 67.4751Z" fill="#914839"/>
<path d="M86.8326 68.1C86.9002 68.1 86.955 68.0228 86.955 67.9275C86.955 67.8322 86.9002 67.755 86.8326 67.755C86.765 67.755 86.7102 67.8322 86.7102 67.9275C86.7102 68.0228 86.765 68.1 86.8326 68.1Z" fill="#914839"/>
<path d="M87.1608 67.475C87.1608 67.5091 87.1679 67.5425 87.1814 67.5708C87.1948 67.5992 87.214 67.6213 87.2363 67.6344C87.2587 67.6474 87.2833 67.6508 87.307 67.6442C87.3308 67.6375 87.3526 67.6211 87.3697 67.597C87.3868 67.5728 87.3985 67.5421 87.4032 67.5086C87.4079 67.4752 87.4055 67.4405 87.3962 67.409C87.387 67.3775 87.3713 67.3505 87.3512 67.3316C87.331 67.3126 87.3074 67.3025 87.2832 67.3025C87.2507 67.3025 87.2196 67.3207 87.1966 67.353C87.1737 67.3854 87.1608 67.4292 87.1608 67.475V67.475Z" fill="#914839"/>
<path d="M89.1653 66.8301C89.1653 66.8642 89.1725 66.8976 89.1859 66.9259C89.1994 66.9543 89.2185 66.9764 89.2408 66.9895C89.2632 67.0025 89.2878 67.0059 89.3116 66.9993C89.3353 66.9926 89.3571 66.9762 89.3742 66.9521C89.3913 66.9279 89.403 66.8972 89.4077 66.8637C89.4124 66.8303 89.41 66.7956 89.4008 66.7641C89.3915 66.7326 89.3758 66.7056 89.3557 66.6867C89.3355 66.6677 89.3119 66.6576 89.2877 66.6576C89.2552 66.6576 89.2241 66.6758 89.2011 66.7081C89.1782 66.7405 89.1653 66.7843 89.1653 66.8301Z" fill="#914839"/>
<path d="M88.8477 66.7449C88.9153 66.7449 88.9701 66.6677 88.9701 66.5724C88.9701 66.4771 88.9153 66.3999 88.8477 66.3999C88.7801 66.3999 88.7253 66.4771 88.7253 66.5724C88.7253 66.6677 88.7801 66.7449 88.8477 66.7449Z" fill="#914839"/>
<path d="M90.7226 66.3403C90.5736 66.5903 90.3927 66.7153 90.3129 66.5903C90.1568 66.3553 90.6056 65.9853 90.3129 65.5603C90.0202 65.1353 89.277 65.3878 89.277 65.3878C88.1968 61.4078 86.5596 61.5328 85.5876 62.2178C84.6155 62.9028 84.5233 64.1003 84.5091 64.8178C84.4949 65.5353 84.4914 65.7803 85.2186 66.3553C85.9459 66.9303 85.2683 67.8303 85.1512 68.5428C85.0341 69.2553 85.5698 69.0428 85.8607 69.7528C86.1516 70.4628 85.5681 70.8103 85.5929 70.5028C85.6177 70.1953 85.4155 69.8003 85.208 69.8678C85.0004 69.9353 84.5836 69.7178 84.5641 69.3678C84.5446 69.0178 84.3867 68.2003 84.1242 68.0803C83.2072 67.6553 82.73 68.9028 82.856 69.8778C82.8971 70.1682 82.985 70.4415 83.1129 70.6764C83.2409 70.9114 83.4054 71.1017 83.5938 71.2328C83.5938 71.2328 83.0617 71.6028 82.166 70.0578C81.9737 69.7238 81.8384 69.3321 81.7704 68.9128C81.5097 67.3778 82.0418 65.5003 82.5491 64.3803C83.193 62.9503 83.4466 62.8803 83.4466 62.8803C83.7458 61.9146 84.1943 61.0554 84.7592 60.3653C85.7295 59.1428 86.588 60.1728 86.588 60.1728C87.5227 59.2528 88.6367 59.6228 88.956 60.4778C89.2752 61.3328 89.1528 62.6753 89.2025 63.1153C89.2522 63.5553 89.4952 64.2978 90.0894 64.2978C90.6836 64.2978 90.9107 64.6153 90.9479 65.3828C90.9616 65.7306 90.8811 66.0729 90.7226 66.3403V66.3403Z" fill="#FFEACC"/>
<path d="M90.7226 66.3399C90.5736 66.5899 90.3927 66.7149 90.3129 66.5899C90.1568 66.3549 90.6055 65.9849 90.3129 65.5599C90.0202 65.1349 89.277 65.3874 89.277 65.3874C88.1968 61.4074 86.5596 61.5324 85.5875 62.2174C84.6155 62.9024 84.5233 64.0999 84.5091 64.8174C84.4949 65.5349 84.4913 65.7799 85.2186 66.3549C85.9458 66.9299 85.2683 67.8299 85.1512 68.5424C85.0341 69.2549 85.5698 69.0424 85.8607 69.7524C86.1516 70.4624 85.568 70.8099 85.5929 70.5024C85.6177 70.1949 85.4155 69.7999 85.208 69.8674C85.0004 69.9349 84.5836 69.7174 84.5641 69.3674C84.5446 69.0174 84.4239 68.3349 84.1206 68.1599C83.1859 67.6174 82.7743 68.9099 82.9003 69.8774C82.9469 70.1731 83.0431 70.4488 83.1807 70.6814C83.3183 70.9141 83.4934 71.097 83.6914 71.2149C83.6914 71.2149 83.2267 71.9149 82.1659 70.0574C81.9747 69.7225 81.8395 69.3312 81.7704 68.9124C82.6857 67.7349 82.6395 66.5474 83.2515 66.2899C84 65.9749 83.9025 63.8774 84.7645 61.8274C85.6266 59.7774 87.0828 61.2299 87.4429 61.7149C87.4429 61.7149 88.4841 60.9649 88.7945 62.8799C89.1049 64.7949 89.8038 65.0874 90.2756 65.0224C90.5559 64.9824 90.7882 65.6674 90.7226 66.3399Z" fill="#EDD6B7"/>
<path d="M84.1152 66.7903C84.4576 66.8653 84.6279 67.5828 84.4416 68.6678" stroke="#BF8228" stroke-width="0.75" stroke-linecap="round" stroke-linejoin="round"/>
<path d="M84.5942 63.5153C85.0856 61.5428 85.3144 61.3928 85.4616 61.2653C85.7294 61.0378 86.329 61.2878 86.329 61.2878" stroke="#BF8228" stroke-width="0.75" stroke-linecap="round" stroke-linejoin="round"/>
<path d="M86.588 60.1725C86.8887 60.5355 87.1725 60.9255 87.4377 61.34" stroke="#BF8228" stroke-width="0.75" stroke-linecap="round" stroke-linejoin="round"/>
<path d="M82.8685 69.0003C82.3771 67.9803 81.8858 65.7278 82.7709 63.9003" stroke="#BF8228" stroke-width="0.75" stroke-linecap="round" stroke-linejoin="round"/>
<path d="M83.358 68.14C83.0032 67.1075 82.7265 65.1225 83.4467 62.89" stroke="#BF8228" stroke-width="0.75" stroke-linecap="round" stroke-linejoin="round"/>
<path d="M87.865 65.0229C87.6433 66.188 87.9697 66.6605 88.3582 66.803C88.7466 66.9455 89.057 67.2255 89.0127 67.7105" stroke="#914839" stroke-width="0.75" stroke-linecap="round" stroke-linejoin="round"/>
<path d="M85.6532 65.4999C85.8306 65.7499 86.8949 64.7699 86.6217 64.1924C86.3486 63.6149 85.3943 65.1499 85.6532 65.4999Z" fill="#FFEACC"/>
<path d="M87.5919 63.84C87.5919 64.4275 88.6562 64.11 88.6367 63.9175C88.6047 63.57 87.5901 63.3025 87.5919 63.84Z" fill="#FFEACC"/>
<path d="M87.5616 68.5876C87.7214 68.8054 87.9211 68.956 88.1383 69.0222C88.3555 69.0885 88.5815 69.0679 88.7909 68.9626" stroke="#914839" stroke-width="0.75" stroke-linecap="round" stroke-linejoin="round"/>
<path d="M84.7592 69.7499V71.1999C84.4146 71.3629 84.0425 71.3699 83.6949 71.2199H83.6772C83.4354 71.1018 83.2248 70.8829 83.0734 70.5923C82.9219 70.3016 82.8368 69.9528 82.8293 69.5924C82.8176 69.3581 82.8447 69.1233 82.9084 68.9064C82.9721 68.6894 83.0708 68.4964 83.1965 68.3424V68.3424C83.2802 68.2417 83.3756 68.1622 83.4785 68.1074C83.6917 68.0285 83.9177 68.0577 84.1171 68.1899C84.4186 68.3649 84.5392 69.0349 84.5605 69.3974C84.5718 69.4739 84.5956 69.5457 84.6301 69.6069C84.6646 69.6681 84.7088 69.7171 84.7592 69.7499Z" fill="#B25E47"/>
<path d="M83.2461 69.4226C83.3507 69.0451 84.0461 68.6251 84.3742 69.6551" stroke="#914839" stroke-width="0.75" stroke-linecap="round" stroke-linejoin="round"/>
<path d="M84.3211 69.4999C83.5602 68.8774 83.2462 70.4724 84.2324 70.3749" stroke="#914839" stroke-width="0.75" stroke-linecap="round" stroke-linejoin="round"/>
<path d="M84.7591 71.1954C84.3686 71.3866 83.9419 71.3688 83.5601 71.1454" stroke="#914839" stroke-width="0.75" stroke-linecap="round" stroke-linejoin="round"/>
<path d="M122.358 77.5852C122.228 78.7477 121.661 79.7727 120.903 80.4952C119.454 81.8877 117.303 82.1877 116.18 80.3102C114.777 77.9677 111.252 66.9477 110.023 63.0427C109.755 62.1852 109.596 61.6677 109.596 61.6677C109.698 56.5051 112.414 54.2701 115.135 54.4476C117.856 54.6251 119.711 57.3526 119.855 61.4626C119.999 65.5727 118.825 71.6202 119.633 72.8727C120.442 74.1252 122.737 74.1902 122.358 77.5852Z" fill="#BF8228"/>
<path d="M121.379 78.7776C121.29 79.3835 121.129 79.9641 120.903 80.4951C119.454 81.8876 117.303 82.1876 116.18 80.3101C114.777 77.9676 111.252 66.9475 110.023 63.0425C110.878 57.43 112.975 55.685 115.314 56.23C117.686 56.785 118.702 61.2925 117.948 63.2625C117.194 65.2325 115.273 69.1125 116.253 71.5576C117.232 74.0026 117.061 74.4651 118.204 74.8501C119.346 75.2351 121.73 76.0351 121.379 78.7776Z" fill="#BF8228"/>
<path d="M110.495 60.7776C110.958 57.2151 113.333 56.5651 114.376 56.9126" stroke="#7F542D" stroke-width="0.75" stroke-linecap="round" stroke-linejoin="round"/>
<path d="M112.235 60.3225C113.562 58.745 115.486 59.2775 115.474 60.6325C115.461 61.9875 115.389 63 115.942 63.55C116.496 64.1 117.32 65.2675 116.852 66.91" stroke="#7F542D" stroke-width="0.75" stroke-linecap="round" stroke-linejoin="round"/>
<path d="M118 68.7078C117.645 71.6503 117.425 73.0928 118.367 73.4978C119.309 73.9028 119.623 74.3453 119.419 74.9803C119.215 75.6153 118.954 75.8828 119.569 76.2103C120.185 76.5378 120.238 77.6353 120.238 77.6353" stroke="#7F542D" stroke-width="0.75" stroke-linecap="round" stroke-linejoin="round"/>
<path d="M111.531 96.0927C110.44 103.735 108.553 111.7 106.66 115.47C106.115 116.553 105.574 117.29 105.049 117.575C100.473 120.075 98.6071 117.06 99.1303 107.97C99.4319 102.72 101.417 93.1002 104.097 86.1077C106.018 81.1077 108.294 77.4577 110.569 77.7327C113.003 78.0327 112.852 86.8277 111.531 96.0927Z" fill="#A7CAF0"/>
<path d="M111.531 96.0929C111 95.8379 110.515 95.4232 110.109 94.8776C109.703 94.3319 109.386 93.6683 109.18 92.9329C108.917 91.9678 108.581 91.0458 108.176 90.1829C107.192 88.1029 105.823 86.5404 104.097 86.0954C106.018 81.0954 108.294 77.4454 110.569 77.7204C113.003 78.0329 112.852 86.8279 111.531 96.0929Z" fill="#A7CAF0"/>
<path d="M108.18 90.8955C105.972 91.2555 105.498 92.2155 105.761 94.383C106.023 96.5505 102.845 94.2005 101.988 96.7605C101.131 99.3205 105.34 108.881 105.417 108.936L106.703 109.861L109.14 105.861L110.761 100.251L110.788 95.118L108.18 90.8955Z" fill="#83ADDF"/>
<path d="M127.676 92.645C127.64 93.765 127.358 97.6301 127.003 102.25C126.392 110.183 125.56 120.338 125.37 122.66L124.719 122.423C122.078 121.463 119.22 120.603 116.176 119.828C113.133 119.053 109.927 118.37 106.575 117.77C106.602 117.098 106.63 116.318 106.66 115.47C106.813 111.085 106.99 104.885 106.848 102.358C106.619 98.2951 106.483 95.3925 107.442 92.8125C107.746 91.9745 107.993 91.0982 108.18 90.195C108.675 87.9025 108.939 85.2875 108.907 83.5725C108.868 81.55 108.045 78.435 110.575 77.7325C111.232 77.5773 111.9 77.5445 112.563 77.635C117.448 78.135 118.447 77.635 118.447 77.635C121.601 76.8425 124.217 77.82 124.948 78.18L125.015 78.215C126.079 78.77 127.08 80.845 127.498 85.235C127.711 87.6929 127.771 90.1725 127.676 92.645V92.645Z" fill="#A7CAF0"/>
<path d="M121.139 96.4678C117.647 94.1578 115.234 99.4678 115.415 103.673C115.648 109.02 111.217 102.485 109.336 108.29C107.843 112.903 115.241 117.04 119.133 112.54C123.025 108.04 125.854 99.5828 121.139 96.4678Z" fill="#83ADDF"/>
<path d="M127.505 85.2348C125.121 84.6923 122.113 86.2898 120.289 88.6098C119.527 89.5849 118.972 90.6874 118.757 91.8124C118.03 95.6474 114.204 97.4824 111.531 96.0924C111 95.8374 110.514 95.4227 110.109 94.877C109.703 94.3314 109.386 93.6678 109.18 92.9324C108.917 91.9673 108.581 91.0452 108.176 90.1824C108.671 87.8899 108.936 85.2748 108.904 83.5598C108.865 81.5373 108.042 78.4223 110.571 77.7198C111.228 77.5646 111.896 77.5318 112.559 77.6223C117.444 78.1223 118.443 77.6223 118.443 77.6223C121.597 76.8298 124.213 77.8073 124.944 78.1673L125.011 78.2023C126.079 78.7698 127.081 80.8448 127.505 85.2348Z" fill="#A7CAF0"/>
<path d="M106.575 117.77C106.602 117.098 106.63 116.318 106.66 115.47C106.813 111.085 106.99 104.885 106.848 102.358C106.619 98.2954 106.483 95.3929 107.442 92.8129C107.746 91.9748 107.993 91.0985 108.18 90.1953C108.512 88.6367 108.737 87.0369 108.852 85.4178" stroke="#83ADDF" stroke-width="0.75" stroke-linecap="round" stroke-linejoin="round"/>
<path d="M117.579 77.6353C117.656 78.4253 114.181 84.0578 112.728 83.5403C111.275 83.0228 112.019 77.7078 112.019 77.7078C112.019 77.7078 111.93 77.3478 111.793 76.8178C111.458 75.5028 110.844 73.1228 110.621 72.4728C110.364 71.7377 110.159 70.969 110.009 70.1778C108.902 64.2353 112.453 61.9428 114.372 67.9653C116.313 74.0378 117.501 76.8428 117.579 77.6353Z" fill="#FEBD9D"/>
<path d="M111.797 76.8175C111.461 75.5025 110.848 73.1225 110.624 72.4725C110.368 71.7374 110.163 70.9688 110.012 70.1775C111.277 69.0175 113.047 70.0575 113.737 72.095C114.404 74.075 113.526 76.405 111.797 76.8175Z" fill="#F4A789"/>
<path d="M111.896 77.2026C112.208 78.1001 112.159 78.2751 112.159 78.7651C112.159 79.2551 112.238 81.7301 112.081 82.6826C112.081 82.6826 111.305 81.5176 110.887 81.7101C110.468 81.9026 109.801 82.6826 109.801 82.6826L110.991 78.4326C111.242 77.5176 111.584 77.1851 111.896 77.2026Z" fill="#683F1D"/>
<path d="M118.448 77.6352C118.463 77.1352 117.473 76.1977 117.326 76.6652C116.517 79.2452 114.418 82.5652 113.691 83.2777C114.007 83.3872 114.307 83.5724 114.578 83.8252C114.984 84.2377 115.736 86.1027 115.736 86.1027C115.736 86.1027 118.301 82.6827 118.448 77.6352Z" fill="#683F1D"/>
<path d="M111.895 85.7753C111.895 85.9375 111.929 86.096 111.993 86.2309C112.057 86.3657 112.147 86.4708 112.254 86.5329C112.36 86.595 112.477 86.6112 112.59 86.5796C112.703 86.5479 112.806 86.4698 112.888 86.3552C112.969 86.2405 113.025 86.0944 113.047 85.9353C113.069 85.7762 113.058 85.6114 113.014 85.4615C112.97 85.3117 112.895 85.1836 112.8 85.0935C112.704 85.0034 112.591 84.9553 112.476 84.9553C112.322 84.9553 112.174 85.0417 112.065 85.1955C111.956 85.3493 111.895 85.5578 111.895 85.7753V85.7753Z" fill="white"/>
<path d="M111.596 88.7978C111.596 88.9606 111.63 89.1198 111.694 89.2554C111.758 89.391 111.849 89.4968 111.955 89.5595C112.062 89.6221 112.179 89.6387 112.293 89.6073C112.406 89.5758 112.51 89.4977 112.592 89.3828C112.674 89.2678 112.729 89.1213 112.752 88.9617C112.775 88.802 112.763 88.6365 112.719 88.4861C112.675 88.3357 112.6 88.2071 112.504 88.1166C112.408 88.0261 112.295 87.9778 112.18 87.9778C112.103 87.9775 112.027 87.9984 111.957 88.0395C111.886 88.0805 111.822 88.1409 111.767 88.2171C111.713 88.2933 111.67 88.3838 111.641 88.4834C111.611 88.5831 111.596 88.6899 111.596 88.7978Z" fill="white"/>
<path d="M124.719 122.423C122.078 121.463 119.22 120.603 116.176 119.828C116.246 119.53 116.349 119.25 116.48 118.998C118.213 115.473 119.516 111.57 123.601 113.277C125.262 113.972 124.414 117.903 123.601 119.278C122.755 120.693 125.082 120.73 124.719 122.423Z" fill="#83ADDF"/>
<path d="M101.575 118.293C97.8496 117.458 96.7641 109.593 96.1929 105.565C95.769 102.565 94.9158 94.9377 94.5078 91.2227C94.3659 89.9427 94.2772 89.1277 94.2772 89.1277C94.2772 89.1277 96.161 89.6002 98.0766 87.0902C98.1937 87.5027 98.3835 88.0752 98.6247 88.7727C100.372 93.8477 104.923 105.49 105.761 109.45C106.711 113.955 105.253 119.12 101.575 118.293Z" fill="#A7CAF0"/>
<path d="M96.1929 105.565C95.996 104.168 95.7051 101.763 95.4089 99.2178C95.0701 96.3028 94.726 93.2053 94.5078 91.2178C94.3659 89.9378 94.2772 89.1228 94.2772 89.1228" stroke="#83ADDF" stroke-width="0.75" stroke-linecap="round" stroke-linejoin="round"/>
<path d="M98.0766 87.0902C97.635 85.8402 96.5405 83.4627 95.5011 82.3652C94.9441 81.7802 94.2595 81.7852 94.0236 82.0202C94.0236 82.0202 92.1256 81.6227 90.6835 82.1177C89.2415 82.6127 89.0127 83.7302 89.6104 83.8277C90.2082 83.9252 91.2281 83.4327 91.9678 83.4077C91.9678 83.4077 91.221 83.6577 91.237 84.6277C91.0596 84.4802 90.6428 84.8652 90.7314 85.6577C90.7314 85.6577 90.4335 85.2177 90.3146 86.0327C90.1958 86.8477 90.6995 88.0477 91.2778 88.0927C91.856 88.1377 91.7922 87.5502 91.7922 87.5502C91.7922 87.5502 92.264 88.7702 94.2754 89.1277C94.2754 89.1277 94.6302 89.9952 94.6302 89.9502C94.6302 89.9052 98.1369 90.4102 98.0766 87.0902Z" fill="#FEBD9D"/>
<path d="M95.5011 82.3652C94.9441 81.7802 94.2595 81.7852 94.0236 82.0202C94.0236 82.0202 92.1256 81.6227 90.6835 82.1177C89.2415 82.6127 89.0127 83.7302 89.6104 83.8277C90.2082 83.9252 91.2281 83.4327 91.9678 83.4077C91.9678 83.4077 91.221 83.6577 91.237 84.6277C91.0596 84.4802 90.6428 84.8652 90.7314 85.6577C90.7314 85.6577 90.4335 85.2177 90.3146 86.0327C90.1958 86.8477 90.6995 88.0477 91.2778 88.0927C91.856 88.1377 91.7922 87.5502 91.7922 87.5502" stroke="#F4A789" stroke-width="0.75" stroke-linecap="round" stroke-linejoin="round"/>
<path d="M91.9749 83.4075C92.3286 83.3537 92.6854 83.3537 93.0391 83.4075" stroke="#F4A789" stroke-width="0.75" stroke-linecap="round" stroke-linejoin="round"/>
<path d="M90.7334 85.6576C90.9853 86.5751 91.3187 87.2026 91.7977 87.5501C92.2766 87.8976 92.9045 86.8851 92.8726 86.6026C93.1138 86.3676 93.2699 85.8376 92.7857 85.4226" stroke="#F4A789" stroke-width="0.75" stroke-linecap="round" stroke-linejoin="round"/>
<path d="M91.2371 84.6278C91.3701 85.6103 91.8242 86.8453 92.8672 86.6028" stroke="#F4A789" stroke-width="0.75" stroke-linecap="round" stroke-linejoin="round"/>
<path d="M95.7318 86.7504C94.5433 86.0004 94.3358 84.9729 94.2773 84.1954C94.2773 84.1954 92.6099 85.9104 92.225 85.4729C91.7461 84.9254 93.644 82.3329 94.0236 82.0204" stroke="#F4A789" stroke-width="0.75" stroke-linecap="round" stroke-linejoin="round"/>
<path d="M98.6247 88.7727C97.5764 90.1402 96.2905 91.3002 94.5078 91.2227C94.3659 89.9427 94.2772 89.1277 94.2772 89.1277C94.2772 89.1277 96.161 89.6002 98.0766 87.0902C98.1937 87.5002 98.3835 88.0752 98.6247 88.7727Z" fill="#683F1D"/>
<path d="M97.5765 88.435C97.5765 88.5266 97.5958 88.6161 97.632 88.6922C97.6681 88.7684 97.7195 88.8276 97.7795 88.8626C97.8396 88.8975 97.9057 88.9065 97.9694 88.8885C98.0331 88.8704 98.0915 88.8261 98.1374 88.7612C98.1832 88.6962 98.2143 88.6136 98.2267 88.5237C98.2392 88.4338 98.2325 88.3408 98.2073 88.2563C98.1822 88.1718 98.1399 88.0998 98.0857 88.0493C98.0315 87.9987 97.9679 87.972 97.9029 87.9725C97.8599 87.9725 97.8173 87.9845 97.7776 88.0078C97.7379 88.0311 97.7018 88.0652 97.6715 88.1082C97.6412 88.1511 97.6172 88.2021 97.6009 88.2582C97.5846 88.3143 97.5763 88.3744 97.5765 88.435V88.435Z" fill="white"/>
<path d="M127.003 102.25C126.033 106.982 124.91 111.62 124.3 114.152C122.796 120.417 117.232 124.152 116.593 118.417C115.834 111.597 119.076 99.2924 120.238 89.1324C120.258 88.9699 120.274 88.7949 120.29 88.6099C120.605 85.0224 120.568 77.6474 123.919 77.9149C124.269 77.942 124.615 78.0311 124.949 78.1799L125.017 78.2149C126.943 79.1499 127.986 82.1074 128.467 85.5924C128.632 86.819 128.735 88.0604 128.775 89.3074C128.878 92.1649 128.027 97.2624 127.003 102.25Z" fill="#A7CAF0"/>
<path d="M128.467 85.5924C128.156 85.4277 127.834 85.308 127.505 85.2349C125.121 84.6924 122.113 86.2899 120.29 88.6099C120.605 85.0224 120.568 77.6474 123.919 77.9149C124.269 77.942 124.615 78.0311 124.949 78.1799L125.017 78.2149C126.943 79.1499 127.983 82.1074 128.467 85.5924Z" fill="#A7CAF0"/>
<path d="M116.919 110.25C117.629 104.62 119.03 97.9601 119.896 91.8126" stroke="#83ADDF" stroke-width="0.75" stroke-linecap="round" stroke-linejoin="round"/>
<path d="M126.244 105.815C125.494 109.207 124.754 112.265 124.293 114.152C123.837 116.007 123.061 117.673 122.035 119" stroke="#83ADDF" stroke-width="0.75" stroke-linecap="round" stroke-linejoin="round"/>
<path d="M119.894 91.8125C120.249 89.8425 121.04 88.5625 121.529 88.46" stroke="#83ADDF" stroke-width="0.75" stroke-linecap="round" stroke-linejoin="round"/>
<path d="M86.9055 89.8099C87.7303 88.9974 89.2114 89.3274 90.9852 92.0599C92.0796 93.7778 92.9686 95.735 93.6175 97.8549C94.879 96.5695 96.3372 95.72 97.8745 95.3749C100.383 94.8474 103.496 96.4274 103.496 96.4274L103.98 98.3399L93.6902 100.25L86.9055 89.8099Z" fill="#F9F9F9" stroke="#DDDDDD" stroke-linecap="round" stroke-linejoin="round"/>
<path d="M94.2772 98.5226L104.599 97.3601L108.691 113.143L98.8074 114.268L94.2772 98.5226Z" fill="#F9F9F9" stroke="#DDDDDD" stroke-linecap="round" stroke-linejoin="round"/>
<path d="M86.4531 88.7976L93.0959 98.3501L97.603 113.305L91.1696 104.73L86.4531 88.7976Z" fill="#F9F9F9" stroke="#DDDDDD" stroke-linecap="round" stroke-linejoin="round"/>
<path d="M93.0961 98.35L94.2774 98.5225L98.8076 114.268L97.6032 113.305L93.0961 98.35Z" fill="#F9F9F9" stroke="#DDDDDD" stroke-linecap="round" stroke-linejoin="round"/>
<path d="M91.0508 93.6124C92.021 94.9949 93.0019 97.3799 93.0019 97.3799" stroke="#DDDDDD" stroke-linecap="round" stroke-linejoin="round"/>
<path d="M94.2809 97.8499C95.1377 97.1534 96.0657 96.6475 97.032 96.3499" stroke="#DDDDDD" stroke-linecap="round" stroke-linejoin="round"/>
<path d="M94.4014 98.1253C95.2883 97.5778 97.0939 97.0978 97.0939 97.0978" stroke="#DDDDDD" stroke-linecap="round" stroke-linejoin="round"/>
<path d="M92.5284 97.8924C92.7927 97.1574 94.2862 96.6424 94.5789 98.8924C94.2444 99.1578 93.8579 99.263 93.4774 99.1924C93.1599 99.1074 92.5284 97.8924 92.5284 97.8924Z" fill="#F9F9F9" stroke="#DDDDDD" stroke-linecap="round" stroke-linejoin="round"/>
<path d="M104.123 106.173C103.168 105.424 102.291 104.49 101.52 103.398C100.792 102.398 98.8997 101.07 98.7223 101.225C98.5449 101.38 98.4065 102.065 99.4052 103.305C99.711 103.651 99.9675 104.075 100.161 104.555C99.804 104.738 99.42 104.79 99.0451 104.705C98.4065 104.568 95.7122 104.318 95.3876 104.27C95.063 104.223 94.9974 104.843 95.4834 105.118C94.7029 104.953 94.4883 105.605 95.1925 106.21C95.1925 106.21 94.5823 106.44 95.2953 107.188C95.901 107.777 96.5379 108.299 97.2004 108.75C97.2004 108.75 95.7494 108.158 95.5614 108.195C95.3734 108.233 95.2687 108.655 95.7672 109.03C96.2656 109.405 99.7528 111.305 100.356 111.555C101.096 111.858 102.586 112.218 102.586 112.218C102.586 112.218 104.381 108.568 104.123 106.173Z" fill="#FEBD9D"/>
<path d="M118.612 121.25C115.229 121.575 106.75 115.918 103.437 113.69C102.759 113.238 102.298 112.94 102.14 112.84C102.14 112.84 102.208 107.158 104.359 106.02C104.639 106.239 104.937 106.407 105.246 106.52C105.648 106.685 106.059 106.798 106.475 106.858C107.894 107.08 112.318 108.005 114.727 108.28C117.136 108.555 120.181 110.878 121.27 113.638C122.017 115.53 121.952 120.935 118.612 121.25Z" fill="#A7CAF0"/>
<path d="M118.612 121.25C115.229 121.575 106.75 115.917 103.437 113.69C102.759 113.237 102.298 112.94 102.14 112.84" stroke="#83ADDF" stroke-width="0.75" stroke-linecap="round" stroke-linejoin="round"/>
<path d="M104.359 106.025C104.639 106.244 104.937 106.412 105.246 106.525C105.648 106.69 106.059 106.803 106.475 106.863C107.894 107.085 112.318 108.01 114.727 108.285C116.323 108.468 118.184 109.535 119.584 111.035" stroke="#83ADDF" stroke-width="0.75" stroke-linecap="round" stroke-linejoin="round"/>
<path d="M100.507 102.355C99.7174 101.678 98.8393 101.123 98.7223 101.225C98.5449 101.38 98.4065 102.065 99.4052 103.305C99.711 103.651 99.9675 104.075 100.161 104.555C99.804 104.738 99.42 104.79 99.0451 104.705C98.4065 104.568 95.7122 104.318 95.3876 104.27C95.063 104.223 94.9974 104.843 95.4834 105.118C94.7029 104.953 94.4883 105.605 95.1925 106.21C95.1925 106.21 94.5823 106.44 95.2953 107.188C95.901 107.777 96.5379 108.299 97.2004 108.75C97.2004 108.75 95.7494 108.158 95.5614 108.195C95.3734 108.233 95.2687 108.655 95.7672 109.03C95.9144 109.14 96.3295 109.388 96.8545 109.688" stroke="#F4A789" stroke-width="0.75" stroke-linecap="round" stroke-linejoin="round"/>
<path d="M105.253 106.538C104.216 107.643 103.492 110.873 103.437 113.695C102.759 113.243 102.298 112.945 102.14 112.845C102.14 112.845 102.208 107.163 104.359 106.025C104.641 106.249 104.941 106.421 105.253 106.538V106.538Z" fill="#683F1D"/>
<path d="M102.506 111.885C102.505 111.989 102.527 112.09 102.567 112.176C102.608 112.262 102.666 112.33 102.733 112.37C102.801 112.41 102.876 112.42 102.948 112.4C103.02 112.38 103.086 112.331 103.138 112.258C103.19 112.185 103.225 112.092 103.24 111.99C103.254 111.889 103.247 111.784 103.219 111.688C103.191 111.593 103.143 111.511 103.082 111.453C103.021 111.396 102.95 111.365 102.876 111.365C102.778 111.365 102.684 111.42 102.615 111.517C102.545 111.615 102.506 111.747 102.506 111.885V111.885Z" fill="white"/>
<path d="M97.2006 108.75C97.66 108.95 98.0041 109.142 98.0041 109.142" stroke="#F4A789" stroke-width="0.75" stroke-linecap="round" stroke-linejoin="round"/>
<path d="M95.1926 106.2L98.2595 107.705" stroke="#F4A789" stroke-width="0.75" stroke-linecap="round" stroke-linejoin="round"/>
<path d="M95.4834 105.108L98.3604 106.2" stroke="#F4A789" stroke-width="0.75" stroke-linecap="round" stroke-linejoin="round"/>
<path d="M114.567 69.2498C113.808 71.8598 111.859 76.3623 109.523 74.1573C109.035 73.6883 108.614 73.0947 108.281 72.4073C107.845 71.5114 107.526 70.5122 107.341 69.4573C107.07 67.9693 107.031 66.4163 107.226 64.9048C107.294 64.3842 107.398 63.8742 107.536 63.3823C108.496 60.0548 111.602 60.3198 112.746 61.9348C112.778 61.9798 112.813 62.0298 112.849 62.0848C113.424 63.051 113.876 64.1507 114.184 65.3348C114.23 65.5015 114.273 65.6681 114.312 65.8348C114.647 67.1673 114.786 68.4998 114.567 69.2498Z" fill="#FEBD9D"/>
<path d="M107.914 68.6024C107.914 68.6747 107.929 68.7454 107.958 68.8055C107.986 68.8656 108.027 68.9123 108.074 68.9399C108.122 68.9674 108.174 68.9745 108.224 68.9602C108.275 68.9459 108.321 68.9109 108.357 68.8596C108.393 68.8083 108.417 68.7431 108.427 68.6721C108.437 68.6011 108.432 68.5277 108.412 68.461C108.392 68.3944 108.358 68.3375 108.316 68.2977C108.273 68.2579 108.223 68.2369 108.171 68.2374C108.137 68.2374 108.104 68.2469 108.072 68.2653C108.041 68.2836 108.013 68.3106 107.989 68.3445C107.965 68.3784 107.946 68.4187 107.933 68.4629C107.92 68.5072 107.914 68.5546 107.914 68.6024V68.6024Z" fill="#683F1D"/>
<path d="M109.337 67.9649C109.337 68.0371 109.352 68.1076 109.38 68.1677C109.409 68.2277 109.449 68.2745 109.496 68.3021C109.544 68.3297 109.596 68.3369 109.646 68.3229C109.696 68.3088 109.742 68.274 109.779 68.223C109.815 68.1719 109.84 68.1069 109.85 68.0361C109.86 67.9653 109.854 67.8919 109.835 67.8252C109.815 67.7585 109.782 67.7015 109.739 67.6614C109.697 67.6213 109.647 67.5999 109.596 67.5999C109.561 67.5995 109.528 67.6087 109.496 67.627C109.465 67.6452 109.436 67.6721 109.412 67.706C109.388 67.74 109.369 67.7804 109.356 67.8248C109.343 67.8692 109.336 67.9168 109.337 67.9649Z" fill="#683F1D"/>
<path d="M114.007 69.1127C115.092 69.5202 116.343 67.6127 115.711 66.0327C115.08 64.4527 113.842 65.4527 113.691 66.5752L114.007 69.1127Z" fill="#FEBD9D"/>
<path d="M114.007 69.1128C114.201 69.1811 114.405 69.1811 114.599 69.1128" stroke="#F4A789" stroke-width="0.75" stroke-linecap="round" stroke-linejoin="round"/>
<path d="M114.184 67.4827C114.284 66.2002 115.105 66.1377 115.316 66.7152" stroke="#F4A789" stroke-width="0.75" stroke-linecap="round" stroke-linejoin="round"/>
<path d="M114.211 67.2501C114.91 66.1801 115.788 67.9701 114.408 68.1276" stroke="#F4A789" stroke-width="0.75" stroke-linecap="round" stroke-linejoin="round"/>
<path d="M114.312 65.8173C114.307 65.8637 114.3 65.9096 114.291 65.9548C114.133 66.7423 113.544 66.3498 113.304 65.6023C113.028 64.7173 111.408 61.5323 109.948 63.7148C108.866 65.3298 107.976 65.5473 107.226 64.9048C107.289 64.4118 107.387 63.9287 107.517 63.4623C107.522 63.4351 107.529 63.4084 107.536 63.3823C108.496 60.0548 111.602 60.3198 112.746 61.9348C112.778 61.9798 112.813 62.0298 112.849 62.0848C113.424 63.051 113.876 64.1507 114.184 65.3348C114.23 65.4915 114.273 65.6523 114.312 65.8173Z" fill="#BF8228"/>
<path d="M114.291 65.9552C114.133 66.7427 113.544 66.3502 113.304 65.6027C113.028 64.7177 111.408 61.5327 109.948 63.7152C108.866 65.3302 107.976 65.5477 107.226 64.9052C107.289 64.4122 107.387 63.9291 107.517 63.4627C108.437 64.0027 109.29 63.2352 109.853 62.5852C110.562 61.7827 111.424 61.8477 112.313 62.7227C113.097 63.5002 113.762 66.0902 114.291 65.9552Z" fill="#BF8228"/>
<path d="M108.154 65.2172C108.01 62.9672 108.675 61.5172 109.218 61.0822" stroke="#7F542D" stroke-width="0.75" stroke-linecap="round" stroke-linejoin="round"/>
<path d="M108.579 65.1049C108.647 64.1899 109.81 60.8549 111.126 60.8549" stroke="#7F542D" stroke-width="0.75" stroke-linecap="round" stroke-linejoin="round"/>
<path d="M110.067 63.5603C110.481 62.1453 110.99 61.2403 111.596 61.0128" stroke="#7F542D" stroke-width="0.75" stroke-linecap="round" stroke-linejoin="round"/>
<path d="M112.53 61.6703C112.627 62.8278 112.549 63.5928 112.31 63.7803" stroke="#7F542D" stroke-width="0.75" stroke-linecap="round" stroke-linejoin="round"/>
<path d="M113.03 62.3851C113.301 63.8726 113.074 64.5426 112.916 64.7151" stroke="#7F542D" stroke-width="0.75" stroke-linecap="round" stroke-linejoin="round"/>
<path d="M108.294 67.3427C108.778 67.6177 109.003 68.0926 108.883 68.5277C108.734 69.0677 108.489 70.0277 108.957 70.4477" stroke="#F4A789" stroke-width="0.75" stroke-linecap="round" stroke-linejoin="round"/>
<path d="M108.888 66.0798C108.937 66.6273 110.323 66.0798 110.376 65.7573C110.447 65.3198 108.801 65.1148 108.888 66.0798Z" fill="#BF8228"/>
<path d="M108.116 66.5728C108.294 67.0203 107.052 67.6553 106.875 67.4453C106.669 67.1703 107.825 65.7828 108.116 66.5728Z" fill="#BF8228"/>
<path d="M109.698 71.1074C109.925 70.9795 110.131 70.7882 110.304 70.545C110.477 70.3018 110.613 70.0118 110.704 69.6924C110.704 69.6924 111.165 70.8274 110.621 71.4149C110.204 71.8624 109.698 71.1074 109.698 71.1074Z" fill="white" stroke="#F4A789" stroke-width="0.75" stroke-linecap="round" stroke-linejoin="round"/>
<path d="M111.957 69.7224C112.619 69.7224 113.156 68.9658 113.156 68.0324C113.156 67.099 112.619 66.3424 111.957 66.3424C111.294 66.3424 110.757 67.099 110.757 68.0324C110.757 68.9658 111.294 69.7224 111.957 69.7224Z" fill="#F4A789"/>
<path d="M108.698 71.1298C108.699 71.3727 108.662 71.6129 108.59 71.8336C108.518 72.0543 108.413 72.2501 108.281 72.4073C107.845 71.5114 107.526 70.5122 107.341 69.4573C107.393 69.4462 107.446 69.4404 107.499 69.4398C107.817 69.4398 108.122 69.6179 108.347 69.9348C108.572 70.2517 108.698 70.6816 108.698 71.1298Z" fill="#F4A789"/>
</svg>
