<svg width="609" height="453" viewBox="0 0 609 453" fill="none" xmlns="http://www.w3.org/2000/svg">
<path d="M506.428 18.37H126.968V325.03H506.428V18.37Z" stroke="#DDDDDD" stroke-width="2" stroke-linecap="round" stroke-linejoin="round"/>
<path d="M340.688 59.6899H280.178V89.27L264.738 92.96L255.508 54.27L334.878 35.33L340.688 59.6899Z" stroke="#DDDDDD" stroke-miterlimit="10"/>
<path d="M285.908 264.59H251.348V309.86H285.908V264.59Z" fill="#DDDDDD"/>
<path d="M231.698 271.52H197.138V309.85H231.698V271.52Z" stroke="#DDDDDD" stroke-linecap="round" stroke-linejoin="round"/>
<path d="M448.538 146.9H413.978V309.86H448.538V146.9Z" stroke="#DDDDDD" stroke-linecap="round" stroke-linejoin="round"/>
<path d="M394.328 146.9H359.768V309.86H394.328V146.9Z" fill="#DDDDDD"/>
<path d="M440.798 32.76L393.218 63.26L408.118 72.45C399.058 87.09 351.798 148.63 351.798 148.63L298.398 153.63C278.648 191.51 233.308 258.15 233.308 258.15H93.7983V291.51L244.338 289.89L317.768 177.76L369.268 176.57L430.448 83.33L442.198 87.76L440.798 32.76Z" fill="#DDDDDD" stroke="#DDDDDD" stroke-linecap="round" stroke-linejoin="round"/>
<path d="M340.118 208.22H305.558V309.86H340.118V208.22Z" stroke="#DDDDDD" stroke-linecap="round" stroke-linejoin="round"/>
<path d="M527.948 325.03H105.458V342.4H527.948V325.03Z" stroke="#DDDDDD" stroke-width="2" stroke-linecap="round" stroke-linejoin="round"/>
<path d="M308.778 70.9801C308.758 70.9142 308.717 70.8568 308.661 70.817C308.605 70.7771 308.537 70.7571 308.468 70.76H304.228C304.16 70.7571 304.092 70.7771 304.036 70.817C303.98 70.8568 303.938 70.9142 303.918 70.9801L297.848 87.3401C297.844 87.3766 297.844 87.4135 297.848 87.4501V87.57C297.846 87.6587 297.878 87.7449 297.938 87.8101C298.008 87.87 298.097 87.902 298.188 87.9H302.388C302.458 87.9068 302.527 87.8883 302.584 87.8479C302.641 87.8075 302.682 87.7479 302.698 87.68L303.628 85.2301H309.118L310.028 87.68C310.045 87.7479 310.085 87.8075 310.142 87.8479C310.199 87.8883 310.269 87.9068 310.338 87.9H314.558C314.644 87.901 314.726 87.8687 314.788 87.8101C314.849 87.7449 314.881 87.6587 314.878 87.57V87.4501C314.883 87.4169 314.883 87.3832 314.878 87.35L308.778 70.9801ZM305.178 80.9801L306.338 77.8101L307.538 80.9801H305.178Z" fill="#DDDDDD"/>
<path d="M328.938 72.76C328.259 72.1017 327.452 71.588 326.568 71.25C325.633 70.91 324.644 70.7407 323.648 70.75H317.118C317.073 70.7453 317.026 70.7509 316.983 70.7663C316.939 70.7818 316.9 70.8066 316.868 70.8392C316.835 70.8718 316.81 70.9112 316.795 70.9546C316.779 70.9979 316.774 71.0442 316.778 71.09V87.56C316.776 87.6516 316.808 87.7407 316.868 87.81C316.937 87.8717 317.026 87.9041 317.118 87.9H323.618C324.614 87.9094 325.603 87.74 326.538 87.4C327.422 87.0621 328.229 86.5484 328.908 85.89C329.651 85.1323 330.206 84.211 330.528 83.2C331.302 80.6746 331.302 77.9754 330.528 75.45C330.216 74.4413 329.671 73.52 328.938 72.76ZM325.238 82.7C324.901 83.0698 324.488 83.3622 324.027 83.5572C323.566 83.7523 323.069 83.8454 322.568 83.83H321.778C321.757 83.8334 321.734 83.8317 321.713 83.8248C321.692 83.818 321.673 83.8063 321.658 83.7907C321.642 83.7751 321.63 83.756 321.624 83.7351C321.617 83.7141 321.615 83.6918 321.618 83.67V74.96C321.618 74.84 321.678 74.79 321.778 74.79H322.568C323.069 74.772 323.567 74.8638 324.029 75.0591C324.49 75.2543 324.903 75.5481 325.238 75.92C325.91 76.9249 326.268 78.1064 326.268 79.315C326.268 80.5237 325.91 81.7051 325.238 82.71V82.7Z" fill="#DDDDDD"/>
<path d="M343.728 81.3201C343.509 80.7026 343.169 80.1349 342.728 79.6501C342.322 79.2125 341.858 78.8323 341.348 78.5201C340.87 78.2332 340.351 78.0207 339.808 77.8901C339.393 77.7916 338.992 77.6369 338.618 77.4301C338.347 77.2826 338.112 77.0779 337.928 76.8301C337.815 76.6685 337.721 76.4939 337.648 76.3101C337.608 76.1872 337.584 76.0593 337.578 75.9301C337.585 75.8139 337.609 75.6994 337.648 75.5901C337.716 75.4348 337.799 75.2873 337.898 75.1501C338.048 74.9489 338.258 74.8016 338.498 74.7301C338.818 74.6135 339.158 74.5625 339.498 74.5801C340.556 74.6029 341.608 74.7336 342.638 74.9701C342.683 74.9845 342.731 74.9865 342.777 74.976C342.822 74.9654 342.864 74.9426 342.898 74.91C342.972 74.8537 343.022 74.7716 343.038 74.6801L343.358 71.3401C343.358 71.2536 343.33 71.1696 343.278 71.1001C343.226 71.0349 343.151 70.992 343.068 70.9801C341.826 70.8406 340.578 70.7671 339.328 70.7601C337.639 70.6628 335.962 71.1039 334.538 72.0201C333.966 72.4364 333.507 72.9894 333.203 73.6287C332.899 74.268 332.76 74.9732 332.798 75.6801C332.794 76.4203 332.923 77.1553 333.178 77.8501C333.401 78.466 333.74 79.033 334.178 79.5201C334.585 79.9479 335.046 80.321 335.548 80.6301C336.025 80.9235 336.544 81.1395 337.088 81.2701C337.507 81.3577 337.909 81.5131 338.278 81.7301C338.554 81.8712 338.79 82.0771 338.968 82.3301C339.077 82.4882 339.164 82.6596 339.228 82.8401C339.273 82.9618 339.297 83.0903 339.298 83.2201C339.296 83.34 339.272 83.4585 339.228 83.5701C339.172 83.7315 339.091 83.8832 338.988 84.0201C338.836 84.2111 338.631 84.3535 338.398 84.4301C338.078 84.5457 337.738 84.5933 337.398 84.5701C336.388 84.548 335.383 84.4241 334.398 84.2001C334.353 84.1854 334.304 84.1823 334.257 84.1911C334.21 84.1998 334.166 84.2201 334.128 84.2501C334.089 84.2775 334.056 84.3131 334.032 84.3546C334.008 84.3961 333.993 84.4423 333.988 84.4901L333.668 87.8301C333.669 87.9165 333.697 88.0005 333.748 88.0701C333.801 88.1352 333.876 88.1781 333.958 88.19C335.163 88.3344 336.375 88.4046 337.588 88.4001C339.888 88.4001 341.555 87.9967 342.588 87.19C343.122 86.7382 343.54 86.1664 343.81 85.5215C344.079 84.8766 344.192 84.177 344.138 83.4801C344.135 82.7411 343.996 82.009 343.728 81.3201Z" fill="#DDDDDD"/>
<path d="M527.948 1H105.458V18.37H527.948V1Z" stroke="#DDDDDD" stroke-width="2" stroke-linecap="round" stroke-linejoin="round"/>
<path d="M361.768 59.6899H280.168V99.4599H361.768V59.6899Z" stroke="#DDDDDD" stroke-width="2" stroke-linecap="round" stroke-linejoin="round"/>
<path d="M483.368 417.87V448.76H533.368C533.368 448.76 536.368 445.89 527.268 441.46C518.678 437.28 513.498 433.2 509.188 423.39L483.368 417.87Z" fill="#683F1D"/>
<path d="M482.358 426.3H513.908L515.538 182.54L484.888 184.86L482.358 426.3Z" fill="#A7CAF0"/>
<path d="M490.118 215.57C494.348 214.89 495.958 213.36 495.958 213.36" stroke="#83ADDF" stroke-width="0.75" stroke-linecap="round" stroke-linejoin="round"/>
<path d="M506.378 191.38C506.128 199.31 508.918 208.96 512.378 211.5" stroke="#83ADDF" stroke-width="0.75" stroke-linecap="round" stroke-linejoin="round"/>
<path d="M457.118 430.76V452.5H507.118C507.118 452.5 510.118 449.63 501.008 445.2C492.428 441.02 487.248 436.94 482.938 427.13L457.118 430.76Z" fill="#683F1D"/>
<path d="M507.118 452.52C507.118 452.52 510.118 449.65 501.008 445.22C492.428 441.04 487.248 436.96 482.938 427.15" stroke="#7F542D" stroke-width="0.75" stroke-linecap="round" stroke-linejoin="round"/>
<path d="M441.118 156.38C436.748 215.56 439.018 255.38 442.918 305.89C446.818 356.4 453.118 430.76 453.118 430.76H486.118L488.538 177.76L441.118 156.38Z" fill="#A7CAF0"/>
<path d="M486.088 430.78L488.068 218.46" stroke="#83ADDF" stroke-width="0.75" stroke-linecap="round" stroke-linejoin="round"/>
<path d="M608.168 127.38C608.168 136.94 604.588 145.45 599.008 150.97C595.495 154.572 590.84 156.842 585.838 157.39C585.498 157.39 585.158 157.44 584.838 157.45H584.028C573.888 157.45 565.198 149.69 561.608 138.69C560.416 135.028 559.816 131.2 559.828 127.35C559.828 118.09 563.188 109.82 568.468 104.3C570.447 102.134 572.848 100.395 575.524 99.1912C578.2 97.9873 581.094 97.3437 584.028 97.2999C597.338 97.2899 608.168 110.76 608.168 127.38Z" fill="#FED81D"/>
<path d="M598.998 150.98C595.485 154.582 590.83 156.852 585.828 157.4C585.488 157.4 585.148 157.45 584.828 157.46H584.018C573.878 157.46 565.188 149.7 561.598 138.7C572.798 145.25 577.158 158.61 596.808 151.78C597.478 151.56 598.228 151.29 598.998 150.98Z" fill="#FCC71F"/>
<path d="M596.758 151.76C595.405 153.379 593.74 154.709 591.863 155.671C589.985 156.634 587.933 157.208 585.828 157.36C585.488 157.36 585.148 157.41 584.828 157.42H584.018C581.037 157.421 578.073 156.969 575.228 156.08C557.478 150.82 537.548 137.89 524.658 129.82L524.478 129.71C521.478 127.81 518.828 126.2 516.708 125.03C516.358 124.82 516.018 124.64 515.708 124.47C510.958 121.95 507.118 116.31 504.768 109.73C504.318 108.46 503.918 107.15 503.578 105.82C499.428 89.4299 504.478 70.1399 526.838 77.8199C531.038 79.2499 536.588 82.2099 542.778 86.0699C551.643 91.6984 560.214 97.7763 568.458 104.28C583.048 115.67 595.898 127.42 598.718 132.48C600.264 135.546 600.902 138.99 600.554 142.406C600.207 145.822 598.89 149.068 596.758 151.76Z" fill="#FED81D"/>
<path d="M598.998 150.98C595.485 154.582 590.83 156.851 585.828 157.4C585.488 157.4 585.148 157.45 584.828 157.46H584.018C581.037 157.461 578.073 157.009 575.228 156.12C557.478 150.86 537.548 137.93 524.658 129.86C524.658 129.86 524.598 129.8 524.478 129.75C521.478 127.85 518.828 126.24 516.708 125.07C516.358 124.86 516.018 124.68 515.708 124.51C510.958 121.99 507.118 116.35 504.768 109.77C504.318 108.5 503.918 107.19 503.578 105.86C510.898 104.68 519.408 105.38 528.868 109.47C532.488 111.04 539.248 113.91 535.438 119.02C530.648 125.46 534.628 135.36 549.008 135.36C553.436 135.289 557.797 136.445 561.608 138.7C572.808 145.25 577.168 158.61 596.818 151.78C597.478 151.56 598.228 151.29 598.998 150.98Z" fill="#FCC71F"/>
<path d="M542.728 86.1199C539.236 85.8559 535.724 86.0916 532.298 86.8199C526.298 88.0799 519.158 91.1899 514.738 98.6299C512.136 102.945 508.743 106.732 504.738 109.79C498.688 92.7899 502.638 69.5799 526.808 77.8699C530.988 79.2999 536.538 82.2599 542.728 86.1199Z" fill="#FED81D"/>
<path d="M535.378 75.5501C533.498 75.0901 536.128 68.4001 541.158 62.1001C545.888 56.1801 548.878 52.9401 550.318 54.9201C551.198 56.1401 549.888 75.0501 535.378 75.5501Z" fill="#FCC71F"/>
<path d="M543.328 76.13C537.328 67.76 533.328 60.85 530.508 58.59C527.688 56.33 525.088 55.19 524.788 52.59C524.704 50.6807 525.149 48.7853 526.076 47.1137C527.003 45.4422 528.374 44.0599 530.038 43.12C534.188 40.71 552.628 63.3 552.628 63.3C552.628 63.3 553.228 74.54 543.328 76.13Z" fill="#B25E47"/>
<path d="M513.798 30.55C517.378 27 521.178 27.55 529.178 35.03C537.178 42.51 546.118 46.36 547.988 52.37C549.988 58.88 544.578 64.04 537.328 63.17C534.768 62.87 530.778 62.42 534.768 53.28L524.028 44.28C524.028 44.28 521.028 48.77 516.438 47.51C511.658 46.15 505.448 38.86 513.798 30.55Z" fill="#DDDDDD" stroke="#DDDDDD" stroke-linecap="round" stroke-linejoin="round"/>
<path d="M536.568 45.4601C538.298 46.3501 543.088 39.4601 540.808 38.1001C537.738 36.2901 534.828 44.5601 536.568 45.4601Z" fill="#B25E47" stroke="#914839" stroke-width="0.75" stroke-linecap="round" stroke-linejoin="round"/>
<path d="M534.768 53.28C535.993 51.1471 537.919 49.5041 540.218 48.63" stroke="#DDDDDD" stroke-linecap="round" stroke-linejoin="round"/>
<path d="M524.028 44.24C524.678 43.3088 525.129 42.2537 525.352 41.1405C525.576 40.0273 525.568 38.8799 525.328 37.77" stroke="#DDDDDD" stroke-linecap="round" stroke-linejoin="round"/>
<path d="M524.118 53.76C525.538 56.98 529.618 52.3 531.298 47.76C532.908 43.47 532.518 42.5 530.068 42.95C527.618 43.4 522.178 49.49 524.118 53.76Z" fill="#B25E47" stroke="#914839" stroke-width="0.75" stroke-linecap="round" stroke-linejoin="round"/>
<path d="M527.658 39.58C529.598 40.58 534.998 32.94 532.428 31.45C528.978 29.45 525.698 38.59 527.658 39.58Z" fill="#B25E47" stroke="#914839" stroke-width="0.75" stroke-linecap="round" stroke-linejoin="round"/>
<path d="M530.728 41.2C532.668 42.2 538.068 34.56 535.498 33.07C532.048 31.07 528.768 40.21 530.728 41.2Z" fill="#B25E47" stroke="#914839" stroke-width="0.75" stroke-linecap="round" stroke-linejoin="round"/>
<path d="M533.718 43.47C535.588 44.47 540.718 37.11 538.288 35.69C534.978 33.76 531.848 42.53 533.718 43.47Z" fill="#B25E47" stroke="#914839" stroke-width="0.75" stroke-linecap="round" stroke-linejoin="round"/>
<path d="M535.378 75.55C543.018 86.3 564.018 117.55 571.958 128.03C582.258 141.65 606.908 143.86 606.958 117.81C606.958 104.91 550.358 54.92 550.358 54.92C550.358 54.92 547.438 70.21 535.378 75.55Z" fill="#FED81D"/>
<path d="M542.648 78.76C552.038 75.6 555.258 64.99 555.258 64.99" stroke="#FCC71F" stroke-width="0.75" stroke-linecap="round" stroke-linejoin="round"/>
<path d="M547.008 59.52C561.008 78.88 566.008 92.11 562.678 97.29C559.348 102.47 551.838 99.67 552.678 95.29C553.678 89.86 562.748 88.48 559.008 103.06C555.268 117.64 545.008 118.91 543.148 114.87C540.638 109.27 551.078 103.31 552.148 118C553.218 132.69 536.798 136.45 532.218 132.76C527.638 129.07 540.558 119.44 540.358 135.59C540.158 151.74 521.068 152.24 512.458 150.08" stroke="#DDDDDD" stroke-width="2" stroke-linecap="round" stroke-linejoin="round"/>
<path d="M535.378 75.55C543.018 86.3 564.018 117.55 571.958 128.03C574.323 131.114 577.351 133.626 580.818 135.38" stroke="#FCC71F" stroke-width="0.75" stroke-linecap="round" stroke-linejoin="round"/>
<path d="M420.678 163.95C420.722 167.751 419.872 171.51 418.198 174.923C416.523 178.336 414.071 181.308 411.038 183.6C407.506 186.193 403.24 187.594 398.858 187.6H398.798C396.045 187.59 393.323 187.018 390.798 185.92C382.738 182.46 377.038 173.92 377.038 163.92C377.038 163.72 377.038 163.53 377.038 163.35C377.085 160.006 377.82 156.707 379.196 153.658C380.572 150.61 382.561 147.877 385.038 145.63C387.608 143.335 390.696 141.698 394.038 140.86C395.633 140.454 397.272 140.249 398.918 140.25C407.568 140.25 415.048 145.72 418.568 153.64C419.352 155.379 419.926 157.205 420.278 159.08C420.571 160.686 420.705 162.317 420.678 163.95Z" fill="#FED81D"/>
<path d="M398.798 187.62C396.045 187.61 393.323 187.038 390.798 185.94C382.738 182.48 377.038 173.94 377.038 163.94C377.038 163.74 377.038 163.55 377.038 163.37C377.085 160.026 377.82 156.727 379.196 153.678C380.572 150.63 382.561 147.897 385.038 145.65C383.258 168.7 385.758 180.59 398.798 187.62Z" fill="#FCC71F"/>
<path d="M464.318 95.1C463.718 97.01 463.018 98.96 462.238 100.94C461.518 102.76 460.721 104.6 459.848 106.46C459.568 107.04 459.278 107.63 458.988 108.21C458.078 110.05 457.108 111.9 456.048 113.75C455.698 114.37 455.338 114.99 454.978 115.61C448.756 125.858 441.702 135.577 433.888 144.67C432.088 146.77 430.248 148.84 428.378 150.86L427.058 152.27C425.658 153.75 424.248 155.19 422.828 156.59C421.958 157.44 421.098 158.29 420.228 159.1C409.618 169.1 398.678 176.34 389.798 176.54C388.969 176.565 388.139 176.518 387.318 176.4C384.887 176.139 382.61 175.085 380.838 173.4C378.468 171.09 377.208 167.61 377.068 163.4C376.818 155.48 380.488 144.92 388.068 134.4L389.368 132.57C396.818 121.89 407.818 103.77 420.018 89.04C431.218 75.51 443.438 64.83 454.898 65.35C455.816 65.3921 456.729 65.5091 457.628 65.7C467.578 67.76 469.048 79.96 464.318 95.1Z" fill="#FED81D"/>
<path d="M389.338 163.09C387.723 164.987 386.874 167.418 386.958 169.907C387.041 172.397 388.05 174.765 389.788 176.55C388.959 176.575 388.129 176.528 387.308 176.41C384.877 176.149 382.6 175.095 380.828 173.41C378.458 171.1 377.198 167.62 377.058 163.41C376.808 155.49 380.478 144.93 388.058 134.41L389.358 132.58C391.672 134.86 393.271 137.765 393.958 140.94C394.555 143.474 394.771 146.082 394.598 148.68C394.308 154.05 392.448 159.44 389.338 163.09Z" fill="#FCC71F"/>
<path d="M462.238 100.94C460.198 106.009 457.771 110.913 454.978 115.61C448.756 125.858 441.702 135.577 433.888 144.67C430.338 148.82 426.618 152.86 422.828 156.6" stroke="#FCC71F" stroke-width="0.75" stroke-linecap="round" stroke-linejoin="round"/>
<path d="M464.318 95.1C458.978 88.55 453.058 85 443.318 84.95C437.318 84.95 429.798 86.24 420.068 89C431.268 75.47 443.488 64.79 454.948 65.31C455.866 65.352 456.779 65.4691 457.678 65.66C467.578 67.76 469.048 79.96 464.318 95.1Z" fill="#FED81D"/>
<path d="M532.298 86.82C531.878 96.09 527.918 113.69 525.148 127.13C524.968 128.03 524.788 128.94 524.608 129.88C521.158 147.6 517.698 174.12 517.678 178.13C517.678 191.52 508.408 189.13 482.488 188.37C469.738 188.02 455.638 187.55 445.118 185.44C442.15 184.901 439.243 184.07 436.438 182.96C431.438 180.86 428.498 177.9 429.008 173.66C429.074 173.132 429.184 172.61 429.338 172.1C431.854 163.151 433.38 153.952 433.888 144.67C434.258 139.67 434.458 134.53 434.698 129.27C434.888 124.81 435.108 120.27 435.478 115.46C436.208 105.92 439.478 94.46 443.278 84.95C447.598 73.95 452.508 65.51 454.768 65.32H454.908C459.218 65 470.138 66.46 486.128 66.78C492.898 66.9259 499.602 68.1478 505.988 70.4C508.788 71.4 520.058 74.67 526.778 77.88C528.558 78.5843 530.175 79.6462 531.528 81C532.218 81.9 532.428 83.96 532.298 86.82Z" fill="#FED81D"/>
<path d="M445.118 185.44C442.15 184.901 439.243 184.07 436.438 182.96C431.438 180.86 428.498 177.9 429.008 173.66C429.074 173.132 429.184 172.61 429.338 172.1C431.854 163.151 433.38 153.952 433.888 144.67C434.258 139.67 434.458 134.53 434.698 129.27L456.838 108.21C462.908 118.37 451.248 138.02 443.468 143.07C435.688 148.12 436.228 158.07 452.618 161.56C465.048 164.19 452.118 178.63 445.118 185.44Z" fill="#FCC71F"/>
<path d="M542.728 86.1199C539.236 85.8559 535.724 86.0916 532.298 86.8199C526.298 88.0799 519.158 91.1899 514.738 98.6299C512.136 102.945 508.743 106.732 504.738 109.79C494.298 117.79 480.198 120.18 471.208 105.24C469.16 101.705 466.867 98.3166 464.348 95.0999C459.008 88.5499 453.088 84.9999 443.348 84.9499C437.348 84.9499 429.828 86.24 420.098 89C431.298 75.47 443.518 64.7899 454.978 65.3099C459.288 64.9899 470.208 66.4499 486.198 66.7699C492.968 66.9158 499.672 68.1378 506.058 70.3899C508.858 71.3899 520.128 74.6599 526.848 77.8699C530.988 79.2999 536.538 82.2599 542.728 86.1199Z" fill="#FED81D"/>
<path d="M499.118 83.02C499.118 83.02 502.118 92.67 503.278 93.53L508.278 94.31C509.921 91.3816 511.299 88.3128 512.398 85.14L507.118 77.53L499.118 83.02Z" fill="#683F1D"/>
<path d="M503.318 93.53L491.788 137.53C491.788 137.53 493.118 143.41 499.708 152.35C499.708 152.35 506.378 143.65 507.788 139.88L508.338 94.31L503.318 93.53Z" fill="#683F1D"/>
<path d="M490.758 63.28C488.018 63.36 482.398 65.87 482.328 68.16C482.258 70.45 487.428 88.57 495.638 93.08C495.638 93.08 498.818 83.61 507.098 82.28L490.758 63.28Z" fill="white"/>
<path d="M507.118 82.28C510.338 86.238 513.012 90.6104 515.068 95.28C515.068 95.28 523.178 84.67 522.068 76.11C521.878 74.68 514.758 71.26 514.758 71.26L507.118 82.28Z" fill="white"/>
<path d="M524.608 129.88C524.788 128.94 524.968 128.03 525.148 127.13C526.278 121.66 527.608 115.49 528.808 109.49C528.898 109.05 528.978 108.63 529.058 108.21" stroke="#FCC71F" stroke-width="0.75" stroke-linecap="round" stroke-linejoin="round"/>
<path d="M516.868 73.34C516.868 73.34 513.578 83.04 506.868 83.02C495.948 83.02 489.128 65.47 489.128 65.47C492.488 51.86 492.128 45.54 492.128 45.54C491.758 36.54 512.428 24.65 515.278 51.38L515.528 54.92L516.408 67.32L516.868 73.34Z" fill="#B25E47"/>
<path d="M516.438 67.32C509.438 67.08 502.988 63.42 502.648 54.92H515.558L516.438 67.32Z" fill="#914839"/>
<path d="M514.708 19.49C514.358 21.91 511.248 23.49 511.248 23.49L504.118 34.2C504.118 34.2 497.608 41.64 490.678 40.88C489.656 40.7697 488.661 40.4821 487.738 40.03C484.318 38.37 486.308 35.15 485.608 34.1C484.908 33.05 483.228 32.91 482.808 30.97C482.388 29.03 485.508 29.17 484.178 27.08C482.848 24.99 482.088 23.28 484.278 21.77C486.468 20.26 484.358 19.66 485.758 17.24C486.838 15.36 488.638 17.64 489.298 15.17C489.958 12.7 491.968 13.58 493.408 13.35C495.228 13.05 493.678 11.48 496.168 10.88C497.378 10.58 497.348 12.01 498.768 11.06C499.374 10.596 500.096 10.3085 500.855 10.2291C501.613 10.1497 502.379 10.2815 503.068 10.61C504.898 11.82 504.818 9.38997 507.068 10.13C508.688 10.67 507.658 11.9 509.888 12.25C512.118 12.6 512.048 13.91 512.238 15.3C512.257 15.4948 512.288 15.6884 512.328 15.88C512.658 17.46 515.048 17.07 514.708 19.49Z" fill="#683F1D"/>
<path d="M516.248 18.32C515.888 20.92 512.618 22.64 512.618 22.64L505.118 34.06C505.118 34.06 498.308 42.06 491.038 41.22C491.175 40.6178 491.133 39.9888 490.918 39.41C490.178 38.29 488.428 38.14 487.988 36.06C487.548 33.98 490.818 34.12 489.428 31.89C488.038 29.66 487.238 27.83 489.518 26.2C491.798 24.57 489.608 23.96 491.078 21.37C492.208 19.37 494.078 21.79 494.798 19.15C495.518 16.51 497.588 17.45 499.098 17.21C501.008 16.89 499.378 15.21 501.998 14.56C503.268 14.24 503.228 15.77 504.718 14.76C506.208 13.75 508.108 13.51 509.228 14.27C511.148 15.57 511.058 12.96 513.458 13.76L513.668 13.84C513.668 14.05 513.728 14.25 513.768 14.46C514.118 16.15 516.608 15.76 516.248 18.32Z" fill="#683F1D"/>
<path d="M521.048 53.93C519.118 59.38 507.468 65.55 493.318 47.78C491.498 48.46 488.458 47.95 486.788 44.78C484.698 40.78 487.688 34.88 494.648 37.71C495.928 38.23 496.648 35.01 495.088 32.77C493.528 30.53 490.888 25.07 497.088 21.09C503.288 17.11 511.548 17.53 514.708 22.49C516.701 25.7893 518.286 29.3185 519.428 33C519.958 34.65 520.428 36.35 520.818 38.07C522.118 43.83 522.518 49.76 521.048 53.93Z" fill="#B25E47"/>
<path d="M507.858 39.41C507.528 40.74 504.938 41.24 502.058 40.53C499.178 39.82 497.118 38.18 497.438 36.85C497.758 35.52 500.358 35.03 503.238 35.74C506.118 36.45 508.178 38.09 507.858 39.41Z" fill="#914839"/>
<path d="M520.848 38.04C519.468 38.8 518.198 38.98 517.568 38.34C516.638 37.42 517.468 35.03 519.458 32.97C519.988 34.62 520.458 36.32 520.848 38.04Z" fill="#914839"/>
<path d="M499.858 30.24C500.078 31.39 507.558 29.17 506.858 26.8C505.848 23.58 499.448 28.18 499.858 30.24Z" fill="#683F1D"/>
<path d="M510.748 26.76C510.908 28.24 516.888 28.26 516.868 27.3C516.848 26.34 510.388 23.41 510.748 26.76Z" fill="#683F1D"/>
<path d="M505.528 33.68C505.528 33.947 505.607 34.208 505.756 34.43C505.904 34.652 506.115 34.825 506.361 34.9272C506.608 35.0294 506.88 35.0561 507.141 35.004C507.403 34.9519 507.644 34.8234 507.833 34.6346C508.022 34.4458 508.15 34.2052 508.202 33.9433C508.254 33.6815 508.228 33.41 508.125 33.1633C508.023 32.9166 507.85 32.7058 507.628 32.5575C507.406 32.4091 507.145 32.33 506.878 32.33C506.701 32.33 506.525 32.3649 506.361 32.4327C506.198 32.5006 506.049 32.6 505.924 32.7254C505.798 32.8507 505.699 32.9995 505.631 33.1633C505.563 33.3271 505.528 33.5027 505.528 33.68Z" fill="#683F1D"/>
<path d="M513.318 32.33C513.316 32.5994 513.394 32.8633 513.542 33.0883C513.691 33.3133 513.902 33.4891 514.151 33.5936C514.399 33.6981 514.673 33.7264 514.937 33.6751C515.202 33.6238 515.445 33.495 515.636 33.3052C515.827 33.1154 515.958 32.8731 516.011 32.609C516.064 32.345 516.038 32.071 515.935 31.8219C515.833 31.5728 515.658 31.3598 515.435 31.2099C515.211 31.06 514.947 30.98 514.678 30.98C514.5 30.9787 514.323 31.0126 514.158 31.0799C513.993 31.1471 513.843 31.2464 513.717 31.3719C513.591 31.4974 513.49 31.6466 513.422 31.8111C513.353 31.9755 513.318 32.1519 513.318 32.33Z" fill="#683F1D"/>
<path d="M489.118 41.7599C490.118 39.1699 493.978 39.6499 495.178 42.5199" stroke="#914839" stroke-width="0.75" stroke-linecap="round" stroke-linejoin="round"/>
<path d="M494.408 41.27C492.578 40.16 489.458 44.34 494.408 45.53" stroke="#914839" stroke-width="0.75" stroke-linecap="round" stroke-linejoin="round"/>
<path d="M493.318 47.76C494.52 47.429 495.649 46.8762 496.648 46.13" stroke="#914839" stroke-width="0.75" stroke-linecap="round" stroke-linejoin="round"/>
<path d="M510.368 30.02C510.368 35.02 512.658 35.58 514.958 36.48C516.878 37.24 516.268 39.36 515.818 40.05" stroke="#914839" stroke-width="0.75" stroke-linecap="round" stroke-linejoin="round"/>
<path d="M507.858 43.31C511.778 43.31 514.738 43.09 514.738 43.09C514.738 43.09 512.998 48.03 510.738 47.78C508.478 47.53 507.858 43.31 507.858 43.31Z" fill="white" stroke="#914839" stroke-width="0.75" stroke-linecap="round" stroke-linejoin="round"/>
<path d="M506.973 171.543L459.604 141.898L416.575 210.653L463.943 240.298L506.973 171.543Z" fill="#DDDDDD"/>
<path d="M499.694 174.691L459.955 149.82L423.854 207.505L463.593 232.375L499.694 174.691Z" fill="#F9F9F9"/>
<path d="M490.298 157.98C490.772 157.586 491.178 157.116 491.498 156.59C491.904 155.95 492.178 155.236 492.304 154.489C492.43 153.742 492.406 152.977 492.234 152.24C492.061 151.502 491.743 150.806 491.299 150.193C490.854 149.58 490.292 149.061 489.644 148.668C488.997 148.274 488.278 148.014 487.528 147.901C486.779 147.789 486.015 147.827 485.281 148.014C484.547 148.2 483.857 148.531 483.252 148.987C482.647 149.443 482.139 150.015 481.758 150.67C481.444 151.194 481.215 151.764 481.078 152.36L473.888 147.98L468.388 156.98L491.998 171.36L497.488 162.36L490.298 157.98Z" fill="#DDDDDD" stroke="#DDDDDD" stroke-linecap="round" stroke-linejoin="round"/>
<path d="M487.282 156.315C488.757 155.954 489.66 154.466 489.299 152.99C488.938 151.515 487.45 150.612 485.975 150.973C484.499 151.334 483.596 152.822 483.957 154.298C484.318 155.773 485.807 156.676 487.282 156.315Z" fill="#F9F9F9"/>
<path d="M462.238 160.8L489.328 177.75" stroke="#DDDDDD" stroke-linecap="round" stroke-linejoin="round"/>
<path d="M459.538 165.58L486.628 182.54" stroke="#DDDDDD" stroke-linecap="round" stroke-linejoin="round"/>
<path d="M456.838 170.37L477.948 183.58" stroke="#DDDDDD" stroke-linecap="round" stroke-linejoin="round"/>
<path d="M462.958 191.38C475.628 197.68 479.788 199.86 480.648 200.62C483.238 202.92 482.938 207.18 482.938 207.18C482.938 207.18 488.508 210.02 489.068 211.63C489.628 213.24 486.738 216.29 484.888 216.13C484.888 216.13 482.668 218.62 480.648 218.46C480.648 218.46 479.908 221.75 477.178 221.91C477.178 221.91 476.858 224.73 472.918 223.91C468.978 223.09 452.248 209.53 452.248 209.53L462.958 191.38Z" fill="#B25E47"/>
<path d="M464.368 192.08C463.238 194.48 456.928 206.16 454.228 211.13C453.488 212.51 453.018 213.37 453.018 213.37C453.018 213.37 435.418 206.37 419.738 199.81C410.408 195.9 401.738 192.17 397.918 190.18C395.451 188.935 393.076 187.519 390.808 185.94C385.698 182.35 382.118 178.26 380.808 173.4C379.498 168.54 380.518 162.62 384.728 155.71C385.826 153.938 387.263 152.4 388.956 151.185C390.65 149.97 392.568 149.102 394.598 148.63C396.782 148.092 399.032 147.873 401.278 147.98L402.028 148.03C402.828 148.03 403.628 148.17 404.448 148.3L405.158 148.42L405.968 148.58L407.308 148.88H407.358L408.078 149.07L408.398 149.17C408.678 149.25 408.958 149.33 409.218 149.42L410.058 149.69L410.888 149.97C411.168 150.08 411.448 150.18 411.728 150.3C413.121 150.845 414.483 151.466 415.808 152.16C416.048 152.27 416.288 152.4 416.518 152.53C416.748 152.66 417.208 152.9 417.518 153.1L418.388 153.62H418.448C419.588 154.31 420.738 155.07 421.888 155.9C422.178 156.11 422.478 156.32 422.758 156.54C424.208 157.62 425.658 158.83 427.098 160.14C444.028 175.62 463.968 191.58 464.478 191.58C464.578 191.63 464.518 191.76 464.368 192.08Z" fill="#FED81D"/>
<path d="M419.738 199.81C410.408 195.9 401.738 192.17 397.918 190.18C395.451 188.935 393.076 187.518 390.808 185.94C385.698 182.35 382.118 178.26 380.808 173.4C379.498 168.54 380.518 162.62 384.728 155.71C385.826 153.938 387.263 152.4 388.956 151.185C390.65 149.97 392.568 149.102 394.598 148.63C394.288 154.05 392.428 159.44 389.318 163.09C387.703 164.986 386.854 167.417 386.938 169.907C387.021 172.397 388.03 174.765 389.768 176.55C392.538 179.55 397.268 181.49 403.578 180.66C406.178 180.32 408.728 181.52 411.018 183.6C415.338 187.45 418.718 194.34 419.738 199.81Z" fill="#FCC71F"/>
<path d="M400.538 147.96C408.538 148.07 418.088 151.96 427.168 160.2C444.168 175.74 464.168 191.76 464.548 191.64" stroke="#FCC71F" stroke-width="0.75" stroke-linecap="round" stroke-linejoin="round"/>
<path d="M455.948 191.93C453.358 197.01 448.548 206.1 448.548 206.1" stroke="#FCC71F" stroke-width="0.75" stroke-linecap="round" stroke-linejoin="round"/>
<path d="M480.648 200.62C483.238 202.92 482.938 207.18 482.938 207.18C482.938 207.18 488.508 210.02 489.068 211.63C489.628 213.24 486.738 216.29 484.888 216.13C484.888 216.13 482.668 218.62 480.648 218.46C480.648 218.46 479.908 221.75 477.178 221.91C477.178 221.91 476.858 224.73 472.918 223.91" stroke="#914839" stroke-width="0.75" stroke-linecap="round" stroke-linejoin="round"/>
<path d="M483.228 207.33L478.058 204.87" stroke="#914839" stroke-width="0.75" stroke-linecap="round" stroke-linejoin="round"/>
<path d="M484.888 216.13C483.182 215.43 481.513 214.642 479.888 213.77" stroke="#914839" stroke-width="0.75" stroke-linecap="round" stroke-linejoin="round"/>
<path d="M480.648 218.46C479.589 218.033 478.582 217.486 477.648 216.83" stroke="#914839" stroke-width="0.75" stroke-linecap="round" stroke-linejoin="round"/>
<path d="M161.648 155.17C159.458 158.86 157.078 162.57 154.558 166.17C148.078 175.47 140.778 184.17 133.958 190.38C110.818 211.47 103.098 189.66 105.278 180.74C107.008 173.61 125.878 147.19 136.738 132.53C139.458 128.86 141.668 125.94 142.988 124.22C149.608 115.68 157.808 111.22 168.848 114.58C178.848 117.62 172.928 136.16 161.648 155.17Z" fill="#A7CAF0"/>
<path d="M161.648 155.17C159.846 153.581 158.189 151.834 156.698 149.95C150.888 142.71 147.218 134.73 136.698 132.54C139.418 128.87 141.628 125.95 142.948 124.23C149.568 115.69 157.768 111.23 168.808 114.59C178.848 117.62 172.928 136.16 161.648 155.17Z" fill="#A7CAF0"/>
<path d="M118.418 270.44C111.688 293.69 95.218 339.74 95.418 340.64C95.478 341.05 95.828 346.03 96.198 351.55C96.688 358.77 97.198 366.92 97.198 366.92C97.198 366.92 51.448 381.41 47.528 380.36C43.608 379.31 44.358 373.71 50.398 369.18C51.668 368.18 53.518 366.66 55.648 364.8C63.568 357.86 75.308 346.69 75.308 346.69C75.308 346.69 85.798 257.81 87.528 249.6C89.258 241.39 96.448 232.69 107.168 233.6C118.258 234.54 125.118 247.19 118.418 270.44Z" fill="#FEBD9D"/>
<path d="M97.188 366.92C97.188 366.92 51.438 381.41 47.518 380.36C43.598 379.31 44.348 373.71 50.388 369.18C51.658 368.18 53.508 366.66 55.638 364.8C64.008 366.53 72.968 363.72 77.638 360.23C83.0778 356.002 89.3904 353.037 96.118 351.55C96.648 358.76 97.188 366.92 97.188 366.92Z" fill="#83ADDF"/>
<path d="M272.938 151.34C273.158 149.65 273.048 147.26 268.198 144.68L266.598 151.96C266.598 151.96 272.558 154.29 272.938 151.34Z" fill="#A7CAF0"/>
<path d="M250.218 143.83C251.768 136.44 252.448 135.76 252.218 132.17C251.988 128.58 251.538 124.29 257.468 117.1C263.398 109.91 266.898 104.26 268.068 104.84C269.238 105.42 268.458 110.6 266.218 115.6C266.218 115.6 281.968 106.6 285.278 105.33C288.588 104.06 286.448 110.09 279.828 113.33C279.828 113.33 290.238 107.05 292.768 107.57C295.298 108.09 290.628 111.75 287.028 114.1C287.028 114.1 293.848 109.81 295.198 111.22C296.548 112.63 292.788 115.63 289.648 117.51C289.648 117.51 293.738 115.38 294.418 116.44C295.098 117.5 294.418 118.68 290.418 121.21C286.418 123.74 277.678 128.02 270.978 135.7L269.228 154.7C269.228 154.7 253.518 157.25 250.218 143.83Z" fill="#FEBD9D"/>
<path d="M259.938 114.07C264.408 108.39 267.108 104.35 268.108 104.84C269.278 105.43 268.498 110.6 266.258 115.6C266.258 115.6 282.008 106.6 285.318 105.33C288.628 104.06 286.488 110.09 279.868 113.33C279.868 113.33 290.278 107.05 292.808 107.57C295.338 108.09 290.668 111.75 287.068 114.1C287.068 114.1 293.888 109.81 295.238 111.22C296.588 112.63 292.828 115.63 289.688 117.51C289.688 117.51 293.778 115.38 294.458 116.44C295.138 117.5 294.458 118.68 290.458 121.21" stroke="#F4A789" stroke-width="0.75" stroke-linecap="round" stroke-linejoin="round"/>
<path d="M267.428 128.18C268.108 122.83 271.678 121.06 274.688 120.28" stroke="#F4A789" stroke-width="0.75" stroke-linecap="round" stroke-linejoin="round"/>
<path d="M274.388 115.01C278.688 115.2 283.198 119.17 283.488 120.63" stroke="#F4A789" stroke-width="0.75" stroke-linecap="round" stroke-linejoin="round"/>
<path d="M276.528 115.39C276.588 115.39 282.428 111.79 282.428 111.79" stroke="#F4A789" stroke-width="0.75" stroke-linecap="round" stroke-linejoin="round"/>
<path d="M288.148 113.34L280.808 117.61" stroke="#F4A789" stroke-width="0.75" stroke-linecap="round" stroke-linejoin="round"/>
<path d="M290.538 116.95L284.988 120.06" stroke="#F4A789" stroke-width="0.75" stroke-linecap="round" stroke-linejoin="round"/>
<path d="M237.238 215.31C244.688 222.82 258.928 218.26 263.968 198.31C269.008 178.36 272.968 151.31 272.968 151.31C264.678 149.487 256.941 145.717 250.398 140.31C243.118 160.08 227.568 205.55 237.238 215.31Z" fill="#A7CAF0"/>
<path d="M250.368 140.32C245.558 153.45 237.068 177.92 234.758 195.74" stroke="#83ADDF" stroke-width="0.75" stroke-linecap="round" stroke-linejoin="round"/>
<path d="M91.298 239.86C87.058 260.76 79.678 277.55 71.938 295.76C64.198 313.97 56.258 336.76 56.258 340.31V356.42C56.258 356.42 4.598 365.2 2.258 365.2C-0.0820024 365.2 -1.742 360.2 3.258 356.63C4.508 355.75 7.048 353.83 10.168 351.45C19.648 344.25 34.418 332.78 34.418 332.78C34.418 332.78 52.108 259.09 56.178 235.37C62.818 197.08 97.028 211.53 91.298 239.86Z" fill="#FEBD9D"/>
<path d="M84.438 264.59C86.208 259.5 87.828 254.28 89.228 248.8C96.958 250.38 106.228 251.69 117.828 253.75" stroke="#F4A789" stroke-width="0.75" stroke-linecap="round" stroke-linejoin="round"/>
<path d="M56.258 341.6V356.4C56.258 356.4 4.598 365.18 2.258 365.18C-0.0820024 365.18 -1.742 360.18 3.258 356.61C4.508 355.73 7.048 353.81 10.168 351.43C19.548 353.58 30.618 350.01 36.598 347.32C42.8416 344.476 49.4633 342.549 56.258 341.6Z" fill="#83ADDF"/>
<path d="M114.818 199.51C124.533 199.51 132.408 192.458 132.408 183.76C132.408 175.062 124.533 168.01 114.818 168.01C105.103 168.01 97.228 175.062 97.228 183.76C97.228 192.458 105.103 199.51 114.818 199.51Z" fill="#A7CAF0"/>
<path d="M226.608 122.67C225.964 123.074 225.296 123.438 224.608 123.76C213.718 128.99 207.898 127.48 206.808 122.33C205.718 117.18 194.318 121.06 193.648 111.96C192.978 102.86 197.018 99.89 196.258 95.25C196.258 95.25 196.788 94.05 197.598 92.63C199.308 89.63 202.288 85.78 204.508 89.71C207.798 95.53 209.838 94.91 215.908 95.59C221.978 96.27 224.768 100.48 222.908 103.52C220.648 107.22 221.848 108.82 228.478 109.43C234.438 109.98 235.348 117.43 226.608 122.67Z" fill="#B25E47"/>
<path d="M226.608 122.67C225.964 123.074 225.296 123.438 224.608 123.76C213.718 128.99 207.898 127.48 206.808 122.33C205.718 117.18 194.318 121.06 193.648 111.96C192.978 102.86 197.018 99.89 196.258 95.25C196.258 95.25 196.788 94.05 197.598 92.63C205.598 95.09 207.878 99.29 207.098 102.92C206.098 107.54 210.168 113.61 220.278 112.78C225.348 112.36 226.618 117.49 226.608 122.67Z" fill="#B25E47"/>
<path d="M220.948 252.07C217.029 257.508 211.754 261.825 205.648 264.59C205.648 264.59 205.648 263.09 205.298 260.59C204.128 250.97 199.148 226.59 178.158 214.34L176.688 214.07H176.558L166.118 212.13C166.118 212.13 163.398 201.27 161.438 192.76C159.478 184.25 154.698 176.65 154.518 167.67C154.518 167.17 154.518 166.67 154.518 166.18C154.588 160.34 155.818 154.76 156.658 149.95C157.033 147.967 157.287 145.964 157.418 143.95C157.698 137.77 152.828 130.85 152.358 126.54C151.888 122.23 152.358 113.15 163.688 114.11C165.538 114.26 167.228 114.41 168.808 114.56C170.388 114.71 172.068 114.9 173.498 115.08C174.008 115.14 174.498 115.22 174.998 115.3C177.002 115.57 178.984 115.984 180.928 116.54C182.487 116.987 183.99 117.611 185.408 118.4C189.798 120.85 199.848 117.72 201.078 117.33H201.198C203.378 117.19 205.308 117.03 207.028 116.88C208.748 116.73 210.178 116.61 211.478 116.48C215.298 116.08 217.548 115.75 218.718 115.61C219.408 115.61 220.398 125 221.458 137.61C222.038 144.47 222.628 152.28 223.208 160.05C224.388 176.2 225.498 192.2 226.148 199.05C226.248 200.16 226.348 201.05 226.418 201.64C227.458 208.95 233.568 234.27 220.948 252.07Z" fill="#A7CAF0"/>
<path d="M221.508 137.6C218.344 139.545 215.362 141.77 212.598 144.25C201.438 154.03 193.428 165.39 176.598 162.15C171.084 161.216 165.929 158.796 161.688 155.15C159.886 153.561 158.229 151.814 156.738 149.93C157.113 147.947 157.367 145.944 157.498 143.93C157.778 137.75 152.908 130.83 152.438 126.52C151.968 122.21 152.438 113.13 163.768 114.09C165.618 114.24 167.308 114.39 168.888 114.54C170.468 114.69 172.148 114.88 173.578 115.06C176.09 115.347 178.574 115.835 181.008 116.52C182.567 116.967 184.07 117.591 185.488 118.38C189.878 120.83 199.928 117.7 201.158 117.31H201.278C205.558 117.02 208.928 116.72 211.558 116.46C215.378 116.06 217.628 115.73 218.798 115.59C219.458 115.6 220.448 124.99 221.508 137.6Z" fill="#A7CAF0"/>
<path d="M195.628 188.62C196.974 198.54 198.941 208.366 201.518 218.04L176.688 214.04H176.558C176.558 214.04 175.858 198.04 171.148 183.4C168.693 175.671 167.676 167.556 168.148 159.46C168.599 152.7 169.714 146.001 171.478 139.46C173.352 131.554 174.536 123.501 175.018 115.39C176.158 115.55 177.208 115.73 178.198 115.94L178.878 116.09C179.611 116.25 180.301 116.43 180.948 116.63C182.507 117.077 184.01 117.701 185.428 118.49C189.818 120.94 199.868 117.81 201.098 117.42H201.218C202.578 117.32 203.848 117.24 205.018 117.14L205.718 117.08L207.048 116.97C205.168 122.74 197.388 146.69 194.848 159.32C194.578 160.72 194.358 161.98 194.218 163.05C193.488 168.81 194.248 178.64 195.628 188.62Z" fill="white"/>
<path d="M207.118 116.87C205.238 122.64 197.458 146.59 194.918 159.22C189.411 162.494 182.862 163.542 176.608 162.15C173.707 161.61 170.887 160.699 168.218 159.44C168.669 152.68 169.784 145.981 171.548 139.44C173.422 131.534 174.606 123.481 175.088 115.37C176.228 115.53 177.278 115.71 178.268 115.92L178.948 116.07C179.681 116.23 180.371 116.41 181.018 116.61C182.577 117.057 184.08 117.681 185.498 118.47C189.888 120.92 199.938 117.79 201.168 117.4H201.288C202.648 117.3 203.918 117.22 205.088 117.12L205.788 117.06L207.118 116.87Z" fill="#F9F9F9"/>
<path d="M206.198 145.87L211.998 159.1C210.338 161.93 200.098 180.5 195.628 188.62C194.248 178.62 193.488 168.81 194.238 162.95C195.628 152.09 204.978 123.28 207.068 116.87C208.748 116.74 210.218 116.6 211.518 116.47L213.298 141.59C211.998 142.45 206.198 145.87 206.198 145.87Z" fill="#A7CAF0"/>
<path d="M171.498 139.4C169.368 148.01 165.148 164.7 171.148 183.4C166.127 176.086 162.553 167.878 160.618 159.22L167.118 144.68L163.798 140.32C163.798 140.32 167.408 130.32 173.498 115.11C174.008 115.17 174.498 115.25 174.998 115.33C174.529 123.439 173.358 131.493 171.498 139.4Z" fill="#A7CAF0"/>
<path d="M204.268 115.76C206.698 115.04 208.718 115.76 208.668 116.76C208.548 119.43 203.888 135.55 201.878 136.37C201.508 136.52 199.198 129.1 196.578 128.2C193.958 127.3 189.118 128.53 189.228 128.47C189.338 128.41 199.038 114.08 204.268 115.76Z" fill="#683F1D"/>
<path d="M181.118 115.18C185.228 120.72 184.668 124.88 183.168 125.07C181.668 125.26 179.838 125.12 178.028 127.02C176.218 128.92 173.348 132.02 173.128 131.62C172.058 129.62 173.878 116.62 174.678 115.27C175.668 113.61 180.008 113.68 181.118 115.18Z" fill="#683F1D"/>
<path d="M184.288 134.58C183.788 145.15 181.338 149.2 179.858 155.72C178.378 162.24 179.688 171.12 182.078 181.35C184.468 191.58 184.338 197.09 184.288 198.21C184.238 199.33 181.878 205.75 187.048 208.21" stroke="#DDDDDD" stroke-linecap="round" stroke-linejoin="round"/>
<path d="M204.278 115.76C204.278 115.76 188.388 131.99 184.668 129.58C180.948 127.17 179.518 117.96 179.928 114.87C180.078 113.87 180.358 111.97 180.668 109.87C181.318 105.65 182.128 100.51 182.268 99.4C182.698 90.4 197.458 82.65 201.678 92.62C201.068 100.428 201.951 108.282 204.278 115.76Z" fill="#FEBD9D"/>
<path d="M180.668 109.83C181.318 105.61 182.128 100.47 182.268 99.36L191.878 96.01C192.888 104.22 188.718 108.88 180.668 109.83Z" fill="#F4A789"/>
<path d="M154.558 166.18C154.628 160.34 155.858 154.76 156.698 149.95C157.073 147.967 157.327 145.964 157.458 143.95C157.588 140.95 156.538 137.84 155.348 134.9" stroke="#83ADDF" stroke-width="0.75" stroke-linecap="round" stroke-linejoin="round"/>
<path d="M204.768 218.76C198.648 217.3 178.158 214.35 178.158 214.35" stroke="#83ADDF" stroke-width="0.75" stroke-linecap="round" stroke-linejoin="round"/>
<path d="M78.248 209.6C67.538 209.6 51.538 226.86 62.578 236.87C75.118 248.2 89.288 248.69 117.828 253.76C117.828 253.76 132.398 209.63 78.248 209.6Z" fill="#FEBD9D"/>
<path d="M205.298 260.56C192.628 263.56 165.628 261.12 149.448 259.32C145.228 258.84 141.738 258.42 139.448 258.15C137.668 257.94 136.588 257.82 136.448 257.84C105.018 260.76 101.118 253.89 87.858 236.91C74.598 219.93 78.068 210.64 78.248 209.6C102.788 207.6 144.848 209.44 166.158 212.13L178.158 214.31C183.378 217.358 187.978 221.361 191.718 226.11C201.528 238.46 204.438 253.49 205.298 260.56Z" fill="#FED81D"/>
<path d="M118.418 253.06C128.598 256.06 139.418 258.15 139.418 258.15" stroke="#FCC71F" stroke-width="0.75" stroke-linecap="round" stroke-linejoin="round"/>
<path d="M205.298 260.56C192.628 263.56 165.628 261.12 149.448 259.32C157.008 253.72 165.038 253.94 173.968 255.61C192.368 259.04 195.878 252.45 191.458 245.44C187.578 239.26 185.918 230.52 191.718 226.11C201.528 238.46 204.438 253.49 205.298 260.56Z" fill="#FCC71F"/>
<path d="M250.118 217.35C238.968 223.08 231.298 210.72 226.238 199.06C225.238 196.71 224.298 194.41 223.488 192.27C220.028 183.27 214.488 162.1 212.638 144.27C211.118 129.76 212.118 117.42 218.758 115.6C226.668 113.43 235.448 116.93 240.608 131.66C241.631 134.662 242.439 137.733 243.028 140.85C247.778 165.24 261.718 211.38 250.118 217.35Z" fill="#A7CAF0"/>
<path d="M226.198 199.06C225.198 196.71 224.258 194.41 223.448 192.27C220.758 185.27 216.778 170.87 214.298 156.42" stroke="#83ADDF" stroke-width="0.75" stroke-linecap="round" stroke-linejoin="round"/>
<path d="M240.618 131.66C233.859 132.055 227.299 134.094 221.508 137.6C218.344 139.545 215.362 141.77 212.598 144.25C211.118 129.76 212.118 117.42 218.758 115.6C226.678 113.43 235.458 116.93 240.618 131.66Z" fill="#A7CAF0"/>
<path d="M205.888 83.9799C202.058 91.3299 172.678 82.9799 172.678 82.9799C167.908 81.5899 165.518 79.7099 165.678 76.8199C165.838 73.9299 170.328 73.8199 169.168 71.0699C168.582 69.7284 168.243 68.292 168.168 66.8299C168.088 64.1899 169.078 61.1599 172.948 58.7099C179.748 54.3899 189.088 60.1899 189.088 60.1899C189.088 60.1899 193.358 56.6199 201.088 60.5899C204.998 62.5899 207.158 66.6899 207.828 71.1899C208.487 75.5514 207.81 80.01 205.888 83.9799Z" fill="#B25E47"/>
<path d="M205.888 83.9799C202.058 91.3299 172.678 82.9799 172.678 82.9799C167.908 81.5899 165.518 79.7099 165.678 76.8199C165.838 73.9299 170.328 73.8199 169.168 71.0699C168.582 69.7284 168.243 68.292 168.168 66.8299C174.498 60.1499 188.968 59.3299 190.528 65.5599C192.308 72.6499 195.678 83.9099 207.838 71.1899C208.493 75.5523 207.814 80.011 205.888 83.9799Z" fill="#B25E47"/>
<path d="M188.058 63.98C193.598 60.22 198.748 63.06 200.188 67.2C202.278 73.2 195.188 79.49 202.278 84.84" stroke="#683F1D" stroke-width="0.75" stroke-linecap="round" stroke-linejoin="round"/>
<path d="M171.908 67.9299C172.408 62.3099 181.088 56.9299 189.108 60.1499" stroke="#683F1D" stroke-width="0.75" stroke-linecap="round" stroke-linejoin="round"/>
<path d="M201.678 92.58C201.678 92.58 193.628 100.4 184.858 102.92C176.088 105.44 168.858 100.21 169.558 87.7999C169.558 87.5899 169.558 87.3799 169.558 87.1799C169.678 85.6699 169.858 84.1799 170.098 82.7799C171.948 72.0799 177.508 64.3399 186.738 67.2399C189.568 68.1199 186.918 78.11 188.818 82.61C188.93 82.8873 189.071 83.1521 189.238 83.3999C189.87 84.3225 190.713 85.0803 191.698 85.6099C194.818 87.3399 199.078 86.9499 200.448 84.3099C202.448 80.4899 207.888 78.6399 209.778 85.0699C211.188 89.6799 206.118 93.86 201.678 92.58Z" fill="#FEBD9D"/>
<path d="M191.738 85.61C190.849 86.6708 189.682 87.4637 188.368 87.9C185.778 88.9 183.278 88.57 182.788 87.26C182.298 85.95 184.008 84.1 186.608 83.14C187.33 82.8618 188.087 82.6835 188.858 82.61C188.97 82.8874 189.111 83.1522 189.278 83.4C189.91 84.3225 190.753 85.0804 191.738 85.61Z" fill="#F4A789"/>
<path d="M172.228 87.1999C171.778 87.8599 170.778 88.0399 169.558 87.7999C169.558 87.5899 169.558 87.3799 169.558 87.1799C169.678 85.6699 169.858 84.1799 170.098 82.7799C172.008 84.2699 172.928 86.1499 172.228 87.1999Z" fill="#F4A789"/>
<path d="M173.858 80.2C173.858 80.4195 173.923 80.6341 174.045 80.8167C174.167 80.9992 174.34 81.1415 174.543 81.2255C174.746 81.3095 174.969 81.3315 175.185 81.2886C175.4 81.2458 175.598 81.1401 175.753 80.9848C175.908 80.8296 176.014 80.6318 176.057 80.4165C176.1 80.2012 176.078 79.978 175.994 79.7752C175.91 79.5724 175.767 79.399 175.585 79.277C175.402 79.1551 175.188 79.09 174.968 79.09C174.674 79.09 174.391 79.2069 174.183 79.4151C173.975 79.6232 173.858 79.9056 173.858 80.2Z" fill="#683F1D"/>
<path d="M180.008 81.8899C180.008 82.1843 180.125 82.4666 180.333 82.6748C180.541 82.883 180.824 82.9999 181.118 82.9999C181.412 82.9999 181.695 82.883 181.903 82.6748C182.111 82.4666 182.228 82.1843 182.228 81.8899C182.228 81.5955 182.111 81.3132 181.903 81.105C181.695 80.8968 181.412 80.7799 181.118 80.7799C180.824 80.7799 180.541 80.8968 180.333 81.105C180.125 81.3132 180.008 81.5955 180.008 81.8899Z" fill="#683F1D"/>
<path d="M201.878 87.9499C203.068 84.9499 205.688 83.5299 207.658 84.9499" stroke="#F4A789" stroke-width="0.75" stroke-linecap="round" stroke-linejoin="round"/>
<path d="M202.278 87.09C205.458 84.66 207.658 90.09 202.558 90.09" stroke="#F4A789" stroke-width="0.75" stroke-linecap="round" stroke-linejoin="round"/>
<path d="M170.908 74.83C170.608 76.28 176.818 78.26 177.408 75.36C177.828 73.27 171.238 73.27 170.908 74.83Z" fill="#B25E47"/>
<path d="M181.168 75.7599C180.488 78.2799 187.548 79.5999 188.308 77.8999C188.958 76.4599 181.928 72.8999 181.168 75.7599Z" fill="#B25E47"/>
<path d="M174.748 87C173.378 84.84 174.098 83.2399 175.898 83.2399C178.118 83.2399 178.838 81.2399 178.738 78.4399" stroke="#F4A789" stroke-width="0.75" stroke-linecap="round" stroke-linejoin="round"/>
<path d="M174.708 89.1999C177.558 89.5499 181.348 87.7899 181.348 87.7899C181.348 87.7899 181.168 92.7899 178.028 93.2299C174.888 93.6699 174.708 89.1999 174.708 89.1999Z" fill="white" stroke="#F4A789" stroke-width="0.75" stroke-linecap="round" stroke-linejoin="round"/>
<path d="M97.638 59.7599C94.708 57.8799 91.338 58.3999 90.348 60.9899C88.918 64.7299 91.608 67.2499 94.628 68.2299L97.638 59.7599Z" fill="#F9F9F9" stroke="#DDDDDD" stroke-linecap="round" stroke-linejoin="round"/>
<path d="M133.018 84.84C137.798 86.79 140.388 87.9199 141.178 87.2999C141.968 86.6799 145.618 78.2999 145.228 77.3999C144.838 76.4999 137.348 72.45 137.348 72.45L133.018 84.84Z" fill="#DDDDDD" stroke="#DDDDDD" stroke-linecap="round" stroke-linejoin="round"/>
<path d="M106.488 120.45C107.238 117.26 117.968 114.67 121.588 114.07V124.84C121.588 124.84 110.248 127.2 106.488 120.45Z" fill="#A7CAF0"/>
<path d="M111.028 125.24C112.878 116.32 114.128 114.24 113.548 113.12C112.968 112 109.218 108.34 108.768 104.59C108.318 100.84 112.288 94.5399 113.688 92.5899C115.088 90.6399 117.038 89.1499 123.168 90.1199C129.298 91.0899 131.698 91.9299 131.768 94.9599C131.838 97.9899 129.058 118.48 129.058 118.48C129.058 118.48 124.208 133.76 111.028 125.24Z" fill="#FEBD9D"/>
<path d="M118.658 80.5399C117.388 86.5399 114.048 96.5899 112.798 101.41C111.548 106.23 112.358 108.83 116.348 109.64C120.338 110.45 122.768 103.55 123.578 99.0199C124.388 94.4899 126.578 83.2399 126.578 83.2399L118.658 80.5399Z" fill="#F9F9F9" stroke="#DDDDDD" stroke-linecap="round" stroke-linejoin="round"/>
<path d="M100.868 192.82C114.468 204.06 123.048 180.64 126.198 160.09C128.16 146.308 129.115 132.401 129.058 118.48C129.058 118.48 117.718 121.64 106.488 120.48C103.028 137.14 89.778 183.66 100.868 192.82Z" fill="#A7CAF0"/>
<path d="M119.418 184.64C122.608 177.79 124.878 168.69 126.198 160.09C128.16 146.308 129.115 132.401 129.058 118.48" stroke="#83ADDF" stroke-width="0.75" stroke-linecap="round" stroke-linejoin="round"/>
<path d="M134.888 85.08C133.328 85.7 129.778 85.88 125.148 85.33C117.291 84.3477 109.662 82.0168 102.598 78.4399L112.258 57.4399C119.524 59.5378 126.391 62.8293 132.578 67.1799C136.078 69.6299 138.578 71.95 139.448 73.4799C140.318 75.01 138.568 83.61 134.888 85.08Z" fill="#F9F9F9" stroke="#DDDDDD" stroke-linecap="round" stroke-linejoin="round"/>
<path d="M134.888 85.08C133.328 85.7 129.778 85.88 125.148 85.33C129.798 80.09 133.088 74.4 132.578 67.23C136.078 69.68 138.578 72 139.448 73.53C140.318 75.06 138.568 83.61 134.888 85.08Z" fill="#F9F9F9" stroke="#DDDDDD" stroke-linecap="round" stroke-linejoin="round"/>
<path d="M104.568 79.9599C107.148 79.1999 115.078 63.74 113.938 59.2C112.798 54.66 103.098 44.2 103.098 44.2C103.098 44.2 90.718 65.66 88.428 81.53C88.428 81.55 100.818 81.0699 104.568 79.9599Z" fill="#DDDDDD" stroke="#DDDDDD" stroke-linecap="round" stroke-linejoin="round"/>
<path d="M89.468 51.5799L85.658 45.2999" stroke="#DDDDDD" stroke-linecap="round" stroke-linejoin="round"/>
<path d="M74.568 55.95L81.288 58.67" stroke="#DDDDDD" stroke-linecap="round" stroke-linejoin="round"/>
<path d="M73.778 69.51L80.728 68.26" stroke="#DDDDDD" stroke-linecap="round" stroke-linejoin="round"/>
<path d="M107.688 99.9499C110.468 98.5199 118.128 106.95 113.468 107.49C110.708 107.83 103.598 102.05 107.688 99.9499Z" fill="#FEBD9D" stroke="#F4A789" stroke-width="0.75" stroke-linecap="round" stroke-linejoin="round"/>
<path d="M108.288 95.2699C111.078 93.8399 119.288 102.34 114.678 102.92C111.908 103.26 104.198 97.3699 108.288 95.2699Z" fill="#FEBD9D" stroke="#F4A789" stroke-width="0.75" stroke-linecap="round" stroke-linejoin="round"/>
<path d="M109.438 90.52C112.438 88.98 121.308 98.13 116.298 98.75C113.328 99.11 105.038 92.76 109.438 90.52Z" fill="#FEBD9D" stroke="#F4A789" stroke-width="0.75" stroke-linecap="round" stroke-linejoin="round"/>
<path d="M111.118 86.26C114.028 84.56 122.688 94.02 118.288 95.99C116.218 96.92 106.868 88.76 111.118 86.26Z" fill="#FEBD9D" stroke="#F4A789" stroke-width="0.75" stroke-linecap="round" stroke-linejoin="round"/>
<path d="M123.568 95.83C122.858 94.9 116.268 91.77 117.038 89.27C117.808 86.77 125.678 89.34 129.358 90.52C133.038 91.7 132.128 93.99 131.208 101.41C131.208 101.41 127.958 101.6 123.568 95.83Z" fill="#FEBD9D"/>
<path d="M123.568 95.83C122.858 94.9 116.268 91.77 117.038 89.27C117.808 86.77 125.678 89.34 129.358 90.52C133.038 91.7 132.128 93.99 131.208 101.41" stroke="#F4A789" stroke-width="0.75" stroke-linecap="round" stroke-linejoin="round"/>
</svg>
