<svg width="433" height="450" viewBox="0 0 433 450" fill="none" xmlns="http://www.w3.org/2000/svg">
<path d="M354.317 184.808C353.789 169.084 341.416 156.89 335.932 151.006C330.449 145.122 339.334 140.64 335.932 127.795C330.713 108.089 303.591 119.156 303.591 87.4322C303.591 77.5668 300.834 75.4636 300.834 75.4636C300.834 75.4636 321.184 37.2542 284.268 24.5846C284.268 24.5846 280.983 8.35938 247.439 1.0981C213.895 -6.16317 183.694 23.3827 205.421 66.1992L207.063 100.002C203.92 100.492 201.05 101.846 198.89 103.857C196.73 105.868 195.4 108.427 195.1 111.144C192.637 125.466 171.203 116.552 170.089 153.71L354.317 184.808Z" fill="#7F542D"/>
<path d="M276.38 134.555C293.035 138.962 306.112 138.161 306.112 125.441C306.112 113.523 288.842 107.163 291.657 87.8829C294.472 68.6029 290.103 59.2885 282.45 50.9004C274.797 42.5124 263.772 13.9681 236.62 19.026C209.468 24.0838 205.421 66.074 205.421 66.074L219.76 105.16C219.76 105.16 202.167 125.992 207.327 133.579C212.488 141.166 276.38 134.555 276.38 134.555Z" fill="#683F1D"/>
<path d="M211.315 106.938C211.315 106.938 197.593 107.113 201.112 122.211C202.356 127.363 201.535 132.723 198.78 137.429C196.025 142.134 191.496 145.911 185.923 148.151" stroke="#BF8228" stroke-width="1.3023" stroke-linecap="round" stroke-linejoin="round"/>
<path d="M284.268 35.4016C299.515 50.6753 293.622 65.899 293.622 65.899" stroke="#BF8228" stroke-width="1.3023" stroke-linecap="round" stroke-linejoin="round"/>
<path d="M299.074 116.152C315.641 123.388 325.288 137.56 314.967 151.207C312.856 153.889 311.465 156.936 310.892 160.13C310.32 163.324 310.58 166.587 311.653 169.685" stroke="#BF8228" stroke-width="1.3023" stroke-linecap="round" stroke-linejoin="round"/>
<path d="M284.267 24.5847C284.267 24.5847 272.011 27.6144 268.492 34.0995" stroke="#BF8228" stroke-width="1.3023" stroke-linecap="round" stroke-linejoin="round"/>
<path d="M259.608 23.6334C259.608 23.6334 232.192 2.09996 212.547 21.6303" stroke="#BF8228" stroke-width="1.3023" stroke-linecap="round" stroke-linejoin="round"/>
<path d="M197.768 92.3897C197.182 119.532 218.968 126.393 229.465 126.943C253.538 127.67 275.823 104.408 283.271 95.5947C283.535 93.7669 283.828 91.914 284.18 90.0111C298.489 92.5149 304.353 86.9062 305.966 78.2929C307.578 69.6795 295.263 59.689 279.312 70.7812C264.358 61.9675 262.276 49.7485 265.414 38.8817C261.887 34.5532 256.832 31.3003 250.988 29.5977C245.143 27.8951 238.815 27.8318 232.925 29.417C216.212 33.5734 204.571 53.0787 199.968 74.3367C198.921 79.1857 198.235 84.0864 197.915 89.0095C197.856 90.1362 197.798 91.263 197.768 92.3897Z" fill="#FEBD9D"/>
<path d="M223.073 44.4903C222.545 48.0959 211.637 48.6718 206.741 46.5686C201.844 44.4653 224.422 34.1994 223.073 44.4903Z" fill="#7F542D"/>
<path d="M256.852 52.2276C257.703 55.4325 247 51.226 243.101 50.9756C239.201 50.7252 237.236 49.273 239.113 45.1916C240.989 41.1103 255.064 45.3419 256.852 52.2276Z" fill="#7F542D"/>
<path d="M235.475 70.8064C233.694 70.8064 232.25 69.5733 232.25 68.0521C232.25 66.531 233.694 65.2979 235.475 65.2979C237.257 65.2979 238.701 66.531 238.701 68.0521C238.701 69.5733 237.257 70.8064 235.475 70.8064Z" fill="#683F1D"/>
<path d="M212.692 63.8706C210.911 63.8706 209.467 62.6375 209.467 61.1163C209.467 59.5952 210.911 58.3621 212.692 58.3621C214.474 58.3621 215.918 59.5952 215.918 61.1163C215.918 62.6375 214.474 63.8706 212.692 63.8706Z" fill="#683F1D"/>
<path d="M222.429 59.6392C222.663 67.8519 218.03 70.6813 216.887 71.6328C214.277 73.8112 208.09 71.6328 211.022 79.6202" stroke="#F4A789" stroke-width="1.3023" stroke-linecap="round" stroke-linejoin="round"/>
<path d="M233.571 93.7923C229.407 90.2619 213.602 90.988 211.814 92.3902C210.025 93.7923 213.045 99.9018 219.907 99.9018C226.768 99.9018 235.506 95.4699 233.571 93.7923Z" fill="white" stroke="#F4A789" stroke-width="1.3023" stroke-linecap="round" stroke-linejoin="round"/>
<path d="M296.964 79.1946C293.328 74.6376 285.763 76.1649 282.743 78.4435C292.507 77.0663 293.416 86.3558 282.449 83.9019" stroke="#F4A789" stroke-width="1.3023" stroke-linecap="round" stroke-linejoin="round"/>
<path d="M232.514 87.6069C234.068 91.488 242.19 92.6147 250.723 90.1108C259.256 87.6069 264.885 82.5992 263.361 78.668C261.836 74.7369 253.685 73.6603 245.181 76.1642C236.678 78.668 230.989 83.7259 232.514 87.6069Z" fill="#F4A789"/>
<path d="M198.032 88.9595C202.049 89.6105 205.392 88.9595 206.829 87.0816C209.263 84.0018 206.243 78.5183 199.968 74.3118C198.962 79.1547 198.316 84.047 198.032 88.9595Z" fill="#F4A789"/>
<path d="M292.918 92.3899C292.923 93.5777 292.515 94.7401 291.745 95.7291C290.974 96.7181 289.877 97.4889 288.591 97.9434C287.306 98.3979 285.892 98.5155 284.528 98.2813C283.164 98.047 281.913 97.4716 280.934 96.6281C279.954 95.7847 279.291 94.7114 279.028 93.5449C278.765 92.3785 278.915 91.1717 279.458 90.0781C280.001 88.9846 280.913 88.0537 282.078 87.4042C283.242 86.7546 284.607 86.4157 285.998 86.4306C287.836 86.4503 289.592 87.0861 290.886 88.2008C292.181 89.3156 292.91 90.82 292.918 92.3899Z" fill="#A7CAF0"/>
<path d="M10.3736 176.996L44.5629 214.805C44.5629 214.805 90.3048 371.874 113.322 385.069C120.608 389.175 128.961 391.694 137.651 392.406C146.341 393.117 155.103 392 163.169 389.15C163.156 389.059 163.156 388.967 163.169 388.875C163.169 388.499 183.695 374.202 179.648 352.594C179.296 350.591 133.613 283.161 114.026 253.465C98.3683 229.528 79.3385 202.185 79.3385 202.185L10.3736 176.996Z" fill="#FEBD9D"/>
<path d="M79.3082 202.235C79.3082 202.235 76.6399 166.755 75.7016 162.774C74.7633 158.793 46.7024 135.732 42.7146 133.904C38.7268 132.076 13.862 138.361 11.8388 140.289C9.81557 142.217 12.1027 146.799 18.788 146.448C25.4734 146.098 19.7263 159.919 19.7263 159.919C19.7263 159.919 8.9066 169.685 10.5193 176.996C10.5193 176.996 52.4494 213.077 52.9772 212.952C53.505 212.827 79.3082 202.235 79.3082 202.235Z" fill="#FEBD9D"/>
<path d="M79.3082 202.235C79.3082 202.235 76.6399 166.755 75.7016 162.774C74.7633 158.793 46.7024 135.732 42.7146 133.904C38.7268 132.076 13.862 138.361 11.8388 140.289C9.81557 142.217 12.1027 146.799 18.788 146.448C25.4734 146.098 19.7263 159.919 19.7263 159.919C19.7263 159.919 8.9066 169.685 10.5193 176.996C10.5193 176.996 52.4494 213.077 52.9772 212.952C53.505 212.827 79.3082 202.235 79.3082 202.235Z" fill="#FEBD9D"/>
<path d="M75.7014 162.774C74.8804 158.718 46.7022 135.732 42.6265 133.904C38.5507 132.076 13.7738 138.361 11.7506 140.289C9.72744 142.217 12.0145 146.799 18.6999 146.448" stroke="#F4A789" stroke-width="1.3023" stroke-linecap="round" stroke-linejoin="round"/>
<path d="M35.6194 148.177C35.2382 147.376 19.5804 142.919 16.9121 143.72C14.2438 144.521 1.43018 162.775 1.01968 166.405C0.609169 170.036 6.70811 186.086 12.2499 184.659C17.7917 183.231 12.0153 169.635 12.0153 169.635L35.6194 148.177Z" fill="#FEBD9D" stroke="#F4A789" stroke-width="1.3023" stroke-linecap="round" stroke-linejoin="round"/>
<path d="M24.8002 179.775C20.2847 182.279 15.0068 176.42 12.0159 169.76L22.1026 162.649C22.1026 162.649 31.4856 175.994 24.8002 179.775Z" fill="#FEBD9D" stroke="#F4A789" stroke-width="1.3023" stroke-linecap="round" stroke-linejoin="round"/>
<path d="M9.61054 164.502L6.32647 171.513C6.22993 171.72 6.2012 171.945 6.24334 172.165C6.28548 172.385 6.39693 172.591 6.5657 172.76C6.73447 172.93 6.95422 173.058 7.20135 173.129C7.44848 173.2 7.71366 173.213 7.96848 173.165L16.6184 171.613L88.8087 119.657C89.3542 119.265 89.8037 118.784 90.1315 118.243C90.4592 117.702 90.6588 117.111 90.7187 116.504C90.7786 115.897 90.6978 115.286 90.4807 114.705C90.2636 114.125 89.9146 113.587 89.4537 113.122C88.5243 112.176 87.1929 111.584 85.7522 111.476C84.3116 111.368 82.8797 111.753 81.7714 112.546L9.61054 164.502Z" fill="#683F1D"/>
<path d="M56.321 161.347C48.1989 151.331 39.285 143.469 34.9454 142.568C28.4067 141.216 26.9406 147.826 42.3052 166.981C39.81 172.445 39.4229 178.447 41.2002 184.113C42.9776 189.779 46.8265 194.812 52.1866 198.479" fill="#FEBD9D"/>
<path d="M56.321 161.347C48.1989 151.331 39.285 143.469 34.9454 142.568C28.4067 141.216 26.9406 147.826 42.3052 166.981C39.81 172.445 39.4229 178.447 41.2002 184.113C42.9776 189.779 46.8265 194.812 52.1866 198.479" stroke="#F4A789" stroke-width="1.3023" stroke-linecap="round" stroke-linejoin="round"/>
<path d="M122.207 278.905C122.705 280.908 126.37 286.667 126.898 288.645C137.571 327.355 155.399 364.788 163.14 389.051C165.312 396.089 167.064 403.218 168.388 410.409C172.288 430.69 173.52 449.77 173.52 449.77L349.128 446.966L370.386 446.64L369.565 369.946L369.389 353.821C369.389 353.821 419.588 350.866 419.969 351.743C420.35 352.619 417.535 328.306 417.535 328.306C433.985 312.181 435.129 288.57 430.936 274.347C428.209 264.833 417.037 239.293 405.572 217.785C400.989 208.78 395.618 200.084 389.504 191.769C375.078 173.541 366.046 172.164 347.222 168.859C328.397 165.554 296.202 151.081 296.202 151.081L235.271 145.247C235.271 145.247 203.369 147.15 174.927 146.123C147.892 145.147 132.704 150.355 120.828 171.613C120.213 172.715 119.568 173.892 118.952 175.118C110.155 192.646 102.297 217.509 98.4265 230.379C110.624 255.268 122.207 278.905 122.207 278.905Z" fill="#FED81D"/>
<path d="M120.829 171.488C145.753 169.185 161.323 186.837 179.619 220.289C201.464 260.126 249.112 265.609 294.737 234.386C334.937 206.843 364.405 200.358 405.573 217.66C400.99 208.656 395.619 199.959 389.505 191.645C375.078 173.416 366.047 172.039 347.223 168.734C328.398 165.429 296.203 150.956 296.203 150.956L235.272 145.122C235.272 145.122 203.37 147.025 174.928 145.999C147.893 145.022 132.704 150.23 120.829 171.488Z" fill="#FED81D"/>
<path d="M344.084 342.729L327.781 253.866C323.236 259.825 310.716 268.088 314.762 284.889C325.054 327.33 290.718 293.728 277.348 314.135C271.806 322.548 318.721 336.494 344.084 342.729Z" fill="#FCC71F"/>
<path d="M284.561 144.847C289.282 143.094 296.29 148.853 296.29 150.956C296.29 153.06 289.37 171.438 280.134 180.077C270.897 188.715 254.066 190.543 247.674 170.361C230.609 185.535 213.925 179.826 216.241 161.372C218.558 142.919 233.834 139.363 233.834 139.363L284.561 144.847Z" fill="white"/>
<path d="M345.55 350.741L344.084 342.729L327.781 253.791L322.679 225.998" stroke="#FCC71F" stroke-width="1.3023" stroke-linecap="round" stroke-linejoin="round"/>
<path d="M417.536 328.182C392.598 321.341 366.254 319.054 340.214 321.471" stroke="#FCC71F" stroke-width="1.3023" stroke-linecap="round" stroke-linejoin="round"/>
<path d="M238.234 200.057C234.623 200.057 231.695 197.558 231.695 194.474C231.695 191.39 234.623 188.89 238.234 188.89C241.845 188.89 244.773 191.39 244.773 194.474C244.773 197.558 241.845 200.057 238.234 200.057Z" fill="white"/>
<path d="M231.665 223.494C228.053 223.494 225.126 220.994 225.126 217.91C225.126 214.826 228.053 212.326 231.665 212.326C235.276 212.326 238.203 214.826 238.203 217.91C238.203 220.994 235.276 223.494 231.665 223.494Z" fill="white"/>
<path d="M403.285 406.603C430.877 398.491 422.374 362.335 419.178 343.43L388.361 337.07L341.153 327.355C341.153 327.355 333.148 416.043 403.285 406.603Z" fill="#FEBD9D"/>
<path d="M229.466 126.969C229.466 127.47 229.876 136.809 230.169 143.52C230.169 146.474 230.433 148.928 230.492 149.854C230.668 152.959 238.379 165.879 254.506 162.374C270.633 158.868 284.18 147.025 284.591 144.847C285.001 142.668 277.612 124.816 281.658 97.6234C267.467 83.6016 226.24 92.3903 229.466 126.969Z" fill="#FEBD9D"/>
<path d="M229.466 126.944C229.466 126.944 229.876 136.609 230.199 143.519C241.283 142.217 262.453 136.609 261.133 112.371C256.471 118.305 240.52 127.369 229.466 126.944Z" fill="#F4A789"/>
<path d="M94.8198 267.036C94.9985 267.025 95.1723 266.982 95.3293 266.908C95.4863 266.835 95.6226 266.733 95.7288 266.61L149.3 201.634C149.397 201.515 149.466 201.381 149.501 201.239C149.536 201.097 149.538 200.95 149.505 200.808C149.465 200.671 149.392 200.542 149.291 200.43C149.19 200.318 149.063 200.225 148.919 200.157C145.536 198.317 141.662 197.241 137.659 197.027C128.862 197.027 120.066 203.938 107.194 220.889C83.2084 252.338 90.92 263.906 93.8522 266.685C93.9655 266.796 94.1053 266.884 94.2621 266.945C94.419 267.005 94.5891 267.036 94.7612 267.036H94.8198Z" fill="#F9F9F9"/>
<path d="M137.657 198.029C130.063 198.029 121.794 203.637 108.335 221.465C88.3964 247.631 89.7451 261.102 94.9058 266.009L148.183 201.033C144.986 199.267 141.311 198.232 137.51 198.029H137.657ZM137.51 196C141.679 196.223 145.714 197.343 149.239 199.256C149.527 199.401 149.777 199.596 149.975 199.827C150.172 200.058 150.312 200.321 150.386 200.6C150.46 200.879 150.467 201.168 150.406 201.449C150.345 201.73 150.217 201.998 150.031 202.235L96.4598 267.186C96.2459 267.439 95.9695 267.648 95.6503 267.8C95.3311 267.951 94.9768 268.041 94.6125 268.062C94.2753 268.065 93.9414 268.005 93.633 267.889C93.3246 267.772 93.0487 267.601 92.8239 267.386C89.8917 264.457 81.5937 252.363 106.048 220.338C119.243 203.036 128.362 196 137.51 196Z" fill="#DDDDDD"/>
<path d="M72.7982 278.904C73.0252 278.904 73.248 278.852 73.4433 278.753L95.4053 266.885C95.5557 266.792 95.6807 266.672 95.7718 266.534C95.8629 266.395 95.9179 266.242 95.9331 266.084C95.9461 265.93 95.9185 265.777 95.8526 265.634C95.7866 265.491 95.6839 265.362 95.5519 265.258C93.1562 263.379 90.0075 262.357 86.7554 262.403C84.3115 262.477 81.9124 262.984 79.7112 263.894C77.51 264.804 75.555 266.095 73.9711 267.686C67.8722 273.445 71.596 278.453 71.6547 278.503C71.7849 278.652 71.9601 278.768 72.1615 278.838C72.3629 278.909 72.583 278.932 72.7982 278.904Z" fill="#F9F9F9"/>
<path d="M86.9019 263.43C84.6199 263.516 82.3835 264.005 80.3344 264.867C78.2852 265.729 76.4678 266.945 74.9972 268.438C69.4554 273.671 72.7981 278.003 72.7981 278.003L94.7601 266.059C92.5917 264.426 89.7932 263.534 86.9019 263.555V263.43ZM86.9019 261.502C90.3931 261.492 93.7618 262.6 96.3435 264.607C96.6209 264.819 96.8367 265.083 96.9741 265.378C97.1115 265.674 97.1666 265.993 97.1352 266.309C97.103 266.621 96.9887 266.923 96.8008 267.192C96.6129 267.46 96.3564 267.689 96.0503 267.862L74.0883 279.805C73.6984 280.007 73.2539 280.119 72.7981 280.131C72.4011 280.133 72.01 280.049 71.6612 279.887C71.3125 279.725 71.0176 279.49 70.8043 279.204C70.599 278.954 66.5232 273.47 73.2086 267.136C74.8924 265.411 76.9812 264.008 79.3399 263.016C81.6985 262.024 84.2747 261.465 86.9019 261.377V261.502Z" fill="#DDDDDD"/>
<path d="M264.505 255.593L223.338 225L143.348 194.473C143.348 194.473 103.03 230.554 94.7616 266.009L223.338 322.972C223.338 322.972 237.529 283.912 264.505 255.593Z" fill="#F9F9F9" stroke="#DDDDDD" stroke-width="1.75064" stroke-linecap="round" stroke-linejoin="round"/>
<path d="M217.267 320.293L186.303 328.181L72.8569 277.953C78.8947 272.468 86.4451 268.362 94.8189 266.009L217.267 320.293Z" fill="#DDDDDD" stroke="#DDDDDD" stroke-width="1.75064" stroke-miterlimit="10"/>
<path d="M160.207 287.517C161.38 292.175 172.375 293.276 179.119 292.901C185.863 292.525 208.441 293.652 208.441 293.652C208.441 293.652 196.009 299.386 194.689 300.462C190.646 305.594 187.504 311.204 185.365 317.113C182.11 325.677 184.544 330.81 187.828 330.184C191.112 329.558 192.255 325.176 192.255 325.176C193.399 330.91 197.563 326.152 197.563 326.152C197.563 327.98 207.855 343.68 212.018 340.449C216.182 337.219 210.347 329.332 210.347 329.332H214.599C222.411 334.879 230.649 339.974 239.258 344.581C247.156 348.504 255.801 351.208 264.798 352.568C264.798 352.568 284.678 364.587 309.719 377.407C340.624 393.282 379.446 410.408 398.241 407.754C403.142 407.234 407.773 405.551 411.609 402.895C415.445 400.239 418.331 396.718 419.939 392.731C419.927 392.606 419.927 392.48 419.939 392.355C419.939 392.055 420.262 391.604 420.467 391.028C423.399 382.79 429.674 347.435 341.298 327.404L340.741 327.279L277.494 313.958C264.299 302.466 234.948 280.106 230.11 278.904C225.272 277.702 159.063 282.86 160.207 287.517Z" fill="#FEBD9D"/>
<path d="M210.23 329.233C210.23 329.233 216.094 337.17 211.901 340.35C207.708 343.53 197.445 327.83 197.445 326.053C197.445 326.053 193.282 330.81 192.138 325.076C192.138 325.076 190.994 329.583 187.71 330.209C184.426 330.835 181.993 325.677 185.277 317.114C187.381 311.205 190.515 305.6 194.572 300.488C195.862 299.386 208.324 293.652 208.324 293.652C208.324 293.652 185.863 292.551 179.002 292.901C172.141 293.252 161.233 292.175 160.089 287.518C158.946 282.861 225.096 277.753 229.963 278.98C232.397 279.581 240.959 285.49 250.488 292.676" stroke="#F4A789" stroke-width="1.3023" stroke-linecap="round" stroke-linejoin="round"/>
<path d="M208.323 293.652L219.582 289.846" stroke="#F4A789" stroke-width="1.3023" stroke-linecap="round" stroke-linejoin="round"/>
<path d="M216.651 302.615C216.651 302.615 198.677 309.201 197.445 311.454C194.869 315.735 193.079 320.329 192.138 325.075" stroke="#F4A789" stroke-width="1.3023" stroke-linecap="round" stroke-linejoin="round"/>
<path d="M214.628 313.958C214.628 313.958 201.287 320.994 199.674 322.371C198.576 323.464 197.811 324.772 197.445 326.177" stroke="#F4A789" stroke-width="1.3023" stroke-linecap="round" stroke-linejoin="round"/>
</svg>
