<svg width="1157" height="531" viewBox="0 0 1157 531" fill="none" xmlns="http://www.w3.org/2000/svg">
<path d="M835.955 267.612H437.342C432.777 267.612 429.077 270.771 429.077 274.669V275.296C429.077 279.194 432.777 282.354 437.342 282.354H835.955C840.52 282.354 844.22 279.194 844.22 275.296V274.669C844.22 270.771 840.52 267.612 835.955 267.612Z" stroke="#DDDDDD" stroke-width="2" stroke-miterlimit="10"/>
<path d="M833.12 17.3103H440.177C434.046 17.3103 429.077 21.5539 429.077 26.7886V27.649C429.077 32.8837 434.046 37.1273 440.177 37.1273H833.12C839.25 37.1273 844.22 32.8837 844.22 27.649V26.7886C844.22 21.5539 839.25 17.3103 833.12 17.3103Z" stroke="#DDDDDD" stroke-width="2" stroke-miterlimit="10"/>
<path d="M828.971 37.1273H444.309V267.612H828.971V37.1273Z" stroke="#DDDDDD" stroke-width="2" stroke-miterlimit="10"/>
<path d="M800.504 104.424L757.165 103.636C757.165 103.636 767.872 81.0923 760.904 64.7312L802.571 63.9729C804.511 68.5176 805.756 73.257 806.276 78.0738C807.164 85.7877 806.464 95.4994 800.504 104.424Z" stroke="#DDDDDD" stroke-linecap="round" stroke-linejoin="round"/>
<path d="M771.543 76.8635H798.865" stroke="#DDDDDD" stroke-linecap="round" stroke-linejoin="round"/>
<path d="M770.194 90.3373H797.516" stroke="#DDDDDD" stroke-linecap="round" stroke-linejoin="round"/>
<path d="M776.307 83.4108L797.806 83.7755" stroke="#DDDDDD" stroke-linecap="round" stroke-linejoin="round"/>
<path d="M473.407 71.0744H515.757C515.757 71.0744 513.434 99.1449 526.583 108.725L479.606 109.717C479.606 109.717 470.316 96.5056 473.407 71.0744Z" stroke="#DDDDDD" stroke-linecap="round" stroke-linejoin="round"/>
<path d="M501.378 82.7546H508.243" stroke="#DDDDDD" stroke-linecap="round" stroke-linejoin="round"/>
<path d="M480.972 82.7546H497.946" stroke="#DDDDDD" stroke-linecap="round" stroke-linejoin="round"/>
<path d="M482.338 91.2414H499.688" stroke="#DDDDDD" stroke-linecap="round" stroke-linejoin="round"/>
<path d="M484.114 98.3574C484.456 98.0658 509.916 97.8325 509.916 97.8325" stroke="#DDDDDD" stroke-linecap="round" stroke-linejoin="round"/>
<path d="M541.115 105.488H580.732C580.732 105.488 577.966 134.025 588.553 144.189H546.989C539.377 132.385 537.278 118.559 541.115 105.488Z" fill="#DDDDDD" stroke="#DDDDDD" stroke-linecap="round" stroke-linejoin="round"/>
<path d="M549.926 125.334H572.774" stroke="#F9F9F9" stroke-linecap="round" stroke-linejoin="round"/>
<path d="M551.053 132.8H564.288" stroke="#F9F9F9" stroke-linecap="round" stroke-linejoin="round"/>
<path d="M549.926 115.127L570.281 115.958" stroke="#F9F9F9" stroke-linecap="round" stroke-linejoin="round"/>
<path d="M544.684 195.212L574.653 194.235L595.366 144.189L665.021 138.444L698.388 91.2414" stroke="#DDDDDD" stroke-width="2" stroke-linecap="round" stroke-linejoin="round"/>
<path d="M700.164 88.6458L679.399 101.303L696.714 110.242L700.164 88.6458Z" fill="#DDDDDD" stroke="#DDDDDD" stroke-width="2" stroke-linecap="round" stroke-linejoin="round"/>
<path d="M335.123 102.513C367.783 102.513 394.258 79.9048 394.258 52.0156C394.258 24.1265 367.783 1.51791 335.123 1.51791C302.463 1.51791 275.988 24.1265 275.988 52.0156C275.988 79.9048 302.463 102.513 335.123 102.513Z" stroke="#DDDDDD" stroke-width="2" stroke-linecap="round" stroke-linejoin="round"/>
<path d="M306.606 25.6512L335.123 52.0156L358.859 40.9916" stroke="#DDDDDD" stroke-width="2" stroke-linecap="round" stroke-linejoin="round"/>
<path d="M780.713 439.943H680.27C669.877 439.943 661.452 447.137 661.452 456.012V457.47C661.452 466.345 669.877 473.54 680.27 473.54H780.713C791.106 473.54 799.531 466.345 799.531 457.47V456.012C799.531 447.137 791.106 439.943 780.713 439.943Z" stroke="#DDDDDD" stroke-miterlimit="10"/>
<path d="M380.854 199.265H324.894C311.342 199.265 300.356 208.647 300.356 220.22V222.115C300.356 233.688 311.342 243.07 324.894 243.07H380.854C394.406 243.07 405.392 233.688 405.392 222.115V220.22C405.392 208.647 394.406 199.265 380.854 199.265Z" stroke="#DDDDDD" stroke-miterlimit="10"/>
<path d="M1019.27 63.4626H938.942C934.227 63.4626 930.404 66.7269 930.404 70.7536V71.4098C930.404 75.4365 934.227 78.7008 938.942 78.7008H1019.27C1023.98 78.7008 1027.81 75.4365 1027.81 71.4098V70.7536C1027.81 66.7269 1023.98 63.4626 1019.27 63.4626Z" stroke="#DDDDDD" stroke-miterlimit="10"/>
<path d="M200.34 39.0522H99.8965C89.5036 39.0522 81.0784 46.2467 81.0784 55.1216V56.5798C81.0784 65.4547 89.5036 72.6492 99.8965 72.6492H200.34C210.733 72.6492 219.158 65.4547 219.158 56.5798V55.1216C219.158 46.2467 210.733 39.0522 200.34 39.0522Z" stroke="#DDDDDD" stroke-miterlimit="10"/>
<path d="M115.999 292.459L173.017 276.754L214.632 297.811L222.47 508.464H147.334L115.999 292.459Z" fill="#FED81D"/>
<path d="M166.972 501.595H33.2986L39.7876 344.109C37.8318 340.662 36.1211 337.117 34.6647 333.493C19.0911 294.122 51.4336 276.754 72.984 272.365C87.7379 269.376 108.981 269.93 121.31 270.382C125.05 270.513 127.97 270.63 129.643 270.63C139.547 297.988 147.53 325.826 153.55 353.996C154.427 357.972 155.235 361.899 155.975 365.778C155.982 365.812 155.982 365.846 155.975 365.88C171.702 445.571 166.972 501.595 166.972 501.595Z" fill="#A7CAF0"/>
<path d="M289.136 447.263C268.286 457.689 240.332 451.229 240.332 451.229L237.224 503.914L209.902 505.372C209.902 505.372 214.308 458.622 212.6 413.899C211.968 398.106 210.124 380.695 207.614 363.387C206.965 359.012 206.299 354.71 205.582 350.408C201.074 323.271 195.165 297.446 189.974 279.773C194.86 277.381 200.156 275.659 205.667 274.669C218.09 272.566 230.959 273.537 242.757 277.469C243.952 283.929 245.643 297.038 247.333 311.678C250.749 341.222 254.283 377.021 254.283 377.021C257.921 332.837 307.92 330.46 313.641 397.304C313.982 428.831 305.051 439.33 289.136 447.263Z" fill="#A7CAF0"/>
<path d="M288.112 394.913L226.415 407.395L233.092 314.537L234.526 294.661L242.774 277.469C242.774 277.469 272.384 292.313 278.754 307.887C280.543 313.28 281.761 318.8 282.391 324.379C286.284 350.846 288.112 394.913 288.112 394.913Z" fill="#A7CAF0"/>
<path d="M282.391 324.394C273.255 319.524 259.577 313.239 247.35 311.693L233.092 314.537L234.526 294.661L242.774 277.469C242.774 277.469 272.384 292.313 278.754 307.887C280.544 313.285 281.762 318.81 282.391 324.394Z" fill="#A7CAF0"/>
<path d="M129.694 270.63C139.598 297.988 147.581 325.826 153.601 353.996C147.334 350.376 141.831 345.875 137.328 340.682C101.86 301.311 62.0381 306.239 34.6647 333.493C19.0911 294.122 51.4336 276.754 72.984 272.365C87.7379 269.376 108.981 269.93 121.31 270.382C125.101 270.513 128.021 270.63 129.694 270.63Z" fill="#A7CAF0"/>
<path d="M247.35 311.693C242.723 313.807 239.376 316.374 237.89 318.984C234.031 325.896 221.77 340.668 205.565 350.365C201.057 323.228 195.148 297.403 189.957 279.729C194.843 277.337 200.139 275.615 205.65 274.625C218.088 272.519 230.973 273.505 242.774 277.469C243.969 283.943 245.66 297.053 247.35 311.693Z" fill="#A7CAF0"/>
<path d="M156.077 365.778C151.552 347.463 120.764 321.609 120.764 321.609L127.509 306.006L114.036 300.596L121.361 270.382C125.101 270.513 128.021 270.63 129.695 270.63C141.005 301.798 149.819 333.588 156.077 365.778Z" fill="#83ADDF"/>
<path d="M226.415 318.08C217.914 332.435 211.601 347.661 207.631 363.387C203.594 335.255 197.705 307.339 189.991 279.773C194.877 277.381 200.173 275.659 205.684 274.669L223.973 299.342L212.771 310.293L226.415 318.08Z" fill="#83ADDF"/>
<path d="M138.181 262.216C134.87 264.656 131.994 267.495 129.643 270.645L132.649 306.006C132.649 306.006 146.31 289.966 169.192 291.118L138.181 262.216Z" fill="white"/>
<path d="M187.395 267.261C187.395 267.582 179.796 290.782 179.796 290.782C179.796 290.782 194.704 296.484 204.984 306.079C204.984 306.079 199.981 280.094 198.154 275.748C196.326 271.403 187.395 267.261 187.395 267.261Z" fill="white"/>
<path d="M240.417 326.64C241.066 342.461 241.237 435.845 240.417 451.229" stroke="#83ADDF" stroke-width="0.75" stroke-linecap="round" stroke-linejoin="round"/>
<path d="M195.148 244.368L191.05 251.265L190.23 252.723C190.23 252.723 188.727 259.183 187.822 264.622C187.371 266.837 187.154 269.082 187.173 271.33C187.566 274.975 190.23 294.268 168.236 292.343C146.241 290.418 137.498 265.935 137.498 265.935C138.318 259.854 146.361 229.144 146.361 229.144C146.361 229.144 154.763 212.01 180.155 215.058C197.231 217.099 195.899 233.402 193.184 243.872L195.148 244.368Z" fill="#FEBD9D"/>
<path d="M195.148 244.368L191.05 251.265L190.23 252.723C190.23 252.723 188.727 259.183 187.822 264.622C176.894 262.187 163.113 254.006 165.418 236.391L193.201 243.872L195.148 244.368Z" fill="#F4A789"/>
<path d="M145.251 216.939C121.737 200.111 126.262 178.019 145.251 181.577C145.251 181.577 138.199 172.915 152.304 162.11C160.551 155.782 174.674 154.25 184.322 160.404C190.64 164.458 202.935 160.069 205.121 156.861C216.801 166.426 211.507 183.181 196.326 184.727L145.251 216.939Z" fill="#BF8228"/>
<path d="M147.71 216.341C134.612 204.675 134.049 189.685 145.917 184.071C145.917 184.071 143.509 167.258 166.545 165.479C191.545 163.554 199.315 179.579 189.018 191.493L147.71 216.341Z" fill="#BF8228"/>
<path d="M162.635 186.725C164.342 174.84 174.076 167.856 184.39 168.833C194.704 169.81 203.345 167.185 204.574 162.314" stroke="#7F542D" stroke-width="0.75" stroke-linecap="round" stroke-linejoin="round"/>
<path d="M178.174 177.276C179.079 177.276 203.089 184.829 207.443 169.168" stroke="#7F542D" stroke-width="0.75" stroke-linecap="round" stroke-linejoin="round"/>
<path d="M144.295 211.106C144.295 210.771 152.457 200.898 151.023 191.143" stroke="#7F542D" stroke-width="0.75" stroke-linecap="round" stroke-linejoin="round"/>
<path d="M144.568 216.006C138.882 208.962 132.136 191.391 145.251 187.191" stroke="#7F542D" stroke-width="0.75" stroke-linecap="round" stroke-linejoin="round"/>
<path d="M145.251 181.577C146.536 181.527 147.818 181.725 149.001 182.156C150.183 182.588 151.237 183.243 152.082 184.071" stroke="#7F542D" stroke-width="0.75" stroke-linecap="round" stroke-linejoin="round"/>
<path d="M151.125 176.226C152.645 165.085 171.907 156.671 183.861 160.185" stroke="#7F542D" stroke-width="0.75" stroke-linecap="round" stroke-linejoin="round"/>
<path d="M208.314 222.29L207.58 223.515L195.148 244.368L191.05 251.265L190.213 252.723L169.021 237.368L155.36 227.423C152.445 228.229 149.45 228.805 146.412 229.144C143.85 229.079 141.382 228.306 139.377 226.942C137.373 225.577 135.941 223.694 135.296 221.576C132.375 213.497 139.565 207.971 147.249 209.137C148.337 209.287 149.395 209.566 150.391 209.969C160.859 203.859 160.825 191.858 155.189 188.27C153.157 178.719 177.474 168.57 181.453 175.934C187.037 186.302 196.326 184.683 196.326 184.683C200.092 192.173 203.175 199.901 205.548 207.796C205.684 208.262 205.821 208.744 205.94 209.181C207.268 213.468 208.063 217.862 208.314 222.29Z" fill="#FEBD9D"/>
<path d="M173.786 236.989C181.321 236.989 187.43 231.773 187.43 225.338C187.43 218.903 181.321 213.687 173.786 213.687C166.25 213.687 160.142 218.903 160.142 225.338C160.142 231.773 166.25 236.989 173.786 236.989Z" fill="#F4A789"/>
<path d="M208.314 222.29L207.58 223.515C206.143 222.661 204.937 221.554 204.042 220.269C203.148 218.984 202.585 217.55 202.393 216.064C202.2 214.578 202.382 213.074 202.926 211.653C203.47 210.232 204.364 208.927 205.548 207.825C205.684 208.292 205.821 208.773 205.94 209.21C207.265 213.487 208.061 217.871 208.314 222.29Z" fill="#F4A789"/>
<path d="M195.148 244.368L191.05 251.265L190.213 252.723L169.021 237.368L195.148 244.368Z" fill="#F4A789"/>
<path d="M182.085 207.14C183.349 207.14 184.373 206.265 184.373 205.186C184.373 204.106 183.349 203.232 182.085 203.232C180.821 203.232 179.797 204.106 179.797 205.186C179.797 206.265 180.821 207.14 182.085 207.14Z" fill="#683F1D"/>
<path d="M197.966 203.217C199.229 203.217 200.254 202.342 200.254 201.263C200.254 200.184 199.229 199.309 197.966 199.309C196.702 199.309 195.677 200.184 195.677 201.263C195.677 202.342 196.702 203.217 197.966 203.217Z" fill="#683F1D"/>
<path d="M187.891 186.258C187.703 189.422 198.136 188.927 198.837 187.979C199.793 186.725 188.215 180.979 187.891 186.258Z" fill="#BF8228"/>
<path d="M167.075 194.628C166.426 198.113 177.457 192.805 178.089 190.779C178.203 190.346 178.201 189.896 178.081 189.465C177.962 189.033 177.728 188.63 177.399 188.287C177.07 187.944 176.653 187.67 176.181 187.485C175.708 187.3 175.193 187.21 174.674 187.22C172.266 187.483 167.519 192.222 167.075 194.628Z" fill="#BF8228"/>
<path d="M216.015 232.702C216.001 234.419 215.772 236.13 215.332 237.806C211.08 253.54 188.864 258.906 168.902 243.639C152.047 230.763 147.249 209.167 147.249 209.167C147.244 209.138 147.244 209.108 147.249 209.079C148.337 209.228 149.395 209.508 150.391 209.91C150.391 209.91 154.694 219.782 163.352 225.79C167.177 228.459 170.746 229.873 174.281 229.902C178.721 229.902 183.109 227.788 187.942 223.194C196.48 214.97 202.935 215.714 205.309 216.181C205.996 213.892 206.221 211.52 205.974 209.167C209.509 212.622 216.152 222.553 216.015 232.702Z" fill="#BF8228"/>
<path d="M188.966 194.628C190.452 204.034 194.294 205.769 199.622 207.154C202.935 208.029 199.622 213.424 199.622 213.424" stroke="#F4A789" stroke-width="0.75" stroke-linecap="round" stroke-linejoin="round"/>
<path d="M204.335 219.87C203.345 229.844 191.665 230.573 189.376 225.221C189.376 225.221 199.246 223.836 204.335 219.87Z" fill="white" stroke="#F4A789" stroke-width="0.75" stroke-linecap="round" stroke-linejoin="round"/>
<path d="M146.344 229.115C148.345 229.025 150.315 228.645 152.167 227.992" stroke="#F4A789" stroke-width="0.75" stroke-linecap="round" stroke-linejoin="round"/>
<path d="M140.777 217.887C142.126 216.093 148.308 213.789 150.937 219.87" stroke="#F4A789" stroke-width="0.75" stroke-linecap="round" stroke-linejoin="round"/>
<path d="M149.742 217.901C143.8 217.187 143.458 224.915 150.698 223.442" stroke="#F4A789" stroke-width="0.75" stroke-linecap="round" stroke-linejoin="round"/>
<path d="M184.893 199.471L169.625 203.978C168.449 204.325 167.825 205.421 168.231 206.426L170.87 212.945C171.277 213.949 172.561 214.482 173.737 214.135L189.005 209.628C190.181 209.281 190.805 208.185 190.399 207.18L187.76 200.661C187.353 199.656 186.069 199.123 184.893 199.471Z" stroke="#683F1D" stroke-linecap="round" stroke-linejoin="round"/>
<path d="M196.497 196.553L209.868 192.601C210.407 192.443 210.997 192.474 211.509 192.688C212.022 192.901 212.414 193.279 212.6 193.739L215.298 200.432C215.484 200.89 215.45 201.393 215.204 201.83C214.957 202.267 214.519 202.603 213.983 202.765L203.072 205.973" stroke="#683F1D" stroke-linecap="round" stroke-linejoin="round"/>
<path d="M216.015 232.702C216.001 234.419 215.772 236.13 215.332 237.806C211.08 253.54 188.864 258.906 168.902 243.639C152.047 230.763 147.249 209.167 147.249 209.167C147.244 209.138 147.244 209.108 147.249 209.079C148.337 209.228 149.395 209.508 150.391 209.91C150.391 209.91 154.694 219.782 163.352 225.79C167.177 228.459 170.746 229.873 174.281 229.902C183.519 238.812 190.469 241.568 198.905 240.576C205.531 239.791 211.604 236.996 216.015 232.702Z" fill="#BF8228"/>
<path d="M180.565 250.259C193.799 244.703 204.199 243.814 211.149 245.49" stroke="#7F542D" stroke-width="0.75" stroke-linecap="round" stroke-linejoin="round"/>
<path d="M170.029 244.513C181.248 239.322 202.474 238.126 214.632 239.833" stroke="#7F542D" stroke-width="0.75" stroke-linecap="round" stroke-linejoin="round"/>
<path d="M153.84 225.717C165.384 240.722 196.036 234.802 202.935 231.317C209.475 227.992 208.997 219.33 205.65 214.679" stroke="#7F542D" stroke-width="0.75" stroke-linecap="round" stroke-linejoin="round"/>
<path d="M188.693 202.765L193.475 201.307" stroke="#683F1D" stroke-linecap="round" stroke-linejoin="round"/>
<path d="M210.995 190.837C209.048 192.733 213.693 196.582 220.728 198.638C224.914 199.864 228.684 201.946 231.709 204.704C231.709 204.704 230.086 212.958 235.756 215.889C235.756 215.889 233.245 218.455 231.623 216.647C230.001 214.839 226.637 205.361 220.353 205.973C216.015 206.396 222.573 217.085 223.512 221.27C224.451 225.455 227.303 231.331 233.245 233.781C239.188 236.231 245.387 250.973 245.387 250.973C245.387 250.973 269.396 243.522 269.481 243.347C269.567 243.172 266.254 236.056 266.254 236.056C266.254 236.056 266.92 225.688 266.835 217.989C266.749 210.289 263.692 204.559 256.452 204.369C256.452 204.369 257.186 200.549 251.534 200.184C251.534 200.184 251.158 194.351 239.581 197.37C239.615 197.399 215.162 186.768 210.995 190.837Z" fill="#FEBD9D"/>
<path d="M242.774 258.104C242.432 257.681 240.656 248.699 240.656 248.699L270.011 240.605L275.134 250.813L242.774 258.104Z" fill="white"/>
<path d="M256.452 204.398C256.452 204.398 257.186 200.578 251.534 200.213C251.534 200.213 251.158 194.38 239.581 197.399C239.581 197.399 215.127 186.768 210.961 190.837C209.014 192.732 213.659 196.582 220.694 198.638C224.88 199.863 228.65 201.946 231.674 204.704C231.674 204.704 230.052 212.958 235.721 215.889C235.721 215.889 233.211 218.455 231.589 216.647C229.967 214.839 226.603 205.361 220.319 205.973C215.981 206.396 222.539 217.085 223.478 221.27C224.417 225.455 227.269 231.331 233.211 233.781" stroke="#F4A789" stroke-width="0.75" stroke-linecap="round" stroke-linejoin="round"/>
<path d="M231.948 216.939C234.287 218.222 246.804 219.243 247.436 227.394" stroke="#F4A789" stroke-width="0.75" stroke-linecap="round" stroke-linejoin="round"/>
<path d="M235.756 215.889C236.425 216.16 237.162 216.289 237.903 216.264C238.643 216.238 239.366 216.06 240.008 215.743" stroke="#F4A789" stroke-width="0.75" stroke-linecap="round" stroke-linejoin="round"/>
<path d="M231.708 204.704C232.337 203.076 233.369 201.582 234.733 200.324C236.097 199.066 237.762 198.074 239.615 197.413" stroke="#F4A789" stroke-width="0.75" stroke-linecap="round" stroke-linejoin="round"/>
<path d="M251.244 200.184C240.879 203.29 239.154 209.794 239.615 213.497C240.076 217.201 241.954 218.674 244.413 218.353C245.048 218.22 245.63 217.944 246.098 217.554C246.567 217.165 246.905 216.675 247.077 216.137" stroke="#F4A789" stroke-width="0.75" stroke-linecap="round" stroke-linejoin="round"/>
<path d="M256.452 204.398C253.915 204.616 251.555 205.604 249.799 207.183C248.044 208.762 247.012 210.827 246.889 213.002C246.343 218.31 249.69 219.52 252.012 218.324C254.574 216.939 257.135 211.879 257.135 211.879" stroke="#F4A789" stroke-width="0.75" stroke-linecap="round" stroke-linejoin="round"/>
<path d="M313.658 397.319C310.499 438.149 258.911 431.077 254.301 377.035C254.301 377.035 250.766 341.236 247.35 311.693C245.643 297.111 243.935 283.987 242.774 277.484L239.222 256.821L285.14 245.155C285.14 245.155 294.174 275.952 302.08 313.224C305.359 328.71 308.45 345.305 310.618 361.258C312.375 373.224 313.39 385.261 313.658 397.319Z" fill="#A7CAF0"/>
<path d="M254.301 377.035C254.301 377.035 250.766 341.236 247.35 311.693C245.643 297.111 243.935 283.987 242.774 277.484" stroke="#83ADDF" stroke-width="0.75" stroke-linecap="round" stroke-linejoin="round"/>
<path d="M324.621 372.252C324.74 371.917 333.296 360.733 341.339 357.845C349.382 354.958 359.884 350.554 363.265 346.486C366.646 342.417 373.51 342.345 369.224 350.438C364.938 358.531 360.02 360.062 360.02 360.062C360.02 360.062 381.929 354.535 394.77 352.319C407.612 350.102 411.625 354.973 398.408 359.187C391.04 361.453 383.92 364.268 377.131 367.601C377.131 367.601 399.432 365.166 408.636 365.268C417.841 365.37 420.59 369.642 408.124 372.252C416.56 372.355 417.858 376.452 407.868 378.333C397.878 380.214 381.024 383.918 381.024 383.918C381.024 383.918 398.801 382.927 405.99 383.918C413.179 384.91 409.405 389.751 399.706 390.67C390.006 391.588 338.231 399.521 330.188 398.529L324.621 372.252Z" fill="#FEBD9D"/>
<path d="M351.653 353.675C356.776 351.4 361.25 348.848 363.265 346.384C366.68 342.359 373.51 342.243 369.224 350.336C364.938 358.429 360.02 359.96 360.02 359.96C360.02 359.96 381.929 354.433 394.77 352.217C407.612 350 411.625 354.871 398.408 359.085C391.04 361.35 383.92 364.166 377.131 367.499C377.131 367.499 399.432 365.064 408.636 365.166C417.841 365.268 420.59 369.54 408.124 372.15C416.56 372.252 417.858 376.35 407.868 378.231C397.878 380.112 381.024 383.918 381.024 383.918C381.024 383.918 398.8 382.927 405.99 383.918C413.179 384.91 409.405 389.751 399.706 390.67" stroke="#F4A789" stroke-width="0.75" stroke-linecap="round" stroke-linejoin="round"/>
<path d="M310.618 368.767L326.175 365.224L335.772 402.321L323.186 405.864L310.618 368.767Z" fill="white"/>
<path d="M351.841 362.351L360.02 360.018" stroke="#F4A789" stroke-width="0.75" stroke-linecap="round" stroke-linejoin="round"/>
<path d="M378.514 375.854L408.124 372.209" stroke="#F4A789" stroke-width="0.75" stroke-linecap="round" stroke-linejoin="round"/>
<path d="M329.641 408.853C329.641 408.853 283.877 425.054 245.267 439.767C235.773 443.398 226.722 446.927 218.867 450.092C179.13 466.205 162.259 473.423 135.039 464.849C115.743 458.753 95.7638 432.141 71.6349 394.767C61.7648 379.456 51.2458 362.351 39.7876 344.109C34.0841 325.459 69.8761 312.029 94.7392 315.353C94.8588 315.353 102.338 315.353 110.347 322.644C119.893 331.277 167.638 400.877 167.638 400.877C183.007 394.519 316.407 361.331 316.407 361.331L329.641 408.853Z" fill="#A7CAF0"/>
<path d="M245.267 439.767C235.773 443.398 226.722 446.927 218.867 450.092C179.13 466.205 162.259 473.423 135.039 464.849C115.743 458.753 95.7638 432.141 71.6349 394.767C84.2202 392.23 99.1279 393.703 105.224 411.187C116.904 444.725 144.5 461.466 172.761 439.942C194.824 423.173 231.504 419.717 245.267 439.767Z" fill="#83ADDF"/>
<path d="M94.7734 315.382C94.7734 315.382 102.321 315.382 110.381 322.673C119.927 331.321 167.672 400.921 167.672 400.921C183.041 394.548 316.441 361.374 316.441 361.374L329.675 408.897C329.675 408.897 258.638 434.037 218.901 450.135C179.165 466.234 162.31 473.467 135.091 464.878C112.174 457.674 88.2502 421.554 57.7519 372.836" stroke="#83ADDF" stroke-width="0.75" stroke-linecap="round" stroke-linejoin="round"/>
<path d="M150.357 413.899C150.357 413.899 157.529 404.202 167.638 400.877" stroke="#83ADDF" stroke-width="0.75" stroke-linecap="round" stroke-linejoin="round"/>
<path d="M423.425 317.162C423.818 305.992 432.612 297.315 436.506 293.145C440.399 288.974 434.098 285.781 436.506 276.638C440.228 262.639 459.559 270.514 459.559 247.97C459.559 240.97 461.506 239.468 461.506 239.468C461.506 239.468 447.059 212.317 473.22 203.305C473.22 203.305 475.559 191.785 499.381 186.608C523.202 181.432 544.684 202.444 529.264 232.79L528.086 256.806C530.321 257.168 532.355 258.149 533.873 259.595C535.391 261.042 536.31 262.875 536.488 264.812C538.195 275.019 553.462 268.647 554.247 294.982L423.425 317.162Z" fill="#7F542D"/>
<path d="M478.821 281.45C466.987 284.585 457.697 284.017 457.697 274.99C457.697 266.503 469.975 261.983 467.943 248.203C465.911 234.423 469.053 227.876 474.483 221.955C479.914 216.035 487.752 195.707 507.048 199.309C526.344 202.911 529.247 232.848 529.247 232.848L519.002 260.627C519.002 260.627 531.484 275.428 527.813 280.808C524.141 286.189 478.821 281.45 478.821 281.45Z" fill="#683F1D"/>
<path d="M525.098 261.823C525.098 261.823 534.865 261.954 532.372 272.672C531.484 276.335 532.065 280.146 534.023 283.493C535.981 286.839 539.201 289.525 543.165 291.118" stroke="#BF8228" stroke-width="0.75" stroke-linecap="round" stroke-linejoin="round"/>
<path d="M473.22 210.99C462.376 221.839 466.577 232.673 466.577 232.673" stroke="#BF8228" stroke-width="0.75" stroke-linecap="round" stroke-linejoin="round"/>
<path d="M462.701 268.399C450.935 273.547 444.071 283.608 451.396 293.378C452.895 295.283 453.884 297.447 454.291 299.715C454.698 301.984 454.514 304.301 453.753 306.502" stroke="#BF8228" stroke-width="0.75" stroke-linecap="round" stroke-linejoin="round"/>
<path d="M473.22 203.305C473.22 203.305 481.929 205.463 484.439 210.071" stroke="#BF8228" stroke-width="0.75" stroke-linecap="round" stroke-linejoin="round"/>
<path d="M490.638 202.634C490.638 202.634 510.122 187.323 524.09 201.176" stroke="#BF8228" stroke-width="0.75" stroke-linecap="round" stroke-linejoin="round"/>
<path d="M534.678 251.484C535.104 270.776 519.616 275.661 512.154 276.04C495.078 276.565 479.214 260 473.92 253.773C473.732 252.475 473.527 251.149 473.271 249.807C463.111 251.659 458.944 247.605 457.8 241.481C456.656 235.356 465.399 228.255 476.738 236.1C487.359 229.844 488.845 221.153 486.625 213.439C489.132 210.36 492.727 208.046 496.884 206.837C501.041 205.627 505.542 205.585 509.729 206.717C521.597 209.633 529.879 223.545 533.141 238.637C533.886 242.082 534.371 245.565 534.592 249.063C534.626 249.88 534.661 250.682 534.678 251.484Z" fill="#FEBD9D"/>
<path d="M516.713 217.449C517.072 220.016 524.825 220.366 528.308 218.908C531.792 217.449 515.689 210.129 516.713 217.449Z" fill="#7F542D"/>
<path d="M492.653 222.947C492.055 225.222 499.671 222.232 502.455 222.072C505.238 221.912 506.689 220.862 505.289 217.945C503.889 215.029 493.985 218.047 492.653 222.947Z" fill="#7F542D"/>
<path d="M507.885 236.144C509.149 236.144 510.173 235.269 510.173 234.19C510.173 233.11 509.149 232.236 507.885 232.236C506.621 232.236 505.597 233.11 505.597 234.19C505.597 235.269 506.621 236.144 507.885 236.144Z" fill="#683F1D"/>
<path d="M524.09 231.215C525.354 231.215 526.378 230.34 526.378 229.261C526.378 228.182 525.354 227.307 524.09 227.307C522.827 227.307 521.802 228.182 521.802 229.261C521.802 230.34 522.827 231.215 524.09 231.215Z" fill="#683F1D"/>
<path d="M517.157 228.226C517.004 234.058 520.299 236.071 521.085 236.727C522.963 238.287 527.284 236.727 525.32 242.414" stroke="#F4A789" stroke-width="0.75" stroke-linecap="round" stroke-linejoin="round"/>
<path d="M509.251 252.49C512.205 249.967 523.441 250.492 524.62 251.499C525.798 252.505 523.749 256.836 518.865 256.777C513.981 256.719 507.868 253.671 509.251 252.49Z" fill="white" stroke="#F4A789" stroke-width="0.75" stroke-linecap="round" stroke-linejoin="round"/>
<path d="M464.186 242.122C466.782 238.885 472.144 239.964 474.313 241.583C467.363 240.591 466.731 247.211 474.518 245.447" stroke="#F4A789" stroke-width="0.75" stroke-linecap="round" stroke-linejoin="round"/>
<path d="M509.985 248.086C508.909 250.842 503.155 251.659 497.058 249.924C490.962 248.188 486.983 244.543 488.076 241.787C489.169 239.031 494.907 238.214 501.003 239.964C507.099 241.714 511.078 245.389 509.985 248.086Z" fill="#F4A789"/>
<path d="M534.575 249.063C531.723 249.515 529.35 249.063 528.257 247.722C526.549 245.52 528.667 241.626 533.124 238.637C533.869 242.082 534.354 245.565 534.575 249.063Z" fill="#F4A789"/>
<path d="M467.038 251.499C467.038 252.338 467.33 253.158 467.876 253.856C468.422 254.554 469.198 255.098 470.106 255.419C471.014 255.74 472.013 255.824 472.977 255.66C473.941 255.497 474.826 255.092 475.521 254.499C476.216 253.906 476.689 253.15 476.881 252.326C477.073 251.503 476.974 250.65 476.598 249.875C476.222 249.099 475.585 248.437 474.768 247.97C473.951 247.504 472.99 247.255 472.007 247.255C471.355 247.255 470.709 247.365 470.106 247.578C469.503 247.791 468.955 248.104 468.494 248.498C468.032 248.892 467.666 249.36 467.416 249.875C467.167 250.389 467.038 250.941 467.038 251.499Z" fill="#A7CAF0"/>
<path d="M667.753 311.62L643.454 338.481C643.454 338.481 611.009 450.106 594.598 459.512C589.429 462.423 583.504 464.211 577.34 464.719C571.176 465.228 564.96 464.441 559.233 462.428C559.233 462.355 559.233 462.297 559.233 462.224C559.233 462.151 544.736 451.798 547.502 436.458C547.758 434.999 580.237 387.112 594.154 365.997C605.271 348.994 618.796 329.542 618.796 329.542L667.753 311.62Z" fill="#FEBD9D"/>
<path d="M618.864 329.556C618.864 329.556 620.759 304.344 621.425 301.5C622.091 298.657 642.037 282.281 644.871 280.984C647.706 279.686 665.363 284.148 666.814 285.533C668.266 286.918 666.626 290.156 661.879 289.908C657.132 289.66 661.213 299.474 661.213 299.474C661.213 299.474 668.881 306.415 667.753 311.62C667.753 311.62 637.955 337.256 637.562 337.168C637.17 337.081 618.864 329.556 618.864 329.556Z" fill="#FEBD9D"/>
<path d="M618.864 329.556C618.864 329.556 620.759 304.344 621.425 301.5C622.091 298.657 642.037 282.281 644.871 280.984C647.706 279.686 665.363 284.148 666.814 285.533C668.266 286.918 666.626 290.156 661.879 289.908C657.132 289.66 661.213 299.474 661.213 299.474C661.213 299.474 668.881 306.415 667.753 311.62C667.753 311.62 637.955 337.256 637.562 337.168C637.17 337.081 618.864 329.556 618.864 329.556Z" fill="#FEBD9D"/>
<path d="M621.425 301.5C622.091 298.584 642.037 282.281 644.871 280.984C647.706 279.686 665.363 284.148 666.814 285.533C668.266 286.918 666.626 290.156 661.879 289.908" stroke="#F4A789" stroke-width="0.75" stroke-linecap="round" stroke-linejoin="round"/>
<path d="M649.909 291.118C650.199 290.564 661.299 287.4 663.194 287.968C665.09 288.537 674.208 301.5 674.499 304.096C674.789 306.692 670.469 318.08 666.524 317.074C662.579 316.068 666.678 306.4 666.678 306.4L649.909 291.118Z" fill="#FEBD9D" stroke="#F4A789" stroke-width="0.75" stroke-linecap="round" stroke-linejoin="round"/>
<path d="M657.593 313.574C660.821 315.397 664.56 311.212 666.678 306.4L659.506 301.428C659.506 301.428 652.846 310.906 657.593 313.574Z" fill="#FEBD9D" stroke="#F4A789" stroke-width="0.75" stroke-linecap="round" stroke-linejoin="round"/>
<path d="M668.402 302.725L670.725 307.727C670.794 307.872 670.816 308.03 670.788 308.185C670.759 308.34 670.682 308.485 670.565 308.605C670.447 308.725 670.293 308.815 670.12 308.866C669.946 308.917 669.76 308.926 669.581 308.894L663.416 307.785L612.187 270.864C611.798 270.584 611.478 270.242 611.244 269.857C611.011 269.472 610.869 269.052 610.826 268.619C610.783 268.187 610.84 267.752 610.995 267.339C611.149 266.926 611.398 266.543 611.726 266.212C612.389 265.545 613.334 265.129 614.355 265.055C615.375 264.982 616.389 265.256 617.173 265.818L668.402 302.725Z" fill="#683F1D"/>
<path d="M635.206 300.494C640.978 293.378 647.313 287.779 650.387 287.137C655.032 286.175 656.09 290.885 645.161 304.504C646.951 308.383 647.234 312.65 645.971 316.677C644.708 320.704 641.964 324.278 638.143 326.873" fill="#FEBD9D"/>
<path d="M635.206 300.494C640.978 293.378 647.313 287.779 650.387 287.137C655.032 286.175 656.09 290.885 645.161 304.504C646.951 308.383 647.234 312.65 645.971 316.677C644.708 320.704 641.964 324.278 638.143 326.873" stroke="#F4A789" stroke-width="0.75" stroke-linecap="round" stroke-linejoin="round"/>
<path d="M588.383 383.918C588.024 385.377 585.428 389.43 584.967 390.845C577.403 418.347 564.732 444.944 559.233 462.18C557.676 467.181 556.428 472.248 555.494 477.36C552.727 491.767 551.856 505.343 551.856 505.343L427.063 503.346L411.95 503.112L412.531 448.604L412.667 437.143C412.667 437.143 376.995 435.043 376.721 435.685C376.448 436.326 378.429 419.032 378.429 419.032C366.732 407.585 366.015 390.801 368.901 380.696C370.847 373.93 378.788 355.702 386.933 340.508C390.188 334.102 394.007 327.916 398.357 322.003C408.603 309.054 414.955 308.077 428.394 305.715C441.834 303.352 464.648 293.101 464.648 293.101L508.021 288.974C508.021 288.974 530.699 290.316 550.9 289.587C570.111 288.887 580.903 292.591 589.339 307.698C589.8 308.485 590.227 309.316 590.671 310.177C596.904 322.586 602.505 340.303 605.22 349.461C596.613 367.222 588.383 383.918 588.383 383.918Z" fill="#FED81D"/>
<path d="M589.356 307.698C571.648 306.05 560.582 318.605 547.587 342.374C532.065 370.678 498.203 374.586 465.775 352.392C437.223 332.823 416.253 328.215 387.019 340.522C390.273 334.116 394.092 327.93 398.443 322.017C408.688 309.069 415.041 308.092 428.48 305.729C441.919 303.367 464.733 293.116 464.733 293.116L508.021 288.974C508.021 288.974 530.699 290.316 550.9 289.587C570.128 288.887 580.92 292.591 589.356 307.698Z" fill="#FED81D"/>
<path d="M430.7 429.4L442.295 366.187C445.522 370.415 454.419 376.292 451.55 388.235C444.241 418.39 468.626 394.505 478.138 409.014C482.082 415.051 448.749 424.923 430.7 429.4Z" fill="#FCC71F"/>
<path d="M472.998 288.77C469.583 287.516 464.733 291.614 464.733 293.145C464.733 294.676 469.651 307.727 476.208 313.822C482.766 319.918 494.753 321.259 499.295 306.94C511.403 317.701 523.202 313.647 521.614 300.538C520.026 287.429 509.063 284.891 509.063 284.891L472.998 288.77Z" fill="white"/>
<path d="M429.658 435.072L430.7 429.4L442.295 366.187L445.932 346.442" stroke="#FCC71F" stroke-width="0.75" stroke-linecap="round" stroke-linejoin="round"/>
<path d="M378.515 419.061C396.243 414.222 414.965 412.618 433.466 414.351" stroke="#FCC71F" stroke-width="0.75" stroke-linecap="round" stroke-linejoin="round"/>
<path d="M505.938 328.011C508.503 328.011 510.583 326.235 510.583 324.044C510.583 321.854 508.503 320.078 505.938 320.078C503.373 320.078 501.293 321.854 501.293 324.044C501.293 326.235 503.373 328.011 505.938 328.011Z" fill="white"/>
<path d="M510.6 344.649C513.165 344.649 515.245 342.873 515.245 340.683C515.245 338.492 513.165 336.716 510.6 336.716C508.035 336.716 505.955 338.492 505.955 340.683C505.955 342.873 508.035 344.649 510.6 344.649Z" fill="white"/>
<path d="M388.675 474.721H388.59C368.969 468.961 375.014 443.267 377.285 429.837L399.194 425.317L432.732 418.405C432.732 418.405 438.487 481.487 388.675 474.721Z" fill="#FEBD9D"/>
<path d="M512.154 276.011C512.154 276.376 511.881 283.01 511.659 287.779C511.573 289.879 511.471 291.628 511.437 292.285C511.3 294.487 505.836 303.673 494.36 301.223C482.885 298.774 473.271 290.331 472.998 288.727C472.725 287.123 477.95 274.538 475.167 255.188C485.156 245.214 514.442 251.499 512.154 276.011Z" fill="#FEBD9D"/>
<path d="M512.154 276.011C512.154 276.011 511.881 282.894 511.659 287.793C503.752 286.875 488.759 282.879 489.664 265.658C492.96 269.916 504.316 276.346 512.154 276.011Z" fill="#F4A789"/>
<path d="M607.85 375.592C607.721 375.587 607.596 375.557 607.483 375.504C607.371 375.45 607.274 375.376 607.201 375.286L569.138 329.119C569.061 329.038 569.009 328.943 568.985 328.842C568.962 328.74 568.967 328.635 569.001 328.536C569.027 328.438 569.077 328.345 569.148 328.265C569.218 328.185 569.308 328.118 569.411 328.069C571.809 326.757 574.56 325.989 577.403 325.838C583.584 325.838 589.851 330.752 599.055 342.811C616.132 365.151 610.616 373.434 608.533 375.359C608.451 375.432 608.353 375.49 608.244 375.53C608.136 375.57 608.019 375.591 607.901 375.592H607.85Z" fill="#F9F9F9"/>
<path d="M577.403 326.567C582.799 326.567 588.673 330.548 598.338 343.22C612.529 361.797 611.555 371.378 607.901 374.863L569.821 328.696C572.094 327.446 574.704 326.713 577.403 326.567ZM577.403 325.109C574.416 325.255 571.523 326.054 569.001 327.427C568.792 327.526 568.609 327.662 568.465 327.825C568.32 327.989 568.218 328.176 568.164 328.375C568.111 328.575 568.108 328.782 568.155 328.983C568.202 329.184 568.299 329.375 568.438 329.542L606.501 375.709C606.649 375.887 606.843 376.035 607.068 376.141C607.292 376.248 607.542 376.309 607.798 376.321H607.901C608.139 376.321 608.375 376.278 608.592 376.195C608.81 376.112 609.005 375.991 609.165 375.84C611.35 373.755 617.139 365.195 599.773 342.418C590.381 330.125 583.909 325.109 577.403 325.109Z" fill="#DDDDDD"/>
<path d="M623.492 384.079C623.329 384.074 623.17 384.034 623.031 383.962L607.44 375.49C607.328 375.427 607.235 375.343 607.167 375.244C607.099 375.146 607.058 375.035 607.047 374.921C607.04 374.811 607.06 374.7 607.108 374.597C607.155 374.494 607.227 374.401 607.32 374.323C609.011 373.021 611.209 372.304 613.485 372.311C615.22 372.365 616.924 372.726 618.488 373.371C620.051 374.016 621.441 374.931 622.569 376.059C626.89 380.156 624.277 383.714 624.277 383.743C624.193 383.854 624.076 383.943 623.937 384.002C623.799 384.061 623.646 384.087 623.492 384.079Z" fill="#F9F9F9"/>
<path d="M613.485 373.04C615.102 373.095 616.688 373.435 618.143 374.04C619.598 374.645 620.89 375.501 621.938 376.554C625.865 380.273 623.492 383.35 623.492 383.35L607.901 374.863C609.428 373.678 611.422 373.027 613.485 373.04ZM613.485 371.582C610.998 371.569 608.596 372.355 606.757 373.784C606.56 373.934 606.406 374.121 606.309 374.33C606.211 374.54 606.171 374.766 606.192 374.99C606.214 375.215 606.296 375.432 606.433 375.625C606.569 375.818 606.756 375.982 606.979 376.102L622.569 384.575C622.948 384.784 623.408 384.857 623.85 384.778C624.291 384.699 624.678 384.474 624.926 384.152C625.046 383.991 627.966 380.083 623.218 375.577C622.012 374.372 620.526 373.394 618.853 372.706C617.18 372.018 615.358 371.635 613.502 371.582H613.485Z" fill="#DDDDDD"/>
<path d="M487.257 367.47L573.373 324.044C573.373 324.044 602.01 349.68 607.901 374.863L516.56 415.357C516.56 415.357 506.416 387.491 487.257 367.47Z" fill="#F9F9F9" stroke="#DDDDDD" stroke-linecap="round" stroke-linejoin="round"/>
<path d="M520.829 413.447L542.874 419.061L623.492 383.35C619.211 379.449 613.849 376.53 607.901 374.863L520.829 413.447Z" fill="#DDDDDD" stroke="#DDDDDD" stroke-miterlimit="10"/>
<path d="M561.368 390.159C560.548 393.47 552.727 394.242 547.929 393.98C543.13 393.718 527.181 394.505 527.181 394.505C527.181 394.505 536.027 398.588 536.949 399.361C539.834 402.999 542.068 406.985 543.574 411.187C545.897 417.268 544.172 420.913 541.867 420.476C539.561 420.038 538.725 416.845 538.725 416.845C537.905 420.913 534.951 417.53 534.951 417.53C534.951 418.828 527.625 429.954 524.705 427.737C521.785 425.521 525.9 419.849 525.9 419.849H522.878C517.296 423.751 511.421 427.336 505.289 430.581C499.675 433.366 493.53 435.286 487.137 436.253C487.137 436.253 473.015 444.799 455.221 453.898C433.244 465.184 405.7 477.36 392.312 475.465C388.838 475.084 385.558 473.881 382.842 471.992C380.127 470.103 378.083 467.604 376.943 464.776C376.911 464.686 376.871 464.598 376.824 464.513C376.739 464.309 376.602 463.989 376.448 463.566C374.45 457.733 369.908 432.593 432.698 418.361L433.09 418.274L478.104 408.985C487.479 400.819 508.329 384.925 511.778 384.05C515.228 383.175 562.188 386.835 561.368 390.159Z" fill="#FEBD9D"/>
<path d="M525.832 419.805C525.832 419.805 521.683 425.434 524.637 427.694C527.591 429.954 534.883 418.828 534.883 417.486C534.883 417.486 537.837 420.869 538.656 416.786C538.656 416.786 539.459 420.009 541.798 420.446C544.138 420.884 545.88 417.224 543.506 411.143C542.009 406.943 539.775 402.96 536.88 399.332C535.975 398.544 527.113 394.461 527.113 394.461C527.113 394.461 543.079 393.674 547.878 393.936C552.676 394.199 560.497 393.426 561.3 390.116C562.102 386.806 515.108 383.16 511.659 384.035C509.951 384.472 503.838 388.658 497.024 393.761" stroke="#F4A789" stroke-width="0.75" stroke-linecap="round" stroke-linejoin="round"/>
<path d="M527.181 394.505L519.189 391.807" stroke="#F4A789" stroke-width="0.75" stroke-linecap="round" stroke-linejoin="round"/>
<path d="M521.273 400.877C521.273 400.877 534.046 405.573 534.934 407.162C535.822 408.752 538.434 413.578 538.691 416.83" stroke="#F4A789" stroke-width="0.75" stroke-linecap="round" stroke-linejoin="round"/>
<path d="M522.707 408.854C522.707 408.854 532.202 413.855 533.329 414.818C534.106 415.6 534.651 416.53 534.917 417.53" stroke="#F4A789" stroke-width="0.75" stroke-linecap="round" stroke-linejoin="round"/>
<path d="M909.451 398.252C910.059 412.846 909.562 427.459 907.966 441.998C905.336 466.642 903.44 487.407 907.112 503.243H1102.17C1102.17 503.243 1109.72 479.912 1099.36 432.564C1088.99 385.216 1074.85 361.243 1070.33 353.033L909.451 398.252Z" fill="#FED81D"/>
<path d="M1070.09 353.296C1065.63 358.195 1047.65 375.3 1003.68 387.972L1001.63 388.555C991.174 391.507 980.551 394.004 969.799 396.036C927.398 403.998 907.129 398.952 907.129 398.952C906.565 387.462 900.759 376.554 896.217 369.671C894.564 367.152 892.74 364.717 890.753 362.38C889.823 369.022 888.182 375.578 885.852 381.964C881.531 393.776 872.532 403.618 872.993 404.012C850.23 433.497 808.82 387.097 818.844 344.853C818.844 344.853 830.354 304.708 839.336 273.998C840.599 269.624 841.897 265.905 843.246 262.639C851.511 242.676 861.655 240.518 876.87 234.554C885.22 231.477 905.131 228.634 905.131 228.634C906.425 226.14 908.287 223.891 910.609 222.019C912.931 220.146 915.666 218.687 918.655 217.726L918.16 214.81C920.978 214.504 923.932 214.168 926.972 213.789L932.248 213.118L932.863 213.031L935.407 212.695C938.498 212.272 941.657 211.806 944.799 211.31L947.753 210.843L949.973 210.464C961.214 208.724 972.245 206.112 982.931 202.663C984.314 202.182 985.697 201.744 987.046 201.365L988.276 201.015L989.198 200.782L990.718 200.417C991.23 200.286 991.742 200.184 992.254 200.082L993.04 199.921L994.748 199.63L995.328 199.528L997.036 199.294L997.787 199.207H998.077C998.658 199.129 999.227 199.071 999.785 199.032L1001.61 198.915H1002.12H1004.14C1020.21 198.915 1033.8 206.323 1042.19 221.27C1045.35 227.095 1047.61 233.247 1048.91 239.57C1056.75 275.194 1051.46 311.606 1051.46 311.606L1070.53 350.379C1070.77 350.855 1070.85 351.376 1070.77 351.889C1070.69 352.401 1070.46 352.887 1070.09 353.296Z" fill="#A7CAF0"/>
<path d="M1042.15 221.168C1009.57 218.076 979.174 239.366 965.462 261.997C947.702 291.307 904.875 293.64 890.052 280.225C880.08 271.184 863.533 259.212 843.263 262.566C851.528 242.603 861.672 240.445 876.887 234.481C885.083 231.462 904.397 228.648 905.131 228.575C906.425 226.082 908.287 223.833 910.609 221.96C912.931 220.088 915.666 218.628 918.655 217.668L918.16 214.751C920.978 214.445 923.932 214.11 926.972 213.731L932.248 213.06L932.863 212.972L935.407 212.637C938.498 212.214 941.657 211.747 944.799 211.252L947.753 210.785L949.973 210.406C959.666 208.852 969.218 206.718 978.559 204.019C980.079 203.567 981.53 203.086 982.931 202.561C984.331 202.036 985.697 201.642 987.046 201.263L988.276 200.913L989.198 200.68L990.717 200.315C991.23 200.184 991.742 200.082 992.254 199.98L993.04 199.819L994.748 199.528L995.328 199.426L997.036 199.192L997.787 199.105H998.077C998.658 199.027 999.227 198.969 999.785 198.93L1001.61 198.813H1002.12H1004.14C1020.17 198.813 1033.77 206.221 1042.15 221.168Z" fill="#A7CAF0"/>
<path d="M890.753 362.293C890.548 363.751 890.326 365.209 890.052 366.522C889.216 365.72 863.294 340.609 830.781 338.582C836.86 335.462 845.432 331.933 851.392 333.143C861.638 335.214 849.684 293.772 871.217 282.354C868.553 291.803 864.045 306.808 865.053 319.932C866.624 339.661 880.626 351.327 890.753 362.293Z" fill="#A7CAF0"/>
<path d="M1004.94 380.112C1004.77 382.733 1004.35 385.337 1003.68 387.899L1001.63 388.482C991.174 391.434 980.551 393.931 969.799 395.963L968.518 395.03C946.029 378.216 968.518 366.507 962.815 338.48C956.377 306.866 966.828 289.135 974.427 280.867C972.266 296.866 971.126 312.955 971.011 329.06C971.353 353.281 973.487 362.06 977.842 364.524C983.511 367.294 992.562 369.409 1002.86 370.357L1004.94 380.112Z" fill="#A7CAF0"/>
<path d="M979.089 213.133C978.646 225.557 973.187 237.468 963.634 246.847C959.656 241.699 952.244 234.7 947.258 235.093C933.597 236.158 931.428 255.742 931.428 255.742C931.428 255.742 926.306 235.327 920.056 237.106C911.21 239.599 903.253 256.427 903.253 256.427C900.771 247.159 901.422 237.481 905.131 228.517C906.425 226.023 908.287 223.775 910.609 221.902C912.931 220.029 915.666 218.57 918.655 217.61L918.16 214.693C920.978 214.387 923.932 214.051 926.972 213.672L932.248 213.002L932.863 212.914L935.407 212.579C938.498 212.156 941.657 211.689 944.799 211.193L947.753 210.727L949.973 210.348C959.666 208.794 969.218 206.659 978.559 203.961C978.964 207.005 979.141 210.069 979.089 213.133Z" fill="#83ADDF"/>
<path d="M1042.08 368.242C1035.44 388.704 1026.94 408.694 1016.66 428.029C999.273 460.999 964.283 515.755 964.283 515.755L931.668 511.861C931.668 511.861 949.29 469.354 955.574 442.261C958.819 428.233 963.959 410.297 968.501 395C972.753 380.754 976.493 368.753 977.74 364.495C983.409 367.265 992.459 369.38 1002.76 370.327C1015.9 371.731 1029.24 371.023 1042.08 368.242Z" fill="#B25E47"/>
<path d="M1042.08 368.242C1047.21 363.634 1051.42 311.503 1051.42 311.503" stroke="#83ADDF" stroke-width="0.75" stroke-linecap="round" stroke-linejoin="round"/>
<path d="M981.274 242.472C981.274 242.472 979.567 253.948 977.757 260.466C976.988 263.106 975.69 270.892 974.341 280.881C972.181 296.881 971.041 312.969 970.926 329.075C971.268 353.296 973.402 362.074 977.757 364.538" stroke="#83ADDF" stroke-width="0.75" stroke-linecap="round" stroke-linejoin="round"/>
<path d="M971.643 345.203C988.026 351.958 1006.51 354.058 1024.39 351.196" stroke="#83ADDF" stroke-width="0.75" stroke-linecap="round" stroke-linejoin="round"/>
<path d="M1025.79 370.692C1026.24 360.66 1030.2 341.528 1036.64 334.543C1043.77 326.8 1049.27 332.968 1049.27 332.968" stroke="#83ADDF" stroke-width="0.75" stroke-linecap="round" stroke-linejoin="round"/>
<path d="M1036.89 344.678C1036.89 345.31 1037.11 345.93 1037.52 346.457C1037.92 346.985 1038.51 347.396 1039.19 347.64C1039.88 347.883 1040.63 347.948 1041.36 347.825C1042.08 347.702 1042.75 347.398 1043.28 346.95C1043.8 346.503 1044.16 345.932 1044.3 345.312C1044.44 344.691 1044.37 344.048 1044.08 343.463C1043.8 342.879 1043.32 342.381 1042.7 342.031C1042.08 341.681 1041.36 341.496 1040.61 341.499C1039.63 341.503 1038.68 341.839 1037.99 342.434C1037.29 343.029 1036.9 343.836 1036.89 344.678Z" fill="#83ADDF"/>
<path d="M931.685 244.849C932.777 251.484 932.368 253.452 929.413 262.231C926.459 271.009 919.065 299.211 924.478 319.246C930.25 340.638 944.116 365.909 943.689 373.2C943.262 380.491 940.428 394.636 956.206 398.208" stroke="#83ADDF" stroke-width="0.75" stroke-linecap="round" stroke-linejoin="round"/>
<path d="M890.052 366.536C889.216 365.734 863.294 340.624 830.781 338.597C830.046 338.597 829.329 338.509 828.612 338.495" stroke="#83ADDF" stroke-width="0.75" stroke-linecap="round" stroke-linejoin="round"/>
<path d="M872.413 267.611C872.795 269.741 873.023 271.889 873.096 274.042C872.764 276.855 872.136 279.637 871.217 282.354C868.553 291.803 864.045 306.808 865.053 319.932C866.573 339.661 880.626 351.327 890.667 362.293" stroke="#83ADDF" stroke-width="0.75" stroke-linecap="round" stroke-linejoin="round"/>
<path d="M725.095 310.118C716.642 310.468 713.739 309.404 706.67 305.86C699.6 302.317 689.918 291.278 687.971 274.159L710.836 264.097C710.836 264.097 742.957 298.657 725.095 310.118Z" fill="#B25E47"/>
<path d="M679.809 276.959C681.516 286.641 683.822 290.797 686.486 290.549C689.149 290.301 691.472 284.716 687.971 274.159L679.809 276.959Z" fill="#B25E47" stroke="#914839" stroke-miterlimit="10"/>
<path d="M688.466 274.815C690.174 284.497 692.462 288.653 695.126 288.405C697.79 288.158 700.112 282.573 696.629 272.015L688.466 274.815Z" fill="#B25E47" stroke="#914839" stroke-miterlimit="10"/>
<path d="M600.318 165.449L698.388 131.619L760.938 246.876L672.21 284.862L600.318 165.449Z" fill="#DDDDDD" stroke="#DDDDDD" stroke-width="2" stroke-linecap="round" stroke-linejoin="round"/>
<path d="M613.108 165.449L711.195 131.619L760.938 246.876L679.057 274.99L613.108 165.449Z" fill="#F9F9F9" stroke="#DDDDDD" stroke-width="2" stroke-linecap="round" stroke-linejoin="round"/>
<path d="M712.664 272.671C700.232 263.616 692.172 248.305 696.953 246.278C700.608 244.732 709.743 253.467 717.786 256.748C724.586 259.677 730.236 264.238 734.043 269.872C735.87 273.153 744.648 287.035 748.66 289.222C752.673 291.409 808.957 325.429 818.827 330.577C828.697 335.724 874.394 360.849 876.887 387.695C879.38 414.54 844.766 423.29 823.779 410.632C807.881 401.081 729.296 314.799 725.095 310.118C725.095 310.118 730.679 299.371 719.682 293.115C713.21 289.426 710.649 281.843 712.664 272.671Z" fill="#B25E47"/>
<path d="M719.767 293.115C713.295 289.426 710.734 281.873 712.749 272.701C700.317 263.645 692.257 248.334 697.039 246.307C700.693 244.761 709.829 253.496 717.872 256.777C724.672 259.706 730.322 264.268 734.128 269.901C735.119 271.665 738.107 276.492 741.283 280.925" stroke="#914839" stroke-width="0.75" stroke-linecap="round" stroke-linejoin="round"/>
<path d="M918.672 217.682C919.031 218.982 919.031 220.335 918.672 221.634C918.672 221.634 917.221 223.413 921.131 228.415C924.16 232.134 928.235 235.142 932.982 237.164C934.144 237.383 958.221 225.936 962.012 211.937C962.012 211.937 951.476 186.156 959.417 181.49C967.357 176.823 978.935 143.255 943.928 151.932C943.928 151.932 937.268 124.926 915.479 126.807C893.69 128.688 885.732 146.58 881.992 164.356C878.253 182.131 888.106 211.806 904.516 210.581L918.672 217.682Z" fill="#B25E47"/>
<path d="M893.792 168.847C892.084 171.763 887.201 172.536 882.966 170.655C878.731 168.774 876.699 164.924 878.441 162.052C880.182 159.179 885.049 158.363 889.284 160.244C893.519 162.125 895.551 165.974 893.792 168.847Z" fill="#914839"/>
<path d="M916.504 205.229C920.575 204.296 924.175 202.247 926.75 199.396C926.75 199.396 934.075 210.26 915.906 214.956C915.957 214.956 911.842 206.017 916.504 205.229Z" fill="#914839"/>
<path d="M1002.76 193.943C1002.35 196.597 990.974 199.542 994.082 203.64C997.497 208.131 993.586 214.051 984.382 210.056C976.442 206.629 973.044 207.869 970.038 213.147C967.033 218.426 960.766 213.249 954.891 213.512C949.017 213.774 942.545 212.36 942.938 206.804C943.331 201.248 953.696 199.513 949.461 194.293C945.226 189.072 942.631 184.683 949.871 175.978C949.871 175.978 962.883 173.061 962.678 163.466C962.473 153.871 948.846 153.507 944.202 160.287C944.202 160.287 935.851 153.507 933.785 146.536C932.077 140.704 929.977 135.396 927.33 132.931C926.876 132.488 926.332 132.117 925.725 131.838C925.725 131.838 907.061 124.707 898.095 139.595C889.13 154.484 884.434 181.708 890.36 192.791C892.552 197.012 896.294 200.509 901.02 202.753C905.746 204.997 911.199 205.866 916.555 205.229L917.477 210.552L918.724 217.639C915.734 218.599 912.999 220.058 910.677 221.931C908.355 223.804 906.493 226.052 905.199 228.546C905.199 228.546 885.237 231.39 876.87 234.466C876.87 234.466 874.496 228.138 867.375 226.286C860.254 224.434 851.289 222.494 850.47 213.862C849.65 205.229 834.896 207.475 831.6 198.726C828.304 189.976 835.306 184.289 839.848 181.81C844.39 179.332 849.445 174.33 846.047 168.512C842.649 162.693 845.944 157.24 853.577 152.923C861.211 148.607 860.032 143.883 860.237 138.983C860.476 132.844 865.36 131.094 870.176 127.988C875.435 124.634 868.024 114.675 882.983 112.925C891.248 111.948 892.409 110.373 898.557 106.042C903.201 102.79 910.937 108.346 919.048 104.73C927.159 101.113 931.428 99.6259 938.874 106.407C946.319 113.187 957.197 109.804 958.529 119.399C959.826 128.63 954.721 130.54 954.345 130.802C954.755 130.802 969.133 130.89 972.497 142.001C975.861 153.113 969.919 155.3 978.166 162.416C986.414 169.532 990.017 173.047 986.158 178.705C983.989 181.869 984.877 186.2 992.818 187.454C1000.76 188.708 1003.23 191.303 1002.76 193.943Z" fill="#683F1D"/>
<path d="M898.044 139.595C889.062 154.484 884.383 181.708 890.309 192.791C892.501 197.012 896.243 200.509 900.969 202.753C905.695 204.997 911.148 205.866 916.504 205.229L917.426 210.552C911.347 221.095 895.073 223.953 885.22 221.765C872.208 218.849 881.805 212.404 869.151 208.219C854.175 203.275 868.639 191.464 865.958 189.014C863.277 186.564 858.991 182.467 863.635 176.838C868.28 171.209 879.004 170.889 878.082 164.035C877.16 157.181 879.158 154.892 884.691 152.151C894.936 147.091 893.229 138.895 891.282 134.171C889.335 129.446 893.946 118.524 907.692 117.416C919.185 116.527 924.769 122.141 927.279 132.931C926.825 132.488 926.281 132.117 925.674 131.838C925.674 131.838 907.009 124.707 898.044 139.595Z" fill="#683F1D"/>
<path d="M927.279 132.931C924.82 122.141 919.185 116.527 907.692 117.416C894.031 118.495 889.335 129.461 891.282 134.171C893.229 138.881 894.902 147.091 884.691 152.151C879.158 154.892 877.194 157.181 878.082 164.035C878.97 170.889 868.519 171.326 863.635 176.838C860.364 180.318 858.278 184.501 857.607 188.927" stroke="#7F542D" stroke-width="0.75" stroke-linecap="round" stroke-linejoin="round"/>
<path d="M887.781 182.685C882.966 184.144 879.243 187.672 879.926 191.128C880.746 195.416 879.209 196.743 876.118 197.53C873.027 198.317 869.954 198.055 868.4 202.707C867.947 204.292 867.644 205.906 867.495 207.533C867.187 209.866 866.76 211.718 864.079 213.074" stroke="#7F542D" stroke-width="0.75" stroke-linecap="round" stroke-linejoin="round"/>
<path d="M936.381 132.581C940.715 131.535 945.169 130.889 949.666 130.657" stroke="#7F542D" stroke-width="0.75" stroke-linecap="round" stroke-linejoin="round"/>
<path d="M879.841 214.956C881.77 209.998 888.481 213.177 888.925 207.825C889.053 205.949 890.002 204.182 891.583 202.875C893.165 201.567 895.263 200.815 897.464 200.767" stroke="#7F542D" stroke-width="0.75" stroke-linecap="round" stroke-linejoin="round"/>
<path d="M948.129 167.549C950.042 162.664 955.762 161.614 957.18 162.343" stroke="#914839" stroke-width="0.75" stroke-linecap="round" stroke-linejoin="round"/>
<path d="M949.188 165.668C954.738 164.21 955.916 170.991 950.264 170.539" stroke="#914839" stroke-width="0.75" stroke-linecap="round" stroke-linejoin="round"/>
<path d="M911.961 143.066C911.21 145.282 915.103 146.201 917.597 145.691C920.09 145.18 921.371 146.828 922.48 145.924C923.59 145.02 920.944 142.074 917.938 141.127C917.397 140.915 916.812 140.798 916.218 140.781C915.623 140.764 915.031 140.849 914.475 141.029C913.919 141.21 913.41 141.483 912.979 141.832C912.547 142.182 912.202 142.601 911.961 143.066Z" fill="#683F1D"/>
<path d="M904.926 143.795C905.916 145.603 902.74 146.828 900.52 146.711C898.3 146.595 897.481 148.17 896.405 147.47C895.329 146.77 897.088 144.014 899.513 142.862C899.939 142.616 900.418 142.446 900.922 142.36C901.425 142.274 901.944 142.274 902.448 142.361C902.952 142.448 903.43 142.619 903.856 142.866C904.281 143.112 904.645 143.428 904.926 143.795Z" fill="#683F1D"/>
<path d="M913.157 159.864C914.421 159.864 915.445 158.99 915.445 157.91C915.445 156.831 914.421 155.956 913.157 155.956C911.893 155.956 910.868 156.831 910.868 157.91C910.868 158.99 911.893 159.864 913.157 159.864Z" fill="#683F1D"/>
<path d="M897.481 158.815C898.744 158.815 899.769 157.94 899.769 156.861C899.769 155.781 898.744 154.907 897.481 154.907C896.217 154.907 895.192 155.781 895.192 156.861C895.192 157.94 896.217 158.815 897.481 158.815Z" fill="#683F1D"/>
<path d="M901.801 171.166C898.386 169.401 894.97 165.449 899.513 164.254C904.055 163.058 905.506 161.337 905.643 151.451" stroke="#914839" stroke-width="0.75" stroke-linecap="round" stroke-linejoin="round"/>
<path d="M908.512 181.533C913.635 180.221 913.635 172.872 913.635 172.872C909.505 174.938 905.188 176.718 900.725 178.194C900.725 178.194 902.911 182.962 908.512 181.533Z" fill="white" stroke="#914839" stroke-width="0.75" stroke-linecap="round" stroke-linejoin="round"/>
<path d="M949.82 175.978C947.841 176.08 945.856 176.08 943.877 175.978" stroke="#914839" stroke-width="0.75" stroke-linecap="round" stroke-linejoin="round"/>
<path d="M916.435 169.139C918.143 172.055 923.027 172.828 927.262 170.947C931.497 169.066 933.529 165.216 931.787 162.343C930.045 159.471 925.178 158.654 920.944 160.535C916.709 162.416 914.677 166.266 916.435 169.139Z" fill="#914839"/>
<path d="M1137.63 497.192H18.4254C8.24932 497.192 0 504.236 0 512.926V514.369C0 523.059 8.24932 530.103 18.4254 530.103H1137.63C1147.8 530.103 1156.05 523.059 1156.05 514.369V512.926C1156.05 504.236 1147.8 497.192 1137.63 497.192Z" fill="#DDDDDD"/>
<path d="M34.6649 530.103C64.2753 518 108.23 515.332 141.716 530.103" stroke="#DDDDDD" stroke-width="0.75" stroke-linecap="round" stroke-linejoin="round"/>
<path d="M24.4362 497.192C53.6538 511.03 73.0696 509.936 109.118 509.528C135.945 509.236 168.253 520.902 189.786 530.103" stroke="#DDDDDD" stroke-width="0.75" stroke-linecap="round" stroke-linejoin="round"/>
<path d="M163.079 497.192C184.271 517.534 198.939 520.071 206.094 514.836C213.642 509.266 221.463 507.764 229.438 513.64C238.71 520.45 251.637 506.641 258.911 497.192" stroke="#DDDDDD" stroke-width="0.75" stroke-linecap="round" stroke-linejoin="round"/>
<path d="M245.711 530.103C254.25 523.352 269.618 515.011 293.303 513.64C321.479 512.022 357.305 523.162 376.499 530.103" stroke="#DDDDDD" stroke-width="0.75" stroke-linecap="round" stroke-linejoin="round"/>
<path d="M339.409 497.192C372.469 511.992 408.603 520.669 437.786 513.64C466.286 506.801 534.319 515.303 559.028 497.192" stroke="#DDDDDD" stroke-width="0.75" stroke-linecap="round" stroke-linejoin="round"/>
<path d="M464.801 530.103C485.975 519.794 518.967 513.509 544.684 530.103" stroke="#DDDDDD" stroke-width="0.75" stroke-linecap="round" stroke-linejoin="round"/>
<path d="M581.091 530.103C620.366 503.958 699.037 499.189 764.661 513.48C842.307 530.395 877.16 510.884 891.282 497.192" stroke="#DDDDDD" stroke-width="0.75" stroke-linecap="round" stroke-linejoin="round"/>
<path d="M651.838 530.103C680.338 519.152 718.726 516.907 759.163 530.103" stroke="#DDDDDD" stroke-width="0.75" stroke-linecap="round" stroke-linejoin="round"/>
<path d="M900.333 530.103C948.044 511.147 986.244 513.319 1021.57 530.103" stroke="#DDDDDD" stroke-width="0.75" stroke-linecap="round" stroke-linejoin="round"/>
<path d="M967.631 497.192C1046.27 519.736 1111.35 537.205 1154.21 506.597" stroke="#DDDDDD" stroke-width="0.75" stroke-linecap="round" stroke-linejoin="round"/>
<path d="M1030.37 497.192C1070.28 517.198 1116.89 515.696 1145.57 499" stroke="#DDDDDD" stroke-width="0.75" stroke-linecap="round" stroke-linejoin="round"/>
</svg>
