<svg width="656" height="407" viewBox="0 0 656 407" fill="none" xmlns="http://www.w3.org/2000/svg">
<path d="M88.94 344.521H34.38C31.4988 344.519 28.7366 343.54 26.7002 341.799C24.6639 340.059 23.52 337.699 23.52 335.239V335.239C23.52 332.779 24.6642 330.42 26.7008 328.681C28.7375 326.942 31.4998 325.965 34.38 325.965H88.94C91.8212 325.965 94.5845 326.942 96.6227 328.681C98.661 330.42 99.8074 332.778 99.81 335.239V335.239C99.81 336.458 99.5289 337.665 98.9826 338.791C98.4363 339.917 97.6356 340.94 96.6263 341.802C95.6169 342.664 94.4186 343.348 93.0998 343.815C91.781 344.281 90.3675 344.521 88.94 344.521V344.521Z" stroke="#DDDDDD" stroke-miterlimit="10"/>
<path d="M229.52 142.344H199.83C192.004 142.344 185.66 147.761 185.66 154.444V154.452C185.66 161.135 192.004 166.553 199.83 166.553H229.52C237.346 166.553 243.69 161.135 243.69 154.452V154.444C243.69 147.761 237.346 142.344 229.52 142.344Z" stroke="#DDDDDD" stroke-miterlimit="10"/>
<path d="M340.64 43.9789H286.08C283.2 43.9789 280.437 43.0018 278.401 41.2626C276.364 39.5235 275.22 37.1647 275.22 34.7051V34.7051C275.219 33.4866 275.499 32.2797 276.044 31.1536C276.589 30.0275 277.389 29.0041 278.397 28.1421C279.406 27.28 280.603 26.5962 281.922 26.1296C283.24 25.663 284.653 25.4229 286.08 25.4229H340.64C342.068 25.4217 343.483 25.661 344.803 26.127C346.123 26.593 347.322 27.2765 348.333 28.1385C349.343 29.0006 350.145 30.0242 350.692 31.151C351.238 32.2777 351.52 33.4854 351.52 34.7051V34.7051C351.519 35.9241 351.236 37.1309 350.689 38.2566C350.141 39.3824 349.339 40.405 348.329 41.2662C347.319 42.1273 346.12 42.8101 344.801 43.2756C343.481 43.741 342.067 43.98 340.64 43.9789V43.9789Z" stroke="#DDDDDD" stroke-miterlimit="10"/>
<path d="M509.76 296.726H465.76C464.452 296.726 463.199 296.283 462.274 295.493C461.349 294.704 460.83 293.633 460.83 292.517V292.517C460.83 291.4 461.349 290.329 462.274 289.54C463.199 288.75 464.452 288.307 465.76 288.307H509.76C511.067 288.307 512.321 288.75 513.246 289.54C514.171 290.329 514.69 291.4 514.69 292.517V292.517C514.69 293.633 514.171 294.704 513.246 295.493C512.321 296.283 511.067 296.726 509.76 296.726V296.726Z" stroke="#DDDDDD" stroke-miterlimit="10"/>
<path d="M146.72 78.1534H102.72C101.412 78.1534 100.158 77.7099 99.2339 76.9204C98.3094 76.1309 97.79 75.0601 97.79 73.9435V73.9435C97.79 73.3907 97.9175 72.8433 98.1653 72.3325C98.413 71.8217 98.7761 71.3576 99.2339 70.9667C99.6917 70.5758 100.235 70.2657 100.833 70.0541C101.431 69.8425 102.073 69.7336 102.72 69.7336H146.72C147.367 69.7336 148.008 69.8425 148.607 70.0541C149.205 70.2657 149.748 70.5758 150.206 70.9667C150.664 71.3576 151.027 71.8217 151.275 72.3325C151.522 72.8433 151.65 73.3907 151.65 73.9435V73.9435C151.65 75.0601 151.131 76.1309 150.206 76.9204C149.281 77.7099 148.027 78.1534 146.72 78.1534V78.1534Z" stroke="#DDDDDD" stroke-miterlimit="10"/>
<path d="M581.36 11.2989C594.72 16.7555 603.53 10.4449 611.27 7.28536C614.526 5.94498 618.226 5.6124 621.738 6.34451C625.249 7.07663 628.354 8.82796 630.52 11.2989L629.92 35.8751C629.92 35.8751 618.99 32.5618 612.77 35.8751C606.55 39.1884 599.11 47.352 581.34 36.3277L581.36 11.2989Z" fill="#DDDDDD" stroke="#DDDDDD" stroke-width="2" stroke-linecap="round" stroke-linejoin="round"/>
<path d="M632.79 113.267C632.052 113.267 631.344 113.017 630.821 112.572C630.298 112.127 630.003 111.524 630 110.893V6.89251C630 6.58004 630.072 6.27064 630.213 5.98206C630.353 5.69348 630.559 5.43141 630.818 5.21085C631.077 4.9903 631.385 4.81562 631.723 4.69682C632.062 4.57802 632.424 4.51745 632.79 4.51857C633.156 4.51745 633.518 4.57802 633.857 4.69682C634.195 4.81562 634.503 4.9903 634.762 5.21085C635.021 5.43141 635.227 5.69348 635.367 5.98206C635.508 6.27064 635.58 6.58004 635.58 6.89251V110.893C635.577 111.524 635.282 112.127 634.759 112.572C634.236 113.017 633.528 113.267 632.79 113.267Z" fill="#F9F9F9" stroke="#DDDDDD" stroke-width="2" stroke-linecap="round" stroke-linejoin="round"/>
<path d="M611.76 114.053H654.04" stroke="#DDDDDD" stroke-width="2" stroke-linecap="round" stroke-linejoin="round"/>
<path d="M578.92 154.444H561.93V185.288H518.69V220.88" stroke="#DDDDDD" stroke-width="2" stroke-linecap="round" stroke-linejoin="round"/>
<path d="M240.16 354.905H196.91V385.51H132.62V405.586H1" stroke="#DDDDDD" stroke-width="2" stroke-linecap="round" stroke-linejoin="round"/>
<path d="M410.96 250.802V276.275H356.7V303.72H302.57V331.234H248.58V354.905" stroke="#DDDDDD" stroke-width="2" stroke-linecap="round" stroke-linejoin="round"/>
<path d="M506.46 221.418H461.19V250.802H426.99" stroke="#DDDDDD" stroke-width="2" stroke-linecap="round" stroke-linejoin="round"/>
<path d="M88.94 344.521H34.38C31.4988 344.519 28.7366 343.54 26.7002 341.799C24.6639 340.059 23.52 337.699 23.52 335.239V335.239C23.52 332.779 24.6642 330.42 26.7008 328.681C28.7375 326.942 31.4998 325.965 34.38 325.965H88.94C91.8212 325.965 94.5845 326.942 96.6227 328.681C98.661 330.42 99.8074 332.778 99.81 335.239V335.239C99.81 336.458 99.5289 337.665 98.9826 338.791C98.4363 339.917 97.6356 340.94 96.6263 341.802C95.6169 342.664 94.4186 343.348 93.0998 343.815C91.781 344.281 90.3675 344.521 88.94 344.521V344.521Z" stroke="#DDDDDD" stroke-miterlimit="10"/>
<path d="M229.52 142.344H199.83C192.004 142.344 185.66 147.761 185.66 154.444V154.452C185.66 161.135 192.004 166.553 199.83 166.553H229.52C237.346 166.553 243.69 161.135 243.69 154.452V154.444C243.69 147.761 237.346 142.344 229.52 142.344Z" stroke="#DDDDDD" stroke-miterlimit="10"/>
<path d="M340.64 43.9789H286.08C283.2 43.9789 280.437 43.0018 278.401 41.2626C276.364 39.5235 275.22 37.1647 275.22 34.7051V34.7051C275.219 33.4866 275.499 32.2797 276.044 31.1536C276.589 30.0275 277.389 29.0041 278.397 28.1421C279.406 27.28 280.603 26.5962 281.922 26.1296C283.24 25.663 284.653 25.4229 286.08 25.4229H340.64C342.068 25.4217 343.483 25.661 344.803 26.127C346.123 26.593 347.322 27.2765 348.333 28.1385C349.343 29.0006 350.145 30.0242 350.692 31.151C351.238 32.2777 351.52 33.4854 351.52 34.7051V34.7051C351.519 35.9241 351.236 37.1309 350.689 38.2566C350.141 39.3824 349.339 40.405 348.329 41.2662C347.319 42.1273 346.12 42.8101 344.801 43.2756C343.481 43.741 342.067 43.98 340.64 43.9789V43.9789Z" stroke="#DDDDDD" stroke-miterlimit="10"/>
<path d="M509.76 296.726H465.76C464.452 296.726 463.199 296.283 462.274 295.493C461.349 294.704 460.83 293.633 460.83 292.517V292.517C460.83 291.4 461.349 290.329 462.274 289.54C463.199 288.75 464.452 288.307 465.76 288.307H509.76C511.067 288.307 512.321 288.75 513.246 289.54C514.171 290.329 514.69 291.4 514.69 292.517V292.517C514.69 293.633 514.171 294.704 513.246 295.493C512.321 296.283 511.067 296.726 509.76 296.726V296.726Z" stroke="#DDDDDD" stroke-miterlimit="10"/>
<path d="M146.72 78.1534H102.72C101.412 78.1534 100.158 77.7099 99.2339 76.9204C98.3094 76.1309 97.79 75.0601 97.79 73.9435V73.9435C97.79 73.3907 97.9175 72.8433 98.1653 72.3325C98.413 71.8217 98.7761 71.3576 99.2339 70.9667C99.6917 70.5758 100.235 70.2657 100.833 70.0541C101.431 69.8425 102.073 69.7336 102.72 69.7336H146.72C147.367 69.7336 148.008 69.8425 148.607 70.0541C149.205 70.2657 149.748 70.5758 150.206 70.9667C150.664 71.3576 151.027 71.8217 151.275 72.3325C151.522 72.8433 151.65 73.3907 151.65 73.9435V73.9435C151.65 75.0601 151.131 76.1309 150.206 76.9204C149.281 77.7099 148.027 78.1534 146.72 78.1534V78.1534Z" stroke="#DDDDDD" stroke-miterlimit="10"/>
<path d="M581.36 11.2989C594.72 16.7555 603.53 10.4449 611.27 7.28536C614.526 5.94498 618.226 5.6124 621.738 6.34451C625.249 7.07663 628.354 8.82796 630.52 11.2989L629.92 35.8751C629.92 35.8751 618.99 32.5618 612.77 35.8751C606.55 39.1884 599.11 47.352 581.34 36.3277L581.36 11.2989Z" fill="#DDDDDD" stroke="#DDDDDD" stroke-width="2" stroke-linecap="round" stroke-linejoin="round"/>
<path d="M632.79 113.267C632.052 113.267 631.344 113.017 630.821 112.572C630.298 112.127 630.003 111.524 630 110.893V6.89251C630 6.58004 630.072 6.27064 630.213 5.98206C630.353 5.69348 630.559 5.43141 630.818 5.21085C631.077 4.9903 631.385 4.81562 631.723 4.69682C632.062 4.57802 632.424 4.51745 632.79 4.51857C633.156 4.51745 633.518 4.57802 633.857 4.69682C634.195 4.81562 634.503 4.9903 634.762 5.21085C635.021 5.43141 635.227 5.69348 635.367 5.98206C635.508 6.27064 635.58 6.58004 635.58 6.89251V110.893C635.577 111.524 635.282 112.127 634.759 112.572C634.236 113.017 633.528 113.267 632.79 113.267Z" fill="#F9F9F9" stroke="#DDDDDD" stroke-width="2" stroke-linecap="round" stroke-linejoin="round"/>
<path d="M611.76 114.053H654.04" stroke="#DDDDDD" stroke-width="2" stroke-linecap="round" stroke-linejoin="round"/>
<path d="M578.92 154.444H561.93V185.288H518.69V220.88" stroke="#DDDDDD" stroke-width="2" stroke-linecap="round" stroke-linejoin="round"/>
<path d="M240.16 354.905H196.91V385.51H132.62V405.586H1" stroke="#DDDDDD" stroke-width="2" stroke-linecap="round" stroke-linejoin="round"/>
<path d="M410.96 250.802V276.275H356.7V303.72H302.57V331.234H248.58V354.905" stroke="#DDDDDD" stroke-width="2" stroke-linecap="round" stroke-linejoin="round"/>
<path d="M506.46 221.418H461.19V250.802H426.99" stroke="#DDDDDD" stroke-width="2" stroke-linecap="round" stroke-linejoin="round"/>
<path d="M485.15 26.627C485.15 26.627 484.95 27.0198 484.59 27.6859C484.23 28.3519 483.88 28.9412 483.36 29.778C483.01 30.3587 482.62 30.9821 482.18 31.6396C481.92 32.0409 481.64 32.4935 481.34 32.8778L481.05 33.2792C480.39 34.2099 479.66 35.1749 478.86 36.1228C478.3 36.7888 477.71 37.4549 477.09 38.0953C472.23 43.125 468.15 41.0158 468.15 41.0158C467.011 41.8621 466.065 42.8812 465.36 44.0217C464.372 45.5838 463.658 47.2611 463.24 49.0001C451.77 56.139 444.49 46.7286 447.9 38.3601C452.54 34.6282 456.679 30.4666 460.24 25.9524C456.54 21.751 462.7 18.0877 465.53 20.4958L471.66 18.0706C484.58 15.1501 485.15 26.627 485.15 26.627Z" fill="#FEBD9D"/>
<path d="M461.89 21.5547C463.51 21.5547 464.89 22.1183 464.58 24.2446" stroke="#F4A789" stroke-width="0.75" stroke-linecap="round" stroke-linejoin="round"/>
<path d="M463.52 25.2523C461.17 24.0056 463.23 22.366 464.52 23.3993" stroke="#F4A789" stroke-width="0.75" stroke-linecap="round" stroke-linejoin="round"/>
<path d="M475.02 35.8752C473.33 35.4226 472.6 33.5952 473.02 32.0154C468.52 34.6967 471.88 37.8734 475.02 35.8752Z" fill="white" stroke="#F4A789" stroke-width="0.75" stroke-linecap="round" stroke-linejoin="round"/>
<path d="M476.18 33.6463C477.7 33.6463 479.03 33.8683 479.39 31.4175C479.479 30.7196 479.765 30.0506 480.223 29.4677C480.681 28.8847 481.298 28.4052 482.02 28.0701" stroke="#F4A789" stroke-width="0.75" stroke-linecap="round" stroke-linejoin="round"/>
<path d="M460.24 25.9524C460.792 26.6122 461.566 27.1127 462.46 27.387" stroke="#F4A789" stroke-width="0.75" stroke-linecap="round" stroke-linejoin="round"/>
<path d="M476.06 29.0949C476.06 29.2638 476.119 29.4289 476.229 29.5693C476.339 29.7098 476.495 29.8192 476.677 29.8838C476.86 29.9485 477.061 29.9654 477.255 29.9324C477.449 29.8995 477.627 29.8181 477.767 29.6987C477.907 29.5793 478.002 29.4271 478.041 29.2615C478.079 29.0958 478.06 28.9242 477.984 28.7681C477.908 28.6121 477.78 28.4787 477.616 28.3849C477.451 28.2911 477.258 28.241 477.06 28.241C476.795 28.241 476.541 28.3309 476.353 28.4911C476.165 28.6512 476.06 28.8684 476.06 29.0949Z" fill="#683F1D"/>
<path d="M482.18 31.6568C481.92 32.0581 481.64 32.5107 481.34 32.895H481.27C481.005 32.895 480.75 32.805 480.563 32.6449C480.375 32.4847 480.27 32.2675 480.27 32.0411C480.27 31.8146 480.375 31.5974 480.563 31.4372C480.75 31.2771 481.005 31.1871 481.27 31.1871C481.458 31.1844 481.643 31.227 481.804 31.3101C481.965 31.3932 482.095 31.5134 482.18 31.6568Z" fill="#683F1D"/>
<path d="M475.68 24.8251C475.2 26.0633 479.68 27.3869 480.35 26.106C481.02 24.8251 476.29 23.2112 475.68 24.8251Z" fill="#683F1D"/>
<path d="M484.59 27.686C484.29 28.2239 483.88 28.9412 483.36 29.7781C482.47 28.9242 481.65 27.797 481.94 27.3615C482.4 26.6698 483.65 27.1565 484.59 27.686Z" fill="#683F1D"/>
<path d="M468.15 41.05C467.011 41.8962 466.065 42.9154 465.36 44.0558C459.56 40.3241 463.25 36.0715 463.25 36.0715C464.261 38.1132 465.969 39.8478 468.15 41.05Z" fill="#F4A789"/>
<path d="M491.08 25.8157C491 27.2077 489.5 28.5996 486.97 28.6337C484.62 28.6337 482.89 26.3708 483.28 24.142C483.28 24.142 479.28 24.9362 478.61 20.4872C478.61 20.4872 475.35 22.7587 473.61 19.0697C471.64 20.5556 469.839 22.1967 468.23 23.9712C466.23 26.3623 465.23 26.0292 465.17 25.013C465.11 23.9969 466.36 22.3146 466.51 22.1097C467.808 21.4316 468.892 20.4937 469.67 19.3771C472.21 16.1407 474.82 14.1425 477.07 16.5335C479.32 18.9245 481.92 16.5335 482.91 19.4283C483.85 22.2036 485.97 26.4818 491.08 25.8157Z" fill="#683F1D"/>
<path d="M476.52 12.52C476.65 15.022 474.06 18.0279 474.06 18.0279" stroke="#7F542D" stroke-width="0.75" stroke-linecap="round" stroke-linejoin="round"/>
<path d="M479.42 19.5223C479.952 18.6927 480.691 17.9729 481.584 17.4137C482.477 16.8545 483.503 16.4695 484.59 16.2859" stroke="#7F542D" stroke-width="0.75" stroke-linecap="round" stroke-linejoin="round"/>
<path d="M483.78 23.3907C485.227 22.6365 486.908 22.2762 488.6 22.3575" stroke="#7F542D" stroke-width="0.75" stroke-linecap="round" stroke-linejoin="round"/>
<path d="M467.97 18.8477C468.509 19.0476 468.981 19.358 469.346 19.7512C469.71 20.1445 469.956 20.6085 470.06 21.102" stroke="#7F542D" stroke-width="0.75" stroke-linecap="round" stroke-linejoin="round"/>
<path d="M472.22 30.4356C470.89 30.7515 469.44 29.8122 468.97 28.352C468.5 26.8918 469.2 25.4486 470.53 25.1412C471.86 24.8338 473.32 25.7646 473.78 27.2248C474.24 28.685 473.52 30.1282 472.22 30.4356Z" fill="#F4A789"/>
<path d="M481.05 33.2791C480.39 34.2098 479.66 35.1748 478.86 36.1227C478.772 35.9696 478.715 35.8051 478.69 35.6359C478.691 35.0677 478.929 34.5184 479.362 34.0865C479.794 33.6546 480.393 33.3683 481.05 33.2791Z" fill="#F4A789"/>
<path d="M500.11 142.284C498.64 153.803 488.62 148.261 474.63 146.673L466.87 146.408L415.26 144.7L410.95 144.555L425.95 108.434C459.12 116.837 501.97 127.613 500.11 142.284Z" fill="#FED81D"/>
<path d="M466.87 146.408L415.26 144.7L416.8 135.068L423.85 119.612C423.85 119.612 435.75 118.997 432.13 127.886C428.51 136.776 429.96 143.078 448.76 138.885C460.12 136.332 464.88 141.737 466.87 146.408Z" fill="#FCC71F"/>
<path d="M439.03 94.8477C430.24 104.625 425.48 125.811 424.38 138.526C423.59 147.681 421.98 171.258 417.95 190.975C404.04 216.448 384.87 204.416 385.95 186.466V186.372C387.82 173.222 386.95 161.967 385.24 157.262C382.92 151.011 377.19 130.175 376.24 121.627C374.1 102.84 379.05 86.8207 386.24 77.675L439.03 94.8477Z" fill="#FED81D"/>
<path d="M423.85 144.965C424.06 142.403 424.24 140.243 424.38 138.56C425.082 131.206 426.467 123.91 428.52 116.742" stroke="#FCC71F" stroke-width="0.75" stroke-linecap="round" stroke-linejoin="round"/>
<path d="M391.52 91.2698C383.42 137.792 399 155.315 396.63 181.377C395.776 188.56 394.234 195.672 392.02 202.64" stroke="#FCC71F" stroke-width="0.75" stroke-linecap="round" stroke-linejoin="round"/>
<path d="M389.23 113.267C395.16 107.895 398.603 100.867 398.92 93.49" stroke="#FCC71F" stroke-width="0.75" stroke-linecap="round" stroke-linejoin="round"/>
<path d="M424.63 101.875C424.63 101.875 422.09 111.867 421.07 114.685C421.07 114.685 424.63 115.171 425.9 113.258C427.17 111.346 429.55 103.011 429.55 103.011" stroke="#FCC71F" stroke-width="0.75" stroke-linecap="round" stroke-linejoin="round"/>
<path d="M483.79 82.2693L478.69 100.8C477.29 106.922 476.91 111.901 476.12 115.521C475.03 120.577 473.12 123.139 466.71 122.848L466.45 122.788L465.53 122.575L464.92 122.421L464.12 122.191C463.77 122.08 463.43 121.969 463.12 121.849C462.54 121.65 461.972 121.425 461.42 121.175L460.82 120.893C459.932 120.467 459.091 119.973 458.31 119.415C458.156 119.314 458.009 119.206 457.87 119.091C456.712 118.227 455.718 117.216 454.92 116.094C454.698 115.79 454.494 115.476 454.31 115.154C453.824 114.338 453.441 113.479 453.17 112.592C453.12 112.439 453.08 112.294 453.04 112.148C453 112.003 452.95 111.807 452.92 111.645C452.89 111.482 452.86 111.354 452.83 111.209C452.691 110.461 452.654 109.702 452.72 108.946C453.06 105.821 457.59 73.5762 457.59 73.5762L459.25 70.0751L461.47 65.387L483.79 82.2693Z" fill="#A7CAF0"/>
<path d="M476.12 115.521C475.03 120.577 473.12 123.138 466.71 122.848L466.43 122.788L465.51 122.575L464.9 122.421L464.1 122.191C463.75 122.08 463.41 121.969 463.1 121.849C462.52 121.65 461.952 121.425 461.4 121.174L460.8 120.893C459.912 120.467 459.071 119.973 458.29 119.415C458.136 119.314 457.989 119.206 457.85 119.091C456.692 118.227 455.698 117.216 454.9 116.093C454.678 115.79 454.474 115.476 454.29 115.154C453.804 114.337 453.421 113.479 453.15 112.592C453.1 112.439 453.06 112.293 453.02 112.148C452.98 112.003 452.93 111.807 452.9 111.644C452.87 111.482 452.84 111.354 452.81 111.209C452.671 110.461 452.634 109.701 452.7 108.946C453.04 105.821 457.57 73.5761 457.57 73.5761L459.23 70.075C462.82 75.9415 467.07 85.4458 462.12 91.91C454.5 101.867 455.62 118.023 470.73 115.923C472.512 115.671 474.314 115.537 476.12 115.521Z" fill="#A7CAF0"/>
<path d="M468.98 67.5901C467.647 68.4782 466.313 69.4346 464.98 70.4593C452.22 80.3564 440.63 96.0773 437.36 97.7852C432.65 100.193 421.61 98.8099 411.02 96.5128C403.051 94.8212 395.242 92.6204 387.66 89.929C381.25 87.3672 379.66 85.7874 380.73 83.7551C381.8 81.7227 388.17 69.0247 388.17 69.0247L386.6 67.7011L369.23 53.0817C379.52 46.4552 392.99 39.0516 405.36 34.9356C413.75 32.1518 421.62 30.888 427.65 32.3738L468.98 67.5901Z" fill="#A7CAF0"/>
<path d="M468.98 67.5901C467.647 68.4781 466.313 69.4346 464.98 70.4593C451.56 70.6471 438.76 78.4521 427.45 70.0665C413.45 59.6912 426.12 52.0057 417.45 41.8866C414.393 38.5302 410.172 36.0852 405.39 34.9014C413.78 32.1176 421.65 30.8538 427.68 32.3396L468.98 67.5901Z" fill="#A7CAF0"/>
<path d="M411.03 96.4958C403.061 94.8042 395.252 92.6034 387.67 89.912C381.26 87.3502 379.67 85.7704 380.74 83.738C381.81 81.7057 388.18 69.0077 388.18 69.0077L386.61 67.6841C391.61 63.1924 398.54 56.9586 398.92 56.5829C399.53 55.9681 414.16 60.1353 414.16 60.1353C414.16 60.1353 413.67 74.1142 400.28 75.4463C386.89 76.7785 389.28 85.8814 401.15 87.1196C408.78 87.8967 410.66 92.952 411.03 96.4958Z" fill="#A7CAF0"/>
<path d="M370.19 52.4583C348.98 62.9703 366.97 98.8782 413.72 63.0215C418.65 42.843 392.09 40.3068 370.19 52.4583Z" fill="#A7CAF0"/>
<path d="M468.98 67.5901C465.099 70.2255 461.492 73.1426 458.2 76.3088" stroke="#83ADDF" stroke-width="0.75" stroke-linecap="round" stroke-linejoin="round"/>
<path d="M366.52 258.103C366.52 258.103 357.52 268.137 358.8 276.275H401.66C401.66 276.275 382.6 266.762 381.61 259.794L366.52 258.103Z" fill="#683F1D"/>
<path d="M418.38 188.823C418.24 189.558 418.1 190.283 417.95 191.001C416.39 198.686 414.46 205.74 412.07 211.162C403.52 230.546 389.07 260.87 389.07 260.87L361.52 258.914C363.52 254.329 373.52 234.85 383.11 199.933C384.335 195.478 385.267 190.968 385.9 186.424C385.95 186.099 385.99 185.766 386.03 185.442C388.1 174.861 414.33 164.674 418.38 188.823Z" fill="#FED81D"/>
<path d="M396.88 175.203C396.88 177.218 396.83 179.268 396.64 181.377C394.26 207.456 370.14 258.513 369.95 259.52" stroke="#FCC71F" stroke-width="0.75" stroke-linecap="round" stroke-linejoin="round"/>
<path d="M471.32 203.238C471.32 203.238 467.24 213.28 468.47 221.418H506.47C506.47 221.418 487.42 211.905 486.47 204.929L471.32 203.238Z" fill="#683F1D"/>
<path d="M500.43 149.132C497.3 169.132 491.31 206.073 491.31 206.073H466.42L474.63 146.673C474.74 136.332 482.96 125.325 491.36 130.141C502.93 136.819 501.04 145.23 500.43 149.132Z" fill="#FED81D"/>
<path d="M519.78 124.069C519.78 124.069 509.78 124.377 498.05 124.377C488.38 124.377 477.55 124.172 470.28 123.403C469.72 123.343 469.18 123.275 468.65 123.19C468.41 123.19 468.17 123.121 467.94 123.079C467.71 123.036 467.54 123.019 467.34 122.976C466.99 122.916 466.65 122.84 466.34 122.771L465.34 122.524L465.11 122.464L464.26 122.216L464.11 122.174L463.11 121.849C463.073 121.842 463.039 121.827 463.01 121.806C451.67 115.641 451.33 108.869 457.52 104.728C461.87 101.773 469.46 100.116 478.73 100.842L518.05 107.563L519.78 124.069Z" fill="#A7CAF0"/>
<path d="M498.05 124.377C488.38 124.377 477.55 124.172 470.28 123.403C469.72 123.343 469.18 123.275 468.65 123.19C468.41 123.19 468.17 123.121 467.94 123.079C467.71 123.036 467.54 123.019 467.34 122.976C466.99 122.916 466.65 122.839 466.34 122.771L465.34 122.524L465.11 122.464L464.26 122.216L464.11 122.173L463.11 121.849C463.073 121.842 463.039 121.827 463.01 121.806C451.67 115.641 451.33 108.869 457.52 104.728C457.42 111.559 461.41 117.255 470.74 115.957C483.52 114.129 494.57 118.467 498.05 124.377Z" fill="#A7CAF0"/>
<path d="M478.7 100.825C476.051 100.445 473.381 100.18 470.7 100.031" stroke="#83ADDF" stroke-width="0.75" stroke-linecap="round" stroke-linejoin="round"/>
<path d="M578.92 154.444L567.43 150.593L550.05 144.752C550.05 144.752 461.95 70.28 419.75 34.5087C408.14 24.6628 400 17.7545 398.13 16.132C391.91 10.7181 406.64 -3.50845 414.51 2.41786C415.12 2.88752 423.29 9.65068 435.57 19.8552C477.76 54.8665 568.57 130.491 568.57 130.491L574.65 144.53L578.92 154.444Z" fill="#F9F9F9" stroke="#DDDDDD" stroke-width="2" stroke-linecap="round" stroke-linejoin="round"/>
<path d="M442.82 35.3201L556.08 128.886" stroke="#DDDDDD" stroke-linecap="round" stroke-linejoin="round"/>
<path d="M437.99 41.6477L550.25 134.394" stroke="#DDDDDD" stroke-linecap="round" stroke-linejoin="round"/>
<path d="M574.62 144.53C571.474 145.78 568.933 147.922 567.43 150.593L550.05 144.752C550.05 144.752 550.53 139.807 556.95 140.567C555.57 137.365 558.34 133.736 563.08 136.349C563.08 136.349 562.08 131.131 568.54 130.491L574.62 144.53Z" fill="#F9F9F9" stroke="#DDDDDD" stroke-width="2" stroke-linecap="round" stroke-linejoin="round"/>
<path d="M578.92 154.444L567.43 150.592C568.933 147.922 571.474 145.78 574.62 144.53L578.92 154.444Z" fill="#DDDDDD" stroke="#DDDDDD" stroke-width="2" stroke-linecap="round" stroke-linejoin="round"/>
<path d="M435.57 19.8552C430.3 24.7312 424.52 30.1024 419.75 34.5087C408.14 24.6628 400 17.7545 398.13 16.132C391.91 10.7181 406.64 -3.50845 414.51 2.41786C415.12 2.88752 423.29 9.65068 435.57 19.8552Z" stroke="#DDDDDD" stroke-width="2" stroke-linecap="round" stroke-linejoin="round"/>
<path d="M429.79 15.0562L413.6 29.2998" stroke="#DDDDDD" stroke-width="2" stroke-linecap="round" stroke-linejoin="round"/>
<path d="M510.81 113.267C519.54 107.016 521.52 107.093 522.33 107.913C523.14 108.733 519.52 112.319 518.33 113.267C518.33 113.267 525.72 108.536 527.86 109.672C530 110.808 527.19 113.267 527.19 113.267C527.19 113.267 531.31 113.207 528.66 116.99C528.66 116.99 530.8 116.99 529.55 118.877C528.3 120.765 520.62 125.265 517.82 124.121C515.02 122.976 506.59 116.299 510.81 113.267Z" fill="#FEBD9D"/>
<path d="M514.6 110.671C520.16 107.059 521.6 107.256 522.33 107.913C523.06 108.571 519.52 112.319 518.33 113.267C518.33 113.267 525.72 108.536 527.86 109.672C530 110.808 527.19 113.267 527.19 113.267C527.19 113.267 531.31 113.207 528.66 116.99C528.66 116.99 530.8 116.99 529.55 118.878" stroke="#F4A789" stroke-width="0.75" stroke-linecap="round" stroke-linejoin="round"/>
<path d="M527.2 113.267L519.4 117.571" stroke="#F4A789" stroke-width="0.75" stroke-linecap="round" stroke-linejoin="round"/>
<path d="M521.47 120.816L528.67 116.99" stroke="#F4A789" stroke-width="0.75" stroke-linecap="round" stroke-linejoin="round"/>
<path d="M518.34 113.267L516.08 114.847" stroke="#F4A789" stroke-width="0.75" stroke-linecap="round" stroke-linejoin="round"/>
<path d="M426.84 60.084C427.785 56.6198 427.675 53.0066 426.52 49.5891L417.71 53.1756C417.71 53.1756 420.92 60.6903 426.84 60.084Z" fill="#A7CAF0"/>
<path d="M417.59 40.0336C420.064 39.8215 422.519 39.4735 424.94 38.9918C425.47 38.7356 429.27 36.1397 430.94 35.2003C432.61 34.261 439.4 30.5122 440.04 30.8624C440.68 31.2125 440.91 32.9118 439.69 34.1585C439.69 34.1585 447.1 31.4686 450.3 31.1442C452.91 30.8794 452.4 32.9801 450.65 33.9451C453.45 32.8862 456.78 33.9451 452.99 36.2507C455.55 35.8749 456.88 37.5572 452.87 40.0336C455.09 38.9918 456.6 40.4093 454.56 42.177C451.24 45.0633 444.41 47.3006 442.25 48.0008C440.09 48.701 426.4 51.297 421.09 53.8588C421.09 53.8588 416.52 46.848 417.59 40.0336Z" fill="#FEBD9D"/>
<path d="M430.95 35.2003C432.64 34.261 439.41 30.5122 440.05 30.8624C440.69 31.2125 440.92 32.9118 439.7 34.1585C439.7 34.1585 447.11 31.4686 450.31 31.1442C452.92 30.8794 452.41 32.9801 450.66 33.9451C453.46 32.8862 456.79 33.9451 453 36.2507C455.56 35.8749 456.89 37.5572 452.88 40.0336C455.1 38.9918 456.61 40.4093 454.57 42.177" stroke="#F4A789" stroke-width="0.75" stroke-linecap="round" stroke-linejoin="round"/>
<path d="M439.7 34.1584L435.87 35.7638" stroke="#F4A789" stroke-width="0.75" stroke-linecap="round" stroke-linejoin="round"/>
<path d="M450.66 33.9451L442.82 37.0534" stroke="#F4A789" stroke-width="0.75" stroke-linecap="round" stroke-linejoin="round"/>
<path d="M453 36.2507L444.49 40.0337" stroke="#F4A789" stroke-width="0.75" stroke-linecap="round" stroke-linejoin="round"/>
<path d="M452.88 40.0337L446.21 43.2701" stroke="#F4A789" stroke-width="0.75" stroke-linecap="round" stroke-linejoin="round"/>
<path d="M421.52 37.7024C407.83 38.8894 383.13 42.3905 364.61 53.8332C357.44 58.2566 357.55 76.8894 377.12 75.3438C396.69 73.7982 426.87 60.084 426.87 60.084C426.87 60.084 419.11 58.6238 421.52 37.7024Z" fill="#A7CAF0"/>
<path d="M389.23 73.2944C407.12 69.0247 426.84 60.084 426.84 60.084C426.84 60.084 419.11 58.6238 421.49 37.7024C411.019 38.5676 400.678 40.3445 390.63 43.0053" stroke="#83ADDF" stroke-width="0.75" stroke-linecap="round" stroke-linejoin="round"/>
<path d="M290.2 222.272C290.2 222.272 261.83 276.813 247.76 299.348C224.32 313.455 220.67 298.938 224.4 287.257C226.02 284.37 230.78 271.476 235.76 256.916C239.98 244.568 244.35 231.034 247.1 221.418L279.19 222.05L290.2 222.272Z" fill="#83ADDF"/>
<path d="M280.05 225.5C277.23 242.767 252.53 232.776 250.14 242.767C248.95 247.762 244.42 252.758 235.76 256.95C239.98 244.603 244.35 231.068 247.1 221.452L279.19 222.084C279.984 223.085 280.293 224.309 280.05 225.5Z" fill="#83ADDF"/>
<path d="M259.17 234.278C256.56 235.303 258.17 236.558 258.91 238.42C259.65 240.281 255.78 239.829 255.91 242.348C256.04 244.867 257.47 243.458 255.91 247.25C254.4 250.913 237.28 287.718 231.41 295.762" stroke="#A7CAF0" stroke-width="0.75" stroke-linecap="round" stroke-linejoin="round"/>
<path d="M325 222.588C325 222.588 290 228.736 266.22 230.632C251.69 231.802 241.93 227.729 237.17 221.606C235.663 219.648 234.622 217.455 234.107 215.153C233.592 212.851 233.614 210.485 234.17 208.191C245.99 196.236 259.78 192.7 271.25 192.316C279.381 192.052 287.485 193.26 295.03 195.86C323.85 193.768 339.95 194.809 348.62 198.003C363.52 213.203 345.75 218.797 325 222.588Z" fill="#83ADDF"/>
<path d="M250.86 199.071C250.32 207.61 254.4 210.573 275.92 210.308C299.6 210.018 332.63 208.173 334.4 208.438C338.01 208.976 330.99 213.861 333.47 213.938C336.74 214.049 340.27 214.458 338.47 216.371C336.67 218.284 334.73 219.061 336.06 220.248" stroke="#A7CAF0" stroke-width="0.75" stroke-linecap="round" stroke-linejoin="round"/>
<path d="M244.89 227.592C250.16 230.086 257.29 231.349 266.22 230.641C275.75 229.881 287.07 228.438 297.22 226.977" stroke="#83ADDF" stroke-width="0.75" stroke-linecap="round" stroke-linejoin="round"/>
<path d="M332.95 185.365C332.26 187.722 330.34 189.933 326.54 191.718C326.09 191.838 325.63 191.949 325.17 192.051C324.71 192.154 324.32 192.213 323.89 192.282L323.09 192.376L322.54 192.427H322.27C321.81 192.427 321.35 192.47 320.89 192.47C313.46 192.47 305.44 188.413 299.43 177.381C299.43 177.381 295.65 183.512 294.61 187.449C294.457 187.972 294.366 188.507 294.34 189.045C294.296 191.339 294.544 193.629 295.08 195.877C295.08 195.877 280.27 196.013 270.4 198.49C260.53 200.966 249.46 205.552 234.22 208.208C234.22 208.208 234.97 202.23 237.55 199.139C236.58 198.836 235.757 198.265 235.214 197.515C234.67 196.766 234.436 195.882 234.55 195.006C234.89 192.564 237.73 191.471 241.33 186.731C242.495 185.184 243.53 183.569 244.43 181.898C250.11 171.454 248.82 168.79 248.08 167.782L241.27 174.033C229.04 185.245 204.46 207.747 202.78 209.121C200.52 210.957 197 211.683 195.72 210.949C194.94 210.505 189.72 214.057 185.72 216.926C183.11 218.805 181.01 220.393 181.01 220.393L166.09 212.708C166.09 212.708 170.29 209.736 174.63 206.585C179.22 203.263 183.97 199.754 184.12 199.327C184.44 198.473 183.47 196.364 185.61 194.451C187.52 192.743 223.89 157.851 236.47 145.486C238.1 143.881 239.34 142.66 240.04 141.934C246.17 135.623 249.86 132.541 258.68 130.67L301.75 131.465C301.75 131.465 314.14 129.526 316.75 136.153C317.12 137.126 317.51 138.458 317.91 140.038C320.23 149.312 322.64 166.954 322.64 166.954C322.64 166.954 335.35 177.048 332.95 185.365Z" fill="#FED81D"/>
<path d="M185.66 216.961C183.05 218.839 180.95 220.427 180.95 220.427L166.03 212.742C166.03 212.742 170.23 209.77 174.57 206.619C179.105 209.335 182.89 212.864 185.66 216.961Z" fill="#B25E47"/>
<path d="M258.98 157.646C258.98 162.01 256.34 168.269 253.26 170.609C249.5 173.444 255.16 183.734 248.87 186.697C247.736 187.306 246.424 187.629 245.085 187.629C243.746 187.629 242.434 187.306 241.3 186.697C242.465 185.15 243.5 183.535 244.4 181.864C250.08 171.42 248.79 168.756 248.05 167.748C252.34 163.965 256.35 160.165 258.98 157.646Z" fill="#FCC71F"/>
<path d="M332.95 185.365C332.26 187.722 330.34 189.934 326.54 191.718C326.09 191.838 325.63 191.949 325.17 192.051C324.71 192.154 324.32 192.214 323.89 192.282L323.09 192.376L322.54 192.427H322.27C321.81 192.427 321.35 192.47 320.89 192.47C313.46 192.47 305.44 188.414 299.43 177.381C306.08 164.999 306.38 158.833 304.83 152.958C306.436 153.282 307.91 153.971 309.097 154.951C310.283 155.931 311.137 157.166 311.57 158.526C314.18 166.015 301.42 175.067 308.18 180.609C314.18 185.485 324.73 177.893 328.53 183.538C328.924 184.218 329.573 184.768 330.373 185.099C331.174 185.43 332.08 185.523 332.95 185.365Z" fill="#FCC71F"/>
<path d="M317.82 140.013C313.71 139.731 308.48 140.474 305.58 145.136C300.31 153.676 282.8 164.777 270.53 151.635C260.94 141.387 252.27 140.636 236.41 145.427C238.04 143.821 239.28 142.6 239.98 141.874C246.11 135.564 249.8 132.481 258.62 130.611L301.69 131.405C301.69 131.405 314.08 129.467 316.69 136.093C317.03 137.101 317.42 138.399 317.82 140.013Z" fill="#FED81D"/>
<path d="M177.88 208.771L186.94 202.307" stroke="#FCC71F" stroke-width="0.75" stroke-linecap="round" stroke-linejoin="round"/>
<path d="M181.2 211.624L189.95 205.253" stroke="#FCC71F" stroke-width="0.75" stroke-linecap="round" stroke-linejoin="round"/>
<path d="M183.82 214.442L191.64 209.42" stroke="#FCC71F" stroke-width="0.75" stroke-linecap="round" stroke-linejoin="round"/>
<path d="M239.01 207.26L241.3 199.592" stroke="#FCC71F" stroke-width="0.75" stroke-linecap="round" stroke-linejoin="round"/>
<path d="M243.15 206.329L245.24 198.43" stroke="#FCC71F" stroke-width="0.75" stroke-linecap="round" stroke-linejoin="round"/>
<path d="M247.1 205.321L248.87 198.43" stroke="#FCC71F" stroke-width="0.75" stroke-linecap="round" stroke-linejoin="round"/>
<path d="M251.8 204.006L253.25 197.909" stroke="#FCC71F" stroke-width="0.75" stroke-linecap="round" stroke-linejoin="round"/>
<path d="M256.4 202.623L257.34 197.132" stroke="#FCC71F" stroke-width="0.75" stroke-linecap="round" stroke-linejoin="round"/>
<path d="M260.59 201.316L260.97 197.653" stroke="#FCC71F" stroke-width="0.75" stroke-linecap="round" stroke-linejoin="round"/>
<path d="M262.03 154.623C262.03 154.623 260.87 155.776 258.98 157.612C256.35 160.174 252.34 163.931 248.05 167.731" stroke="#FCC71F" stroke-width="0.75" stroke-linecap="round" stroke-linejoin="round"/>
<path d="M299.41 177.372C306.06 164.99 306.36 158.825 304.81 152.95C304.17 150.448 303.18 148.014 302.22 145.17" stroke="#FCC71F" stroke-width="0.75" stroke-linecap="round" stroke-linejoin="round"/>
<path d="M255.41 136.998L262.03 133.207" stroke="#FCC71F" stroke-width="0.75" stroke-linecap="round" stroke-linejoin="round"/>
<path d="M262.6 140.277L266.17 135.248" stroke="#FCC71F" stroke-width="0.75" stroke-linecap="round" stroke-linejoin="round"/>
<path d="M268.82 141.541L270.53 136.674" stroke="#FCC71F" stroke-width="0.75" stroke-linecap="round" stroke-linejoin="round"/>
<path d="M272.97 142.045L274.2 137.425" stroke="#FCC71F" stroke-width="0.75" stroke-linecap="round" stroke-linejoin="round"/>
<path d="M277.05 142.796L277.79 137.886" stroke="#FCC71F" stroke-width="0.75" stroke-linecap="round" stroke-linejoin="round"/>
<path d="M283.91 142.796V138.228" stroke="#FCC71F" stroke-width="0.75" stroke-linecap="round" stroke-linejoin="round"/>
<path d="M289.12 138.228L289.91 142.796" stroke="#FCC71F" stroke-width="0.75" stroke-linecap="round" stroke-linejoin="round"/>
<path d="M292.82 137.664L294.16 142.796" stroke="#FCC71F" stroke-width="0.75" stroke-linecap="round" stroke-linejoin="round"/>
<path d="M296.16 136.998L298.01 141.165" stroke="#FCC71F" stroke-width="0.75" stroke-linecap="round" stroke-linejoin="round"/>
<path d="M298.85 135.854L301.27 140.277" stroke="#FCC71F" stroke-width="0.75" stroke-linecap="round" stroke-linejoin="round"/>
<path d="M301.86 135.854L304.9 137.886" stroke="#FCC71F" stroke-width="0.75" stroke-linecap="round" stroke-linejoin="round"/>
<path d="M303.38 133.506L307.12 135.102" stroke="#FCC71F" stroke-width="0.75" stroke-linecap="round" stroke-linejoin="round"/>
<path d="M293.45 127.169C292.71 126.879 291.9 126.58 291.03 126.315C288.922 125.644 286.679 125.336 284.43 125.41C276.71 125.487 258.62 130.688 258.62 130.688C259.01 131.149 263.74 135.632 273.38 137.331C283.02 139.031 292.9 138.185 297.13 136.751C298.367 136.294 299.44 135.566 300.241 134.64C301.042 133.715 301.542 132.625 301.69 131.482C301.69 131.482 299.68 129.595 293.45 127.169Z" fill="#B25E47"/>
<path d="M339.57 289.383C344.94 286.095 349.93 290.792 337.57 293.524" stroke="#83ADDF" stroke-width="0.75" stroke-linecap="round" stroke-linejoin="round"/>
<path d="M334.52 292.107C337.05 286.881 340.77 282.492 342.52 283.619C344.66 285.011 336.46 292.534 336.46 292.534" stroke="#83ADDF" stroke-width="0.75" stroke-linecap="round" stroke-linejoin="round"/>
<path d="M346.18 303.72H312.42C312.29 299.784 317.49 290.971 318.06 288.102C318.06 288.042 318.06 287.982 318.06 287.906C318.69 284.72 320.46 272.953 320.46 272.953L338.57 273.927L333.7 288.042C335.428 290.198 337.368 292.223 339.5 294.097C343.36 297.572 350.95 298.067 351.66 300.51C352.37 302.952 348.25 303.72 346.18 303.72Z" fill="#A7CAF0"/>
<path d="M338.6 273.927L333.73 288.042C333.73 288.042 323.91 287.974 318.09 287.906C318.72 284.72 320.49 272.953 320.49 272.953L338.6 273.927Z" fill="#B25E47"/>
<path d="M357.57 213.468C355.51 226.755 341.29 276.275 341.29 276.275H317.97L324.97 222.699C324.983 222.663 324.983 222.624 324.97 222.588C324.84 221.896 320.62 199.301 343.41 196.543C345.187 196.907 346.927 197.396 348.61 198.003C357.52 201.265 358.6 206.765 357.57 213.468Z" fill="#83ADDF"/>
<path d="M326.2 208.643C330.85 208.455 333.9 208.361 334.4 208.438C338.01 208.976 330.99 213.861 333.47 213.938C336.74 214.049 340.27 214.459 338.47 216.371C336.47 218.438 334.6 219.112 336.22 220.385C339.29 222.784 334.05 225.064 333.69 227.823C333.33 230.581 327.45 272.091 327.45 272.091" stroke="#A7CAF0" stroke-width="0.75" stroke-linecap="round" stroke-linejoin="round"/>
<path d="M352.66 136.981C351.18 140.397 349.59 143.411 349.59 143.411L349.43 143.949L346.43 154.359C346.43 154.359 348.79 154.897 348.73 156.664C348.67 158.432 344.31 172.949 340.1 181.138C339.92 181.505 339.7 181.864 339.48 182.231C339.26 182.598 339.15 182.761 338.97 183.017C338.597 183.552 338.197 184.073 337.77 184.579C337.57 184.819 337.37 185.049 337.16 185.271C336.95 185.493 336.7 185.758 336.45 185.988C336.2 186.219 335.98 186.441 335.74 186.663C335.23 187.116 334.74 187.517 334.13 187.961L333.28 188.559C331.863 189.52 330.315 190.331 328.67 190.975H328.6L327.6 191.334C327.26 191.445 326.92 191.556 326.6 191.65C319.69 190.139 317.42 186.27 317.26 182.035C316.99 174.981 322.62 166.903 322.62 166.903C322.616 166.889 322.616 166.874 322.62 166.86C322.95 166.058 328.38 153.129 329.49 152.062C330.6 150.994 332.8 151.694 332.8 151.694L336.69 141.131L337.54 138.817C337.54 138.817 337.23 138.262 336.81 137.451C335.901 135.787 335.229 134.035 334.81 132.233C334.58 130.175 336.81 128.886 338.61 128.647C338.61 128.647 338.78 125.111 340.16 123.677C340.375 123.388 340.681 123.157 341.043 123.01C341.405 122.864 341.808 122.808 342.205 122.849C342.603 122.89 342.979 123.027 343.289 123.243C343.6 123.459 343.833 123.745 343.96 124.07C344.39 122.84 347.54 122.669 347.62 125.094C347.741 124.673 348.045 124.306 348.471 124.069C348.897 123.832 349.413 123.743 349.913 123.819C350.414 123.895 350.862 124.131 351.166 124.479C351.47 124.827 351.607 125.261 351.55 125.692C351.55 125.692 353.86 123.779 355.06 127.4C355.61 129.296 354.2 133.395 352.66 136.981Z" fill="#FED81D"/>
<path d="M339.58 142.796C339.58 142.796 336.39 151.831 336.39 151.669" stroke="#FCC71F" stroke-width="0.75" stroke-linecap="round" stroke-linejoin="round"/>
<path d="M342.07 143.65L339.86 151.49" stroke="#FCC71F" stroke-width="0.75" stroke-linecap="round" stroke-linejoin="round"/>
<path d="M345.79 144.12L343.82 152.224" stroke="#FCC71F" stroke-width="0.75" stroke-linecap="round" stroke-linejoin="round"/>
<path d="M322.52 166.929C320.52 171.856 319.18 175.519 319.42 176.766" stroke="#FCC71F" stroke-width="0.75" stroke-linecap="round" stroke-linejoin="round"/>
<path d="M339.52 182.231C339.36 182.496 339.19 182.76 339.01 183.017C338.637 183.552 338.237 184.073 337.81 184.579C337.61 184.818 337.41 185.049 337.2 185.271C336.99 185.493 336.74 185.758 336.49 185.988C336.24 186.219 336.02 186.441 335.78 186.663C335.27 187.116 334.78 187.517 334.17 187.961L333.32 188.559C331.906 189.524 330.358 190.336 328.71 190.975H328.64L327.64 191.334C327.3 191.445 326.96 191.556 326.64 191.65C319.73 190.138 317.46 186.27 317.3 182.035C321.87 181.42 326.4 180.207 328.62 183.503C331.07 187.329 336.31 184.511 339.52 182.231Z" fill="#FCC71F"/>
<path d="M349.59 143.411L349.43 143.949C347.397 144.223 345.325 144.203 343.3 143.889C340.847 143.471 338.556 142.531 336.64 141.157L337.49 138.843C337.49 138.843 334.97 134.317 334.74 132.259C334.51 130.201 336.74 128.911 338.54 128.672C338.54 128.672 338.71 125.137 340.09 123.702C340.305 123.414 340.611 123.183 340.973 123.036C341.335 122.89 341.738 122.834 342.135 122.875C342.533 122.916 342.909 123.052 343.219 123.268C343.53 123.484 343.763 123.771 343.89 124.095C344.32 122.866 347.47 122.686 347.55 125.12C347.671 124.698 347.975 124.332 348.401 124.095C348.827 123.858 349.343 123.769 349.843 123.845C350.344 123.921 350.792 124.157 351.096 124.505C351.4 124.853 351.537 125.286 351.48 125.718C351.48 125.718 353.79 123.805 354.99 127.426C356.19 131.046 349.59 143.411 349.59 143.411Z" fill="#B25E47"/>
<path d="M336.39 136.691C335.633 135.267 335.079 133.77 334.74 132.233C334.51 130.167 336.74 128.886 338.54 128.647C338.54 128.647 338.71 125.111 340.09 123.677C340.305 123.388 340.611 123.157 340.973 123.01C341.335 122.864 341.738 122.808 342.135 122.849C342.533 122.89 342.909 123.027 343.219 123.243C343.53 123.459 343.763 123.745 343.89 124.07C344.32 122.84 347.47 122.661 347.55 125.094C347.671 124.673 347.975 124.306 348.401 124.069C348.827 123.832 349.343 123.743 349.843 123.819C350.344 123.895 350.792 124.131 351.096 124.479C351.4 124.827 351.537 125.261 351.48 125.692C351.48 125.692 353.79 123.779 354.99 127.4" stroke="#914839" stroke-width="0.75" stroke-linecap="round" stroke-linejoin="round"/>
<path d="M338.52 128.672C341.67 128.186 344.36 128.442 344.45 129.356C344.54 130.269 340.79 131.567 340.79 131.567C340.79 131.567 345.58 132.114 343.96 136.998" stroke="#914839" stroke-width="0.75" stroke-linecap="round" stroke-linejoin="round"/>
<path d="M343.82 123.925C343.82 123.925 343.14 127.759 342.82 128.51" stroke="#914839" stroke-width="0.75" stroke-linecap="round" stroke-linejoin="round"/>
<path d="M344.63 129.372C345.84 129.654 347 128.604 347.63 124.795" stroke="#914839" stroke-width="0.75" stroke-linecap="round" stroke-linejoin="round"/>
<path d="M346.12 128.886C346.228 129.35 346.53 129.764 346.97 130.052C347.41 130.339 347.957 130.48 348.51 130.448" stroke="#914839" stroke-width="0.75" stroke-linecap="round" stroke-linejoin="round"/>
<path d="M351.52 125.718C350.52 126.375 347.92 130.38 349.3 131.371C350.91 132.515 352.2 129.663 352.2 129.663" stroke="#914839" stroke-width="0.75" stroke-linecap="round" stroke-linejoin="round"/>
<path d="M171.85 365.477C176.49 362.958 180.85 362.48 181.85 363.094C183.26 364.034 178.98 366.561 175.49 366.963" stroke="#83ADDF" stroke-width="0.75" stroke-linecap="round" stroke-linejoin="round"/>
<path d="M167.72 367.911C174.66 365.682 181.72 367.911 180.93 369.917C180.04 372.231 169.08 368.893 169.08 368.893" stroke="#83ADDF" stroke-width="0.75" stroke-linecap="round" stroke-linejoin="round"/>
<path d="M170.75 377.5C172.8 379.251 176.75 383.025 176.2 384.118C175.65 385.211 173.56 385.544 173.56 385.544H158.76C158.76 385.544 156.38 384.332 156.29 383.17C156.2 382.009 151.53 358.68 152.29 356.647C152.94 354.939 162.23 351.788 166.62 349.696C167.234 349.414 167.82 349.089 168.37 348.723C171.09 346.767 179.43 339.492 179.43 339.492L189.82 350.396C183.82 353.257 177.1 357.151 173.99 360.644C173.155 361.495 172.572 362.506 172.29 363.59C171.52 367.509 168.71 375.724 170.75 377.5Z" fill="#A7CAF0"/>
<path d="M189.82 350.362C183.82 353.223 177.1 357.117 173.99 360.609L166.62 349.662C167.234 349.38 167.82 349.054 168.37 348.689C171.09 346.733 179.43 339.458 179.43 339.458L189.82 350.362Z" fill="#B25E47"/>
<path d="M247.76 299.348C246.117 302.09 244.297 304.753 242.31 307.324C232.52 319.083 189.21 354.026 189.21 354.026L174.64 337.997L224.41 287.248C232.94 277.872 255.22 280.101 247.76 299.348Z" fill="#83ADDF"/>
<path d="M228.32 299.237C217.26 310.56 180.55 344.496 180.55 344.496" stroke="#A7CAF0" stroke-width="0.75" stroke-linecap="round" stroke-linejoin="round"/>
<path d="M239.27 281.988C236.965 286.699 234.355 291.298 231.45 295.762" stroke="#A7CAF0" stroke-width="0.75" stroke-linecap="round" stroke-linejoin="round"/>
<path d="M306.91 124.471C303.45 123.617 303.38 125.923 305.01 126.862C306.64 127.801 305.81 130.73 301.75 131.132C301.38 131.174 300.42 131.294 299.26 131.396C297.09 131.584 294.26 131.738 293.42 131.337C292.58 130.935 292.53 129.817 292.83 128.638C292.88 128.399 292.97 128.16 293.05 127.904C293.517 126.658 294.116 125.452 294.84 124.3C296.766 124.264 298.647 123.793 300.29 122.934C304 120.825 304.1 116.598 302.6 112.191C302.224 111.09 301.77 110.009 301.24 108.955C300.83 108.101 300.37 107.247 299.88 106.453C295.36 98.9297 288.95 98.9383 288.95 98.9383C291.79 103.088 289.09 105.906 287.43 106.624C285.77 107.341 283.96 107.828 284.05 110.68C284.14 113.532 282.64 113.959 281.64 113.814C278.49 113.319 276.25 115.359 277.64 117.597C279.03 119.834 282.93 119.134 284.09 118.075C284.09 118.075 286.4 119.399 286.53 120.978C286.66 122.558 283.09 124.454 284.78 126.913C285.101 127.346 285.276 127.845 285.286 128.357C285.296 128.869 285.141 129.373 284.837 129.815C284.533 130.256 284.092 130.617 283.564 130.859C283.035 131.1 282.439 131.212 281.84 131.183C280.377 131.033 278.893 131.228 277.55 131.746C277.227 131.881 276.919 132.041 276.63 132.225C276.425 132.355 276.232 132.498 276.05 132.652C274.53 133.967 273.4 135.581 269.78 134.872C266.16 134.163 265.52 129.859 265.52 129.859C260.39 130.056 256.96 130.585 256.63 127.016C256.36 124.181 260.08 123.164 262.05 122.857C262.436 122.813 262.799 122.673 263.094 122.455C263.388 122.237 263.602 121.95 263.708 121.63C263.814 121.31 263.808 120.97 263.692 120.652C263.575 120.335 263.352 120.053 263.05 119.843C261.14 118.596 262.57 116.666 265.36 115.846C268.15 115.026 267.11 109.732 267.36 107.153C267.75 102.542 272.75 98.5284 279.46 98.2551C279.46 98.2551 282.93 91.8421 291.33 92.9437C299.73 94.0452 303.54 100.979 303.15 104.173C302.76 107.367 302.71 110.765 306.76 110.928C310.81 111.09 313.09 113.216 311.63 115.342C310.17 117.469 309.13 119.066 312.2 120.816C315.27 122.567 310.37 125.299 306.91 124.471Z" fill="#683F1D"/>
<path d="M288.94 98.8955C291.78 103.046 289.08 105.864 287.42 106.581C285.76 107.298 283.95 107.785 284.04 110.637C284.13 113.489 282.63 113.916 281.63 113.771C278.48 113.276 276.24 115.317 277.63 117.554C279.02 119.791 282.92 119.091 284.08 118.032C284.08 118.032 286.39 119.356 286.52 120.936C286.65 122.515 283.08 124.411 284.77 126.87C285.091 127.303 285.266 127.802 285.276 128.314C285.286 128.826 285.131 129.33 284.827 129.772C284.523 130.213 284.082 130.574 283.554 130.816C283.025 131.057 282.429 131.169 281.83 131.14C280.367 130.991 278.883 131.186 277.54 131.704C277.217 131.838 276.909 131.998 276.62 132.182C271.4 130.218 267.43 127.127 269.54 124.718C272.3 121.576 274.21 123.301 272.63 118.288C271.05 113.276 272.58 110.065 276.43 109.749C280.28 109.433 283.92 107.187 282 103.882C280.08 100.578 286.2 93.4815 294 96.4532C298.1 98.0159 299.6 102.123 299.94 106.376C295.35 98.8869 288.94 98.8955 288.94 98.8955Z" fill="#683F1D"/>
<path d="M300.29 122.908C299.9 125.419 298.08 127.87 292.83 128.621C292.88 128.382 292.97 128.143 293.05 127.887C293.517 126.641 294.116 125.435 294.84 124.283C296.767 124.245 298.648 123.77 300.29 122.908Z" fill="#683F1D"/>
<path d="M293.05 127.887C292.54 129.33 292.39 130.773 293.42 131.302C294.22 131.704 297.09 131.55 299.26 131.362C291.17 137.049 284.44 136.178 277.51 131.738C278.853 131.22 280.337 131.025 281.8 131.174C282.399 131.204 282.995 131.091 283.524 130.85C284.052 130.609 284.493 130.247 284.797 129.806C285.101 129.365 285.256 128.86 285.246 128.348C285.236 127.837 285.061 127.337 284.74 126.905C283.05 124.445 286.62 122.558 286.49 120.97C286.36 119.381 284.05 118.066 284.05 118.066C282.89 119.125 278.96 119.825 277.6 117.588C276.24 115.351 278.48 113.318 281.6 113.805C282.6 113.95 284.11 113.523 284.01 110.671C283.91 107.819 285.73 107.384 287.39 106.615C289.05 105.847 291.75 103.046 288.91 98.9297C288.91 98.9297 295.33 98.9297 299.85 106.461C300.34 107.273 300.8 108.109 301.21 108.963C301.74 110.018 302.194 111.098 302.57 112.2C304.57 118.177 303.69 123.822 294.81 124.309C294.086 125.461 293.487 126.667 293.02 127.912L293.05 127.887Z" fill="#B25E47"/>
<path d="M302.6 112.166C302.22 112.284 301.809 112.306 301.415 112.229C301.02 112.152 300.661 111.978 300.38 111.73C299.72 111.004 300.1 109.775 301.24 108.921C301.768 109.978 302.222 111.062 302.6 112.166Z" fill="#914839"/>
<path d="M292.6 109.809C292.6 109.925 292.627 110.039 292.681 110.146C292.734 110.252 292.812 110.348 292.91 110.428C293.009 110.508 293.125 110.57 293.252 110.611C293.379 110.651 293.515 110.669 293.65 110.663C293.845 110.655 294.034 110.597 294.191 110.499C294.349 110.4 294.47 110.264 294.538 110.107C294.606 109.951 294.618 109.78 294.574 109.618C294.53 109.455 294.431 109.307 294.29 109.192C294.148 109.076 293.97 108.999 293.778 108.97C293.585 108.94 293.387 108.959 293.207 109.025C293.027 109.091 292.874 109.2 292.766 109.339C292.658 109.479 292.6 109.642 292.6 109.809Z" fill="#683F1D"/>
<path d="M297.07 107.956C297.07 108.182 297.175 108.399 297.363 108.56C297.551 108.72 297.805 108.81 298.07 108.81C298.206 108.81 298.34 108.786 298.465 108.741C298.589 108.695 298.702 108.629 298.796 108.545C298.889 108.461 298.962 108.362 299.009 108.253C299.056 108.144 299.077 108.029 299.07 107.913C299.07 107.687 298.965 107.469 298.777 107.309C298.59 107.149 298.335 107.059 298.07 107.059C297.934 107.059 297.8 107.082 297.676 107.128C297.551 107.173 297.438 107.24 297.345 107.324C297.251 107.408 297.179 107.507 297.131 107.616C297.084 107.724 297.063 107.84 297.07 107.956Z" fill="#683F1D"/>
<path d="M294.84 124.275C294.116 125.427 293.517 126.633 293.05 127.878C291.982 127.568 291.072 126.952 290.472 126.136C289.873 125.319 289.622 124.351 289.76 123.395C291.392 123.904 293.105 124.2 294.84 124.275Z" fill="#914839"/>
<path d="M279.46 116.649C280.15 115.129 282.46 115.411 283.46 116.299" stroke="#914839" stroke-width="0.75" stroke-linecap="round" stroke-linejoin="round"/>
<path d="M281.14 117.417C281.075 117.227 281.062 117.026 281.104 116.831C281.145 116.636 281.24 116.451 281.38 116.293C281.52 116.134 281.701 116.006 281.91 115.918C282.118 115.83 282.348 115.785 282.58 115.786" stroke="#914839" stroke-width="0.75" stroke-linecap="round" stroke-linejoin="round"/>
<path d="M284.06 118.066C284.407 117.701 284.656 117.276 284.79 116.82" stroke="#914839" stroke-width="0.75" stroke-linecap="round" stroke-linejoin="round"/>
<path d="M293.52 114.13C294.253 114.659 295.154 114.991 296.108 115.083C297.062 115.176 298.026 115.026 298.88 114.651" stroke="#914839" stroke-width="0.75" stroke-linecap="round" stroke-linejoin="round"/>
<path d="M299.87 112.055C300.33 110.791 300.03 109.886 298.32 109.647C297.496 109.486 296.766 109.082 296.259 108.505C295.752 107.928 295.501 107.216 295.55 106.496" stroke="#914839" stroke-width="0.75" stroke-linecap="round" stroke-linejoin="round"/>
<path d="M288.89 106.803C288.89 107.819 293.33 107.349 293.7 106.222C294 105.334 288.86 104.89 288.89 106.803Z" fill="#683F1D"/>
<path d="M297.59 102.157C296.51 101.722 295.03 105.385 296.37 105.667C297.03 105.812 300.12 103.191 297.59 102.157Z" fill="#683F1D"/>
<path d="M279.4 98.2637C281.075 98.3671 282.711 98.7439 284.22 99.3738" stroke="#7F542D" stroke-width="0.75" stroke-linecap="round" stroke-linejoin="round"/>
<path d="M282.22 104.865C278.9 105.915 274.91 107.691 274.79 111.098C274.67 114.505 276.38 117.597 271.1 119.817C265.82 122.037 270.82 127.724 270.82 127.724" stroke="#7F542D" stroke-width="0.75" stroke-linecap="round" stroke-linejoin="round"/>
<path d="M276.7 128.655C279.92 126.409 276.42 123.583 279.92 121.474" stroke="#7F542D" stroke-width="0.75" stroke-linecap="round" stroke-linejoin="round"/>
<path d="M285.7 102.397C280.3 100.578 274.06 102.866 272.7 104.813" stroke="#7F542D" stroke-width="0.75" stroke-linecap="round" stroke-linejoin="round"/>
<path d="M292.58 112.78C292.36 113.737 290.88 114.283 289.3 114.002C287.72 113.72 286.61 112.729 286.83 111.781C287.05 110.834 288.53 110.278 290.12 110.56C291.71 110.842 292.81 111.85 292.58 112.78Z" fill="#914839"/>
<path d="M36.6102 379.319C29.3802 385.945 27.6102 391.223 26.4502 394.69L42.6902 405.569H66.3702C66.3702 405.569 65.9502 400.684 61.3702 399.882C56.7902 399.079 54.0402 398.72 54.0402 398.72L49.5202 390.386L36.6102 379.319Z" fill="#FED81D"/>
<path d="M105.83 287.726C106.48 326.068 109.32 334.018 100.13 347.288C90.9402 360.558 49.5202 390.386 49.5202 390.386L32.0502 379.208C32.0502 379.208 53.0502 359.311 62.8602 348.705C72.6702 338.1 74.1202 333.787 73.8602 327.263C73.6002 320.739 66.3502 271.117 66.3502 271.117L105.83 287.726Z" fill="#683F1D"/>
<path d="M220.65 340.576C220.65 340.576 236.18 348.645 239.26 350.02C242.34 351.395 242.77 354.905 242.77 354.905H205.27C205.27 354.905 203.49 346.886 204.44 342.096L220.65 340.576Z" fill="#FED81D"/>
<path d="M220.65 340.576L201.7 343.778L177.52 288.341C171.89 275.48 165.83 264.029 178.24 259.99C192.15 260.4 198.78 264.183 204.46 277.769C210.42 292.106 220.65 340.576 220.65 340.576Z" fill="#683F1D"/>
<path d="M177.52 288.341C177.52 288.341 122.03 292.653 104.92 293.199C87.8102 293.746 71.1402 292.106 63.5202 269.161L107.17 256.19L112.76 259.947C137.71 260.289 160.36 259.879 175.9 259.947C176.71 259.947 177.49 259.947 178.25 259.99C200.93 263.218 192.35 284.464 177.52 288.341Z" fill="#683F1D"/>
<path d="M102.04 293.259C89.5202 293.447 77.5202 291.867 69.4002 281.005" stroke="#7F542D" stroke-width="0.75" stroke-linecap="round" stroke-linejoin="round"/>
<path d="M138.9 231.605L126.29 240.819L115.69 260.076C115.69 260.076 99.7602 259.597 90.2902 265.421C80.8202 271.245 67.0802 273.756 61.7702 273.679C61.3878 264.329 62.1486 254.97 64.0402 245.755C67.1702 231.033 74.8502 208.592 74.8502 208.592C74.7602 207.892 74.7202 207.191 74.6902 206.508C74.2602 194.792 81.5002 185.519 93.3202 186.125C105.83 186.782 118.62 190.736 118.62 190.736C118.62 190.736 132.46 192.606 139.75 196.082C143.06 197.661 145.32 200.351 145.83 204.988C146.45 210.556 144.52 218.941 138.9 231.605Z" fill="#A7CAF0"/>
<path d="M111.05 242.732L106.85 237.779C110.01 236.609 112.64 235.55 113.68 235.123C112.3 229.692 111.02 224.919 109.77 220.863C112.04 221.221 115.23 223.015 116.11 229.838C116.77 235.038 125.66 226.738 128.92 233.51C132.18 240.281 111.05 242.732 111.05 242.732Z" fill="#83ADDF"/>
<path d="M137.7 211.623C135.97 213.169 133.5 221.555 129.94 231.494" stroke="#83ADDF" stroke-width="0.75" stroke-linecap="round" stroke-linejoin="round"/>
<path d="M186.57 219.317C186.42 222.306 180.21 221.555 180.21 221.555C181.79 223.929 177.21 225.474 174.95 225.585C173.433 225.62 171.922 225.406 170.5 224.953C170.5 224.953 148.27 241.836 139.96 248.189C131.65 254.542 116.25 264.414 105.84 263.201C95.4302 261.988 92.5402 252.954 87.9102 242.707C90.3746 242.538 92.8134 242.161 95.1902 241.579C101.34 240.119 111.4 236.072 113.68 235.141C113.97 236.302 114.28 237.506 114.58 238.736C133.22 229.752 153.96 218.241 155.7 216.815C157.44 215.389 164.81 210.471 166.99 208.455C169.17 206.44 173.29 208.31 171.63 209.429C169.97 210.547 169.17 211.658 175.85 215.176C184.26 219.599 186.74 215.731 186.57 219.317Z" fill="#FEBD9D"/>
<path d="M145.83 205.005C142.37 203.144 138.13 202.375 133.83 205.347C123.63 212.366 113.83 212.033 100.02 198.447C86.5902 185.245 75.3402 205.364 74.7002 206.525C74.2702 194.809 81.5102 185.536 93.3302 186.142C105.84 186.799 118.63 190.753 118.63 190.753C118.63 190.753 132.47 192.623 139.76 196.099C143.06 197.661 145.32 200.351 145.83 205.005Z" fill="#A7CAF0"/>
<path d="M115.62 204.612C115.62 204.969 115.744 205.317 115.976 205.613C116.208 205.91 116.537 206.141 116.923 206.277C117.308 206.413 117.733 206.449 118.142 206.38C118.551 206.31 118.927 206.138 119.222 205.886C119.517 205.634 119.718 205.313 119.8 204.964C119.881 204.614 119.839 204.252 119.68 203.923C119.52 203.594 119.249 203.312 118.902 203.114C118.555 202.916 118.147 202.811 117.73 202.811C117.171 202.811 116.634 203 116.238 203.338C115.842 203.676 115.62 204.134 115.62 204.612Z" fill="white"/>
<path d="M74.6602 208.421C74.6602 208.421 82.1602 237.634 84.6602 242.578C85.7305 242.705 86.8144 242.725 87.8902 242.638C90.3546 242.47 92.7933 242.092 95.1702 241.511C99.1461 240.461 103.041 239.197 106.83 237.728C109.99 236.558 112.62 235.499 113.66 235.072C112.28 229.641 111 224.868 109.75 220.812C106.89 211.529 104.17 206.056 100.64 205.202" stroke="#83ADDF" stroke-width="0.75" stroke-linecap="round" stroke-linejoin="round"/>
<path d="M114.58 238.719C109.16 241.665 108.3 244.073 108.3 244.073" stroke="#F4A789" stroke-width="0.75" stroke-linecap="round" stroke-linejoin="round"/>
<path d="M180.2 221.555C176.2 221.256 174.34 221.008 174.34 221.008" stroke="#F4A789" stroke-width="0.75" stroke-linecap="round" stroke-linejoin="round"/>
<path d="M170.52 224.945C171.945 225.402 173.459 225.619 174.98 225.585C177.26 225.474 181.82 223.937 180.23 221.555C180.23 221.555 186.45 222.298 186.6 219.317C186.77 215.731 184.28 219.599 175.88 215.159C169.2 211.64 170 210.547 171.66 209.42C173.32 208.293 169.21 206.423 167.02 208.438C165.9 209.471 163.43 211.273 161.02 212.964" stroke="#F4A789" stroke-width="0.75" stroke-linecap="round" stroke-linejoin="round"/>
<path d="M159.17 210.607C161.59 207.721 164.91 209.753 164.98 212.17C165.05 214.586 159.39 217.72 157.78 216.439C156.17 215.159 157.81 212.221 159.17 210.607Z" fill="#B25E47"/>
<path d="M165.52 227.592C162.95 226.499 161.13 228.156 163.27 230.154C165.41 232.152 169.33 231.247 170.07 229.257L165.52 227.592Z" fill="#B25E47"/>
<path d="M165.52 227.592C162.95 226.499 161.13 228.156 163.27 230.154C165.41 232.152 169.33 231.247 170.07 229.257L165.52 227.592Z" stroke="#914839" stroke-width="0.75" stroke-linecap="round" stroke-linejoin="round"/>
<path d="M168.81 225.5C166.12 225.073 163.87 225.833 164.72 227.66C165.57 229.488 171.72 231.546 174.34 227.66L168.81 225.5Z" fill="#B25E47"/>
<path d="M168.81 225.5C166.12 225.073 163.87 225.833 164.72 227.66C165.57 229.488 171.72 231.546 174.34 227.66L168.81 225.5Z" stroke="#914839" stroke-width="0.75" stroke-linecap="round" stroke-linejoin="round"/>
<path d="M159.17 210.607C161.59 207.721 164.91 209.753 164.98 212.17C165.05 214.586 159.39 217.72 157.78 216.439C156.17 215.159 157.81 212.221 159.17 210.607Z" stroke="#914839" stroke-width="0.75" stroke-linecap="round" stroke-linejoin="round"/>
<path d="M168.69 226.354C166.89 224.817 167.95 222.596 170.39 223.126C172.83 223.655 173.33 224.893 177.53 225.107C180.32 225.209 173.52 230.487 168.69 226.354Z" fill="#B25E47"/>
<path d="M168.69 226.354C166.89 224.817 167.95 222.596 170.39 223.126C172.83 223.655 173.33 224.893 177.53 225.107C180.32 225.209 173.52 230.487 168.69 226.354Z" stroke="#914839" stroke-width="0.75" stroke-linecap="round" stroke-linejoin="round"/>
<path d="M126.84 173.145L123.38 174.264L118.08 175.929C116.354 174.448 114.828 172.807 113.53 171.036C111.46 168.158 110.42 165.101 113.83 164.204C109.88 164.204 109.42 161.352 112.65 160.789C108.18 160.695 109.87 156.929 114.49 157.373C114.49 157.373 111.63 154.068 119.18 153.385C124.51 152.907 128.66 154.042 131.18 155.605L131.38 155.742C132.407 156.352 133.214 157.195 133.71 158.175C134.81 160.652 126.84 173.145 126.84 173.145Z" fill="#BF8228"/>
<path d="M126.84 173.145L123.38 174.264L118.08 175.929C116.354 174.448 114.828 172.807 113.53 171.036C115.44 169.285 118.53 169.61 119.01 168.388C119.71 166.681 114.39 158.526 123.14 158.713C128.07 158.816 130.35 157.176 131.39 155.725C132.417 156.335 133.224 157.178 133.72 158.158C134.81 160.652 126.84 173.145 126.84 173.145Z" fill="#BF8228"/>
<path d="M114.52 157.33C114.52 157.33 121.64 157.595 123.85 157.902C126.85 158.321 127.27 159.32 127.27 159.32" stroke="#FCC71F" stroke-width="0.75" stroke-linecap="round" stroke-linejoin="round"/>
<path d="M121.5 162.659L118.71 162.411" stroke="#FCC71F" stroke-width="0.75" stroke-linecap="round" stroke-linejoin="round"/>
<path d="M112.65 160.703C114.73 160.848 116.57 161.129 116.57 161.129" stroke="#FCC71F" stroke-width="0.75" stroke-linecap="round" stroke-linejoin="round"/>
<path d="M113.83 164.161C114.94 164.15 116.05 164.207 117.15 164.332" stroke="#FCC71F" stroke-width="0.75" stroke-linecap="round" stroke-linejoin="round"/>
<path d="M123.23 168.363C119.87 168.26 115.53 168.269 115.14 167.697" stroke="#FCC71F" stroke-width="0.75" stroke-linecap="round" stroke-linejoin="round"/>
<path d="M130.52 184.391C129.861 186.073 129.303 187.784 128.85 189.515C128.77 189.817 128.69 190.124 128.61 190.437C127.09 194.297 125.23 198.883 119.05 198.225C115.13 197.815 110.61 195.544 108.36 189.976C107.49 187.816 109.93 185.749 110.24 185.356C112.64 182.385 114.88 179.302 115.64 176.996C115.64 176.996 113.77 174.989 115.06 172.889C115.254 172.582 115.489 172.295 115.76 172.035C117.81 170.088 121.62 170.985 122.89 172.487C123.202 172.297 123.488 172.077 123.74 171.83C123.977 171.656 124.17 171.444 124.309 171.205C124.448 170.966 124.529 170.706 124.547 170.44C124.566 170.174 124.522 169.907 124.417 169.656C124.313 169.405 124.151 169.174 123.94 168.978C123.707 168.75 123.477 168.537 123.25 168.337L123.16 168.26C121.58 166.834 120.24 165.699 120.92 163.743C121.049 163.348 121.252 162.973 121.52 162.633C122.57 161.369 124.52 161.207 127.44 161.54C131.11 161.95 132.95 161.053 133.74 158.124C133.84 158.252 134.64 159.354 135.74 161.104C136.06 161.608 136.4 162.163 136.74 162.77C137.56 164.153 138.46 165.793 139.3 167.569C139.634 168.246 139.944 168.938 140.23 169.644C140.544 170.376 140.808 171.123 141.02 171.881C142.82 178.115 141.68 185.681 130.52 184.391Z" fill="#FEBD9D"/>
<path d="M129.34 171.377C128.89 172.488 126.9 172.906 124.87 172.317C124.467 172.201 124.081 172.047 123.72 171.856C123.957 171.682 124.15 171.469 124.289 171.231C124.428 170.992 124.509 170.732 124.527 170.466C124.546 170.2 124.502 169.933 124.397 169.682C124.293 169.431 124.131 169.2 123.92 169.003C123.66 168.747 123.4 168.508 123.14 168.286C124.215 167.935 125.405 167.935 126.48 168.286C128.52 168.892 129.79 170.267 129.34 171.377Z" fill="#F4A789"/>
<path d="M128.73 167.697C128.73 167.866 128.789 168.031 128.899 168.171C129.009 168.312 129.165 168.421 129.348 168.486C129.53 168.551 129.731 168.567 129.925 168.534C130.119 168.502 130.297 168.42 130.437 168.301C130.577 168.181 130.672 168.029 130.711 167.864C130.75 167.698 130.73 167.526 130.654 167.37C130.578 167.214 130.45 167.081 130.286 166.987C130.121 166.893 129.928 166.843 129.73 166.843C129.465 166.843 129.211 166.933 129.023 167.093C128.836 167.253 128.73 167.47 128.73 167.697Z" fill="#683F1D"/>
<path d="M136.06 166.886C136.624 166.886 137.08 166.496 137.08 166.015C137.08 165.534 136.624 165.144 136.06 165.144C135.497 165.144 135.04 165.534 135.04 166.015C135.04 166.496 135.497 166.886 136.06 166.886Z" fill="#683F1D"/>
<path d="M130.52 184.391C129.861 186.073 129.303 187.784 128.85 189.515C120.47 188.037 123.96 181.172 123.96 181.172C123.96 181.172 128.07 183.836 130.52 184.391Z" fill="#F4A789"/>
<path d="M115.62 177.005C117.15 178.841 121.08 178.789 122.41 177.859" stroke="#F4A789" stroke-width="0.75" stroke-linecap="round" stroke-linejoin="round"/>
<path d="M117.15 174.639C118.78 173 121.01 173.785 122.25 175.724" stroke="#F4A789" stroke-width="0.75" stroke-linecap="round" stroke-linejoin="round"/>
<path d="M120.82 176.655C118.16 176.595 119.01 173.896 121.5 174.793" stroke="#F4A789" stroke-width="0.75" stroke-linecap="round" stroke-linejoin="round"/>
<path d="M130.75 171.89C131.8 173.427 132.95 174.204 135.5 173.743" stroke="#F4A789" stroke-width="0.75" stroke-linecap="round" stroke-linejoin="round"/>
<path d="M133.32 163.786C132.97 165.682 132.74 167.33 135.1 168.261C137.46 169.191 137 171.036 134.79 171.599" stroke="#F4A789" stroke-width="0.75" stroke-linecap="round" stroke-linejoin="round"/>
<path d="M125.01 164.87C125.9 165.895 130.47 164.076 129.65 162.701C129.14 161.839 123.44 163.034 125.01 164.87Z" fill="#BF8228"/>
<path d="M136.74 162.795C135.54 163.222 133.11 162.915 133.11 162.291C133.11 161.668 134.53 161.164 135.73 161.13C136.05 161.634 136.39 162.189 136.74 162.795Z" fill="#BF8228"/>
<path d="M141.02 171.907C140.644 172.121 140.204 172.239 139.752 172.246C139.301 172.254 138.856 172.151 138.47 171.95C137.39 171.241 137.55 169.49 138.85 168.03C139 167.876 139.15 167.723 139.3 167.594C139.634 168.272 139.944 168.964 140.23 169.67C140.544 170.402 140.808 171.149 141.02 171.907Z" fill="#F4A789"/>
<path d="M110.22 185.365C107.71 184.895 104.46 185.911 104.09 187.252C103.72 188.593 103.3 199.762 106.22 199.796C109.14 199.83 114.01 194.749 116.55 198.754C119.7 203.716 120.69 197.175 124.74 200.531C126.17 201.718 127.89 204.117 129.66 202.238C131.43 200.36 132.75 193.699 132.2 192.606C131.65 191.513 130.29 190.172 128.57 190.446C127.41 190.625 125.57 197.448 119.36 197.73C118.08 197.789 109.44 190.044 108.92 188.464C108.4 186.885 110.22 185.365 110.22 185.365Z" fill="white"/>
</svg>
