<?xml version="1.0" encoding="utf-8"?>
<!-- Generator: Adobe Illustrator 26.0.0, SVG Export Plug-In . SVG Version: 6.00 Build 0)  -->
<svg version="1.1" id="Calque_1" xmlns="http://www.w3.org/2000/svg" xmlns:xlink="http://www.w3.org/1999/xlink" x="0px" y="0px"
	 viewBox="0 0 1080 1080" style="enable-background:new 0 0 1080 1080;" xml:space="preserve">
<style type="text/css">
	.st0{fill:#71C8EA;}
	.st1{fill:#9E4D2D;}
	.st2{fill:#07304C;}
	.st3{fill:#EEB53D;}
	.st4{fill:#E56441;}
	.st5{fill:none;stroke:#E56441;stroke-width:0.9467;stroke-linecap:round;}
	.st6{fill:#080B09;}
	.st7{fill:#E56441;stroke:#E56441;}
	.st8{fill:#FFFFFF;}
	.st9{fill:url(#SVGID_1_);}
</style>
<path class="st0" d="M704.4,665.9l5.3,2.5c1.8,0.9,3.2,2.4,3.8,4.3c0.7,1.9,0.6,3.9-0.3,5.7l-36.4,76.1c-0.9,1.8-2.4,3.2-4.3,3.8
	c-1.9,0.7-3.9,0.6-5.7-0.3l-5.3-2.5L704.4,665.9L704.4,665.9z"/>
<path class="st1" d="M644.5,673.4l26.2,8l16.6-23.4l-29.6-12.2L644.5,673.4z"/>
<path class="st2" d="M687.3,657.9c3.5,1.3,11.7,5.3,17.1,8c1.3,0.7,2.4,1.9,2.9,3.3c0.5,1.4,0.4,3-0.3,4.3l-38.9,81.3
	c-0.2,0.5-0.7,1-1.2,1.3c-0.5,0.3-1.1,0.4-1.7,0.3c-2.7-0.3-6.8-1.7-8-5c-1.6-4.5,4.4-54.9,6.1-64.9c1.7-10,13.3-27.8,13.3-27.8
	C678.4,656,681.9,656,687.3,657.9z"/>
<path class="st0" d="M466.8,695.8c0.6-1.9,1.9-3.5,3.6-4.5l5.2-2.8l47.3,87.3l-5.2,2.8c-1.7,0.9-3.8,1.2-5.7,0.6
	c-1.9-0.6-3.5-1.9-4.5-3.6l-40.2-74.1C466.4,699.7,466.2,697.7,466.8,695.8z"/>
<path class="st1" d="M535.7,692.9l-25.8,9.3l-17.7-22.6l28.9-13.7L535.7,692.9z"/>
<path class="st2" d="M492.2,679.6c-3.4,1.4-11.4,5.9-16.6,8.9c-1.3,0.7-2.3,2-2.7,3.4c-0.4,1.4-0.2,3,0.5,4.3l42.9,79.3
	c0.3,0.5,0.7,0.9,1.2,1.2c0.5,0.3,1.1,0.4,1.7,0.3c2.6-0.4,6.8-2,7.7-5.4c1.4-4.6-7.1-54.6-9.4-64.5c-2.2-9.9-14.7-27.1-14.7-27.1
	C501,677.3,497.5,677.4,492.2,679.6z"/>
<path class="st3" d="M515.7,554.1l25.6,35.1l127.8,58l-18.7,34.9l-218.8-56c-8.6-10.8,2.5-65.7,2.5-65.7L515.7,554.1z"/>
<path class="st3" d="M628.5,599.5l-71.4,57.9l-26.2-5.9l29.3-26.4l-22.5-9.4l-48.3-16.1H628.5z"/>
<path class="st3" d="M588,666.4l31.9,7.8l33.9-26.5l1.5-5.2C649.5,637.1,588,666.4,588,666.4z"/>
<path class="st3" d="M539.5,583.7l78,11l-109.1,73.8l19.9,36l169.1-86.6c15.8-9.2,8.6-59.7-11.1-61.5c-30.7-2.7-92.5,0.7-92.5,0.7
	L539.5,583.7z"/>
<path class="st3" d="M714.3,589.1c0-18.3-14.8-33.1-33.1-33.1c-18.3,0-33.1,14.8-33.1,33.1c0,18.3,14.8,33.1,33.1,33.1
	C699.5,622.2,714.3,607.4,714.3,589.1z"/>
<path class="st3" d="M470.1,593.4c0-18.3-14.8-33.1-33.1-33.1c-18.3,0-33.1,14.8-33.1,33.1c0,18.3,14.8,33.1,33.1,33.1
	C455.3,626.5,470.1,611.7,470.1,593.4z"/>
<path class="st2" d="M534.4,449.6l-20.8,23.6l-1.9,2.1l-15.4,18.4l-14.4,17.2l-5.6,6.6l-29.6-27.2c0,0,47.3-64.6,55.6-73
	c7.8-7.9,18,0.6,18,0.6c2.7,2.7,10.9,2.3,7.4,19.5C525.7,446.4,534.4,449.6,534.4,449.6z"/>
<path class="st2" d="M540.1,440.2c4-11.9-2.4-24.8-14.3-28.8c-11.9-4-24.8,2.4-28.8,14.3c-4,11.9,2.4,24.8,14.3,28.8
	C523.2,458.6,536.1,452.2,540.1,440.2z"/>
<path class="st2" d="M511.5,475.2l-15.4,18.4l-14.4,17.2c1.2-12.2,8.5-26.6,14.7-40.8c8.5-18.9,26.8-46,26.8-46l-6.8,31.7
	c-1.3,6.6-2.5,13.7-3.1,17.3L511.5,475.2z"/>
<path class="st1" d="M400.6,426.3l-6.3-9.1c-1.4-2.5-13.8-13.7-15.5-17.4c-2.6-5.9-18.4-21.4-6-31.7c4.7-3.8,5.4-6.4,13.6-5.1
	c8.2,1.3,11.4,12.4,14.8,18.5c0,0,1.6-6.4,6.6-8.8c5-2.4-0.2,15.2,2.7,22.4c3,7.3-0.4,9.5,6.6,22.3L400.6,426.3z"/>
<path class="st4" d="M382.9,363.9l10,18.5L382.9,363.9z"/>
<path class="st5" d="M382.9,363.9l10,18.5"/>
<path class="st4" d="M375.5,368.2l10.9,17.2L375.5,368.2z"/>
<path class="st5" d="M375.5,368.2l10.9,17.2"/>
<path class="st4" d="M372.4,378.2l6.2,10.4L372.4,378.2z"/>
<path class="st5" d="M372.4,378.2l6.2,10.4"/>
<path class="st4" d="M399.3,384.5c0,0-3.8,7.7-3.9,14.1L399.3,384.5z"/>
<path class="st5" d="M399.3,384.5c0,0-3.8,7.7-3.9,14.1"/>
<path class="st2" d="M444.6,513.5l-48.4-89.3c-0.4-0.8-0.6-1.7-0.3-2.6c0.2-0.9,0.7-1.6,1.5-2.2l15.8-10.4c0.5-0.3,1.1-0.5,1.7-0.4
	c0.6,0.1,1.1,0.4,1.5,0.9l60.2,80.2L444.6,513.5z"/>
<path class="st2" d="M482,503.4c0-11.1-9-20.2-20.2-20.2c-11.1,0-20.2,9-20.2,20.2c0,11.1,9,20.2,20.2,20.2
	C473,523.5,482,514.5,482,503.4z"/>
<path class="st2" d="M589.9,401.6l42.3,11.2c6.6,2.7,0.5,7.4,1.3,12.8c0.8,5.4,3.2,122.5,3.2,122.5l-55.9,32.7l-74.8,2.9
	c0,0-1.3-147.6-0.9-154.2c0.4-6.6,0.8-15.9,6.6-18.2c5.8-2.3,39.6-11.3,39.6-11.3L589.9,401.6z"/>
<path class="st2" d="M623.5,449.3l15.5,76.6l-32.1,35.8l0.6-109L623.5,449.3z"/>
<path class="st2" d="M589.9,401.6l-23.9-5.4l-21.7,6.1c-5.9,17.5,1,29.9,14.1,30.1c13.1,0.2,32.2-6.3,37-12.9c4.8-6.6,0-16.3,0-16.3
	L589.9,401.6z"/>
<path d="M541.9,344.9c-10-4.2-0.6-24.5-0.6-24.5C550.8,321.4,551.9,349.1,541.9,344.9z"/>
<path class="st1" d="M582.4,371.4c0,0,4.3,31.3,5.3,35.1c0.5,1.6,0.4,3.3-0.2,4.8c-0.6,1.5-1.8,2.8-3.2,3.5c-3.4,2.1-21,9-27.6,7.6
	c-10.2-2.2-7.6-6.3-7.6-6.3l2.7-30.7L582.4,371.4z"/>
<path class="st1" d="M549.5,412.3l18.1-29l-16.2,8L549.5,412.3z"/>
<path class="st1" d="M592,349.3c6.1,8.5,2,23.4-2.2,26.7c-2.7,2.1-13.9,12.5-25.4,16.1c-6.3,2-15.5,0.4-21.3-1.6
	c-7.3-2.5-12.9-6.7-9.4-23.6c3.5-16.8,13-40.6,13-40.6C561.9,314.3,585.9,340.8,592,349.3z"/>
<path class="st6" d="M562.6,356.6c0.8-1.9,0.4-3.9-0.9-4.4c-1.3-0.5-2.9,0.7-3.7,2.6c-0.8,1.9-0.4,3.9,0.9,4.4
	C560.2,359.7,561.8,358.6,562.6,356.6z"/>
<path class="st6" d="M545.2,349.7c0.8-1.9,0.4-3.9-0.9-4.4c-1.3-0.5-2.9,0.7-3.7,2.6c-0.8,1.9-0.4,3.9,0.9,4.4
	C542.8,352.7,544.4,351.6,545.2,349.7z"/>
<path class="st4" d="M543.7,363.9c-2.7-3.1-0.6-4.7,2.5-4.1c3.3,0.5,1.7-4.2,1.7-4.2"/>
<path class="st5" d="M543.7,363.9c-2.7-3.1-0.6-4.7,2.5-4.1c3.3,0.5,1.7-4.2,1.7-4.2"/>
<path class="st7" d="M551.8,370L551.8,370L551.8,370c0.1,0,0.1,0,0.2,0.1c0,0,0.1,0.1,0.1,0.2c0,0.1,0,0.1,0,0.2
	c0,0.1-0.1,0.1-0.1,0.2c-0.7,0.5-1.5,1.1-2.4,1.6c-0.9,0.5-1.9,0.9-2.8,0.9c-0.9,0.1-1.6-0.2-2.2-0.8c-0.6-0.7-1.1-1.9-1.3-4l0,0
	l0,0c0,0,0-0.1,0-0.1c0,0,0-0.1,0.1-0.1c0,0,0.1-0.1,0.1-0.1c0,0,0.1,0,0.1,0l0,0l0,0C545.5,368.5,549.2,369.4,551.8,370z"/>
<path class="st6" d="M570.2,350.3c0-0.3,0-0.6-0.1-0.8c-0.1-0.3-0.2-0.5-0.4-0.7c-0.2-0.2-0.4-0.4-0.7-0.5l-9-5.1
	c-0.3-0.1-0.6-0.2-0.9-0.3c-0.3,0-0.6,0-0.9,0.1c-0.3,0.1-0.6,0.3-0.8,0.5c-0.2,0.2-0.4,0.5-0.5,0.8c-0.2,0.5-0.2,1-0.1,1.4
	c0.2,0.5,0.5,0.9,0.9,1.1l8.8,5.4c0.5,0.3,1.1,0.4,1.7,0.2c0.6-0.2,1.1-0.5,1.4-1l0.2-0.3C570.1,350.8,570.2,350.5,570.2,350.3z"/>
<path d="M538.8,337.2c-0.3,0.1-0.5,0.2-0.7,0.4c-0.2,0.2-0.4,0.4-0.5,0.6c-0.1,0.2-0.2,0.5-0.2,0.8l0,0.4c0,0.6,0.2,1.2,0.5,1.6
	c0.4,0.5,0.9,0.7,1.5,0.8l10.3,0.5c0.5,0,1-0.1,1.4-0.4c0.4-0.3,0.7-0.7,0.8-1.2c0.1-0.3,0.1-0.6,0-0.9c-0.1-0.3-0.2-0.6-0.4-0.8
	s-0.4-0.5-0.7-0.6c-0.3-0.2-0.6-0.3-0.9-0.3l-10.3-1C539.3,337.1,539,337.1,538.8,337.2z"/>
<path d="M542.3,323.6c-3.4-6.6-1-25,9.2-26.5c10.2-1.4,14.6,5.6,14.6,5.6s16-4.8,34.4,8c18.4,12.8,11.7,37.4,11.7,37.4
	c8.6,17.5-10.9,30.9-16.3,34.3c-5.4,3.4-10.6,9.8-10.6,9.8l-2.8-15.8c10.2-0.2,15.8-14.3,8.4-17.8c-7.4-3.6-13.8,2.8-13.8,2.8
	s5.1-14.7-4.2-17.6c-9.3-2.9-14.5-12.7-14.5-12.7C551.2,333.1,545.7,330.3,542.3,323.6z"/>
<path class="st2" d="M649.3,429.8l9.5,29.9l0.8,2.7l7.8,22.7l7.3,21.2l2.8,8.2l-38.6,11.4c0,0-31.1-73.8-34-85.1
	c-2.7-10.7,9.8-15.2,9.8-15.2c3.7-0.9,7.6-8.2,20.5,3.6C642.1,435.6,649.3,429.8,649.3,429.8z"/>
<path class="st2" d="M641.7,452.2c9.5-8.2,10.7-22.5,2.5-32.1c-8.2-9.5-22.5-10.7-32.1-2.5c-9.5,8.2-10.7,22.5-2.5,32.1
	C617.8,459.2,632.2,460.3,641.7,452.2z"/>
<path class="st2" d="M670.6,536.3L588.5,596c-0.7,0.5-1.6,0.8-2.5,0.7c-0.9-0.1-1.7-0.5-2.3-1.2l-12.4-14.3
	c-0.4-0.5-0.6-1.1-0.6-1.7c0-0.6,0.3-1.2,0.7-1.6l71.6-70.2L670.6,536.3z"/>
<path class="st2" d="M678.5,520.5c0-11.1-9-20.2-20.2-20.2c-11.1,0-20.2,9-20.2,20.2c0,11.1,9,20.2,20.2,20.2
	C669.5,540.6,678.5,531.6,678.5,520.5z"/>
<path class="st8" d="M451.8,495.3l33.6,95.3h56.5c3.3,0,6.4,1.3,8.8,3.6c2.3,2.3,3.6,5.5,3.6,8.8h-78.1l-38.9-107.7H451.8z"/>
<linearGradient id="SVGID_1_" gradientUnits="userSpaceOnUse" x1="569.1276" y1="583.8221" x2="587.7636" y2="354.4061" gradientTransform="matrix(-1 0 0 -1 1082.4231 1077.89)">
	<stop  offset="0" style="stop-color:#FFFFFF"/>
	<stop  offset="1" style="stop-color:#94B9FF"/>
</linearGradient>
<path class="st9" d="M580.7,601.9H477.6l-40.5-107.7h104.8L580.7,601.9z"/>
</svg>
