<svg width="154" height="116" viewBox="0 0 154 116" fill="none" xmlns="http://www.w3.org/2000/svg">
<path d="M151.024 38.1242C152.196 37.1921 153.94 38.0641 153.94 39.5373V101.023C153.94 108.991 147.476 115.455 139.508 115.455H14.4319C6.46428 115.455 0 108.991 0 101.023V39.5674C0 38.0641 1.71379 37.2222 2.91644 38.1543C9.65132 43.3858 18.581 50.0305 49.2488 72.3097C55.5928 76.9399 66.2964 86.6815 76.97 86.6213C87.7037 86.7115 98.6178 76.7595 104.721 72.3097C135.389 50.0305 144.289 43.3558 151.024 38.1242ZM76.97 76.97C83.9454 77.0903 93.9876 68.1906 99.0387 64.5225C138.937 35.5686 141.974 33.043 151.174 25.827C152.918 24.4741 153.94 22.3694 153.94 20.1445V14.4319C153.94 6.46428 147.476 0 139.508 0H14.4319C6.46428 0 0 6.46428 0 14.4319V20.1445C0 22.3694 1.02226 24.444 2.76611 25.827C11.9664 33.0129 15.0031 35.5686 54.9013 64.5225C59.9524 68.1906 69.9946 77.0903 76.97 76.97Z" fill="black"/>
</svg>
