<svg width="155" height="155" viewBox="0 0 155 155" fill="none" xmlns="http://www.w3.org/2000/svg">
<path d="M150.54 109.189L116.865 94.757C115.427 94.1439 113.828 94.0147 112.31 94.3889C110.791 94.763 109.435 95.6203 108.446 96.8316L93.5333 115.052C70.1284 104.017 51.2929 85.1814 40.2577 61.7766L58.4783 46.8634C59.692 45.8762 60.5511 44.5205 60.9254 43.0014C61.2997 41.4824 61.169 39.8827 60.5529 38.4446L46.1208 4.76965C45.4446 3.21943 44.2487 1.95372 42.7393 1.19078C41.2299 0.427844 39.5016 0.215494 37.8523 0.59035L6.58274 7.80641C4.99271 8.17359 3.57408 9.06886 2.55839 10.3461C1.5427 11.6234 0.989929 13.2072 0.990296 14.8391C0.990296 91.9607 63.4994 154.35 140.501 154.35C142.133 154.351 143.718 153.798 144.996 152.782C146.273 151.767 147.169 150.348 147.537 148.757L154.753 117.488C155.125 115.83 154.908 114.095 154.139 112.58C153.37 111.066 152.098 109.867 150.54 109.189Z" fill="black"/>
</svg>
