<svg xmlns="http://www.w3.org/2000/svg" viewBox="0 0 360.03 331.16"><defs><style>.cls-1{fill:#263238;}.cls-2{opacity:0.4;}.cls-3{fill:#455a64;}.cls-4{opacity:0.3;}.cls-5{fill:#ff725e;}.cls-6{fill:none;stroke:#4e585d;stroke-miterlimit:10;stroke-width:0.05px;}.cls-7{fill:#936760;}.cls-8{fill:#6f4c47;}.cls-9{fill:#07304c;}.cls-10{fill:#e0e0e0;}.cls-11{fill:#fff;}.cls-12{fill:#fafafa;}</style></defs><g id="Briefcase"><path class="cls-1" d="M371.93,395.07h65.35a2.85,2.85,0,0,1,2.85,2.85v44.7a2.58,2.58,0,0,1-2.58,2.58H371.93a6.19,6.19,0,0,1-6.19-6.19V401.26A6.19,6.19,0,0,1,371.93,395.07Z" transform="translate(440.13 712.2) rotate(180)"/><g class="cls-2"><path d="M371.93,395.07h65.35a2.85,2.85,0,0,1,2.85,2.85v44.7a2.58,2.58,0,0,1-2.58,2.58H371.93a6.19,6.19,0,0,1-6.19-6.19V401.26A6.19,6.19,0,0,1,371.93,395.07Z" transform="translate(440.13 712.2) rotate(180)"/></g><path class="cls-1" d="M379.69,395.07h71.5a0,0,0,0,1,0,0v50.13a0,0,0,0,1,0,0H381A4.23,4.23,0,0,1,376.8,441V398A2.89,2.89,0,0,1,379.69,395.07Z" transform="translate(462.25 712.2) rotate(180)"/><path class="cls-1" d="M376.76,445.44c-.13,0-.23-11.12-.23-24.83s.1-24.84.23-24.84.24,11.12.24,24.84S376.9,445.44,376.76,445.44Z" transform="translate(-365.74 -128.06)"/><path class="cls-1" d="M394.74,394.44s.05-.11.2-.29.36-.45.67-.76a17.52,17.52,0,0,1,2.85-2.4,19.47,19.47,0,0,1,23.12.65,18.29,18.29,0,0,1,2.71,2.56c.29.33.48.62.62.8s.2.29.19.3a31.67,31.67,0,0,0-3.72-3.39,19.74,19.74,0,0,0-22.74-.65A30.54,30.54,0,0,0,394.74,394.44Z" transform="translate(-365.74 -128.06)"/><path class="cls-3" d="M376.31,402.23a1,1,0,0,1,.06.27c0,.21.08.47.14.79s.11.78.21,1.28.25,1.09.39,1.73a35.37,35.37,0,0,0,4.47,10.32,36.4,36.4,0,0,0,11.87,11.54,36.77,36.77,0,0,0,19.55,5,39.16,39.16,0,0,0,19.44-5.6,42.46,42.46,0,0,0,12.19-11.29,45.49,45.49,0,0,0,5.41-9.88c.47-1.25.82-2.22,1-2.9l.26-.76c.06-.17.09-.26.1-.25a.88.88,0,0,1-.06.26l-.2.78c-.18.68-.5,1.67-1,2.94a43.49,43.49,0,0,1-5.31,10A42.17,42.17,0,0,1,432.66,428a39.21,39.21,0,0,1-19.65,5.7,37,37,0,0,1-19.78-5.12A36.47,36.47,0,0,1,381.3,416.8a34.48,34.48,0,0,1-4.37-10.45l-.34-1.75c-.09-.51-.13-1-.18-1.3s-.06-.59-.09-.79A1.49,1.49,0,0,1,376.31,402.23Z" transform="translate(-365.74 -128.06)"/></g><g id="Plant"><path class="cls-3" d="M708.83,267.6c-10,5.17-17.65,14.07-23.15,23.88s-9,20.56-12.57,31.24L670,377.81c11.61-19.76,20.94-43,23.46-65.78l-7.73-.69c5.18-.79,9.53-4.55,12.3-9s4.19-9.59,5.58-14.65l-9.43,1.4A35,35,0,0,0,708.83,267.6Z" transform="translate(-365.74 -128.06)"/><g class="cls-4"><path d="M708.83,267.6c-10,5.17-17.65,14.07-23.15,23.88s-9,20.56-12.57,31.24L670,377.81c11.61-19.76,20.94-43,23.46-65.78l-7.73-.69c5.18-.79,9.53-4.55,12.3-9s4.19-9.59,5.58-14.65l-9.43,1.4A35,35,0,0,0,708.83,267.6Z" transform="translate(-365.74 -128.06)"/></g><path class="cls-3" d="M668.32,390.72s-25.22-30.18-24.93-59h10.19s-11.07-7.27-10.19-11.35,1.16-19.5,1.16-19.5l9.32,2.33s-7-3.49-7.86-9,2-31.14,2-31.14S659.4,275,662.89,287.19s12.66,26.49,10,63.74S668.32,390.72,668.32,390.72Z" transform="translate(-365.74 -128.06)"/><path class="cls-3" d="M681.1,393.57s27.32-18.2,33.39-41.43l-8.19-2.23S716.79,346.48,717,343s3.32-15.94,3.32-15.94l-8-.16s6.38-1.28,8.29-5.54,5.17-25.48,5.17-25.48S714,303,708.56,312.07s-16,18.53-22,49.07S681.1,393.57,681.1,393.57Z" transform="translate(-365.74 -128.06)"/><path class="cls-1" d="M654.93,289.35a1.93,1.93,0,0,1,.1.32c.05.23.13.54.22.92l.8,3.58c.36,1.56.76,3.47,1.21,5.69s1,4.74,1.48,7.54c1.08,5.6,2.23,12.29,3.4,19.73s2.27,15.66,3.28,24.3,1.76,16.89,2.35,24.41,1,14.29,1.19,20c.14,2.85.21,5.43.28,7.69s.11,4.21.12,5.81,0,2.79,0,3.67c0,.39,0,.71,0,.95a1.19,1.19,0,0,1,0,.33,2.77,2.77,0,0,1,0-.33c0-.24,0-.56-.05-.95,0-.87-.07-2.1-.13-3.67s-.11-3.54-.21-5.8-.19-4.83-.35-7.68c-.27-5.69-.73-12.46-1.31-20s-1.4-15.76-2.38-24.39-2.13-16.84-3.24-24.28-2.25-14.14-3.29-19.74c-.49-2.81-1-5.33-1.41-7.56s-.79-4.13-1.11-5.69-.54-2.75-.71-3.6c-.07-.39-.13-.7-.17-.94S654.93,289.35,654.93,289.35Z" transform="translate(-365.74 -128.06)"/><path class="cls-3" d="M664.82,409.2s-23.08-26.18-30.24-42l5.4-2.31c-3.92.65-7.93-1-11-3.6s-5.28-5.92-7.47-9.24l7.13-1.2a26.5,26.5,0,0,1-15.57-12.06c8.41,1.38,16,6,22.29,11.77a111.48,111.48,0,0,1,13.5,15.65,53,53,0,0,1,5.24,8.62C658,382.84,664.83,399.59,664.82,409.2Z" transform="translate(-365.74 -128.06)"/><path class="cls-1" d="M714.85,311.14a.93.93,0,0,1-.1.27l-.35.76c-.34.7-.81,1.67-1.4,2.91-1.24,2.51-3,6.17-5.11,10.71-4.24,9.07-9.83,21.74-15.35,36s-9.89,27.4-12.86,37c-1.48,4.78-2.65,8.66-3.43,11.35-.39,1.32-.69,2.35-.92,3.1-.1.32-.18.59-.25.8a1.36,1.36,0,0,1-.1.27,1.2,1.2,0,0,1,0-.29l.2-.81.83-3.12c.72-2.71,1.83-6.61,3.27-11.41,2.88-9.6,7.21-22.77,12.73-37.05s11.17-26.92,15.5-36c2.16-4.52,4-8.16,5.25-10.64.64-1.22,1.14-2.18,1.49-2.87.17-.3.3-.54.4-.74A2.41,2.41,0,0,1,714.85,311.14Z" transform="translate(-365.74 -128.06)"/><path class="cls-1" d="M666.78,420.42a1.5,1.5,0,0,1-.12-.48c-.06-.37-.14-.83-.23-1.39-.18-1.2-.48-2.95-.91-5.09s-1-4.67-1.76-7.45-1.74-5.8-2.91-8.92-2.46-6-3.71-8.61-2.5-4.88-3.6-6.77-2-3.39-2.69-4.41l-.74-1.2c-.17-.28-.25-.43-.23-.44a2,2,0,0,1,.31.38l.83,1.14c.72,1,1.69,2.48,2.83,4.35s2.42,4.15,3.72,6.74,2.58,5.51,3.77,8.64,2.12,6.18,2.88,9,1.29,5.36,1.67,7.52.62,3.91.74,5.13l.13,1.4A2.27,2.27,0,0,1,666.78,420.42Z" transform="translate(-365.74 -128.06)"/><rect class="cls-5" x="280.98" y="286.21" width="50.51" height="10.3"/><polygon class="cls-5" points="285.79 296.51 291.25 331.16 321.77 331.16 326.86 296.51 285.79 296.51"/><path class="cls-1" d="M694.13,424.57c0,.14-9.56.26-21.34.26s-21.34-.12-21.34-.26,9.55-.26,21.34-.26S694.13,424.42,694.13,424.57Z" transform="translate(-365.74 -128.06)"/></g><g id="Character"><path class="cls-3" d="M603.76,341.64l1.42-72.26a33.26,33.26,0,0,0-33.2-33.9h0a33.25,33.25,0,0,0-33.3,33.08l-.38,73.08,65.46,2.79" transform="translate(-365.74 -128.06)"/><path class="cls-3" d="M603.76,354H501.94c0-6.8,4.59-11.94,11.4-11.94l90.42-.38Z" transform="translate(-365.74 -128.06)"/><rect class="cls-3" x="146.64" y="225.91" width="7.15" height="90.65"/><rect class="cls-3" x="222.79" y="225.91" width="7.15" height="90.65"/><path class="cls-1" d="M595.45,342c0-.13-18.94-.23-42.3-.23s-42.31.1-42.31.23,18.94.24,42.31.24S595.45,342.16,595.45,342Z" transform="translate(-365.74 -128.06)"/><path class="cls-1" d="M602,354c0-.13-22.26-.24-49.72-.24s-49.72.11-49.72.24,22.26.23,49.72.23S602,354.14,602,354Z" transform="translate(-365.74 -128.06)"/><path class="cls-6" d="M596.6,341.05" transform="translate(-365.74 -128.06)"/><path class="cls-1" d="M596.6,248.35c-.13,0-.23,20.62-.23,46.06s.1,46.06.23,46.06.24-20.62.24-46.06S596.73,248.35,596.6,248.35Z" transform="translate(-365.74 -128.06)"/><path class="cls-7" d="M535.57,301.08s-57.3-.24-61.84,0c-8.08.44-13.49,9.46-14.57,14.13S433,391.89,433,391.89l19.46,12.59,26.1-58.9,13.14-22.85,71.46,12.49Z" transform="translate(-365.74 -128.06)"/><path class="cls-7" d="M491.37,320.62s-10.58,0-16.29,8.46c-3.36,5-2.18,13.87-2.25,20.58-.09,9.13,2.29,80,2.29,80,6.74,4.8,14.27,5.35,22.5,2.13l5.82-78.44-1.5-11.7,39.08.86s7-13-2.72-23.36C537.06,317.81,491.37,320.62,491.37,320.62Z" transform="translate(-365.74 -128.06)"/><path class="cls-8" d="M486.43,321a1.06,1.06,0,0,0-.29,0l-.86.13a12.92,12.92,0,0,0-3.16,1.12,16.07,16.07,0,0,0-4.24,3.17A20.22,20.22,0,0,0,474,331.3a24,24,0,0,0-1.95,8.28,64.74,64.74,0,0,0,.27,9.75c.31,3.42.47,7,.6,10.74s.26,7.59.39,11.54c.47,15.82.91,30.13,1.22,40.53.17,5.16.3,9.34.4,12.28.05,1.42.1,2.54.13,3.33,0,.36,0,.65,0,.87a1.4,1.4,0,0,0,0,.3s0-.1,0-.3v-.87c0-.79,0-1.91,0-3.34-.06-2.93-.14-7.12-.25-12.28-.23-10.38-.59-24.71-1.08-40.53-.13-4-.27-7.82-.39-11.55s-.32-7.34-.64-10.75a65.8,65.8,0,0,1-.31-9.7,23.79,23.79,0,0,1,1.87-8.16,20.21,20.21,0,0,1,3.77-5.8,16.59,16.59,0,0,1,4.14-3.19A15,15,0,0,1,486.43,321Z" transform="translate(-365.74 -128.06)"/><path class="cls-9" d="M475.13,428.92l0,1.44s-24.53,9.57-24.83,14.2l48.5.23-.58-16.14C491,432,483.42,432.29,475.13,428.92Z" transform="translate(-365.74 -128.06)"/><path class="cls-10" d="M498.78,444.79l-.14-3.88-46.44,1.2s-2.16.93-1.92,2.45Z" transform="translate(-365.74 -128.06)"/><path class="cls-9" d="M434,388.89l-.55,1.34s-26.33-.15-28.32,4l45,18.1,5.41-15.22C447.6,397.56,440.45,395.09,434,388.89Z" transform="translate(-365.74 -128.06)"/><path class="cls-10" d="M450.12,412.37l1.3-3.66-43.61-16s-2.35.07-2.69,1.57Z" transform="translate(-365.74 -128.06)"/><path class="cls-1" d="M431.61,395.75c.06,0,.29-.26.48-.81a4.76,4.76,0,0,0,.17-2.27,4.84,4.84,0,0,0-.9-2.09c-.36-.47-.68-.66-.72-.62a11.77,11.77,0,0,1,1.1,2.79A11.2,11.2,0,0,1,431.61,395.75Z" transform="translate(-365.74 -128.06)"/><path class="cls-1" d="M434.18,396.19a4.1,4.1,0,0,0,.43-3.11,4.15,4.15,0,0,0-1.43-2.8,25.68,25.68,0,0,1,.92,2.88A26.43,26.43,0,0,1,434.18,396.19Z" transform="translate(-365.74 -128.06)"/><path class="cls-1" d="M427.7,395.43a3.29,3.29,0,0,0,1.14-2.38,3.19,3.19,0,0,0-.52-2.58c-.14,0,.19,1.15,0,2.52S427.57,395.34,427.7,395.43Z" transform="translate(-365.74 -128.06)"/><path class="cls-1" d="M430.38,390.35s.67-.28,1.34-1.21a8.79,8.79,0,0,0,.94-1.72c.15-.33.29-.69.43-1.06a3.35,3.35,0,0,0,.2-.63.91.91,0,0,0-.23-.79.72.72,0,0,0-.87-.11,1.55,1.55,0,0,0-.53.48,5.33,5.33,0,0,0-.61,1,5.79,5.79,0,0,0-.54,1.91,3,3,0,0,0,.19,1.79c.08,0,0-.69.17-1.74a6.55,6.55,0,0,1,.61-1.75,5.57,5.57,0,0,1,.58-.91c.21-.29.54-.46.63-.32s.07.51-.08.88l-.39,1.06a11.32,11.32,0,0,1-.81,1.7C430.86,389.86,430.33,390.28,430.38,390.35Z" transform="translate(-365.74 -128.06)"/><path class="cls-1" d="M430.12,390.09s0,.11.18.26l.1.12,0-.18a5.93,5.93,0,0,0-.12-2,7.54,7.54,0,0,0-.51-1.52c-.13-.27-.27-.53-.43-.8a1.86,1.86,0,0,0-.35-.42.82.82,0,0,0-.66-.16.7.7,0,0,0-.5.69,2.2,2.2,0,0,0,.09.62,7.17,7.17,0,0,0,.36,1,6.14,6.14,0,0,0,1,1.57c.7.8,1.29,1.09,1.32,1s-.45-.46-1-1.27a7.25,7.25,0,0,1-.84-1.53,6.87,6.87,0,0,1-.3-1c-.11-.36-.09-.71,0-.69.28-.1.64.65.87,1.08a7.69,7.69,0,0,1,.55,1.41,11.62,11.62,0,0,1,.37,1.94l.13-.06C430.23,390.11,430.14,390.07,430.12,390.09Z" transform="translate(-365.74 -128.06)"/><path class="cls-1" d="M475.54,435.89c.07,0,.11-.37,0-.95a4.85,4.85,0,0,0-1-2,4.76,4.76,0,0,0-1.86-1.31c-.55-.21-.92-.21-.93-.15a12.14,12.14,0,0,1,2.4,1.8A11.68,11.68,0,0,1,475.54,435.89Z" transform="translate(-365.74 -128.06)"/><path class="cls-1" d="M478,434.91A4.11,4.11,0,0,0,476.7,432,4.2,4.2,0,0,0,474,430.4a28.53,28.53,0,0,1,2.3,2A23.73,23.73,0,0,1,478,434.91Z" transform="translate(-365.74 -128.06)"/><path class="cls-1" d="M472,437.65a3.24,3.24,0,0,0-.27-2.61c-.63-1.4-1.73-2.06-1.79-1.94s.76.89,1.31,2.15S471.88,437.65,472,437.65Z" transform="translate(-365.74 -128.06)"/><path class="cls-1" d="M471.67,431.93a3,3,0,0,0,.51-1.73,9.74,9.74,0,0,0-.1-2c-.05-.37-.12-.74-.19-1.13a4,4,0,0,0-.16-.64,1,1,0,0,0-.61-.56.73.73,0,0,0-.8.37,1.51,1.51,0,0,0-.2.68,5.81,5.81,0,0,0,0,1.18,6.27,6.27,0,0,0,.54,1.91c.51,1,1.07,1.47,1.11,1.43s-.38-.58-.77-1.57a6.45,6.45,0,0,1-.4-1.81,6.67,6.67,0,0,1,0-1.09c0-.36.22-.67.37-.59s.33.39.4.79.14.74.22,1.1a13,13,0,0,1,.2,1.88C471.82,431.26,471.59,431.9,471.67,431.93Z" transform="translate(-365.74 -128.06)"/><path class="cls-1" d="M471.31,431.84s.09.07.28.13l.16,0-.07-.16a6.06,6.06,0,0,0-1.17-1.67,7.61,7.61,0,0,0-1.23-1,6.8,6.8,0,0,0-.79-.46,1.45,1.45,0,0,0-.52-.17.76.76,0,0,0-.64.2.7.7,0,0,0-.07.85,2.27,2.27,0,0,0,.41.48,6.15,6.15,0,0,0,.85.71,6.36,6.36,0,0,0,1.66.82,3.21,3.21,0,0,0,1.68.2c0-.09-.63-.16-1.55-.55a7,7,0,0,1-1.51-.86,6.82,6.82,0,0,1-.77-.68c-.28-.24-.44-.55-.33-.6.19-.23.88.23,1.31.47a8.7,8.7,0,0,1,1.21.92,12.72,12.72,0,0,1,1.32,1.45l.08-.12C471.42,431.8,471.32,431.82,471.31,431.84Z" transform="translate(-365.74 -128.06)"/><path class="cls-7" d="M470.63,267.06l-8.75,1.41-5.69,7.88,1.65,6,1.05.34-.22,2.25a2.5,2.5,0,0,0,1.31,2.43h0l4.53-7.86-1.87,8a3.92,3.92,0,0,0,3.05-.52c1.93-1,4-9.86,4-9.86l3-1.88-3,9.87a3.31,3.31,0,0,0,2.57.93c1.68-.09,5.08-9.05,5.08-9.05L523,283.33l.09-5.89-11-18.31Z" transform="translate(-365.74 -128.06)"/><path class="cls-9" d="M569.49,193.52a15.69,15.69,0,0,0,9.63-11.42c.42-2.16.39-4.41,1-6.51.94-3,3.27-5.61,3.38-8.76.08-2.1-.85-4.1-1-6.19s.35-4,.39-6a13.11,13.11,0,0,0-8-12.11l-12.6-5.11-19.42,7.92S531.79,156,535,178.08Z" transform="translate(-365.74 -128.06)"/><path class="cls-3" d="M537.09,180a3.76,3.76,0,0,0-1.4-1.11h.12l-.31-.08a1.51,1.51,0,0,0-1.18,0h0a2.76,2.76,0,0,0-1.62,1.17,3.26,3.26,0,0,0,.08,3.38,2.49,2.49,0,0,0,4.63-.45A3.1,3.1,0,0,0,537.09,180Z" transform="translate(-365.74 -128.06)"/><path class="cls-7" d="M537.32,159.83c1.28-7,7-15.19,14-13.61l21.41,8.2a4.2,4.2,0,0,1,3.23,4.66l-6.35,47.21a13.07,13.07,0,0,1-12.07,11.29h0a13.06,13.06,0,0,1-13.91-14c.25-3.26.42-5.71.42-5.7s-8.89-2.57-9.37-14.62C534.45,177.26,535.89,167.65,537.32,159.83Z" transform="translate(-365.74 -128.06)"/><path class="cls-1" d="M539.55,170.23a1.54,1.54,0,0,0,1.28,1.71,1.47,1.47,0,0,0,1.73-1.19,1.53,1.53,0,0,0-1.28-1.7A1.47,1.47,0,0,0,539.55,170.23Z" transform="translate(-365.74 -128.06)"/><path class="cls-1" d="M538.81,165.09c.17.22,1.42-.49,3.05-.29s2.73,1.15,2.93,1,0-.45-.53-.9a4.21,4.21,0,0,0-2.31-1,4,4,0,0,0-2.46.48C538.94,164.66,538.73,165,538.81,165.09Z" transform="translate(-365.74 -128.06)"/><path class="cls-1" d="M554,171.7a1.51,1.51,0,0,0,1.28,1.7,1.45,1.45,0,0,0,1.72-1.18,1.51,1.51,0,0,0-1.28-1.7A1.45,1.45,0,0,0,554,171.7Z" transform="translate(-365.74 -128.06)"/><path class="cls-1" d="M554.82,167.3c.17.22,1.42-.5,3-.3s2.73,1.16,2.93,1,0-.46-.53-.9a4.21,4.21,0,0,0-2.32-1,4,4,0,0,0-2.45.49C555,166.86,554.74,167.2,554.82,167.3Z" transform="translate(-365.74 -128.06)"/><path class="cls-1" d="M547.46,178.7a10.65,10.65,0,0,0-2.59-.79c-.41-.09-.8-.22-.83-.51a2.07,2.07,0,0,1,.42-1.21l1.61-3c2.25-4.31,3.93-7.88,3.75-8s-2.14,3.34-4.38,7.65l-1.56,3.06a2.38,2.38,0,0,0-.41,1.61,1.06,1.06,0,0,0,.61.69,3.14,3.14,0,0,0,.7.18A10.43,10.43,0,0,0,547.46,178.7Z" transform="translate(-365.74 -128.06)"/><path class="cls-8" d="M544.05,197.88a30.24,30.24,0,0,0,16.34-2.35s-4.81,7.67-16.51,5.17Z" transform="translate(-365.74 -128.06)"/><path class="cls-8" d="M547.25,182.61a4,4,0,0,1,3.51-1.36,2.62,2.62,0,0,1,2,1.42,2.55,2.55,0,0,1-.35,2.64,2.51,2.51,0,0,1-2.76.63,6,6,0,0,1-2.23-1.77,1.7,1.7,0,0,1-.44-.67.82.82,0,0,1,.16-.82" transform="translate(-365.74 -128.06)"/><path class="cls-1" d="M552.13,180.4c-.26-.05-.47,1.72-2.14,2.8s-3.53.66-3.57.91.38.39,1.17.51a4.43,4.43,0,0,0,3-.66,3.87,3.87,0,0,0,1.69-2.36C552.4,180.87,552.26,180.4,552.13,180.4Z" transform="translate(-365.74 -128.06)"/><path class="cls-1" d="M554.9,160.49c.11.47,1.76.45,3.65.91s3.37,1.16,3.67.79c.14-.18-.08-.62-.65-1.13a6.55,6.55,0,0,0-5.59-1.29C555.25,160,554.85,160.27,554.9,160.49Z" transform="translate(-365.74 -128.06)"/><path class="cls-1" d="M540.05,159.54c.25.41,1.42.16,2.77.3s2.47.54,2.78.19c.14-.18,0-.57-.46-1a3.81,3.81,0,0,0-2.17-.87,3.9,3.9,0,0,0-2.3.48C540.15,159,540,159.35,540.05,159.54Z" transform="translate(-365.74 -128.06)"/><path class="cls-1" d="M560.47,149a42.39,42.39,0,0,1,15.69,4,7.72,7.72,0,0,1,3.72,3,7.6,7.6,0,0,1,.52,4.18c-.38,4.44-2.57,9.75-4.56,13.74l-2.33,3.4c-3-1-5.17-9.05-4.69-12.74a8.76,8.76,0,0,1-4.53-8.09A9.69,9.69,0,0,1,560.47,149Z" transform="translate(-365.74 -128.06)"/><path class="cls-7" d="M570.23,175.22c.36-2.53,3.52-2.8,5.61-1.32,1.14.8,1.94,2.29,1.59,5-.94,7.17-7.95,4.74-7.93,4.54S569.82,178.18,570.23,175.22Z" transform="translate(-365.74 -128.06)"/><path class="cls-8" d="M572.05,181s.11.1.31.23a1.27,1.27,0,0,0,.93.14,3.12,3.12,0,0,0,1.79-2.59,4.11,4.11,0,0,0-.11-1.83,1.45,1.45,0,0,0-.82-1.08.64.64,0,0,0-.78.24c-.12.19-.09.34-.13.35s-.14-.14,0-.43a.72.72,0,0,1,.34-.41.9.9,0,0,1,.71-.09,1.76,1.76,0,0,1,1.16,1.28,4.21,4.21,0,0,1,.17,2c-.24,1.44-1.15,2.7-2.23,2.86a1.34,1.34,0,0,1-1.12-.34C572,181.16,572,181,572.05,181Z" transform="translate(-365.74 -128.06)"/><path class="cls-3" d="M576,182.89a3.68,3.68,0,0,0-1.39-1.1h.11a1.57,1.57,0,0,0-.31-.08,1.44,1.44,0,0,0-1.17,0h0a2.72,2.72,0,0,0-1.61,1.17,3.22,3.22,0,0,0,.08,3.37,2.48,2.48,0,0,0,4.62-.44A3.06,3.06,0,0,0,576,182.89Z" transform="translate(-365.74 -128.06)"/><path class="cls-9" d="M581.44,150.29c-1.49-3.38-5-5.49-8.66-6.22a19.36,19.36,0,0,0-3.22-.36,11.68,11.68,0,0,0,.45-4.36,12.58,12.58,0,0,0-7-10,15.63,15.63,0,0,0-11.85-.31,15.27,15.27,0,0,0-8.84,7.31c-1.81,3.63-1.67,8.55.94,11.55,3,2.77,6.52,3.95,10.41,4.76a14.51,14.51,0,0,0,10.07-1.45c9,7.43,11.33,19.72,12.83,30.84,3.93-6.92,4.79-15.11,5.56-23C582.37,156.1,582.63,153,581.44,150.29Z" transform="translate(-365.74 -128.06)"/><path class="cls-1" d="M570.74,151.11c.11-.1-.39-.81-1.12-1.58s-1.39-1.33-1.5-1.23.4.8,1.12,1.58S570.64,151.21,570.74,151.11Z" transform="translate(-365.74 -128.06)"/><path class="cls-1" d="M549.82,147.45c.07-.06-.7-.78-1.6-2.19a13.37,13.37,0,0,1-2.09-6.07,13.51,13.51,0,0,1,1-6.34c.66-1.53,1.3-2.37,1.22-2.42s-.21.16-.5.54a11.37,11.37,0,0,0-1.06,1.73,12.48,12.48,0,0,0,1.07,12.77,10.33,10.33,0,0,0,1.33,1.53C549.59,147.32,549.8,147.48,549.82,147.45Z" transform="translate(-365.74 -128.06)"/><path class="cls-1" d="M554.36,141.24a7.25,7.25,0,0,0-1.21-1.38,27.88,27.88,0,0,1-2.83-3.31,11.77,11.77,0,0,1-1.8-3.89c-.25-1.08-.23-1.78-.32-1.78a3.71,3.71,0,0,0,0,1.85,10.1,10.1,0,0,0,1.73,4.11,19.3,19.3,0,0,0,3,3.29A6.18,6.18,0,0,0,554.36,141.24Z" transform="translate(-365.74 -128.06)"/><g class="cls-4"><path d="M570.06,140.2a13.27,13.27,0,0,1-6.31,11.09l.13.2a7.28,7.28,0,0,0,6.18-11.29Z" transform="translate(-365.74 -128.06)"/></g><path class="cls-11" d="M578.7,156a12,12,0,0,0-2.41,1.18,11.84,11.84,0,0,0-2.38,1.26,5.19,5.19,0,0,0,2.61-.79A5.12,5.12,0,0,0,578.7,156Z" transform="translate(-365.74 -128.06)"/><path class="cls-11" d="M583.13,163.41a20.44,20.44,0,0,0-3.22.31,20.77,20.77,0,0,0-3.22.28,10.18,10.18,0,0,0,6.44-.59Z" transform="translate(-365.74 -128.06)"/><path class="cls-11" d="M574.2,142.33c-.15,0,.38,2,.57,4.43s0,4.44.17,4.46a14.12,14.12,0,0,0-.74-8.89Z" transform="translate(-365.74 -128.06)"/><path class="cls-11" d="M571.53,155c0-.15-.93-.09-2-.12s-2-.12-2,0,.85.47,2,.5A3.2,3.2,0,0,0,571.53,155Z" transform="translate(-365.74 -128.06)"/><path class="cls-11" d="M578.28,168.74c-.1-.1-1.08.79-2,2.13a6.21,6.21,0,0,0-1.25,2.63,13.22,13.22,0,0,0,1.68-2.34A12.76,12.76,0,0,0,578.28,168.74Z" transform="translate(-365.74 -128.06)"/><path class="cls-11" d="M559.83,148.34a18.12,18.12,0,0,0-1-2.86l-2.55-6.8c-.93-2.59-1.77-4.94-2.46-6.84a19.37,19.37,0,0,0-1.1-2.81,15.81,15.81,0,0,0,.75,2.93c.54,1.78,1.35,4.23,2.32,6.9s1.95,5,2.69,6.76A17.88,17.88,0,0,0,559.83,148.34Z" transform="translate(-365.74 -128.06)"/><path class="cls-11" d="M566.08,134.5a7.2,7.2,0,0,0-1.75-1.24,34.08,34.08,0,0,0-4.62-2.3,33.56,33.56,0,0,0-4.91-1.61,8,8,0,0,0-2.12-.36c0,.16,3.14.92,6.83,2.45S566,134.64,566.08,134.5Z" transform="translate(-365.74 -128.06)"/><path class="cls-11" d="M545.52,138.76a7.51,7.51,0,0,0-2.38,3.49,7.43,7.43,0,0,0-.61,4.18c.16,0,.25-1.87,1.09-4S545.64,138.86,545.52,138.76Z" transform="translate(-365.74 -128.06)"/><path class="cls-11" d="M559.12,152.74a15.36,15.36,0,0,1-2.87-.77,14.8,14.8,0,0,1-2.43-1.72,4.63,4.63,0,0,0,5.3,2.49Z" transform="translate(-365.74 -128.06)"/><path class="cls-11" d="M569.13,145.3a4.21,4.21,0,0,0-.79-2.74c-.82-1.4-2-2.14-2-2s.81,1,1.57,2.28S569,145.33,569.13,145.3Z" transform="translate(-365.74 -128.06)"/><path class="cls-11" d="M537.19,160.4c.09-.12-.24-.49-.54-1s-.52-.93-.66-.9-.16.6.22,1.18S537.11,160.52,537.19,160.4Z" transform="translate(-365.74 -128.06)"/><path class="cls-1" d="M567.13,149.13c-.07.07,1.08,1.33,2.73,3.53a55.61,55.61,0,0,1,5.52,9.15A54.51,54.51,0,0,1,579,171.89c.66,2.66.92,4.35,1,4.33a5.86,5.86,0,0,0-.09-1.19c-.09-.77-.27-1.88-.56-3.23a48.17,48.17,0,0,0-3.5-10.21,47.31,47.31,0,0,0-5.7-9.16c-.87-1.08-1.6-1.92-2.15-2.47A5,5,0,0,0,567.13,149.13Z" transform="translate(-365.74 -128.06)"/><path class="cls-1" d="M582.47,161.33a13.39,13.39,0,0,0-1.43-2.67,38.41,38.41,0,0,0-10-10.63,12.36,12.36,0,0,0-2.57-1.59c0,.06.9.73,2.35,1.89a51.19,51.19,0,0,1,5.33,4.9,52,52,0,0,1,4.54,5.63A29.7,29.7,0,0,0,582.47,161.33Z" transform="translate(-365.74 -128.06)"/><path class="cls-1" d="M564.24,130.42s.31.49.77,1.42a12.14,12.14,0,0,1,1.14,4.18,12.55,12.55,0,0,1-1.06,6.28,13,13,0,0,1-5.24,5.71,14.53,14.53,0,0,1-7.51,2.06,15.18,15.18,0,0,1-6.28-1.27,10.28,10.28,0,0,1-3.5-2.54c-.68-.78-.93-1.3-1-1.27a1.63,1.63,0,0,0,.18.38,6.37,6.37,0,0,0,.66,1,9.77,9.77,0,0,0,3.49,2.75,15.13,15.13,0,0,0,6.44,1.41,14.87,14.87,0,0,0,7.78-2.09,13.3,13.3,0,0,0,5.41-6,12.72,12.72,0,0,0,1-6.51,11.61,11.61,0,0,0-1.33-4.24,8.58,8.58,0,0,0-.67-1C564.35,130.52,564.26,130.41,564.24,130.42Z" transform="translate(-365.74 -128.06)"/><path class="cls-1" d="M569.62,137.77c-.09,0,.09,1.08.06,2.8a14.09,14.09,0,0,1-1.57,6.41,10.23,10.23,0,0,1-4.76,4.44,17.25,17.25,0,0,1-2.66.79,2,2,0,0,0,.77,0,7.35,7.35,0,0,0,2-.48,10,10,0,0,0,5.08-4.53,13.24,13.24,0,0,0,1.48-6.67,15.42,15.42,0,0,0-.22-2.06A2.18,2.18,0,0,0,569.62,137.77Z" transform="translate(-365.74 -128.06)"/><g class="cls-4"><path d="M574.86,160.16a76.79,76.79,0,0,1,4.1,11.57,7.09,7.09,0,0,1,.38,4c-.07.26-.28.56-.54.47s-.22-.25-.27-.42a171.55,171.55,0,0,0-6.21-19.56Z" transform="translate(-365.74 -128.06)"/></g><g class="cls-4"><path d="M547.28,131.81c-2,5.29-1.76,11.11,2.27,15.51a5.42,5.42,0,0,1-3.92-3.48A12.73,12.73,0,0,1,547.28,131.81Z" transform="translate(-365.74 -128.06)"/></g><path class="cls-12" d="M472.15,300.86q27.77-.67,53.57.12l-.19-.12-6-56.19,22.7-38.08,1.36-1.28c4.73,2.25,9.12,3.29,14.29,2.41l13.19-2.26h0c5.95,5.22,16.91,16.4,16.91,16.8s-14.66,71.65-14.66,71.65l-8.72,8.56,24.68,17.36s-.5,17.13-12.08,21.81-63.07,1.13-69.07.38c0,0-22.49-8.74-25.61-11.41S471.26,306.69,472.15,300.86Z" transform="translate(-365.74 -128.06)"/><path class="cls-3" d="M533.78,308.79a2,2,0,0,0-.54,0l-1.52.24c-1.31.21-3.21.56-5.55,1-4.67.94-11.09,2.43-18.14,4.21L490,319l-5.46,1.43-1.48.4a1.81,1.81,0,0,0-.51.18l.53-.08,1.5-.32c1.3-.28,3.18-.72,5.5-1.28,4.63-1.12,11-2.75,18.06-4.54s13.45-3.32,18.1-4.34c2.33-.52,4.21-.92,5.52-1.19l1.5-.33A3.57,3.57,0,0,0,533.78,308.79Z" transform="translate(-365.74 -128.06)"/><path class="cls-3" d="M538.77,300.55a19.92,19.92,0,0,0-4.33.07,19.66,19.66,0,0,0-4.29.55,20.34,20.34,0,0,0,4.33-.08A20.06,20.06,0,0,0,538.77,300.55Z" transform="translate(-365.74 -128.06)"/><path class="cls-3" d="M539,290.31c-.12-.09-1.55,1.82-3.7,3.8s-4.14,3.28-4.06,3.4a19.22,19.22,0,0,0,7.76-7.2Z" transform="translate(-365.74 -128.06)"/><path class="cls-3" d="M540.27,260.81c.05-.06-.74-.79-1.8-2.13A21,21,0,0,1,534,246.35c-.05-1.71.09-2.77,0-2.78a2.56,2.56,0,0,0-.17.74,12.57,12.57,0,0,0-.16,2.05,19.06,19.06,0,0,0,4.56,12.53,13.21,13.21,0,0,0,1.45,1.46C540,260.67,540.24,260.83,540.27,260.81Z" transform="translate(-365.74 -128.06)"/><path class="cls-9" d="M533.89,207.74h0c-6.42,4-12.76,14.2-14.35,25.07L516,249.65s-2.69-1.45-4.36.6a6.62,6.62,0,0,0-1.42,5.08l-7.38,5.16,11.81,8.6L522.7,279s-6.93,20.36-8.07,22.36-3.43,5.46-3.43,5.46l10.58-2s7.14-5.14,6.86-13.72-1.13-41.44,0-45.73,15-40.05,15-40.05Z" transform="translate(-365.74 -128.06)"/><path class="cls-1" d="M521.47,278.85a2,2,0,0,0,.08-.49c0-.38.06-.86.11-1.43.06-1.25.09-3.05,0-5.28-.12-4.45-.61-10.58-.92-17.36a157.57,157.57,0,0,1,.08-17.35c.18-2.21.32-4,.48-5.24,0-.57.1-1,.14-1.42a2,2,0,0,0,0-.51,3,3,0,0,0-.11.49c-.06.38-.13.85-.23,1.42-.21,1.23-.4,3-.62,5.24a136.62,136.62,0,0,0-.23,17.39c.32,6.79.86,12.91,1.07,17.35.11,2.22.13,4,.13,5.26,0,.58,0,1.05,0,1.43A2.73,2.73,0,0,0,521.47,278.85Z" transform="translate(-365.74 -128.06)"/><path class="cls-9" d="M544.37,270.3l5-19.09,21.73-45.75,18.52,8.95a8.83,8.83,0,0,1,1.42.68h0a13.46,13.46,0,0,1,4.43,4.74,22.19,22.19,0,0,1,2.72,14.86L591.06,280a120,120,0,0,1-7,15l10.79,32.57s-27.58,13.79-36.48,13.74c-7.53,0-14.11-.08-15.36-14.76S544.37,270.3,544.37,270.3Z" transform="translate(-365.74 -128.06)"/><path class="cls-1" d="M567.37,278.85c.06,0-.27-.9-.7-2.37a23.07,23.07,0,0,0-.91-2.54,7,7,0,0,0-2-2.74,5.55,5.55,0,0,0-3.18-1.14,6.15,6.15,0,0,0-2.7.5,5.16,5.16,0,0,0-1.54,1c-.31.31-.44.51-.42.53a9.65,9.65,0,0,1,2.09-1.23,6.08,6.08,0,0,1,2.55-.37,5.14,5.14,0,0,1,2.9,1.08,6.73,6.73,0,0,1,1.85,2.54c.43.9.72,1.76,1,2.47A8.74,8.74,0,0,0,567.37,278.85Z" transform="translate(-365.74 -128.06)"/><path class="cls-1" d="M573.35,261.14s-.22-.13-.64-.25a6.82,6.82,0,0,0-1.87-.21,7.73,7.73,0,0,0-7.67,8.17,6.62,6.62,0,0,0,.33,1.85,1.76,1.76,0,0,0,.28.62,18,18,0,0,1-.28-2.47,7.74,7.74,0,0,1,7.36-7.84A18.58,18.58,0,0,1,573.35,261.14Z" transform="translate(-365.74 -128.06)"/><path class="cls-1" d="M573.35,225.12a8,8,0,0,0-.42,1.36c-.25.89-.58,2.18-.95,3.78a128.41,128.41,0,0,0-2.22,12.67,126.65,126.65,0,0,0-1,12.82c0,1.64,0,3,0,3.89a7.39,7.39,0,0,0,.08,1.43,8.17,8.17,0,0,0,.1-1.42c0-1,.1-2.31.17-3.89.16-3.28.49-7.81,1.11-12.78s1.43-9.43,2.08-12.65c.32-1.54.59-2.82.79-3.8A6.62,6.62,0,0,0,573.35,225.12Z" transform="translate(-365.74 -128.06)"/><path class="cls-1" d="M589.5,216a6,6,0,0,0-2.09-.23,15,15,0,0,0-5,.92,14.77,14.77,0,0,0-4.41,2.54,6.13,6.13,0,0,0-1.45,1.53,18.55,18.55,0,0,1,13-4.76Z" transform="translate(-365.74 -128.06)"/><path class="cls-1" d="M583.25,296.33a2.33,2.33,0,0,0-.37.47l-1,1.37a15.73,15.73,0,0,1-4.7,3.89,16.29,16.29,0,0,1-8.82,1.62,21.66,21.66,0,0,1-10.31-3.89,23.85,23.85,0,0,1-2.16-1.7l.07.18c0-7.33.06-13.84.08-18.6,0-2.31,0-4.19,0-5.55q0-.92,0-1.5a1.93,1.93,0,0,0,0-.52,3.08,3.08,0,0,0-.05.52c0,.39,0,.89,0,1.5,0,1.36-.07,3.24-.12,5.54-.06,4.76-.14,11.28-.23,18.6v.12l.08.06a23.59,23.59,0,0,0,2.21,1.74,21.87,21.87,0,0,0,10.54,3.93,16.36,16.36,0,0,0,9-1.76,15.18,15.18,0,0,0,4.69-4.07c.41-.61.7-1.11.9-1.43A3.31,3.31,0,0,0,583.25,296.33Z" transform="translate(-365.74 -128.06)"/><g class="cls-4"><path d="M543.13,295.08c3.26,1.38,7.38,2.66,8.07,6.14a25.11,25.11,0,0,0,.47,3.48c.92,2.65,4.26,3.41,7.06,3.67,4.72.43,9.6.62,14.11-.86s8.63-4.93,9.71-9.55c-4.11,2.54-6,5.44-10.81,6.23-2.67.45-7.66-1.29-10.23-2.13s-5.75-4.32-5.75-4.32c-.23-.9,0-3.86.21-3,.07.3-4.36-2.52-6.57-3.36-2.63-1-6.27-2.74-6.27-2.74" transform="translate(-365.74 -128.06)"/></g><g class="cls-4"><path d="M564.63,272.2c.72,3.22,2.77,8.27,3.84,11.39a4.77,4.77,0,0,0,.76,1.55,1.71,1.71,0,0,0,1.52.69,1.76,1.76,0,0,0,1.28-2,5.11,5.11,0,0,0-1.06-2.32l-6.34-9.35" transform="translate(-365.74 -128.06)"/></g><path class="cls-1" d="M581.63,312.17a8.88,8.88,0,0,0-.85-1.57c-.58-1-1.43-2.37-2.46-4l-.08-.13-.16.05c-2.1.77-4.64,1.65-7.4,2.49-3.77,1.17-7.24,2-9.76,2.66l-3,.71a5.28,5.28,0,0,0-1.09.31,5.65,5.65,0,0,0,1.12-.13c.72-.11,1.75-.3,3-.56,2.54-.53,6-1.36,9.82-2.53,2.77-.85,5.31-1.76,7.4-2.58l-.24-.07c1.07,1.64,2,3,2.6,3.94A12,12,0,0,0,581.63,312.17Z" transform="translate(-365.74 -128.06)"/><path class="cls-1" d="M558.72,320.72a34.46,34.46,0,0,0-1.41-3.78,35.19,35.19,0,0,0-1.41-3.78,17.16,17.16,0,0,0,2.82,7.56Z" transform="translate(-365.74 -128.06)"/><path class="cls-1" d="M581.59,312.81c-.05-.07-1.2.63-3.14,1.61a53.92,53.92,0,0,1-7.84,3.21,57.8,57.8,0,0,1-8.26,1.94c-2.14.34-3.49.47-3.48.54a3,3,0,0,0,1,0c.61,0,1.49-.09,2.58-.22a46.83,46.83,0,0,0,8.35-1.82,43.29,43.29,0,0,0,7.86-3.36c1-.53,1.71-1,2.22-1.34A4.06,4.06,0,0,0,581.59,312.81Z" transform="translate(-365.74 -128.06)"/><g class="cls-4"><path d="M560.42,320.06a1.21,1.21,0,0,0,.57,1.56,3.25,3.25,0,0,0,1.8.29,32.16,32.16,0,0,0,18.46-6.73c.54-.42,1.09-1.19.63-1.69s-1.08-.14-1.57.15a51.3,51.3,0,0,1-20.48,6.71" transform="translate(-365.74 -128.06)"/></g><path class="cls-7" d="M555.76,272.85,514.59,264l-8.6-2.13-6.79,4.09a3.74,3.74,0,0,0-1.77,2.7l-.59,4.39.83.72-1.08,2a2.47,2.47,0,0,0,.25,2.74h0l6.94-5.21-4.53,6.36a4,4,0,0,0,3,.72c2.15-.15,7.52-7.52,7.52-7.52l3.52-.55-7.41,8s-.33.67,1.24,1.24,9.8-5.76,9.8-5.76l38.64,18.88" transform="translate(-365.74 -128.06)"/><path class="cls-8" d="M555.57,294.58a1.06,1.06,0,0,0-.17-.1l-.52-.27-2-1L545,289.29l-28-13.77a.18.18,0,0,0-.21,0c-1.67,1.26-3.44,2.54-5.32,3.75a24.1,24.1,0,0,1-2.94,1.65c-.5.2-1.08.47-1.49.26a2.76,2.76,0,0,1-.7-.39c-.21-.15-.31-.4-.27-.49l0,.05,7.41-8a.24.24,0,0,0,0-.33.21.21,0,0,0-.2-.05l-3.51.54a.25.25,0,0,0-.16.1,54.42,54.42,0,0,1-4.36,5.23,9.6,9.6,0,0,1-2.66,2.1,4.11,4.11,0,0,1-3.16-.57l0,.31c.42-.6.88-1.24,1.34-1.88l3.19-4.49a.24.24,0,0,0-.34-.32L498,277.27l-.69.52-.35.26-.17.13-.08.07h0l.32,0h0l0,0a2.29,2.29,0,0,1-.45-1.45,3,3,0,0,1,.54-1.49l.8-1.48a.24.24,0,0,0-.05-.29l-.83-.71.08.2c.18-1.35.36-2.7.54-4a3.6,3.6,0,0,1,1.93-3l6.56-4-.17,0,5.38,1.32c1.76.43,3.47.87,5.17,1.21l9.62,2.06L541.86,270l10.24,2.15,2.72.56.7.13a.72.72,0,0,0,.24,0,1.6,1.6,0,0,0-.24-.06l-.69-.17-2.7-.62-10.22-2.27-15.73-3.46-9.61-2.1c-1.69-.35-3.41-.79-5.16-1.22L506,261.61a.2.2,0,0,0-.17,0l-6.56,3.95a4.06,4.06,0,0,0-2.15,3.37c-.18,1.32-.36,2.67-.55,4a.24.24,0,0,0,.08.21l.83.71-.06-.28-.8,1.48a3.64,3.64,0,0,0-.6,1.69,2.76,2.76,0,0,0,.55,1.75l0,.05h0l.32,0h0l0,0,.08-.06.18-.13.34-.26.69-.52,5.62-4.22-.34-.33-3.19,4.48c-.46.65-.91,1.29-1.34,1.88v0a.22.22,0,0,0,0,.29,3.52,3.52,0,0,0,1.76.73,7.28,7.28,0,0,0,.93.07l.46,0a3.11,3.11,0,0,0,.49-.11,9.64,9.64,0,0,0,2.84-2.21,54,54,0,0,0,4.41-5.29l-.15.09,3.52-.55-.21-.38-7.4,8v0l0,0a.9.9,0,0,0,.37,1,3.24,3.24,0,0,0,.83.46,1.09,1.09,0,0,0,.5.1,1.47,1.47,0,0,0,.48-.07,6.11,6.11,0,0,0,.85-.3,25.43,25.43,0,0,0,3-1.69c1.89-1.23,3.66-2.51,5.34-3.79l-.22,0L544.9,289.5l7.87,3.78,2.08,1,.54.24Z" transform="translate(-365.74 -128.06)"/><path class="cls-8" d="M499.25,279.6a15.08,15.08,0,0,0,1.66-2.09c1-1.33,2.32-3.19,3.76-5.26a4.59,4.59,0,0,1,2.49-2.18c1-.28,2-.45,2.8-.65a15.61,15.61,0,0,0,2.58-.68,13.54,13.54,0,0,0-2.65.36c-.82.15-1.77.27-2.86.56a4.91,4.91,0,0,0-2.77,2.35c-1.44,2.06-2.72,3.93-3.62,5.31A13.82,13.82,0,0,0,499.25,279.6Z" transform="translate(-365.74 -128.06)"/><path class="cls-8" d="M497.86,273.83a16.9,16.9,0,0,0,1.6-1.8,54.73,54.73,0,0,1,4-4.17l1.23-1.11.58-.52.29-.25s.1-.11.12-.11h.09c.92-.11,1.84-.09,2.57-.11a13.63,13.63,0,0,0,2.41-.12,11.4,11.4,0,0,0-2.41-.22,19.61,19.61,0,0,0-2.64,0h-.11l-.16.07-.17.13-.29.25-.59.52-1.24,1.11a35.18,35.18,0,0,0-3.93,4.3A9.07,9.07,0,0,0,497.86,273.83Z" transform="translate(-365.74 -128.06)"/><path class="cls-10" d="M439.73,288.9l-14.42-39.83a5.2,5.2,0,0,1,4.81-7.18h42.61a5.2,5.2,0,0,1,4.93,3.54l13.63,40.16,23.71.07c1.29,0,2.41,1.73,2.41,3h-7.8l-17.59,0Z" transform="translate(-365.74 -128.06)"/><path class="cls-1" d="M439.73,288.9h1.44l4.23,0h16l24.6-.05c9.45-.05,20,.06,31.43.05h.24v-.24a3.59,3.59,0,0,0-.48-1.67,3.37,3.37,0,0,0-1.19-1.3,1.84,1.84,0,0,0-.9-.28c-.3,0-.56,0-.85,0h-1.69l-6.89,0-14.36-.05.24.17c-2-5.84-4.06-12-6.17-18.2q-2.08-6.12-4.1-12.09c-.68-2-1.35-4-2-5.91-.34-1-.67-2-1-2.93-.17-.48-.31-1-.52-1.46a5.37,5.37,0,0,0-.84-1.35,5.51,5.51,0,0,0-4.2-1.92H453.8l-21.2,0h-2.47a5.42,5.42,0,0,0-5.3,4.34,5.22,5.22,0,0,0,.05,2.36c.22.76.5,1.44.75,2.14.5,1.39,1,2.75,1.49,4.08l9.2,25.15c1.09,2.94,1.93,5.23,2.51,6.8.29.76.51,1.35.66,1.76s.24.59.24.59-.06-.22-.2-.63l-.63-1.8c-.57-1.59-1.39-3.9-2.44-6.87-2.14-6-5.21-14.55-9-25.16L426,250.38c-.24-.7-.52-1.4-.72-2.09a4.72,4.72,0,0,1,0-2.18,5.09,5.09,0,0,1,2.66-3.48c1.38-.75,3.06-.47,4.72-.52l21.2,0h17.39a10.39,10.39,0,0,1,2.92.2,4.91,4.91,0,0,1,2.39,1.54,5.35,5.35,0,0,1,.77,1.22c.18.44.33.95.5,1.43l1,2.92q1,2.94,2,5.92l4.09,12.09c2.12,6.23,4.2,12.35,6.18,18.2l.06.17h.19l14.36,0,6.89,0h1.69c.27,0,.57,0,.83,0a1.4,1.4,0,0,1,.67.22,3.29,3.29,0,0,1,1.44,2.55l.24-.24c-11.42,0-22-.05-31.4,0l-24.53.18-16,.14-4.26.06-1.11,0A2.79,2.79,0,0,0,439.73,288.9Z" transform="translate(-365.74 -128.06)"/><path class="cls-1" d="M472.37,242a2.79,2.79,0,0,0,.12.49l.44,1.36c.43,1.25,1,2.94,1.7,5,1.46,4.2,3.51,10,5.8,16.38s4.39,12.17,5.94,16.34c.76,2,1.39,3.69,1.85,4.93.22.53.39,1,.53,1.33a1.72,1.72,0,0,0,.22.45,1.52,1.52,0,0,0-.12-.49c-.12-.37-.26-.82-.44-1.36-.42-1.26-1-2.94-1.7-5-1.45-4.2-3.5-10-5.79-16.38s-4.4-12.17-5.94-16.34l-1.86-4.93c-.21-.53-.38-1-.53-1.33S472.39,242,472.37,242Z" transform="translate(-365.74 -128.06)"/><path class="cls-3" d="M526.28,295.94H392a3.63,3.63,0,0,1-3.63-3.63h0a3.64,3.64,0,0,1,3.63-3.63H526.28a3.64,3.64,0,0,1,3.63,3.63h0A3.63,3.63,0,0,1,526.28,295.94Z" transform="translate(-365.74 -128.06)"/><rect class="cls-3" x="86.37" y="166.53" width="11.71" height="150.03"/><path class="cls-3" d="M418.45,444.61h79.67c-.52,0-34.3-8.95-34.3-8.95H452.11Z" transform="translate(-365.74 -128.06)"/><path class="cls-1" d="M526.63,295.63c0-.13-30.35-.23-67.79-.23s-67.8.1-67.8.23,30.35.24,67.8.24S526.63,295.77,526.63,295.63Z" transform="translate(-365.74 -128.06)"/></g></svg>