<svg width="516" height="474" viewBox="0 0 516 474" fill="none" xmlns="http://www.w3.org/2000/svg">
<path d="M326.181 60.9535L326.366 68.3343C326.374 68.5897 326.431 68.839 326.531 69.0611C326.63 69.2832 326.771 69.4718 326.94 69.6111L331.838 73.6431C332.033 73.8022 332.189 74.0272 332.289 74.2927C332.388 74.5582 332.427 74.8537 332.401 75.1459C332.376 75.438 332.286 75.7153 332.143 75.9464C332 76.1776 331.809 76.3535 331.591 76.4543L326.119 78.9631C325.925 79.0534 325.752 79.2029 325.615 79.3982C325.478 79.5936 325.381 79.8288 325.333 80.0831L323.894 87.1502C323.835 87.4336 323.715 87.6904 323.547 87.8918C323.379 88.0932 323.17 88.2313 322.943 88.2906C322.717 88.3499 322.482 88.328 322.265 88.2275C322.048 88.127 321.857 87.9518 321.714 87.7214L318.139 81.8863C318.014 81.6845 317.853 81.5241 317.668 81.4188C317.484 81.3135 317.282 81.2663 317.08 81.2815L311.272 81.7183C311.04 81.7358 310.809 81.6705 310.605 81.5297C310.4 81.389 310.231 81.1785 310.116 80.922C310.001 80.6655 309.946 80.3733 309.955 80.0786C309.964 79.7838 310.038 79.4982 310.169 79.2542L313.435 73.1391C313.547 72.9252 313.617 72.6807 313.64 72.4257C313.663 72.1706 313.638 71.9123 313.567 71.6719L311.449 64.7951C311.364 64.521 311.342 64.2224 311.384 63.933C311.426 63.6435 311.531 63.3747 311.687 63.1569C311.843 62.9391 312.044 62.781 312.267 62.7004C312.49 62.6198 312.726 62.6199 312.949 62.7007L318.546 64.7503C318.738 64.821 318.942 64.8314 319.139 64.7807C319.335 64.73 319.519 64.6196 319.675 64.4591L324.177 59.7775C324.358 59.605 324.572 59.498 324.798 59.4677C325.023 59.4375 325.25 59.4853 325.456 59.6059C325.661 59.7265 325.837 59.9154 325.965 60.1527C326.092 60.39 326.167 60.6667 326.181 60.9535V60.9535Z" fill="#DDDDDD" stroke="#DDDDDD" stroke-miterlimit="10"/>
<path d="M453.646 131.883L457.918 136.901C458.067 137.072 458.247 137.197 458.442 137.263C458.637 137.329 458.841 137.335 459.039 137.281L464.714 135.657C464.945 135.585 465.188 135.598 465.413 135.694C465.638 135.791 465.837 135.968 465.985 136.204C466.134 136.439 466.226 136.724 466.251 137.024C466.276 137.324 466.233 137.627 466.126 137.897L463.69 144.617C463.605 144.849 463.565 145.104 463.574 145.359C463.583 145.615 463.641 145.864 463.743 146.085L466.718 152.435C466.836 152.688 466.897 152.979 466.892 153.274C466.887 153.569 466.818 153.856 466.691 154.103C466.564 154.35 466.385 154.547 466.175 154.672C465.964 154.797 465.73 154.844 465.5 154.809L459.727 153.947C459.526 153.915 459.322 153.946 459.133 154.038C458.943 154.13 458.775 154.279 458.641 154.473L454.802 160.017C454.651 160.242 454.452 160.408 454.23 160.496C454.007 160.584 453.77 160.59 453.544 160.514C453.319 160.438 453.116 160.282 452.957 160.066C452.798 159.849 452.691 159.58 452.648 159.289L451.51 152.043C451.467 151.795 451.379 151.564 451.251 151.369C451.124 151.175 450.961 151.021 450.777 150.923L445.481 148C445.266 147.887 445.08 147.699 444.946 147.458C444.811 147.217 444.733 146.933 444.72 146.638C444.707 146.343 444.76 146.049 444.873 145.791C444.985 145.533 445.153 145.32 445.357 145.177L450.442 141.571C450.617 141.443 450.766 141.264 450.875 141.047C450.985 140.831 451.051 140.584 451.068 140.328L451.607 132.981C451.623 132.691 451.703 132.412 451.836 132.176C451.969 131.94 452.151 131.755 452.362 131.641C452.573 131.528 452.804 131.49 453.031 131.533C453.257 131.576 453.47 131.697 453.646 131.883V131.883Z" fill="#DDDDDD" stroke="#DDDDDD" stroke-miterlimit="10"/>
<path d="M33.3313 83.5103H11.5472C8.72256 83.4081 6.04064 81.9124 4.0712 79.3411C2.10176 76.7699 1 73.3255 1 69.7399C1 66.1543 2.10176 62.71 4.0712 60.1387C6.04064 57.5674 8.72256 56.0718 11.5472 55.9695H33.3313" stroke="#DDDDDD" stroke-miterlimit="10"/>
<path d="M33.0753 325.284H28.3266C24.574 325.284 20.9752 323.393 18.3217 320.026C15.6683 316.659 14.1776 312.092 14.1776 307.331C14.1776 302.569 15.6683 298.003 18.3217 294.636C20.9752 291.269 24.574 289.377 28.3266 289.377H33.3313" stroke="#DDDDDD" stroke-miterlimit="10"/>
<path d="M364.921 405.42H334.786C327.104 405.42 320.876 413.323 320.876 423.071V423.687C320.876 433.436 327.104 441.338 334.786 441.338H364.921C372.603 441.338 378.831 433.436 378.831 423.687V423.071C378.831 413.323 372.603 405.42 364.921 405.42Z" stroke="#DDDDDD" stroke-miterlimit="10"/>
<path d="M499.756 428.268H455.685C453.013 428.268 450.848 431.016 450.848 434.406V434.618C450.848 438.008 453.013 440.756 455.685 440.756H499.756C502.427 440.756 504.593 438.008 504.593 434.618V434.406C504.593 431.016 502.427 428.268 499.756 428.268Z" stroke="#DDDDDD" stroke-miterlimit="10"/>
<path d="M497.726 52.2847H503.834C505.285 52.2321 506.73 52.5495 508.082 53.2179C509.435 53.8863 510.669 54.8922 511.71 56.1761C512.751 57.46 513.579 58.9958 514.144 60.6926C514.709 62.3895 515 64.2129 515 66.055C515 67.8972 514.709 69.7206 514.144 71.4175C513.579 73.1143 512.751 74.6501 511.71 75.934C510.669 77.2179 509.435 78.2238 508.082 78.8922C506.73 79.5606 505.285 79.8779 503.834 79.8254H497.726" stroke="#DDDDDD" stroke-miterlimit="10"/>
<path d="M469.869 389.662H61.1969C53.8117 389.65 46.7316 385.922 41.5095 379.296C36.2873 372.669 33.3494 363.686 33.3401 354.315V36.3471C33.3471 26.9752 36.2842 17.9897 41.5069 11.3628C46.7295 4.73581 53.8109 1.0089 61.1969 1H469.869C477.255 1.0089 484.336 4.73581 489.559 11.3628C494.782 17.9897 497.719 26.9752 497.726 36.3471V354.315C497.719 363.687 494.782 372.672 489.559 379.299C484.336 385.926 477.255 389.653 469.869 389.662Z" stroke="#DDDDDD" stroke-width="2" stroke-linecap="round" stroke-linejoin="round"/>
<path d="M469.878 26.0768H61.188C56.7178 26.0768 53.094 30.675 53.094 36.3472V354.315C53.094 359.987 56.7178 364.585 61.188 364.585H469.878C474.348 364.585 477.972 359.987 477.972 354.315V36.3472C477.972 30.675 474.348 26.0768 469.878 26.0768Z" stroke="#DDDDDD" stroke-width="2" stroke-miterlimit="10"/>
<path d="M454.669 254.568V291.998H380.014V158.55" stroke="#DDDDDD" stroke-linecap="round" stroke-linejoin="round"/>
<path d="M454.669 160.141V181.051" stroke="#DDDDDD" stroke-linecap="round" stroke-linejoin="round"/>
<path d="M393.157 141.414H450.424" stroke="#DDDDDD" stroke-linecap="round" stroke-linejoin="round"/>
<path d="M420.917 159.267H436.354" stroke="#DDDDDD" stroke-linecap="round" stroke-linejoin="round"/>
<path d="M420.917 168.44H433.406" stroke="#DDDDDD" stroke-linecap="round" stroke-linejoin="round"/>
<path d="M392.83 213.945H404.217" stroke="#DDDDDD" stroke-linecap="round" stroke-linejoin="round"/>
<path d="M392.83 226.556H398.965" stroke="#DDDDDD" stroke-linecap="round" stroke-linejoin="round"/>
<path d="M468.192 181.051H430.264V254.568H468.192V181.051Z" stroke="#DDDDDD" stroke-linecap="round" stroke-linejoin="round"/>
<path d="M444.166 193.684H454.67" stroke="#DDDDDD" stroke-linecap="round" stroke-linejoin="round"/>
<path d="M448.65 203.54H454.669" stroke="#DDDDDD" stroke-linecap="round" stroke-linejoin="round"/>
<path d="M242.54 238.899C244.782 245.54 231.321 257.939 223.704 252.182C219.352 260.369 206.253 254.747 209.378 249.942C201.213 250.849 192.016 245.462 195.732 236.558C185.608 231.574 190.436 220.172 200.49 219.904C191.804 204.224 198.724 192.385 212.935 193.55C212.785 174.51 231.277 175.328 232.733 195.006C243.572 190.123 252.567 204.28 245.338 215.424C255.25 221.483 251.119 234.833 242.54 238.899Z" stroke="#DDDDDD" stroke-linecap="round" stroke-linejoin="round"/>
<path d="M210.464 203.82H235.452C235.452 203.82 239.247 221.494 233.686 239.761L207.498 239.246C207.498 239.246 214.559 219.769 210.464 203.82Z" stroke="#DDDDDD" stroke-linecap="round" stroke-linejoin="round"/>
<path d="M216.095 212.78H228.814" stroke="#DDDDDD" stroke-linecap="round" stroke-linejoin="round"/>
<path d="M216.907 219.781H226.519" stroke="#DDDDDD" stroke-linecap="round" stroke-linejoin="round"/>
<path d="M216.28 226.467H229.617" stroke="#DDDDDD" stroke-linecap="round" stroke-linejoin="round"/>
<path d="M385.901 151.696C383.094 159.737 372.856 162.672 367.021 157.553C364.311 166.088 351.937 167.958 345.643 163.87C347.514 153.073 342.457 146.544 336.04 146.387C334.16 139.432 335.598 131.76 340.365 129.206C336.252 118.32 343.242 112.406 350.524 117.401C350.304 106.616 360.895 95.0014 372.141 106.885C380.57 98.7646 392.168 110.547 386.978 126.731C396.855 129.845 394.331 153.342 385.901 151.696Z" fill="#DDDDDD" stroke="#DDDDDD" stroke-miterlimit="10"/>
<path d="M126.275 54.8495H165.836C164.071 70.2831 166.719 95.5839 174.619 115.464H131.042C131.042 115.464 118.181 102.248 126.275 54.8495Z" stroke="#DDDDDD" stroke-width="2" stroke-linecap="round" stroke-linejoin="round"/>
<path d="M272.603 93.9711L305.579 94.0607C305.579 94.0607 310.372 114.657 299.842 136.912L264.156 135.075C264.156 135.075 275.039 115.083 272.603 93.9711Z" stroke="#DDDDDD" stroke-linecap="round" stroke-linejoin="round"/>
<path d="M278.623 103.995H300.16" stroke="#DDDDDD" stroke-linecap="round" stroke-linejoin="round"/>
<path d="M278.932 113.157H296.117" stroke="#DDDDDD" stroke-linecap="round" stroke-linejoin="round"/>
<path d="M278.623 125.152H286.743" stroke="#DDDDDD" stroke-linecap="round" stroke-linejoin="round"/>
<path d="M288.579 125.152H293.981" stroke="#DDDDDD" stroke-linecap="round" stroke-linejoin="round"/>
<path d="M184.681 40.5696L250.113 41.6896C250.113 41.6896 254.967 75.9167 244.949 120.414H177.867C177.867 120.414 189.041 81.8639 184.681 40.5696Z" stroke="#DDDDDD" stroke-linecap="round" stroke-linejoin="round"/>
<path d="M220.976 71.9631L239.918 72.7023" stroke="#DDDDDD" stroke-linecap="round" stroke-linejoin="round"/>
<path d="M229.088 65.6014L240.695 66.0606" stroke="#DDDDDD" stroke-linecap="round" stroke-linejoin="round"/>
<path d="M237.888 59.6431L241.569 59.7879" stroke="#DDDDDD" stroke-linecap="round" stroke-linejoin="round"/>
<path d="M235.063 52.0607L241.569 52.3183" stroke="#DDDDDD" stroke-linecap="round" stroke-linejoin="round"/>
<path d="M237.897 86.0974H219.529V107.747H237.897V86.0974Z" fill="#DDDDDD" stroke="#DDDDDD" stroke-miterlimit="10"/>
<path d="M318.81 160.779H335.042" stroke="#DDDDDD" stroke-linecap="round" stroke-linejoin="round"/>
<path d="M315.315 169.851H331.547" stroke="#DDDDDD" stroke-linecap="round" stroke-linejoin="round"/>
<path d="M312.879 179.606H329.111" stroke="#DDDDDD" stroke-linecap="round" stroke-linejoin="round"/>
<path d="M342.722 183.829C345.687 195.779 331.388 203.742 324.76 191.579C317.954 206.396 291.218 197.1 303.126 179.741C294.714 178.755 296.126 158.057 305.774 159.805C300.725 141.123 321.132 134.28 326.71 150.643C329.357 147.917 332.657 146.416 336.066 146.387C342.483 146.544 347.541 153.107 345.67 163.87C345.546 164.609 345.387 165.36 345.193 166.11C353.534 170.333 348.821 183.168 342.722 183.829Z" stroke="#DDDDDD" stroke-linecap="round" stroke-linejoin="round"/>
<path d="M356.023 122.005H373.447" stroke="#F9F9F9" stroke-linecap="round" stroke-linejoin="round"/>
<path d="M355.591 131.189H369.916" stroke="#F9F9F9" stroke-linecap="round" stroke-linejoin="round"/>
<path d="M355.096 143.497H365.644" stroke="#F9F9F9" stroke-linecap="round" stroke-linejoin="round"/>
<path d="M412.558 162.392H391.18V199.699H412.558V162.392Z" fill="#DDDDDD" stroke="#DDDDDD" stroke-linecap="round" stroke-linejoin="round"/>
<path d="M298.112 91.0478L310.487 107.747L314.644 101.038L302.781 86.0974L298.112 91.0478Z" fill="#DDDDDD" stroke="#DDDDDD" stroke-miterlimit="10"/>
<path d="M266.204 99.5151L278.623 82.7151L283.407 88.3375L271.208 106.638L266.204 99.5151Z" fill="#DDDDDD" stroke="#DDDDDD" stroke-miterlimit="10"/>
<path d="M423.353 186.08L428.163 191.332C428.163 191.332 439.92 175.462 439.699 175.462C439.479 175.462 434.351 170.601 434.351 170.601L423.353 186.08Z" fill="#DDDDDD" stroke="#DDDDDD" stroke-miterlimit="10"/>
<path d="M457.715 177.086L462.993 171.352L475.58 188.275L469.772 194.592L457.715 177.086Z" fill="#DDDDDD" stroke="#DDDDDD" stroke-miterlimit="10"/>
<path d="M459.621 94.3182C457.008 103.21 452.048 110.678 445.586 115.455C439.123 120.231 431.557 122.021 424.172 120.519C416.788 119.017 410.041 114.316 405.079 107.216C400.116 100.116 397.245 91.0551 396.952 81.5726C398.641 86.084 401.176 90.0003 404.337 92.9773C407.497 95.9544 411.185 97.9011 415.077 98.6464C418.968 99.3918 422.945 98.913 426.657 97.2521C430.369 95.5911 433.702 92.799 436.365 89.1208C439.027 85.4427 440.937 80.9911 441.927 76.1573C442.916 71.3234 442.955 66.2552 442.04 61.3979C441.124 56.5406 439.283 52.0429 436.677 48.2999C434.071 44.5568 430.781 41.6831 427.095 39.9311C426.477 39.6399 425.868 39.3823 425.251 39.1695C430.778 38.2881 436.392 39.2317 441.548 41.9089C446.704 44.5861 451.229 48.9064 454.684 54.4518C458.139 59.9973 460.409 66.5804 461.272 73.5643C462.135 80.5482 461.564 87.6966 459.612 94.3182H459.621Z" fill="#DDDDDD" stroke="#DDDDDD" stroke-linecap="round" stroke-linejoin="round"/>
<path d="M123.654 41.1631L128.067 45.9903C128.219 46.1565 128.401 46.273 128.596 46.3296C128.791 46.3863 128.995 46.3813 129.188 46.3151L134.82 44.4559C135.044 44.3805 135.281 44.3865 135.504 44.4732C135.726 44.56 135.925 44.724 136.077 44.9467C136.23 45.1694 136.33 45.4419 136.367 45.7332C136.403 46.0246 136.375 46.3231 136.285 46.5951L134.025 53.4047C133.948 53.64 133.918 53.8956 133.936 54.1493C133.955 54.403 134.022 54.6471 134.131 54.8607L137.265 61.0878C137.388 61.3354 137.455 61.6217 137.458 61.9147C137.46 62.2077 137.398 62.4958 137.279 62.7469C137.16 62.9979 136.989 63.202 136.783 63.3362C136.578 63.4705 136.347 63.5296 136.117 63.507L130.318 62.891C130.117 62.8672 129.914 62.9069 129.728 63.0065C129.541 63.1062 129.377 63.2627 129.25 63.4623L125.561 69.163C125.412 69.3891 125.217 69.5585 124.997 69.6524C124.778 69.7463 124.542 69.7609 124.316 69.6948C124.09 69.6286 123.883 69.4842 123.718 69.2776C123.552 69.071 123.436 68.8104 123.38 68.5246L122.056 61.3342C122.011 61.0836 121.918 60.8507 121.786 60.6556C121.653 60.4606 121.486 60.3091 121.297 60.2143L115.878 57.5263C115.661 57.4194 115.472 57.2378 115.333 57.002C115.194 56.7661 115.109 56.4854 115.089 56.1917C115.069 55.898 115.114 55.6029 115.219 55.34C115.324 55.077 115.485 54.8567 115.684 54.7039L120.662 50.8847C120.836 50.7518 120.981 50.567 121.086 50.3464C121.19 50.1258 121.251 49.8761 121.262 49.6191L121.597 42.2495C121.613 41.9566 121.693 41.675 121.828 41.4364C121.963 41.1978 122.147 41.0116 122.361 40.8988C122.574 40.7859 122.809 40.7509 123.037 40.7976C123.265 40.8443 123.479 40.9708 123.654 41.1631V41.1631Z" fill="#DDDDDD" stroke="#DDDDDD" stroke-miterlimit="10"/>
<path d="M68.5053 456.907L74.1014 428.526H128.27L122.648 456.907H68.5053ZM133.813 456.907L192.952 157.688C193.126 156.813 193.162 155.904 193.059 155.012C192.956 154.12 192.715 153.262 192.351 152.488C191.987 151.713 191.506 151.038 190.936 150.499C190.365 149.961 189.717 149.57 189.028 149.349C188.339 149.129 187.623 149.083 186.919 149.213C186.216 149.344 185.54 149.649 184.93 150.112C184.32 150.574 183.787 151.184 183.363 151.908C182.939 152.631 182.631 153.453 182.457 154.328L176.693 183.515H122.515L127.617 157.643C127.791 156.769 127.827 155.859 127.724 154.967C127.621 154.075 127.381 153.217 127.016 152.443C126.652 151.668 126.171 150.993 125.601 150.454C125.031 149.916 124.383 149.525 123.694 149.305C123.005 149.084 122.288 149.038 121.585 149.169C120.882 149.299 120.206 149.605 119.595 150.067C118.985 150.529 118.453 151.139 118.028 151.863C117.604 152.586 117.296 153.409 117.122 154.283L57.3308 456.907H133.813ZM174.636 193.819L165.554 239.739H111.403L120.485 193.819H174.636ZM163.524 250.043L146.841 334.603H92.6373L109.408 250.043H163.524ZM130.318 418.244H76.1492L90.6424 344.873H144.811L130.318 418.244Z" fill="#DDDDDD" stroke="#DDDDDD" stroke-width="2" stroke-linecap="round" stroke-linejoin="round"/>
<path d="M502.748 359.086C503.481 365.033 498.229 371.025 494.363 373.478C494.363 373.478 489.852 360.676 490.179 360.676C490.505 360.676 498.14 355.177 502.748 359.086Z" fill="#FCC71F"/>
<path d="M474.468 462.787C455.137 480.315 430.502 468.387 430.502 468.387V459.236C410.766 459.628 389.9 451.643 389.9 451.643C388.585 432.603 391.065 409.307 392.592 397.446C393.21 392.664 393.678 389.752 393.678 389.752C405.443 384.891 473.364 386.616 473.364 386.616C473.62 389.438 473.814 392.753 473.982 396.404C475.165 421.727 474.468 462.787 474.468 462.787Z" fill="#A7CAF0"/>
<mask id="mask0_89_271" style="mask-type:alpha" maskUnits="userSpaceOnUse" x="389" y="386" width="86" height="87">
<path d="M474.468 462.787C455.137 480.315 430.502 468.387 430.502 468.387V459.236C410.766 459.628 389.9 451.643 389.9 451.643C388.585 432.603 391.065 409.307 392.592 397.446C393.21 392.664 393.678 389.752 393.678 389.752C405.443 384.891 473.364 386.616 473.364 386.616C473.62 389.438 473.814 392.753 473.982 396.404C475.165 421.727 474.468 462.787 474.468 462.787Z" fill="#A7CAF0"/>
</mask>
<g mask="url(#mask0_89_271)">
<path d="M475.262 412.588H470.716V418.356H475.262V412.588Z" stroke="white" stroke-width="0.75" stroke-linecap="round" stroke-linejoin="round"/>
<path d="M453.116 412.588H448.57V418.356H453.116V412.588Z" stroke="white" stroke-width="0.75" stroke-linecap="round" stroke-linejoin="round"/>
<path d="M430.979 412.588H426.433V418.356H430.979V412.588Z" stroke="white" stroke-width="0.75" stroke-linecap="round" stroke-linejoin="round"/>
<path d="M408.842 412.588H404.296V418.356H408.842V412.588Z" stroke="white" stroke-width="0.75" stroke-linecap="round" stroke-linejoin="round"/>
<path d="M475.262 448.227H470.716V453.995H475.262V448.227Z" stroke="white" stroke-width="0.75" stroke-linecap="round" stroke-linejoin="round"/>
<path d="M453.116 448.227H448.57V453.995H453.116V448.227Z" stroke="white" stroke-width="0.75" stroke-linecap="round" stroke-linejoin="round"/>
<path d="M430.979 448.227H426.433V453.995H430.979V448.227Z" stroke="white" stroke-width="0.75" stroke-linecap="round" stroke-linejoin="round"/>
<path d="M408.842 448.227H404.296V453.995H408.842V448.227Z" stroke="white" stroke-width="0.75" stroke-linecap="round" stroke-linejoin="round"/>
<path d="M398.674 391.88H389.591V403.405H398.674V391.88Z" stroke="white" stroke-width="0.75" stroke-linecap="round" stroke-linejoin="round"/>
<path d="M421.358 391.88H412.275V403.405H421.358V391.88Z" stroke="white" stroke-width="0.75" stroke-linecap="round" stroke-linejoin="round"/>
<path d="M444.042 391.88H434.96V403.405H444.042V391.88Z" stroke="white" stroke-width="0.75" stroke-linecap="round" stroke-linejoin="round"/>
<path d="M466.727 391.88H457.644V403.405H466.727V391.88Z" stroke="white" stroke-width="0.75" stroke-linecap="round" stroke-linejoin="round"/>
<path d="M398.674 427.529H389.591V439.054H398.674V427.529Z" stroke="white" stroke-width="0.75" stroke-linecap="round" stroke-linejoin="round"/>
<path d="M421.358 427.529H412.275V439.054H421.358V427.529Z" stroke="white" stroke-width="0.75" stroke-linecap="round" stroke-linejoin="round"/>
<path d="M444.042 427.529H434.96V439.054H444.042V427.529Z" stroke="white" stroke-width="0.75" stroke-linecap="round" stroke-linejoin="round"/>
<path d="M466.727 427.529H457.644V439.054H466.727V427.529Z" stroke="white" stroke-width="0.75" stroke-linecap="round" stroke-linejoin="round"/>
<path d="M398.674 463.167H389.591V474.692H398.674V463.167Z" stroke="white" stroke-width="0.75" stroke-linecap="round" stroke-linejoin="round"/>
<path d="M421.358 463.167H412.275V474.692H421.358V463.167Z" stroke="white" stroke-width="0.75" stroke-linecap="round" stroke-linejoin="round"/>
<path d="M444.042 463.167H434.96V474.692H444.042V463.167Z" stroke="white" stroke-width="0.75" stroke-linecap="round" stroke-linejoin="round"/>
<path d="M466.727 463.167H457.644V474.692H466.727V463.167Z" stroke="white" stroke-width="0.75" stroke-linecap="round" stroke-linejoin="round"/>
</g>
<path d="M474.009 396.449C462.671 399.446 451.157 401.248 439.585 401.836C433.636 402.206 427.589 402.307 421.72 402.105C410.863 401.724 400.606 400.302 392.592 397.491C393.21 392.708 393.678 389.796 393.678 389.796C397.844 388.083 409.018 387.176 421.729 386.739C427.536 386.537 433.662 386.436 439.594 386.392C457.397 386.246 473.364 386.66 473.364 386.66C473.647 389.483 473.841 392.843 474.009 396.449Z" fill="#683F1D"/>
<path d="M439.62 386.391V401.803C433.671 402.172 427.625 402.273 421.755 402.071V386.739C427.563 386.537 433.689 386.436 439.62 386.391Z" fill="white"/>
<path d="M430.502 459.281L430.688 434.518" stroke="#83ADDF" stroke-width="0.75" stroke-linecap="round" stroke-linejoin="round"/>
<path d="M502.748 359.086C502.748 359.086 500.1 359.713 496.172 361.192C489.746 363.546 483.556 366.834 477.725 370.992C476.648 371.776 471.952 378.104 467.265 383.513C463.796 387.523 460.318 391.028 458.333 391.353C448.27 393.252 438.106 394.147 427.934 394.03C426.051 394.03 424.232 393.966 422.479 393.84C412.816 393.467 403.193 392.1 393.704 389.752C394.251 389.752 393.422 379.94 392.636 370.398C392.442 367.956 392.248 365.526 392.071 363.286C391.798 363.521 375.098 348.726 373.659 347.393L373.562 347.304C373.562 347.304 373.641 346.755 373.818 345.758C374.797 340.158 378.672 320.345 386.396 305.113C388.06 301.768 389.992 298.649 392.159 295.806C403.466 281.246 416.786 276.542 430.264 275.221C443.742 273.899 445.34 273.484 445.34 273.484C457.432 278.804 470.937 281.985 480.646 296.769C482.779 300.206 484.638 303.901 486.198 307.801C494.539 327.513 502.748 359.086 502.748 359.086Z" fill="#FED81D"/>
<path d="M399.097 318.139C397.111 328.6 393.386 346.217 393.536 364.675C393.536 364.216 375.098 348.715 373.659 347.438L373.818 345.803C379.573 342.364 383.227 344.683 386.396 346.374C393.536 350.081 390.023 320.155 398.974 318.161L399.097 318.139Z" fill="#FCC71F"/>
<path d="M467.265 383.513C463.796 387.523 460.319 391.028 458.333 391.353C448.27 393.252 438.106 394.147 427.934 394.03C426.051 394.03 424.232 393.966 422.479 393.84C425.868 387.332 433.071 376.636 443.371 379.134C457.909 382.684 460.601 352.377 457.909 339.486C455.217 326.595 462.031 321.353 462.031 321.353C462.257 329.265 463.034 337.135 464.352 344.873V344.873C464.352 345.097 464.432 345.332 464.476 345.568C466.091 355.379 466.886 372.683 467.265 383.513Z" fill="#FCC71F"/>
<path d="M486.216 307.846C474.009 304.072 462.022 305.315 456.77 311.811C446.072 325.094 425.294 343.048 413.299 323.772C405.532 311.284 397.014 303.444 386.396 305.158C388.06 301.813 389.992 298.694 392.159 295.851C403.466 281.291 416.786 276.587 430.264 275.265C443.742 273.944 445.34 273.529 445.34 273.529C457.432 278.849 470.937 282.03 480.646 296.814C482.785 300.249 484.65 303.945 486.216 307.846V307.846Z" fill="#FED81D"/>
<path d="M465.058 348.849C464.847 347.729 464.661 346.688 464.476 345.612C464.476 345.377 464.388 345.142 464.352 344.918C463.034 337.18 462.257 329.31 462.031 321.398V321.398C461.951 318.201 461.998 315.002 462.172 311.811" stroke="#FCC71F" stroke-width="0.75" stroke-linecap="round" stroke-linejoin="round"/>
<path d="M467.539 289.971C465.746 292.809 464.46 296.107 463.77 299.637" stroke="#FCC71F" stroke-width="0.75" stroke-linecap="round" stroke-linejoin="round"/>
<path d="M431.244 296.523C429.929 304.363 430.493 315.216 430.493 315.216" stroke="#FCC71F" stroke-width="0.75" stroke-linecap="round" stroke-linejoin="round"/>
<path d="M393.536 362.345C393.536 340.998 400.598 310.534 400.598 310.534" stroke="#FCC71F" stroke-width="0.75" stroke-linecap="round" stroke-linejoin="round"/>
<path d="M422.346 275.243C417.748 275.243 416.662 290.979 418.657 298.684C420.307 305.068 427.483 293.868 432.903 287.171L422.346 275.243Z" fill="white"/>
<path d="M429.893 286.566C435.445 293.533 440.768 301.473 442.992 300.342C445.216 299.211 450.821 278.793 449.223 274.022C448.714 272.584 447.976 271.294 447.056 270.234C446.135 269.174 445.052 268.367 443.875 267.862L429.893 286.566Z" fill="white"/>
<path d="M431.244 286.936C440.953 284.382 443.875 267.896 443.875 267.896C430.317 267.896 422.346 275.299 422.346 275.299C422.346 275.299 420.749 289.702 431.244 286.936Z" fill="white"/>
<path d="M393.536 362.345C390.95 350.596 385.142 347.281 380.464 346.665C378.178 346.373 375.868 346.635 373.659 347.438C367.666 376.491 365.256 386.324 373.244 389.36C381.232 392.395 389.441 386.302 393.545 381.744C393.951 371.619 393.536 362.345 393.536 362.345Z" fill="#FEBD9D"/>
<path d="M497.046 391.331C491.309 405.14 484.415 405.7 476.012 403.393C466.824 399.798 472.702 379.974 477.725 370.992C483.556 366.834 489.746 363.546 496.172 361.192C498.432 370.14 501.574 380.456 497.046 391.331Z" fill="#FEBD9D"/>
<path d="M443.522 312.83C439.756 309.994 435.375 308.76 431.017 309.308C426.66 309.856 422.555 312.158 419.301 315.876L420.722 308.216L413.661 305.83C406.653 333.102 412.108 356.947 431.782 356.051L451.615 341.222C451.615 341.222 456.214 321.734 443.522 312.83ZM436.134 343.417H436.045C434.198 343.401 432.401 342.65 430.908 341.269C429.415 339.888 428.302 337.948 427.723 335.722C427.145 333.496 427.132 331.095 427.686 328.859C428.24 326.623 429.333 324.664 430.811 323.257H430.908C432.755 323.276 434.55 324.029 436.042 325.41C437.533 326.792 438.646 328.732 439.223 330.958C439.8 333.184 439.812 335.583 439.258 337.818C438.704 340.053 437.611 342.011 436.134 343.417V343.417Z" fill="#F9F9F9" stroke="#DDDDDD" stroke-linecap="round" stroke-linejoin="round"/>
<path d="M436.134 343.417C435.015 344.482 433.712 345.194 432.334 345.495C430.956 345.796 429.541 345.677 428.206 345.148C426.871 344.619 425.654 343.695 424.656 342.452C423.657 341.209 422.906 339.683 422.464 337.999C422.022 336.315 421.901 334.523 422.112 332.768C422.323 331.014 422.859 329.348 423.677 327.909C424.495 326.469 425.571 325.296 426.816 324.488C428.06 323.679 429.439 323.257 430.838 323.257C429.36 324.664 428.267 326.623 427.713 328.859C427.159 331.095 427.172 333.496 427.75 335.722C428.328 337.948 429.442 339.889 430.935 341.269C432.428 342.65 434.225 343.401 436.072 343.417H436.134Z" fill="#DDDDDD" stroke="#DDDDDD" stroke-linecap="round" stroke-linejoin="round"/>
<path d="M419.301 315.876C414.332 322.596 410.607 332.867 414.005 344.918" stroke="#DDDDDD" stroke-linecap="round" stroke-linejoin="round"/>
<path d="M446.028 335.723C446.655 320.323 435.507 306.603 421.314 313.905" stroke="#DDDDDD" stroke-linecap="round" stroke-linejoin="round"/>
<path d="M479.446 404.166C477.557 404.166 473.885 402.721 472.782 402.251L472.543 402.15C469.36 400.722 466.33 398.795 463.523 396.416C461.703 394.898 459.969 393.221 458.333 391.398C451.755 383.931 446.641 374.62 443.398 364.204C440.798 363.93 438.29 362.861 436.086 361.091C433.882 359.32 432.048 356.899 430.741 354.035C429.858 351.526 431.694 345.859 431.694 345.859C429.346 342.219 432.63 338.086 434.686 339.195C431.906 333.752 429.77 329.843 432.921 327.704C435.242 326.124 449.691 337.784 453.222 343.384C456.753 348.984 477.769 371.025 477.769 371.025C485.88 379.145 494.857 404.11 479.446 404.166Z" fill="#FEBD9D"/>
<path d="M477.716 371.003C483.894 378.193 484.909 384.309 484.909 384.309" stroke="#F4A789" stroke-width="0.75" stroke-linecap="round" stroke-linejoin="round"/>
<path d="M430.741 354.035C429.858 351.526 431.694 345.859 431.694 345.859C429.346 342.219 432.63 338.086 434.686 339.195C431.906 333.752 429.77 329.843 432.921 327.704C433.918 327.021 437.175 328.824 440.865 331.478" stroke="#F4A789" stroke-width="0.75" stroke-linecap="round" stroke-linejoin="round"/>
<path d="M449.894 227.083C449.894 227.083 449.153 238.641 449.735 241.262C449.735 241.262 442.515 247.59 439.673 246.078C439.562 246.019 439.458 245.94 439.364 245.843C436.716 243.289 435.26 226.803 435.26 226.803C435.26 226.803 425.109 225.067 423.167 219.478C423.167 219.478 414.959 221.035 416.989 212.669C416.246 213.076 415.449 213.3 414.641 213.329C414.152 213.388 413.663 213.205 413.277 212.819C412.891 212.434 412.637 211.874 412.567 211.257C412.002 207.651 419.928 206.777 419.928 206.777C418.065 201.592 423.512 198.142 428.878 204.728C426.936 201.065 429.469 198.321 434.651 200.707C440.335 203.328 445.534 210.44 444.254 215.267C444.254 215.267 449.259 215.054 451.968 219.243C455.137 224.137 451.801 226.601 449.894 227.083Z" fill="#7F542D"/>
<path d="M439.364 245.877C436.716 243.323 435.26 226.837 435.26 226.837C435.26 226.837 425.109 225.101 423.167 219.512C423.167 219.512 414.959 221.069 416.989 212.702C416.246 213.109 415.449 213.334 414.641 213.363C415.928 212.342 417.375 211.689 418.881 211.451C420.388 211.213 421.917 211.396 423.362 211.985C430.282 215.144 433.874 216.353 435.913 214.158C437.952 211.963 442.974 214.774 441.041 221.349C439.108 227.923 444.669 222.133 445.693 230.129C446.408 235.819 441.95 242.528 439.364 245.877Z" fill="#683F1D"/>
<path d="M441.659 221.136C444.466 221.081 447.181 222.41 449.232 224.843" stroke="#BF8228" stroke-width="0.75" stroke-linecap="round" stroke-linejoin="round"/>
<path d="M442.03 224.406C444.775 226.993 445.799 231.933 445.764 235.136" stroke="#BF8228" stroke-width="0.75" stroke-linecap="round" stroke-linejoin="round"/>
<path d="M446.408 255.229C446.408 255.229 445.525 265.533 446.408 269.553C446.408 269.553 443.416 288.952 432.17 289.937C426.424 290.43 423.609 285.883 422.249 281.302C421.44 278.5 420.996 275.549 420.934 272.566C420.934 272.566 414.217 273.35 409.98 263.315C408.674 260.201 408.047 255.766 408.136 250.401C408.193 247.596 408.411 244.8 408.789 242.035C410.294 231.764 413.058 221.855 416.98 212.669C417.112 216.824 420.581 218.392 424.924 215.905C424.924 215.905 424.341 222.95 431.985 220.217C431.985 220.217 431.685 224.541 436.566 222.625C442.321 220.385 437.131 233.243 442.047 241.665C442.047 241.665 446.99 234.833 451.28 239.101C456.673 244.443 451.051 253.817 446.408 255.229Z" fill="#FEBD9D"/>
<path d="M443.601 245.944C445.366 242.808 449.462 240.59 451.43 245.07" stroke="#F4A789" stroke-width="0.75" stroke-linecap="round" stroke-linejoin="round"/>
<path d="M442.992 248.643C447.087 251.712 448.35 244.241 444.484 244.701" stroke="#F4A789" stroke-width="0.75" stroke-linecap="round" stroke-linejoin="round"/>
<path d="M415.594 252.742C417.119 253.296 418.751 253.121 420.181 252.25C421.611 251.379 422.74 249.872 423.353 248.016" stroke="#F4A789" stroke-width="0.75" stroke-linecap="round" stroke-linejoin="round"/>
<path d="M446.408 255.229C444.657 255.57 442.867 255.143 441.333 254.019" stroke="#F4A789" stroke-width="0.75" stroke-linecap="round" stroke-linejoin="round"/>
<path d="M432.796 254.506C435.608 253.204 437.382 250.391 436.759 248.224C436.135 246.056 433.351 245.355 430.539 246.657C427.727 247.959 425.953 250.772 426.577 252.939C427.2 255.106 429.985 255.808 432.796 254.506Z" fill="#F4A789"/>
<path d="M412.752 248.363C412.249 250.121 410.333 250.905 408.135 250.457C408.193 247.652 408.411 244.856 408.789 242.091C411.604 243.334 413.37 246.123 412.752 248.363Z" fill="#F4A789"/>
<path d="M413.299 242.864C412.572 243.138 411.816 243.278 411.057 243.278C409.532 243.284 408.038 242.733 406.753 241.69C405.467 240.648 404.446 239.158 403.811 237.398" stroke="#683F1D" stroke-linecap="round" stroke-linejoin="round"/>
<path d="M418.869 231.238C418.961 231.877 419.008 232.526 419.01 233.176C419.014 233.83 418.964 234.483 418.86 235.125" stroke="#683F1D" stroke-linecap="round" stroke-linejoin="round"/>
<path d="M413.643 235.617C414.341 235.617 414.906 234.9 414.906 234.016C414.906 233.131 414.341 232.414 413.643 232.414C412.946 232.414 412.381 233.131 412.381 234.016C412.381 234.9 412.946 235.617 413.643 235.617Z" fill="#683F1D"/>
<path d="M422.532 237.768C422.53 238.087 422.603 238.4 422.742 238.667C422.88 238.934 423.078 239.142 423.31 239.266C423.542 239.39 423.798 239.423 424.045 239.362C424.293 239.301 424.52 239.148 424.699 238.923C424.877 238.698 424.999 238.411 425.049 238.098C425.099 237.785 425.074 237.46 424.978 237.164C424.882 236.869 424.719 236.617 424.51 236.439C424.301 236.261 424.055 236.166 423.803 236.166C423.636 236.165 423.471 236.205 423.317 236.285C423.163 236.365 423.023 236.482 422.905 236.631C422.787 236.78 422.693 236.957 422.629 237.152C422.565 237.347 422.532 237.557 422.532 237.768V237.768Z" fill="#683F1D"/>
<path d="M422.532 232.414C421.031 233.736 419.769 234.889 418.719 235.909C415.506 239.011 414.226 240.915 413.979 242.561C413.793 243.827 414.226 244.958 414.861 246.347" stroke="#F4A789" stroke-width="0.75" stroke-linecap="round" stroke-linejoin="round"/>
<path d="M424.659 224.082C425.295 222.502 428.905 225.403 429.77 227.632C430.635 229.861 423.582 226.736 424.659 224.082Z" fill="#7F542D"/>
<path d="M414.288 221.752C413.405 222.928 419.054 224.473 419.734 222.648C420.413 220.822 415.779 219.837 414.288 221.752Z" fill="#7F542D"/>
<path d="M423.353 243.177C423.353 243.347 423.3 243.509 423.205 243.629C423.111 243.748 422.983 243.816 422.85 243.816C422.717 243.813 422.59 243.745 422.496 243.626C422.402 243.506 422.349 243.346 422.346 243.177C422.346 243.093 422.359 243.01 422.385 242.933C422.41 242.856 422.447 242.785 422.494 242.726C422.541 242.667 422.596 242.62 422.657 242.588C422.718 242.555 422.783 242.539 422.85 242.539C422.916 242.537 422.982 242.553 423.044 242.584C423.105 242.616 423.161 242.663 423.208 242.723C423.255 242.782 423.292 242.853 423.317 242.931C423.342 243.009 423.354 243.093 423.353 243.177V243.177Z" fill="#F4A789"/>
<path d="M411.605 241.441C411.604 241.568 411.575 241.692 411.519 241.797C411.463 241.902 411.384 241.984 411.292 242.032C411.199 242.08 411.098 242.092 411 242.067C410.902 242.041 410.812 241.979 410.742 241.889C410.672 241.798 410.625 241.683 410.607 241.559C410.588 241.434 410.6 241.306 410.639 241.189C410.679 241.073 410.744 240.974 410.828 240.905C410.912 240.836 411.01 240.801 411.11 240.803C411.176 240.803 411.241 240.82 411.301 240.852C411.362 240.884 411.417 240.931 411.463 240.991C411.509 241.05 411.545 241.121 411.569 241.198C411.594 241.275 411.606 241.358 411.605 241.441V241.441Z" fill="#F4A789"/>
<path d="M413.379 238.742C413.379 238.911 413.326 239.074 413.231 239.194C413.137 239.313 413.009 239.381 412.875 239.381C412.742 239.381 412.614 239.313 412.52 239.194C412.425 239.074 412.372 238.911 412.372 238.742C412.372 238.573 412.425 238.41 412.52 238.291C412.614 238.171 412.742 238.104 412.875 238.104C413.009 238.104 413.137 238.171 413.231 238.291C413.326 238.41 413.379 238.573 413.379 238.742V238.742Z" fill="#F4A789"/>
<path d="M425.674 243.177C425.952 243.177 426.177 242.892 426.177 242.539C426.177 242.186 425.952 241.901 425.674 241.901C425.396 241.901 425.171 242.186 425.171 242.539C425.171 242.892 425.396 243.177 425.674 243.177Z" fill="#F4A789"/>
<path d="M430.847 244.678C430.844 244.847 430.791 245.007 430.697 245.126C430.603 245.245 430.476 245.314 430.343 245.317C430.21 245.317 430.082 245.249 429.988 245.13C429.893 245.01 429.84 244.847 429.84 244.678C429.839 244.594 429.851 244.51 429.876 244.432C429.901 244.354 429.938 244.283 429.985 244.223C430.032 244.164 430.088 244.117 430.15 244.085C430.211 244.054 430.277 244.038 430.343 244.04C430.477 244.04 430.605 244.107 430.699 244.227C430.794 244.346 430.847 244.509 430.847 244.678V244.678Z" fill="#F4A789"/>
<path d="M428.472 245.261C428.472 245.344 428.459 245.426 428.434 245.503C428.408 245.58 428.371 245.65 428.324 245.708C428.277 245.766 428.222 245.812 428.161 245.843C428.1 245.874 428.035 245.889 427.969 245.888C427.869 245.888 427.771 245.85 427.689 245.779C427.606 245.709 427.541 245.608 427.503 245.491C427.466 245.374 427.456 245.245 427.476 245.121C427.496 244.997 427.545 244.883 427.616 244.794C427.688 244.705 427.778 244.645 427.876 244.622C427.975 244.599 428.076 244.613 428.168 244.663C428.259 244.713 428.337 244.796 428.392 244.903C428.446 245.009 428.474 245.134 428.472 245.261V245.261Z" fill="#F4A789"/>
<path d="M425.674 246.347C425.684 246.437 425.678 246.529 425.657 246.616C425.636 246.703 425.601 246.783 425.554 246.852C425.507 246.92 425.449 246.975 425.383 247.013C425.318 247.05 425.247 247.07 425.175 247.07C425.104 247.07 425.033 247.05 424.968 247.013C424.902 246.975 424.844 246.92 424.797 246.852C424.75 246.783 424.715 246.703 424.694 246.616C424.673 246.529 424.667 246.437 424.677 246.347C424.667 246.257 424.673 246.165 424.694 246.078C424.715 245.991 424.75 245.91 424.797 245.842C424.844 245.774 424.902 245.719 424.968 245.681C425.033 245.644 425.104 245.624 425.175 245.624C425.247 245.624 425.318 245.644 425.383 245.681C425.449 245.719 425.507 245.774 425.554 245.842C425.601 245.91 425.636 245.991 425.657 246.078C425.678 246.165 425.684 246.257 425.674 246.347V246.347Z" fill="#F4A789"/>
<path d="M403.087 233.176C403.071 231.171 403.526 229.206 404.394 227.531C405.263 225.857 406.505 224.549 407.962 223.774C409.419 223 411.026 222.795 412.575 223.185C414.125 223.574 415.548 224.542 416.662 225.963" stroke="#683F1D" stroke-linecap="round" stroke-linejoin="round"/>
<path d="M426.972 250.905C431.369 250.905 434.933 246.382 434.933 240.803C434.933 235.224 431.369 230.701 426.972 230.701C422.575 230.701 419.01 235.224 419.01 240.803C419.01 246.382 422.575 250.905 426.972 250.905Z" stroke="#683F1D" stroke-linecap="round" stroke-linejoin="round"/>
<path d="M434.933 240.803L442.03 241.621" stroke="#683F1D" stroke-linecap="round" stroke-linejoin="round"/>
<path d="M431.261 267.515C431.261 267.515 431.032 278.715 422.249 281.302C421.44 278.5 420.996 275.549 420.934 272.566C423.821 272.398 429.646 269.811 431.261 267.515Z" fill="#F4A789"/>
<path d="M431.526 207.147C436.037 208.379 440.538 212.669 440.538 216.555" stroke="#BF8228" stroke-width="0.75" stroke-linecap="round" stroke-linejoin="round"/>
<path d="M423.353 209.432C429.152 210.395 436.645 214.091 439.24 218.761" stroke="#BF8228" stroke-width="0.75" stroke-linecap="round" stroke-linejoin="round"/>
<path d="M386.378 373.803C385.848 386.481 371.655 405.443 356.862 365.862C349.165 345.276 348.291 318.161 345.564 296.512C344.543 290.117 342.789 283.947 340.356 278.2C337.479 271.872 330.17 258.107 332.492 257.121C334.813 256.136 341.574 266.081 341.574 266.081C341.574 266.081 333.71 245.641 336.702 244.745C339.694 243.849 346.782 262.083 346.782 262.083C343.904 246.067 343.119 238.07 345.714 237.779C347.912 237.533 351.266 253.817 353.287 260.773C354.028 263.326 355.149 262.318 355.052 260.201C354.955 258.085 352.219 237.678 356.818 242.606C359.995 246.033 362.573 271.189 362.573 271.189C362.573 271.189 364.497 269.419 366.103 263.673C367.436 258.969 371.311 259.832 370.517 268.803C369.722 277.774 364.206 290.083 364.206 290.083C363.985 296.265 368.963 314.723 371.064 320.155C373.165 325.587 381.267 348.849 381.267 348.849C381.267 348.849 386.925 360.587 386.378 373.803Z" fill="#FEBD9D"/>
<path d="M337.381 271.883C334.274 265.387 330.788 257.782 332.491 257.054C334.822 256.069 341.574 266.014 341.574 266.014C341.574 266.014 333.71 245.574 336.702 244.678C339.694 243.782 346.782 262.016 346.782 262.016C343.904 246 343.119 238.003 345.714 237.712C347.912 237.465 351.266 253.75 353.287 260.705C354.028 263.259 355.149 262.251 355.052 260.134C354.955 258.017 352.219 237.611 356.818 242.539C359.995 245.966 362.573 271.121 362.573 271.121C362.573 271.121 364.497 269.352 366.103 263.606C367.436 258.902 371.311 259.765 370.516 268.736C370.119 273.361 368.442 278.872 366.924 283.128" stroke="#F4A789" stroke-width="0.75" stroke-linecap="round" stroke-linejoin="round"/>
<path d="M344.196 265.857C347.108 263.192 352.36 262.901 352.36 262.901" stroke="#F4A789" stroke-width="0.75" stroke-linecap="round" stroke-linejoin="round"/>
<path d="M362.502 271.121C362.502 271.121 356.491 270.001 354.69 277.573" stroke="#F4A789" stroke-width="0.75" stroke-linecap="round" stroke-linejoin="round"/>
<path d="M386.678 368.203C385.399 361.534 383.586 355.05 381.267 348.849" stroke="#F4A789" stroke-width="0.75" stroke-linecap="round" stroke-linejoin="round"/>
<path d="M363.455 264.379C363.455 264.379 369.44 268.859 369.44 268.568C369.44 268.277 377.631 249.382 377.631 249.382L369.59 244.678L363.455 264.379Z" stroke="#DDDDDD" stroke-linecap="round" stroke-linejoin="round"/>
<path d="M352.378 250.121L362.502 246.963L358.592 219.714L347.815 222.681L352.378 250.121Z" stroke="#DDDDDD" stroke-linecap="round" stroke-linejoin="round"/>
<path d="M334.16 220.878L345.352 218.089L349.854 243.659L340.674 245.63L334.16 220.878Z" stroke="#DDDDDD" stroke-linecap="round" stroke-linejoin="round"/>
<path d="M317.239 246.952L326.595 237.712L337.037 258.6L329.535 266.014L317.239 246.952Z" stroke="#DDDDDD" stroke-linecap="round" stroke-linejoin="round"/>
<path d="M242.195 410.057C236.793 422.993 231.762 452.371 229.723 465.609C229.723 465.609 247.376 474.435 275.41 473.214C303.443 471.993 309.11 465.755 309.11 465.755C309.11 465.755 312.473 423.609 303.593 405.801L242.195 410.057Z" fill="#FED81D"/>
<mask id="mask1_89_271" style="mask-type:alpha" maskUnits="userSpaceOnUse" x="229" y="405" width="81" height="69">
<path d="M242.195 410.057C236.793 422.993 231.762 452.371 229.723 465.609C229.723 465.609 247.376 474.435 275.41 473.214C303.443 471.993 309.11 465.755 309.11 465.755C309.11 465.755 312.473 423.609 303.593 405.801L242.195 410.057Z" fill="#FED81D"/>
</mask>
<g mask="url(#mask1_89_271)">
<path d="M309.825 415.478H305.279V421.246H309.825V415.478Z" stroke="white" stroke-width="0.75" stroke-linecap="round" stroke-linejoin="round"/>
<path d="M287.688 415.478H283.142V421.246H287.688V415.478Z" stroke="white" stroke-width="0.75" stroke-linecap="round" stroke-linejoin="round"/>
<path d="M265.55 415.478H261.005V421.246H265.55V415.478Z" stroke="white" stroke-width="0.75" stroke-linecap="round" stroke-linejoin="round"/>
<path d="M243.404 415.478H238.859V421.246H243.404V415.478Z" stroke="white" stroke-width="0.75" stroke-linecap="round" stroke-linejoin="round"/>
<path d="M309.825 451.127H305.279V456.895H309.825V451.127Z" stroke="white" stroke-width="0.75" stroke-linecap="round" stroke-linejoin="round"/>
<path d="M287.688 451.127H283.142V456.895H287.688V451.127Z" stroke="white" stroke-width="0.75" stroke-linecap="round" stroke-linejoin="round"/>
<path d="M265.55 451.127H261.005V456.895H265.55V451.127Z" stroke="white" stroke-width="0.75" stroke-linecap="round" stroke-linejoin="round"/>
<path d="M243.404 451.127H238.859V456.895H243.404V451.127Z" stroke="white" stroke-width="0.75" stroke-linecap="round" stroke-linejoin="round"/>
<path d="M233.245 394.769H224.162V406.294H233.245V394.769Z" stroke="white" stroke-width="0.75" stroke-linecap="round" stroke-linejoin="round"/>
<path d="M255.93 394.769H246.847V406.294H255.93V394.769Z" stroke="white" stroke-width="0.75" stroke-linecap="round" stroke-linejoin="round"/>
<path d="M278.614 394.769H269.531V406.294H278.614V394.769Z" stroke="white" stroke-width="0.75" stroke-linecap="round" stroke-linejoin="round"/>
<path d="M301.298 394.769H292.216V406.294H301.298V394.769Z" stroke="white" stroke-width="0.75" stroke-linecap="round" stroke-linejoin="round"/>
<path d="M233.245 430.419H224.162V441.943H233.245V430.419Z" stroke="white" stroke-width="0.75" stroke-linecap="round" stroke-linejoin="round"/>
<path d="M255.93 430.419H246.847V441.943H255.93V430.419Z" stroke="white" stroke-width="0.75" stroke-linecap="round" stroke-linejoin="round"/>
<path d="M278.614 430.419H269.531V441.943H278.614V430.419Z" stroke="white" stroke-width="0.75" stroke-linecap="round" stroke-linejoin="round"/>
<path d="M301.298 430.419H292.216V441.943H301.298V430.419Z" stroke="white" stroke-width="0.75" stroke-linecap="round" stroke-linejoin="round"/>
<path d="M233.245 466.068H224.162V477.593H233.245V466.068Z" stroke="white" stroke-width="0.75" stroke-linecap="round" stroke-linejoin="round"/>
<path d="M255.93 466.068H246.847V477.593H255.93V466.068Z" stroke="white" stroke-width="0.75" stroke-linecap="round" stroke-linejoin="round"/>
<path d="M278.614 466.068H269.531V477.593H278.614V466.068Z" stroke="white" stroke-width="0.75" stroke-linecap="round" stroke-linejoin="round"/>
<path d="M301.298 466.068H292.216V477.593H301.298V466.068Z" stroke="white" stroke-width="0.75" stroke-linecap="round" stroke-linejoin="round"/>
</g>
<path d="M249.565 400.683C249.565 400.683 238.453 412.398 237.87 413.753C230.588 428.503 209.016 440.297 198.786 424.695C185.74 404.782 213.721 388.363 213.721 388.363C213.721 388.363 216.369 381.564 216.457 381.105L245.514 388.363L249.565 400.683Z" fill="#FEBD9D"/>
<path d="M315.403 339.945C314.635 347.236 309.754 391.611 307.327 401.747C304.899 411.883 299.436 414.974 296.32 414.974C294.44 414.974 286.99 415.287 278.137 415.702C272.329 415.959 265.912 416.284 260.087 416.575C245.373 417.315 237.87 413.742 237.87 413.742L238.206 412.947L244.596 398.028C240.025 399.214 235.321 399.316 230.721 398.331C229.529 398.068 228.351 397.72 227.19 397.289C221.956 395.363 218.01 389.751 215.627 385.372C214.625 383.55 213.74 381.628 212.979 379.627C216.897 367.693 221.371 356.065 226.378 344.806C230.376 335.947 233.519 330.313 234.993 328.443C237.914 324.747 246.776 321.409 254.5 319.393L268.499 314.6C268.499 314.6 277.758 285.312 277.758 284.942C277.758 284.572 306.682 274.94 306.682 274.94C312.093 288.924 315.293 304.117 316.1 319.662C316.409 326.436 316.175 333.231 315.403 339.945V339.945Z" fill="#A7CAF0"/>
<path d="M278.137 415.702C272.329 415.959 265.912 416.284 260.087 416.575C245.373 417.315 237.87 413.742 237.87 413.742L238.206 412.947L244.596 398.028C249.032 386.808 252.937 375.263 256.291 363.454C256.362 363.185 256.45 362.928 256.521 362.67C257.762 365.634 258.371 368.958 258.286 372.313C258.101 381.049 245.152 404.031 255.003 409.183C264.527 414.123 271.897 405.723 278.137 415.702Z" fill="#A7CAF0"/>
<path d="M316.056 319.662C311.484 324.612 306.25 331.803 305.076 339.743C302.878 354.505 287.026 368.617 270.723 351.571C257.139 337.369 246.52 333.527 226.334 344.851C230.332 335.991 233.475 330.358 234.949 328.487C237.87 324.791 246.732 321.454 254.456 319.438L268.455 314.644C268.455 314.644 271.288 252.283 271.288 251.924C271.288 251.566 303.125 260.683 303.125 260.683C309.772 278.177 315.509 307.958 316.056 319.662Z" fill="#A7CAF0"/>
<path d="M290.521 314.6C292.731 314.338 294.907 313.733 297 312.796" stroke="#83ADDF" stroke-width="0.75" stroke-linecap="round" stroke-linejoin="round"/>
<path d="M244.596 398.028C249.032 386.808 252.937 375.263 256.291 363.454C256.362 363.185 256.45 362.927 256.521 362.67C257.109 360.557 257.698 358.399 258.286 356.196" stroke="#83ADDF" stroke-width="0.75" stroke-linecap="round" stroke-linejoin="round"/>
<path d="M198.804 424.718C189.139 411.894 185.626 389.875 183.481 379.347C180.833 366.5 175.863 330.391 175.263 324.948C174.663 319.505 177.655 302.436 177.655 302.436C180.541 301.081 185.793 303.68 190.895 307.107L189.686 313.692C189.471 317.843 188.694 321.916 187.391 325.732C188.92 327.213 190.196 329.072 191.142 331.198L201.09 327.838C199.016 334.748 196.677 343.159 196.729 345.758C196.844 350.484 200.181 361.292 203.87 368.236C207.56 375.18 213.721 388.363 213.721 388.363C232.53 414.257 219.37 445.83 198.804 424.718Z" fill="#FEBD9D"/>
<path d="M177.629 302.403C177.629 302.403 174.654 319.483 175.245 324.915" stroke="#F4A789" stroke-width="0.75" stroke-linecap="round" stroke-linejoin="round"/>
<path d="M180.374 278.144C180.374 278.144 184.099 308.731 185.378 319.505C174.963 321.039 170.656 301.283 178.573 294.372C171.415 288.492 171.22 270.931 180.215 268.736C178.07 259.697 189.041 248.296 196.826 254.747C199.351 243.054 213.262 242.55 218.143 252.294L183.225 264.043L183.913 276.732C182.669 277.214 181.459 277.684 180.374 278.144Z" fill="#DDDDDD"/>
<path d="M186.429 323.044L186.941 332.553L226.343 319.393C226.343 319.393 228.426 297.262 221.753 254.5C221.594 253.38 221.426 252.361 221.241 251.264L218.143 252.294L215.371 253.235L183.225 264.043L183.913 276.732" fill="#DDDDDD"/>
<path d="M186.429 323.044L186.941 332.553L226.343 319.393C226.343 319.393 228.426 297.262 221.753 254.5C221.594 253.38 221.426 252.361 221.241 251.264L218.143 252.294L215.371 253.235L183.225 264.043L183.913 276.732" stroke="#DDDDDD" stroke-linecap="round" stroke-linejoin="round"/>
<path d="M214.78 310.836C214.78 310.836 185.793 323.772 185.793 323.156C185.793 323.055 185.626 321.689 185.378 319.483C184.098 308.708 180.374 278.121 180.374 278.121C181.459 277.662 182.642 277.192 183.904 276.699C194.187 272.745 209.193 267.963 209.193 267.963L214.78 310.836Z" fill="#DDDDDD"/>
<path d="M187.347 286.465L202.846 281.616" stroke="white" stroke-linecap="round" stroke-linejoin="round"/>
<path d="M188.432 294.272L206.253 289.153" stroke="white" stroke-linecap="round" stroke-linejoin="round"/>
<path d="M191.839 302.033L202.846 298.673" stroke="white" stroke-linecap="round" stroke-linejoin="round"/>
<path d="M177.02 325.52C179.897 317.68 186.393 309.011 188.847 311.184C191.301 313.356 187.347 325.743 187.347 325.743C190.512 328.887 192.58 333.478 193.11 338.534C193.11 338.534 179.465 345.668 177.02 325.52Z" fill="#FEBD9D"/>
<path d="M177.02 325.52C179.897 317.68 186.393 309.011 188.847 311.184C191.301 313.356 187.347 325.743 187.347 325.743C190.512 328.887 192.58 333.478 193.11 338.534" stroke="#F4A789" stroke-width="0.75" stroke-linecap="round" stroke-linejoin="round"/>
<path d="M252.99 172.472C250.033 160.409 248.206 152.099 246.459 146.488C244.031 138.648 246.953 134.089 251.287 145.894C253.202 151.125 255.497 157.542 255.497 157.542C255.497 157.542 262.753 155.974 266.089 159.435C269.425 162.896 271.897 170.982 272.903 184.545C272.903 184.545 280.291 203.652 282.798 210.652C285.305 217.652 297.282 248.419 303.099 260.705C308.474 280.126 275.984 295.593 271.261 251.88C271.261 251.88 265.595 229.86 264.306 221.64C263.017 213.419 257.704 190.616 257.704 190.616C257.704 190.616 248.745 178.968 247.668 177.176C246.591 175.384 242.372 161.619 244.137 160.701C245.903 159.782 248.727 162.526 250.881 171.083L252.99 172.472Z" fill="#FEBD9D"/>
<path d="M247.694 177.176C246.626 175.35 242.398 161.619 244.164 160.701C245.929 159.782 248.754 162.526 250.907 171.083L252.973 172.472C250.016 160.409 248.189 152.099 246.441 146.488C244.014 138.648 246.935 134.089 251.269 145.894C253.184 151.125 255.479 157.542 255.479 157.542C255.479 157.542 260.687 156.422 264.306 158.169" stroke="#F4A789" stroke-width="0.75" stroke-linecap="round" stroke-linejoin="round"/>
<path d="M255.497 157.542L257.324 162.884" stroke="#F4A789" stroke-width="0.75" stroke-linecap="round" stroke-linejoin="round"/>
<path d="M259.972 157.217L261.817 162.392" stroke="#F4A789" stroke-width="0.75" stroke-linecap="round" stroke-linejoin="round"/>
<path d="M264.156 158.057L266.001 163.243" stroke="#F4A789" stroke-width="0.75" stroke-linecap="round" stroke-linejoin="round"/>
<path d="M296.47 258.857C302.384 256.505 307.062 257.58 308.73 266.518C310.399 275.456 302.631 283.318 294.705 281.291L296.47 258.857Z" fill="#BF8228"/>
<path d="M300.689 267.985C300.574 270.627 300.17 273.235 299.489 275.736C297.692 281.946 294.595 287.418 290.53 291.561L286.999 299.043C286.999 299.043 260.652 305.886 261.031 253.526C258.542 249.673 259.337 241.206 266.592 234.486C277.413 224.54 295.34 236.233 292.586 252.126C292.56 252.126 301.325 251.846 300.689 267.985Z" fill="#BF8228"/>
<path d="M263.273 251.163C261.729 244.443 266.636 236.827 268.34 235.74" stroke="#7F542D" stroke-width="0.75" stroke-linecap="round" stroke-linejoin="round"/>
<path d="M299.489 275.736C297.692 281.946 294.595 287.418 290.53 291.561L286.999 299.043C286.999 299.043 260.652 305.886 261.031 253.526L269.858 238.115C269.646 238.764 266.107 260.078 272.506 278.972C277.855 294.854 294.899 284.348 299.489 275.736Z" fill="#BF8228"/>
<path d="M290.521 291.584C288.918 297.797 288.116 304.298 288.147 310.836C279.797 316.224 271.332 317.467 262.699 312.819C262.699 312.819 263.167 309.56 263.485 306.009C263.715 303.816 263.806 301.602 263.759 299.39C256.503 299.513 251.613 292.356 251.446 281.84C251.412 278.356 251.808 274.887 252.619 271.558V271.558C253.021 269.86 253.504 268.196 254.067 266.574C254.067 266.574 252.364 263.998 252.602 262.038C252.84 260.078 257.721 257.076 257.721 257.076C262.029 246.436 269.849 238.036 269.849 238.036C269.849 238.036 263.953 247.176 265.524 261.915C265.524 261.915 271.764 256.561 273.08 265.902C274.192 273.798 269.266 277.774 267.483 278.928C267.294 279.056 267.1 279.172 266.901 279.275C266.901 279.275 268.454 293.297 278.729 295.224C280.786 295.692 282.897 295.611 284.928 294.984C286.958 294.357 288.864 293.199 290.521 291.584V291.584Z" fill="#FEBD9D"/>
<path d="M261.517 257.95C262.214 257.95 262.779 257.233 262.779 256.348C262.779 255.464 262.214 254.747 261.517 254.747C260.82 254.747 260.255 255.464 260.255 256.348C260.255 257.233 260.82 257.95 261.517 257.95Z" fill="#683F1D"/>
<path d="M282.639 252.552C290.945 249.192 293.231 268.736 290.044 276.072C287.326 282.31 275.454 281.168 274.412 270.024C273.371 258.88 280.732 253.324 282.639 252.552Z" fill="#BF8228"/>
<path d="M281.597 257.502C283.177 254.142 285.71 255.128 287.034 257.625C288.358 260.123 289.603 267.324 285.216 267.929C279.832 268.668 279.814 261.288 281.597 257.502Z" fill="#BF8228"/>
<path d="M263.521 268.736C265.718 265.084 268.931 264.883 270.096 266.91" stroke="#F4A789" stroke-width="0.75" stroke-linecap="round" stroke-linejoin="round"/>
<path d="M263.918 268.131C268.658 266.652 268.022 276.654 262.585 273.137" stroke="#F4A789" stroke-width="0.75" stroke-linecap="round" stroke-linejoin="round"/>
<path d="M267.492 278.972C265.789 279.726 263.953 279.85 262.196 279.331" stroke="#F4A789" stroke-width="0.75" stroke-linecap="round" stroke-linejoin="round"/>
<path d="M281.147 253.448C281.147 253.448 273.468 265.532 279.32 271.547C285.172 277.561 289.312 269.699 289.312 269.699" stroke="#7F542D" stroke-width="0.75" stroke-linecap="round" stroke-linejoin="round"/>
<path d="M276.628 254.747C274.3 250.439 272.826 245.483 272.329 240.299" stroke="#7F542D" stroke-width="0.75" stroke-linecap="round" stroke-linejoin="round"/>
<path d="M263.582 247.937C264.677 246.056 267.793 249.875 267.793 253.067C267.793 254.68 261.879 250.872 263.582 247.937Z" fill="#BF8228"/>
<path d="M269.858 238.081C269.858 238.081 283.566 228.55 290.927 253.448" stroke="#7F542D" stroke-width="0.75" stroke-linecap="round" stroke-linejoin="round"/>
<path d="M274.783 239.761C277.828 242.203 282.418 249.841 282.418 249.841" stroke="#7F542D" stroke-width="0.75" stroke-linecap="round" stroke-linejoin="round"/>
<path d="M282.674 255.968C282.233 258.633 280.106 266.339 287.599 265.622" stroke="#7F542D" stroke-width="0.75" stroke-linecap="round" stroke-linejoin="round"/>
<path d="M299.789 274.548C299.789 274.548 307.795 269.811 305.782 262.027" stroke="#7F542D" stroke-width="0.75" stroke-linecap="round" stroke-linejoin="round"/>
<path d="M300.663 264.368C301.996 263.841 303.452 260.369 303.452 260.369" stroke="#7F542D" stroke-width="0.75" stroke-linecap="round" stroke-linejoin="round"/>
<path d="M270.979 275.59C273.062 277.83 277.546 289.467 293.699 282.433" stroke="#7F542D" stroke-width="0.75" stroke-linecap="round" stroke-linejoin="round"/>
<path d="M289.63 256.953C298.359 259.328 296.885 270.942 294.705 275.59" stroke="#7F542D" stroke-width="0.75" stroke-linecap="round" stroke-linejoin="round"/>
<path d="M255.338 270.976C255.7 272.868 257.571 273.921 259.522 273.316C261.473 272.712 262.744 270.696 262.382 268.836C262.02 266.977 260.14 265.891 258.198 266.496C256.256 267.1 254.976 269.083 255.338 270.976Z" fill="#F4A789"/>
<path d="M273.733 288.582C279.029 292.726 288.438 292.02 294.325 286.902" stroke="#7F542D" stroke-width="0.75" stroke-linecap="round" stroke-linejoin="round"/>
<path d="M270.096 240.948C269.214 247.276 270.379 256.897 271.641 259.339" stroke="#7F542D" stroke-width="0.75" stroke-linecap="round" stroke-linejoin="round"/>
<path d="M272.329 273.092C275.454 277.147 283.063 281.459 289.735 276.699" stroke="#7F542D" stroke-width="0.75" stroke-linecap="round" stroke-linejoin="round"/>
<path d="M257.068 274.235C256.492 275.412 255.682 276.376 254.721 277.033C253.759 277.689 252.678 278.014 251.587 277.976C251.713 276.467 251.916 274.97 252.196 273.496C252.275 273.092 252.364 272.667 252.461 272.241C253.76 273.583 255.394 274.29 257.068 274.235V274.235Z" fill="white" stroke="#F4A789" stroke-width="0.75" stroke-linecap="round" stroke-linejoin="round"/>
<path d="M254.076 266.574C254.076 266.574 252.214 263.561 252.611 262.038C253.008 260.515 256.08 257.872 257.73 257.076" stroke="#F4A789" stroke-width="0.75" stroke-linecap="round" stroke-linejoin="round"/>
<path d="M270.052 296.825C270.022 299.114 269.334 301.31 268.119 303C266.903 304.691 265.243 305.761 263.45 306.009C263.679 303.816 263.771 301.602 263.723 299.39C266.804 299.972 270.052 296.825 270.052 296.825Z" fill="#F4A789"/>
<path d="M113.106 89.0095C112.606 88.9699 112.107 88.8913 111.614 88.7743L92.549 121.254L91.9929 121.086L78.6912 116.897C74.5427 119.137 72.7598 114.008 74.0484 110.245C73.5542 110.894 70.3236 110.491 71.78 106.235C68.7172 107.243 66.0515 98.5967 70.306 95.9647C66.6517 96.5023 68.0905 86.2095 71.9742 88.1247C68.8937 85.5711 73.3953 74.4271 78.6912 78.1231C76.7229 75.5695 79.6886 69.7455 83.1045 71.5935C80.8096 66.8335 89.2832 58.6016 94.0054 66.0607C94.3585 62.7007 97.8097 61.5248 99.3014 65.1759C99.1866 60.9312 105.427 59.9008 104.959 66.7887C107.016 63.4288 112.091 68.9279 109.505 73.3743C112.435 69.1071 119.099 75.1327 115.481 80.1951C119.567 82.0655 119.205 89.4239 113.106 89.0095Z" fill="#683F1D"/>
<path d="M113.106 89.0095C112.606 88.9699 112.107 88.8914 111.614 88.7743L92.549 121.254L91.9929 121.086L88.9478 114.624C80.3418 115.453 77.9675 107.994 81.3657 102.237C78.7177 100.624 79.6798 89.2559 85.1611 89.9167C83.6694 86.1647 87.3766 75.6704 95.3117 80.4976C96.1944 76.1632 101.49 74.36 104.783 80.4976C106.151 76.712 114.457 76.5328 113.106 89.0095Z" fill="#683F1D"/>
<path d="M105.586 141.078C104.359 156.758 85.7878 153.51 86.591 143.027C86.6066 137.918 86.267 132.817 85.576 127.784C81.1627 127.504 78.5853 125.197 78.7353 119.283C78.8854 113.369 84.5609 108.665 90.6777 113.929C91.2718 111.994 91.4628 109.898 91.2324 107.842C91.0021 105.786 90.3581 103.84 89.3626 102.192C85.929 96.0431 90.9514 88.2031 95.6118 88.2031C100.272 88.2031 109.734 88.4831 109.593 81.9199C113.13 89.4485 115.867 97.5379 117.731 105.977C117.811 106.325 117.881 106.672 117.952 107.019C118.358 109.013 118.711 111.073 118.985 113.157C119.038 113.537 119.082 113.929 119.135 114.277C119.188 114.624 119.205 114.825 119.232 115.105C121.2 132.017 118.632 142.411 105.586 141.078Z" fill="#B25E47"/>
<path d="M102.258 103.883C102.257 104.203 102.33 104.516 102.469 104.783C102.608 105.05 102.806 105.259 103.039 105.382C103.271 105.506 103.528 105.539 103.775 105.477C104.023 105.415 104.25 105.261 104.428 105.035C104.606 104.808 104.728 104.52 104.776 104.206C104.825 103.892 104.799 103.567 104.702 103.272C104.605 102.977 104.44 102.725 104.23 102.549C104.02 102.372 103.773 102.279 103.521 102.282C103.186 102.284 102.867 102.454 102.631 102.754C102.394 103.054 102.261 103.459 102.258 103.883Z" fill="#683F1D"/>
<path d="M110.776 100.635C110.761 100.857 110.783 101.081 110.84 101.292C110.897 101.503 110.988 101.697 111.107 101.861C111.226 102.025 111.371 102.157 111.532 102.246C111.693 102.336 111.867 102.382 112.043 102.382C112.218 102.382 112.392 102.336 112.553 102.246C112.714 102.157 112.859 102.025 112.978 101.861C113.097 101.697 113.188 101.503 113.245 101.292C113.302 101.081 113.324 100.857 113.309 100.635C113.283 100.232 113.138 99.8563 112.903 99.5824C112.668 99.3086 112.361 99.1566 112.043 99.1566C111.724 99.1566 111.417 99.3086 111.182 99.5824C110.947 99.8563 110.802 100.232 110.776 100.635V100.635Z" fill="#683F1D"/>
<path d="M88.9477 122.923C85.3288 125.353 83.4135 119.249 87.7561 118.331C87.2461 117.886 86.6679 117.582 86.0592 117.439C85.4505 117.296 84.8249 117.317 84.2231 117.501C83.6212 117.685 83.0566 118.027 82.5658 118.506C82.0751 118.985 81.6692 119.589 81.3745 120.28" stroke="#914839" stroke-width="0.75" stroke-linecap="round" stroke-linejoin="round"/>
<path d="M107.801 92.1119C107.448 95.8639 107.378 100.053 107.801 100.635C108.225 101.218 113.503 105.798 114.174 106.37C114.845 106.941 113.468 109.427 111.341 110.379" stroke="#914839" stroke-width="0.75" stroke-linecap="round" stroke-linejoin="round"/>
<path d="M106.689 127.145C109.187 129.061 114.995 121.344 112.744 118.32C108.896 113.157 104.827 125.712 106.689 127.145Z" fill="white" stroke="#914839" stroke-width="0.75" stroke-linecap="round" stroke-linejoin="round"/>
<path d="M95.6206 95.1359C98.4009 89.4575 102.894 88.0911 103.45 90.2079C104.509 94.2287 93.3433 99.7839 95.6206 95.1359Z" fill="#683F1D"/>
<path d="M109.734 94.2624C109.734 92.0896 114.148 94.632 114.624 96.2336C115.101 97.8352 109.699 97.2864 109.734 94.2624Z" fill="#683F1D"/>
<path d="M105.921 115.173C105.48 117.536 102.894 118.79 100.149 117.973C97.4036 117.155 95.5236 114.613 95.9561 112.205C96.3886 109.797 98.9836 108.587 101.729 109.405C104.474 110.222 106.354 112.843 105.921 115.173Z" fill="#914839"/>
<path d="M119.117 114.265C118.556 114.409 117.974 114.36 117.433 114.124C116.892 113.888 116.41 113.473 116.037 112.921C114.951 111.074 115.728 108.038 117.714 105.922C117.793 106.269 117.864 106.616 117.934 106.963C118.34 108.957 118.693 111.017 118.967 113.101C119.038 113.481 119.117 113.873 119.117 114.265Z" fill="#914839"/>
<path d="M135.279 416.665H135.323C135.323 416.665 139.003 406.775 133.249 401.747C128.932 397.972 119.391 398.711 117.837 395.217C117.431 394.31 121.165 385.921 126.178 375.471C132.834 361.662 141.749 344.257 146.356 335.868C154.424 321.163 158.907 305.192 144.988 286.443C136.938 277.785 125.066 288.403 117.908 312.763C115.331 321.555 105.957 352.836 101.967 366.075C98.4364 377.801 96.0002 385.451 94.9499 387.679C94.7822 388.049 94.5791 388.497 94.3761 388.979C91.9223 394.836 87.3148 408.825 89.5568 414.873" fill="#B25E47"/>
<path d="M135.323 416.654C135.323 416.654 92.805 421.212 89.5568 414.895C86.441 408.836 92.7432 392.495 94.9499 387.702C96.0002 385.462 98.4099 377.823 101.967 366.097C109.629 364.529 118.985 365.335 126.178 375.46C121.165 385.91 117.431 394.299 117.837 395.206C119.391 398.7 128.932 397.961 133.249 401.735C139.003 406.764 135.323 416.654 135.323 416.654Z" fill="#683F1D"/>
<path d="M118.552 396.203C115.287 394.491 112.121 392.484 109.081 390.2C105.118 387.142 99.4955 386.929 94.4026 388.968C94.5968 388.497 94.791 388.094 94.9498 387.747C96.0002 385.507 98.4099 377.868 101.967 366.142C109.628 364.574 118.985 365.38 126.178 375.505C121.165 385.955 117.431 394.344 117.837 395.251C118.015 395.633 118.26 395.958 118.552 396.203V396.203Z" fill="white"/>
<path d="M120.265 400.324C124.934 392.092 132.189 388.004 132.286 392.91C132.384 397.815 121.465 402.643 121.465 402.643" stroke="#683F1D" stroke-width="0.75" stroke-linecap="round" stroke-linejoin="round"/>
<path d="M120.265 398.017C119.885 391.129 126.161 380.679 128.906 381.867C132.666 383.502 124.298 395.307 119.082 400.671" stroke="#683F1D" stroke-width="0.75" stroke-linecap="round" stroke-linejoin="round"/>
<path d="M194.788 64.616C197.065 54.536 197.692 43.224 200.084 42.7984C202.476 42.3728 201.611 51.008 201.611 51.008L203.897 54.4464L195.856 66.9232L194.788 64.616Z" fill="#B25E47"/>
<path d="M196.173 57.4144C197.462 49.7872 198.265 43.1232 200.11 42.8544C202.537 42.4288 201.637 51.064 201.637 51.064" stroke="#914839" stroke-width="0.75" stroke-linecap="round" stroke-linejoin="round"/>
<path d="M226.052 59.8223C224.373 61.4344 222.603 62.8868 220.756 64.1678C220.756 64.1678 215.777 77.7982 209.502 80.363C209.502 80.363 204.382 99.7502 198.027 118.622C191.672 137.494 174.875 155.806 174.875 155.806C151.829 173.614 132.913 138.603 160.487 117.323C163.331 114.96 165.991 112.26 168.431 109.259C183.737 90.051 207.886 37.9487 210.296 33.2447C212.706 28.5407 214.965 29.5711 213.032 36.7167C211.17 43.6495 209.749 49.0367 209.669 49.3839C210.049 48.8911 219.908 36.3359 222.027 34.0623C224.004 31.9791 227.022 33.8607 223.474 40.6031C227.005 34.7791 230.385 35.4287 227.005 43.6719C224.913 48.7679 220.041 56.6639 219.741 57.1119C220.208 56.8095 228.09 51.5791 230.332 52.1727C232.574 52.7663 229.547 56.6191 226.052 59.8223Z" fill="#B25E47"/>
<path d="M199.987 54.3232C205.406 43.4368 209.378 34.9808 210.287 33.2112C212.706 28.5184 214.957 29.5376 213.023 36.6832C211.161 43.616 209.74 49.0032 209.661 49.3504C210.04 48.8576 219.899 36.3024 222.018 34.0288C223.995 31.9456 227.014 33.8272 223.465 40.5696C226.996 34.7456 230.377 35.3952 226.996 43.6384C224.904 48.7344 220.032 56.6304 219.732 57.0784C220.2 56.776 228.082 51.5456 230.324 52.1392C232.566 52.7328 229.441 56.6192 225.963 59.7664C224.285 61.3784 222.515 62.8309 220.667 64.112" stroke="#914839" stroke-width="0.75" stroke-linecap="round" stroke-linejoin="round"/>
<path d="M223.492 40.5696C219.705 47.2896 214.233 55.2528 214.233 55.2528" stroke="#914839" stroke-width="0.75" stroke-linecap="round" stroke-linejoin="round"/>
<path d="M30.1096 349.7C29.5182 353.486 33.1107 360.441 42.3698 363.532L44.7353 342.331C39.4302 343.093 34.3814 345.637 30.1096 349.7V349.7Z" fill="#83ADDF"/>
<path d="M39.4216 342.331C39.0951 364.999 38.0977 374.038 38.0977 375.505C38.0977 375.505 26.1817 414.369 22.704 445.673C22.704 445.673 29.6594 461.218 50.1901 454.711C50.1901 454.711 65.2571 400.951 68.3994 386.851C71.5417 372.75 72.0448 352.926 72.0448 352.926L39.4216 342.331Z" fill="#B25E47"/>
<path d="M22.6688 202.913C23.1361 204.686 23.8804 206.32 24.8571 207.719C25.8338 209.118 27.0228 210.253 28.3531 211.056L33.0842 201.939C29.6178 200.869 25.974 201.21 22.6688 202.913V202.913Z" fill="#FCC71F"/>
<path d="M30.0125 198.904C21.9097 213.677 13.339 230.936 16.9668 244.88C20.5945 258.824 40.3485 261.769 52.4497 244.88L56.863 206.195L30.0125 198.904Z" fill="#B25E47"/>
<path d="M50.1637 234.15C45.0972 249.83 36.4736 292.793 30.1096 349.7C30.1096 349.7 58.6813 347.46 72.6892 360.766C73.0864 359.926 80.0947 308.126 80.8891 306.256C81.6835 304.385 86.5734 304.083 87.765 305.08C88.9566 306.076 115.701 326.864 118.658 328.062C135.084 334.603 153.541 299.468 144.997 286.443C141.351 280.843 131.245 268.668 116.178 235.965L50.1637 234.15Z" fill="#A7CAF0"/>
<mask id="mask2_89_271" style="mask-type:alpha" maskUnits="userSpaceOnUse" x="30" y="234" width="118" height="127">
<path d="M50.1636 234.15C45.0971 249.83 36.4735 292.793 30.1095 349.7C30.1095 349.7 58.6812 347.46 72.6891 360.766C73.0863 359.926 80.0946 308.126 80.889 306.256C81.6834 304.385 86.5733 304.083 87.7649 305.08C88.9565 306.076 115.701 326.864 118.658 328.062C135.084 334.603 153.541 299.468 144.997 286.443C141.351 280.843 131.245 268.668 116.178 235.965L50.1636 234.15Z" fill="#A7CAF0"/>
</mask>
<g mask="url(#mask2_89_271)">
<path d="M145.968 258.297H141.422V264.065H145.968V258.297Z" stroke="white" stroke-width="0.75" stroke-linecap="round" stroke-linejoin="round"/>
<path d="M123.822 258.297H119.276V264.065H123.822V258.297Z" stroke="white" stroke-width="0.75" stroke-linecap="round" stroke-linejoin="round"/>
<path d="M101.684 258.297H97.1388V264.065H101.684V258.297Z" stroke="white" stroke-width="0.75" stroke-linecap="round" stroke-linejoin="round"/>
<path d="M79.5474 258.297H75.0017V264.065H79.5474V258.297Z" stroke="white" stroke-width="0.75" stroke-linecap="round" stroke-linejoin="round"/>
<path d="M57.4014 258.297H52.8557V264.065H57.4014V258.297Z" stroke="white" stroke-width="0.75" stroke-linecap="round" stroke-linejoin="round"/>
<path d="M35.2643 258.297H30.7186V264.065H35.2643V258.297Z" stroke="white" stroke-width="0.75" stroke-linecap="round" stroke-linejoin="round"/>
<path d="M145.968 293.936H141.422V299.704H145.968V293.936Z" stroke="white" stroke-width="0.75" stroke-linecap="round" stroke-linejoin="round"/>
<path d="M123.822 293.936H119.276V299.704H123.822V293.936Z" stroke="white" stroke-width="0.75" stroke-linecap="round" stroke-linejoin="round"/>
<path d="M101.684 293.936H97.1388V299.704H101.684V293.936Z" stroke="white" stroke-width="0.75" stroke-linecap="round" stroke-linejoin="round"/>
<path d="M79.5474 293.936H75.0017V299.704H79.5474V293.936Z" stroke="white" stroke-width="0.75" stroke-linecap="round" stroke-linejoin="round"/>
<path d="M57.4014 293.936H52.8557V299.704H57.4014V293.936Z" stroke="white" stroke-width="0.75" stroke-linecap="round" stroke-linejoin="round"/>
<path d="M35.2643 293.936H30.7186V299.704H35.2643V293.936Z" stroke="white" stroke-width="0.75" stroke-linecap="round" stroke-linejoin="round"/>
<path d="M145.968 329.585H141.422V335.353H145.968V329.585Z" stroke="white" stroke-width="0.75" stroke-linecap="round" stroke-linejoin="round"/>
<path d="M123.822 329.585H119.276V335.353H123.822V329.585Z" stroke="white" stroke-width="0.75" stroke-linecap="round" stroke-linejoin="round"/>
<path d="M101.684 329.585H97.1388V335.353H101.684V329.585Z" stroke="white" stroke-width="0.75" stroke-linecap="round" stroke-linejoin="round"/>
<path d="M79.5474 329.585H75.0017V335.353H79.5474V329.585Z" stroke="white" stroke-width="0.75" stroke-linecap="round" stroke-linejoin="round"/>
<path d="M57.4014 329.585H52.8557V335.353H57.4014V329.585Z" stroke="white" stroke-width="0.75" stroke-linecap="round" stroke-linejoin="round"/>
<path d="M35.2643 329.585H30.7186V335.353H35.2643V329.585Z" stroke="white" stroke-width="0.75" stroke-linecap="round" stroke-linejoin="round"/>
<path d="M47.7805 237.588H38.6979V249.113H47.7805V237.588Z" stroke="white" stroke-width="0.75" stroke-linecap="round" stroke-linejoin="round"/>
<path d="M70.4648 237.588H61.3822V249.113H70.4648V237.588Z" stroke="white" stroke-width="0.75" stroke-linecap="round" stroke-linejoin="round"/>
<path d="M93.1492 237.588H84.0667V249.113H93.1492V237.588Z" stroke="white" stroke-width="0.75" stroke-linecap="round" stroke-linejoin="round"/>
<path d="M115.834 237.588H106.751V249.113H115.834V237.588Z" stroke="white" stroke-width="0.75" stroke-linecap="round" stroke-linejoin="round"/>
<path d="M138.518 237.588H129.435V249.113H138.518V237.588Z" stroke="white" stroke-width="0.75" stroke-linecap="round" stroke-linejoin="round"/>
<path d="M47.7805 273.238H38.6979V284.763H47.7805V273.238Z" stroke="white" stroke-width="0.75" stroke-linecap="round" stroke-linejoin="round"/>
<path d="M70.4648 273.238H61.3822V284.763H70.4648V273.238Z" stroke="white" stroke-width="0.75" stroke-linecap="round" stroke-linejoin="round"/>
<path d="M93.1492 273.238H84.0667V284.763H93.1492V273.238Z" stroke="white" stroke-width="0.75" stroke-linecap="round" stroke-linejoin="round"/>
<path d="M115.834 273.238H106.751V284.763H115.834V273.238Z" stroke="white" stroke-width="0.75" stroke-linecap="round" stroke-linejoin="round"/>
<path d="M138.518 273.238H129.435V284.763H138.518V273.238Z" stroke="white" stroke-width="0.75" stroke-linecap="round" stroke-linejoin="round"/>
<path d="M47.7805 308.876H38.6979V320.401H47.7805V308.876Z" stroke="white" stroke-width="0.75" stroke-linecap="round" stroke-linejoin="round"/>
<path d="M70.4648 308.876H61.3822V320.401H70.4648V308.876Z" stroke="white" stroke-width="0.75" stroke-linecap="round" stroke-linejoin="round"/>
<path d="M93.1492 308.876H84.0667V320.401H93.1492V308.876Z" stroke="white" stroke-width="0.75" stroke-linecap="round" stroke-linejoin="round"/>
<path d="M115.834 308.876H106.751V320.401H115.834V308.876Z" stroke="white" stroke-width="0.75" stroke-linecap="round" stroke-linejoin="round"/>
<path d="M138.518 308.876H129.435V320.401H138.518V308.876Z" stroke="white" stroke-width="0.75" stroke-linecap="round" stroke-linejoin="round"/>
<path d="M47.7805 344.526H38.6979V356.051H47.7805V344.526Z" stroke="white" stroke-width="0.75" stroke-linecap="round" stroke-linejoin="round"/>
<path d="M70.4648 344.526H61.3822V356.051H70.4648V344.526Z" stroke="white" stroke-width="0.75" stroke-linecap="round" stroke-linejoin="round"/>
<path d="M93.1492 344.526H84.0667V356.051H93.1492V344.526Z" stroke="white" stroke-width="0.75" stroke-linecap="round" stroke-linejoin="round"/>
<path d="M115.834 344.526H106.751V356.051H115.834V344.526Z" stroke="white" stroke-width="0.75" stroke-linecap="round" stroke-linejoin="round"/>
<path d="M138.518 344.526H129.435V356.051H138.518V344.526Z" stroke="white" stroke-width="0.75" stroke-linecap="round" stroke-linejoin="round"/>
</g>
<path d="M78.7178 150.128C85.5937 138.67 95.1529 132.566 110.776 143.05C110.776 143.083 89.7422 155.649 78.7178 150.128Z" fill="white"/>
<path d="M175.475 164.777C175.475 164.777 139.118 181.577 136.92 184.937C134.723 188.297 128.712 213.833 125.764 227.027C122.815 240.221 120.141 243.412 120.141 243.412C120.141 243.412 94.7203 238.686 76.5022 240.512C58.2841 242.337 49.3163 241.766 47.1979 240.612C45.0795 239.459 44.6911 235.125 45.9092 230.409C46.0239 229.961 46.1563 229.446 46.2976 228.864C47.7451 223.264 50.7109 211.907 50.7109 211.907C43.9193 208.811 36.9794 206.267 29.933 204.291C27.5242 203.631 25.0868 203.152 22.6334 202.857C28.6566 192.497 35.0906 182.531 41.9107 172.998C44.391 169.638 47.0213 166.368 49.6605 163.389C57.6044 154.429 65.5484 147.709 69.538 146.589C74.834 145.043 82.1336 146.712 92.8226 145.278C113.689 142.478 142.843 132.118 160.452 117.211C162.689 121.31 164.751 125.557 166.631 129.934C170.153 138.084 172.911 146.73 174.848 155.694C174.848 155.694 175.775 161.496 175.475 164.777Z" fill="#FED81D"/>
<path d="M60.7203 170.904L50.6844 211.963C43.8929 208.867 36.9529 206.323 29.9066 204.347C32.6075 199.117 37.0385 195.689 42.2638 197.817C50.7197 201.323 51.7701 171.71 60.7203 170.904Z" fill="#FCC71F"/>
<path d="M166.578 130.013C151.281 131.054 126.072 147.361 114.907 167.141C101.808 190.347 82.9633 187.301 74.2338 170.904C67.7374 158.752 60.7203 160.297 49.634 163.445C57.578 154.485 65.5219 147.765 69.5116 146.645C74.8075 145.099 82.1071 146.768 92.7961 145.334C113.662 142.534 142.817 132.174 160.426 117.267C162.654 121.374 164.707 125.628 166.578 130.013V130.013Z" fill="#FED81D"/>
<path d="M62.0619 165.393L60.7203 170.904L50.6844 211.963" stroke="#FCC71F" stroke-width="0.75" stroke-linecap="round" stroke-linejoin="round"/>
<path d="M91.7546 267.985C98.6869 268.984 105.696 268.713 112.568 267.179" stroke="#83ADDF" stroke-width="0.75" stroke-linecap="round" stroke-linejoin="round"/>
</svg>
