<svg width="360" height="356" viewBox="0 0 360 356" fill="none" xmlns="http://www.w3.org/2000/svg">
<path d="M17.2165 60.3862V283.297H335.075V60.3862C335.077 57.4329 334.497 54.508 333.368 51.779C332.239 49.05 330.583 46.5704 328.495 44.4821C326.406 42.3938 323.927 40.7377 321.198 39.6086C318.469 38.4795 315.544 37.8996 312.591 37.902H39.7007C33.7375 37.902 28.0186 40.2708 23.802 44.4875C19.5854 48.7041 17.2165 54.423 17.2165 60.3862Z" stroke="#DDDDDD" stroke-width="2.98818" stroke-linecap="round" stroke-linejoin="round"/>
<path d="M17.2165 60.3862V61.3883H335.075V60.3862C335.077 57.4329 334.497 54.508 333.368 51.779C332.239 49.05 330.583 46.5704 328.495 44.4821C326.406 42.3938 323.927 40.7377 321.198 39.6086C318.469 38.4795 315.544 37.8996 312.591 37.902H39.7007C33.7375 37.902 28.0186 40.2708 23.802 44.4875C19.5854 48.7041 17.2165 54.423 17.2165 60.3862Z" stroke="#DDDDDD" stroke-width="2.98818" stroke-linecap="round" stroke-linejoin="round"/>
<path d="M60.2357 49.6541C60.2357 50.4649 60.4762 51.2575 60.9266 51.9317C61.3771 52.6059 62.0174 53.1314 62.7665 53.4417C63.5156 53.7519 64.3399 53.8331 65.1351 53.6749C65.9304 53.5168 66.6609 53.1263 67.2342 52.553C67.8076 51.9796 68.198 51.2491 68.3562 50.4539C68.5144 49.6586 68.4332 48.8343 68.1229 48.0852C67.8126 47.3361 67.2872 46.6958 66.613 46.2454C65.9388 45.7949 65.1462 45.5544 64.3354 45.5544C63.2481 45.5544 62.2053 45.9864 61.4365 46.7552C60.6676 47.524 60.2357 48.5668 60.2357 49.6541Z" fill="#DDDDDD"/>
<path d="M46.8974 49.6541C46.8974 50.4649 47.1378 51.2575 47.5883 51.9317C48.0387 52.6059 48.679 53.1314 49.4281 53.4417C50.1772 53.7519 51.0015 53.8331 51.7968 53.6749C52.592 53.5168 53.3225 53.1263 53.8959 52.553C54.4692 51.9796 54.8597 51.2491 55.0178 50.4539C55.176 49.6586 55.0948 48.8343 54.7846 48.0852C54.4743 47.3361 53.9488 46.6958 53.2746 46.2454C52.6004 45.7949 51.8078 45.5544 50.997 45.5544C49.9097 45.5544 48.867 45.9864 48.0981 46.7552C47.3293 47.524 46.8974 48.5668 46.8974 49.6541Z" fill="#DDDDDD"/>
<path d="M33.5603 49.6541C33.5603 50.4649 33.8007 51.2575 34.2512 51.9317C34.7017 52.6059 35.342 53.1314 36.0911 53.4417C36.8402 53.7519 37.6645 53.8331 38.4597 53.6749C39.255 53.5168 39.9855 53.1263 40.5588 52.553C41.1322 51.9796 41.5226 51.2491 41.6808 50.4539C41.839 49.6586 41.7578 48.8343 41.4475 48.0852C41.1372 47.3361 40.6117 46.6958 39.9376 46.2454C39.2634 45.7949 38.4708 45.5544 37.6599 45.5544C36.5726 45.5544 35.5299 45.9864 34.7611 46.7552C33.9922 47.524 33.5603 48.5668 33.5603 49.6541Z" fill="#DDDDDD"/>
<path d="M328.296 157.302C329.116 147.973 287.956 130.317 281.196 143.946L294.57 157.302C294.57 157.302 322.393 168.289 328.296 157.302Z" fill="#83ADDF"/>
<path d="M308.126 90.6507C314.139 72.0657 314.558 69.7881 310.568 68.3487C306.577 66.9093 296.41 88.0816 295.262 90.6507C291.242 98.7829 288.144 107.339 286.025 116.16C284.203 124.395 281.925 143.381 281.542 147.954C279.975 167.25 311.789 173.099 313.173 158.103C314.558 143.108 314.704 138.243 314.704 138.243C314.704 138.243 331.102 139.81 333.416 127.529C334.861 117.926 335.416 108.209 335.074 98.5038C335.074 98.5038 360.037 94.3677 359.144 87.7901C358.251 81.2124 309.42 94.5135 309.42 94.5135L308.126 90.6507Z" fill="#B25E47"/>
<path d="M335.074 98.5038C335.074 98.5038 360.037 94.3677 359.144 87.7901C358.251 81.2124 309.42 94.5135 309.42 94.5135L308.126 90.6507C314.139 72.0657 314.558 69.7881 310.568 68.3487C306.577 66.9093 296.41 88.0816 295.262 90.6507" stroke="#914839" stroke-width="1.11146" stroke-linecap="round" stroke-linejoin="round"/>
<path d="M309.456 94.5133C311.57 102.725 311.208 111.378 308.418 119.384" stroke="#914839" stroke-width="1.11146" stroke-linecap="round" stroke-linejoin="round"/>
<path d="M321.154 80.2829C317.237 82.3237 314.157 82.7609 312.991 77.1854C311.825 71.6099 317.237 71.4277 319.059 71.7193C321.847 72.1748 322.83 79.3901 321.154 80.2829Z" fill="#683F1D"/>
<path d="M320.371 78.8257C321.245 81.8139 321.883 85.5491 321.865 85.4398C321.209 85.7677 317.455 87.0614 316.872 85.7677C316.285 83.4881 315.871 81.1675 315.633 78.8257H320.371Z" fill="#683F1D"/>
<path d="M323.905 87.2982C325.964 96.4085 336.532 146.625 336.878 148.264C337.224 149.904 336.769 157.484 336.113 157.776C335.457 158.067 331.813 152.637 330.446 149.886C329.08 147.135 317.236 92.0903 316.489 89.5211C314.667 83.2715 322.557 81.3219 323.905 87.2982Z" fill="#683F1D"/>
<path d="M333.216 115.777C338.336 116.961 339.794 121.844 336.004 125.088C331.941 128.568 321.937 126.91 321.427 122.555C320.917 118.2 328.952 114.793 333.216 115.777Z" fill="#B25E47" stroke="#914839" stroke-width="1.11146" stroke-linecap="round" stroke-linejoin="round"/>
<path d="M333.636 107.76C338.883 106.995 340.177 112.188 336.423 116.287C332.67 120.387 320.298 121.225 319.606 116.433C318.913 111.641 330.447 108.234 333.636 107.76Z" fill="#B25E47" stroke="#914839" stroke-width="1.11146" stroke-linecap="round" stroke-linejoin="round"/>
<path d="M338.318 98.7952C331.722 97.2282 317.437 106.922 318.002 109.928C318.695 113.7 325.418 114.283 334.984 110.219C343.948 106.43 341.561 99.5604 338.318 98.7952Z" fill="#B25E47" stroke="#914839" stroke-width="1.11146" stroke-linecap="round" stroke-linejoin="round"/>
<mask id="mask0_15_899" style="mask-type:alpha" maskUnits="userSpaceOnUse" x="17" y="58" width="320" height="226">
<rect width="319" height="225" transform="matrix(-1 0 0 1 336.663 58.8008)" fill="#C4C4C4"/>
</mask>
<g mask="url(#mask0_15_899)">
<path d="M20.6241 171.55C41.104 170.548 58.0674 189.042 63.3149 210.269C63.4789 210.852 63.6065 211.508 63.734 212.2C64.2982 215.469 64.6874 218.765 64.9001 222.076C67.0866 250.099 65.0277 305.89 64.9001 307.129C64.809 307.585 79.4766 307.129 99.6104 306.182C107.044 305.836 115.262 305.453 123.789 305.016C167.227 302.884 218.81 300.005 218.81 300.005L221.925 265.185C221.925 265.185 228.43 276.118 250.641 297.636C272.852 319.155 308.4 307.129 304.574 280.145C302.187 263.199 292.166 250.791 280.049 230.056C276.405 223.624 272.36 216.409 268.37 208.009C263.067 196.84 257.893 186.145 252.955 176.542C250.787 172.297 248.655 168.27 246.596 164.462C238.798 150.086 231.801 139.19 226.171 134.106C209.244 118.801 173.003 127.62 163.346 130.717C148.934 135.402 133.98 138.219 118.851 139.099C97.4239 140.593 64.9001 149.831 47.6635 155.825C37.7009 159.162 28.5291 164.508 20.7152 171.532L20.6241 171.55Z" fill="#A7CAF0"/>
<path d="M6.21156 203.363C24.9606 184.541 53.4394 176.324 82.0093 201.796C115.244 231.405 140.753 236.543 178.141 193.305C205.181 162.039 214.582 154.058 246.523 164.462C238.725 150.086 231.728 139.19 226.098 134.106C209.171 118.801 172.93 127.62 163.273 130.717C148.861 135.402 133.907 138.219 118.778 139.099C97.351 140.593 64.8273 149.831 47.5906 155.825C37.628 159.162 28.4562 164.508 20.6423 171.532C13.263 177.435 8.89 189.26 6.21156 203.363Z" fill="#A7CAF0"/>
<path d="M253.465 257.168C265.363 270.123 276.149 242.009 280.012 230.056C276.368 223.624 272.323 216.409 268.333 208.009C263.03 196.84 257.856 186.144 252.918 176.542C244.117 190.007 256.015 202.342 256.854 208.446C258.931 224.736 236.301 238.565 253.465 257.168Z" fill="#83ADDF"/>
<path d="M328.297 157.301C309.857 161.182 281.196 143.946 281.196 143.946C281.196 143.946 265.399 214.441 261.281 230.074C257.163 245.708 230.78 306.947 282.18 309.462C315.16 311.065 317.383 248.368 319.314 227.724C321.245 207.08 328.297 157.301 328.297 157.301Z" fill="#A7CAF0"/>
<path d="M316.071 165.355C301.877 166.357 286.061 156.81 286.061 156.81" stroke="#83ADDF" stroke-width="1.11146" stroke-linecap="round" stroke-linejoin="round"/>
<path d="M281.196 143.946C281.196 143.946 265.399 214.441 261.281 230.074C259.022 238.602 250.148 260.703 250.895 279.434" stroke="#83ADDF" stroke-width="1.11146" stroke-linecap="round" stroke-linejoin="round"/>
<path d="M178.141 142.233C169.031 159.306 144.542 175.704 115.098 153.056C115.098 153.056 111.927 143.654 112.255 143.654C112.583 143.654 173.968 136.22 173.968 136.22L178.141 142.233Z" fill="white"/>
<path d="M153.907 121.061C161.487 119.348 172.492 121.261 180.072 132.904C187.652 144.547 188.618 154.168 188.18 154.058C187.743 153.949 176.319 146.77 171.089 147.226C165.449 148.184 159.874 149.499 154.399 151.161L153.907 121.061Z" fill="#FED81D"/>
<path d="M119.725 124.468C119.725 124.468 102.962 124.577 100.703 136.33C98.4436 148.082 104.657 162.166 112.255 168.689C119.853 175.212 115.662 159.288 142.902 151.817L119.725 124.468Z" fill="#FED81D"/>
<path d="M111.545 138.206C111.545 138.206 120.855 152.364 141.609 152.692C162.362 153.019 166.352 140.629 166.352 140.629C164.111 135.018 161.396 123.047 159.665 114.647C158.572 109.345 157.843 105.537 157.843 105.537C157.843 105.537 154.418 72.3022 118.778 74.3065L118.177 79.7727L111.545 138.206Z" fill="#B25E47"/>
<path d="M159.665 114.902C158.572 109.6 157.843 105.792 157.843 105.792L137.564 96.2808C137.564 96.2808 134.357 119.439 159.665 114.902Z" fill="#914839"/>
<path d="M221.87 265.186C224.731 232.389 224.731 205.932 224.731 205.932" stroke="#83ADDF" stroke-width="1.11146" stroke-linecap="round" stroke-linejoin="round"/>
</g>
<path d="M86.4717 344.792C88.2095 344.155 89.8667 343.318 91.4095 342.295C101.795 335.444 102.688 322.089 99.5359 306.182C97.0943 293.993 92.2476 280.309 87.5649 266.899C82.2081 251.612 76.9605 236.689 75.4847 224.754C75.266 223.078 75.1385 221.475 75.0838 219.944C74.8142 210.778 73.1365 201.707 70.1096 193.051C61.5459 168.945 42.7787 153.767 20.6407 171.532C13.3524 177.417 8.90659 189.242 6.22816 203.345C5.26246 208.374 4.51542 213.694 3.89592 219.124C1.85521 237.582 1.58192 257.387 0.670891 272.201C-3.79315 343.808 13.3524 372.378 86.4717 344.792Z" fill="#A7CAF0"/>
<path d="M6.21032 203.363C22.3356 187.165 45.7126 178.82 70.11 193.051C61.5463 168.945 42.7791 153.767 20.6411 171.532C13.2617 177.435 8.88875 189.261 6.21032 203.363Z" fill="#A7CAF0"/>
<path d="M64.8261 307.13C64.735 307.585 79.4026 307.13 99.5364 306.182C106.97 305.836 115.188 305.453 123.715 305.016C138.292 298.439 147.402 288.927 139.622 275.298C118.449 238.256 79.4937 289.583 77.5259 252.851C76.1593 227.688 70.0554 222.24 64.899 222.076C67.0855 250.099 65.0266 305.854 64.8261 307.13Z" fill="#83ADDF"/>
<path d="M59.8513 199.337C62.7467 206.595 64.451 214.274 64.8984 222.076C66.848 250.118 65.026 305.891 64.8984 307.13" stroke="#83ADDF" stroke-width="1.11146" stroke-linecap="round" stroke-linejoin="round"/>
<path d="M86.4721 344.792C88.2099 344.155 89.8671 343.318 91.4099 342.296C74.6651 345.94 49.63 349.128 38.5701 339.708C21.1694 324.895 32.2294 305.909 22.6089 295.45C12.9884 284.992 -0.877502 281.621 3.87807 219.197C1.83736 237.655 1.56408 257.46 0.653046 272.274C-3.79278 343.808 13.3528 372.378 86.4721 344.792Z" fill="#83ADDF"/>
<path d="M128.381 219.161C125.721 207.19 140.734 207.736 140.734 207.736C139.404 196.695 154.017 193.652 157.388 204.402C169.25 200.758 173.003 204.402 174.734 210.652L128.381 219.161Z" fill="#DDDDDD"/>
<path d="M148.624 208.884C146.662 208.884 145.071 207.294 145.071 205.331C145.071 203.369 146.662 201.778 148.624 201.778C150.586 201.778 152.177 203.369 152.177 205.331C152.177 207.294 150.586 208.884 148.624 208.884Z" fill="#F9F9F9" stroke="#DDDDDD" stroke-width="1.49409" stroke-linecap="round" stroke-linejoin="round"/>
<path d="M197.291 201.797L219.448 321.943L131.46 339.708L107.828 219.398L197.291 201.797Z" fill="#F9F9F9" stroke="#DDDDDD" stroke-width="1.49409" stroke-linecap="round" stroke-linejoin="round"/>
<path d="M170.18 281.402C174.68 293.1 174.935 305.381 172.876 309.498C172.876 309.498 164.477 311.047 156.095 288.29L170.18 281.402Z" fill="#83ADDF"/>
<path d="M158.718 258.845C178.852 251.94 188.473 247.749 192.099 246.765C195.725 245.781 208.825 244.688 210.921 246.765C211.845 247.76 212.477 248.99 212.747 250.321C213.017 251.652 212.915 253.032 212.451 254.308C211.759 257.096 213.982 259.119 214.273 261.943C214.565 264.767 211.194 265.587 211.904 268.393C212.615 271.199 214.82 274.242 213.289 277.321C211.759 280.4 214.82 283.589 211.904 287.36C208.989 291.132 179.308 292.936 172.803 291.551L160.049 297.254C160.049 297.254 137.546 274.059 158.718 258.845Z" fill="#B25E47"/>
<path d="M192.172 246.71C195.816 245.745 208.898 244.633 210.994 246.71C211.918 247.705 212.55 248.936 212.82 250.267C213.09 251.598 212.988 252.977 212.524 254.254C211.832 257.042 214.055 259.064 214.346 261.888C214.638 264.712 211.267 265.532 211.977 268.338C212.688 271.144 214.893 274.187 213.362 277.266C211.832 280.346 214.893 283.534 211.977 287.306" stroke="#914839" stroke-width="1.11146" stroke-linecap="round" stroke-linejoin="round"/>
<path d="M38.4623 339.708C43.6916 349.165 56.8104 353.738 81.6815 346.213C88.4049 344.191 94.8915 342.077 101.086 339.945C111.363 336.429 120.838 332.821 129.328 329.377C144.137 323.488 158.635 316.847 172.766 309.48C169.041 305.339 166.035 300.603 163.875 295.469C162.517 292.421 161.402 289.272 160.54 286.049C158.218 277.134 157.599 267.861 158.718 258.718C155.329 259.738 151.685 260.771 147.786 261.815C138.512 264.348 128.126 266.99 117.594 269.759C86.0362 278.068 53.221 287.597 45.2221 299.441C44.4933 300.516 43.8009 301.627 43.145 302.757C42.8899 303.194 42.6165 303.65 42.3797 304.105C42.306 304.223 42.2391 304.344 42.1793 304.47C41.8877 304.998 41.5962 305.563 41.3229 306.109C40.8249 307.069 40.3694 308.035 39.9564 309.007C35.383 319.848 34.0529 331.582 38.4623 339.708Z" fill="#A7CAF0"/>
<path d="M158.718 258.845C122.587 269.778 57.0653 282.149 45.2948 299.568C43.2608 302.595 41.4987 305.797 40.029 309.134" stroke="#83ADDF" stroke-width="1.11146" stroke-linecap="round" stroke-linejoin="round"/>
<path d="M147.931 261.888C145.69 284.536 157.388 306.273 157.388 306.273" stroke="#83ADDF" stroke-width="1.11146" stroke-linecap="round" stroke-linejoin="round"/>
<path d="M38.5718 339.708C43.8011 349.165 56.9199 353.738 81.791 346.213C88.5144 344.19 95.0009 342.077 101.196 339.945C86.6377 343.79 52.1279 351.26 38.5718 339.708Z" fill="#83ADDF"/>
<path d="M118.778 74.5071L118.159 79.9732C130.786 99.6333 148.022 105.792 157.843 105.792C174.059 101.747 179.599 87.1522 180.546 71.5007C180.79 67.7515 180.802 63.991 180.582 60.2403C179.82 49.6186 177.988 39.1008 175.116 28.8462C175.116 28.8462 126.413 6.17981 123.042 51.6766C123.042 51.6766 112.601 49.8546 110.652 61.3882C109.139 70.9723 118.778 74.5071 118.778 74.5071Z" fill="#B25E47"/>
<path d="M172.765 60.2954C171.689 60.2954 170.816 59.4226 170.816 58.3458C170.816 57.2691 171.689 56.3962 172.765 56.3962C173.842 56.3962 174.715 57.2691 174.715 58.3458C174.715 59.4226 173.842 60.2954 172.765 60.2954Z" fill="#683F1D"/>
<path d="M159.209 57.8172C158.132 57.8172 157.26 56.9443 157.26 55.8676C157.26 54.7908 158.132 53.918 159.209 53.918C160.286 53.918 161.159 54.7908 161.159 55.8676C161.159 56.9443 160.286 57.8172 159.209 57.8172Z" fill="#683F1D"/>
<path d="M162.179 45.4091C161.96 48.0511 152.886 49.0533 152.376 47.5774C151.593 45.2998 162.653 39.1777 162.179 45.4091Z" fill="#683F1D"/>
<path d="M179.47 49.308C179.47 50.7474 169.595 51.4216 169.959 46.3198C170.196 42.6939 179.252 45.3724 179.47 49.308Z" fill="#683F1D"/>
<path d="M125.683 66.0527C121.62 60.0399 115.188 60.6959 114.514 61.8438" stroke="#914839" stroke-width="1.11146" stroke-linecap="round" stroke-linejoin="round"/>
<path d="M123.953 63.994C117.958 60.4774 114.697 68.3669 122.276 68.3669" stroke="#914839" stroke-width="1.11146" stroke-linecap="round" stroke-linejoin="round"/>
<path d="M167.518 52.6974C165.878 55.886 166.006 57.7992 167.099 59.8581C168.192 61.917 171.49 66.5633 169.759 70.6811" stroke="#914839" stroke-width="1.11146" stroke-linecap="round" stroke-linejoin="round"/>
<path d="M156.895 71.3917C158.335 76.3295 164.184 79.427 167.008 78.7893C167.008 78.7893 164.184 86.4602 159.209 84.4923C153.488 82.2512 156.895 71.3917 156.895 71.3917Z" fill="white" stroke="#914839" stroke-width="1.11146" stroke-linecap="round" stroke-linejoin="round"/>
<path d="M126.576 73.0862C125.45 73.8603 124.173 74.3871 122.829 74.6321C121.485 74.8771 120.104 74.8346 118.778 74.5074" stroke="#914839" stroke-width="1.11146" stroke-linecap="round" stroke-linejoin="round"/>
<path d="M108.884 46.976C103.272 54.6651 111.69 57.9083 111.69 57.9083C112.55 56.6764 113.677 55.6549 114.988 54.9202C115.816 54.4335 116.742 54.1375 117.699 54.0536C118.656 53.9697 119.62 54.0999 120.52 54.4349C121.42 54.7699 122.235 55.3012 122.904 55.9903C123.573 56.6794 124.081 57.5089 124.39 58.4185C135.85 58.6554 130.913 49.7091 130.913 49.7091C141.189 53.8087 141.517 43.2954 137.089 38.5398C145.106 47.5408 155.31 38.5398 153.634 30.4317C156.476 39.2869 166.588 39.542 165.24 32.2537C166.109 33.7683 167.162 35.1697 168.374 36.4263C175.334 43.4047 181.548 35.9343 178.942 30.4135C189.364 40.3437 193.883 29.2291 183.934 23.2528C191.806 16.8027 182.513 7.61948 176.154 12.3204C177.594 0.896078 165.823 0.3859 160.649 7.05464C158.608 -5.49935 142.902 1.35159 142.264 7.30973C130.694 -0.780219 121.729 5.19614 122.895 18.3332C118.213 12.0835 108.191 15.7459 111.963 31.78C102.434 31.0876 100.776 43.0586 108.884 46.976Z" fill="#683F1D"/>
<path d="M114.988 54.9204C115.816 54.4337 116.742 54.1377 117.699 54.0538C118.656 53.9698 119.62 54.1001 120.52 54.4351C121.421 54.7701 122.235 55.3014 122.904 55.9905C123.574 56.6796 124.081 57.509 124.39 58.4187C135.85 58.6556 130.913 49.7093 130.913 49.7093C141.189 53.8089 141.517 43.2956 137.089 38.54C145.107 47.541 155.31 38.54 153.634 30.4319C156.476 39.2871 166.589 39.5422 165.24 32.2539C166.109 33.7685 167.162 35.1699 168.374 36.4264C171.18 27.9174 164.894 16.6935 155.292 21.85C154.035 15.0172 138.328 10.5896 138.42 27.8992C132.607 19.7728 119.452 22.5606 125.665 38.0299C120.782 34.1671 109.522 40.5079 114.988 54.9204Z" fill="#683F1D"/>
<path d="M136.069 57.9266C134.684 60.6961 137.29 64.814 141.9 67.128C146.509 69.442 151.374 68.95 152.832 66.2716C154.29 63.5932 151.611 59.3842 147.001 57.0702C142.392 54.7562 137.472 55.157 136.069 57.9266Z" fill="#914839"/>
<path d="M174.496 68.4762C175.207 70.444 177.612 71.5008 180.582 71.4461C180.811 67.7144 180.811 63.9722 180.582 60.2405C176.172 62.1719 173.476 65.7067 174.496 68.4762Z" fill="#914839"/>
</svg>
