<svg width="611" height="558" viewBox="0 0 611 558" fill="none" xmlns="http://www.w3.org/2000/svg">
<path d="M271.091 94.3721C271.092 95.0893 270.936 95.791 270.642 96.3886C270.348 96.9861 269.929 97.4525 269.438 97.7287C268.947 98.0049 268.407 98.0784 267.885 97.9401C267.363 97.8017 266.883 97.4576 266.507 96.9514C266.13 96.4451 265.873 95.7995 265.769 95.0963C265.664 94.3931 265.717 93.6639 265.92 93.0011C266.123 92.3383 266.467 91.7716 266.91 91.3729C267.352 90.9742 267.872 90.7614 268.403 90.7614C269.114 90.7613 269.797 91.1414 270.3 91.8181C270.804 92.4949 271.088 93.4133 271.091 94.3721Z" fill="#DDDDDD"/>
<path d="M283.54 94.3721H335.704" stroke="#DDDDDD" stroke-width="2" stroke-linecap="round" stroke-linejoin="round"/>
<path d="M271.091 111.133C271.091 111.85 270.933 112.551 270.638 113.147C270.342 113.742 269.923 114.207 269.432 114.481C268.941 114.755 268.4 114.827 267.879 114.687C267.358 114.547 266.879 114.202 266.503 113.696C266.128 113.189 265.872 112.543 265.768 111.84C265.664 111.137 265.717 110.409 265.921 109.747C266.124 109.085 266.469 108.519 266.911 108.121C267.352 107.723 267.872 107.51 268.403 107.51C268.757 107.508 269.107 107.601 269.433 107.782C269.76 107.964 270.057 108.231 270.306 108.568C270.556 108.904 270.754 109.304 270.889 109.745C271.023 110.185 271.092 110.657 271.091 111.133V111.133Z" fill="#DDDDDD"/>
<path d="M283.54 111.133H303.646" stroke="#DDDDDD" stroke-width="2" stroke-linecap="round" stroke-linejoin="round"/>
<path d="M116.89 94.3721C116.892 95.0893 116.736 95.791 116.441 96.3886C116.147 96.9861 115.728 97.4525 115.237 97.7287C114.747 98.0049 114.206 98.0784 113.684 97.9401C113.162 97.8017 112.683 97.4576 112.306 96.9514C111.929 96.4451 111.672 95.7995 111.568 95.0963C111.463 94.3931 111.516 93.6639 111.719 93.0011C111.922 92.3383 112.267 91.7716 112.709 91.3729C113.151 90.9742 113.671 90.7614 114.203 90.7614C114.914 90.7613 115.596 91.1414 116.099 91.8181C116.603 92.4949 116.887 93.4133 116.89 94.3721V94.3721Z" fill="#DDDDDD"/>
<path d="M129.348 94.3721H198.848" stroke="#DDDDDD" stroke-width="2" stroke-linecap="round" stroke-linejoin="round"/>
<path d="M114.203 114.757C115.687 114.757 116.89 113.135 116.89 111.133C116.89 109.132 115.687 107.51 114.203 107.51C112.718 107.51 111.515 109.132 111.515 111.133C111.515 113.135 112.718 114.757 114.203 114.757Z" fill="#DDDDDD"/>
<path d="M129.348 111.133H162.994" stroke="#DDDDDD" stroke-width="2" stroke-linecap="round" stroke-linejoin="round"/>
<path d="M116.89 128.199C116.892 128.916 116.736 129.618 116.441 130.215C116.147 130.813 115.728 131.279 115.237 131.555C114.747 131.832 114.206 131.905 113.684 131.767C113.162 131.628 112.683 131.284 112.306 130.778C111.929 130.272 111.672 129.626 111.568 128.923C111.463 128.22 111.516 127.491 111.719 126.828C111.922 126.165 112.267 125.598 112.709 125.2C113.151 124.801 113.671 124.588 114.203 124.588C114.914 124.588 115.596 124.968 116.099 125.645C116.603 126.322 116.887 127.24 116.89 128.199V128.199Z" fill="#DDDDDD"/>
<path d="M129.348 128.199H173.151" stroke="#DDDDDD" stroke-width="2" stroke-linecap="round" stroke-linejoin="round"/>
<path d="M376.04 54.8948H260.906V73.886H376.04V54.8948Z" stroke="#DDDDDD" stroke-linecap="round" stroke-linejoin="round"/>
<path d="M224.789 54.8948H109.655V73.886H224.789V54.8948Z" stroke="#DDDDDD" stroke-linecap="round" stroke-linejoin="round"/>
<path d="M528.287 18.5595H61.1641V420.174H528.287V18.5595Z" stroke="#DDDDDD" stroke-width="2" stroke-linecap="round" stroke-linejoin="round"/>
<path d="M536.057 420.68H53.3846V438.24H536.057V420.68Z" stroke="#DDDDDD" stroke-width="2" stroke-linecap="round" stroke-linejoin="round"/>
<path d="M536.057 1H53.3845V18.5595H536.057V1Z" stroke="#DDDDDD" stroke-width="2" stroke-linecap="round" stroke-linejoin="round"/>
<path d="M460.845 76.4072C439.019 64.3714 428.195 98.1095 436.416 119.305C438.352 124.271 438.07 128.313 436.238 134.343C434.405 140.374 434.358 144.682 439.31 147.393C444.261 150.104 446.451 147.013 448.283 140.982C450.115 134.952 452.041 131.81 455.968 130.087C472.862 122.738 482.68 88.4429 460.845 76.4072Z" fill="#F9F9F9" stroke="#DDDDDD" stroke-linecap="round" stroke-linejoin="round"/>
<path d="M441.762 140.893C440.494 133.71 440.917 128.718 444.731 127.502C448.546 126.286 451.609 123.372 449.937 119.609C448.264 115.846 441.33 114.972 443.228 119.533C445.126 124.094 455.113 122.46 452.774 118C450.434 113.541 444.853 109.841 447.137 109.132C449.42 108.422 456.401 112.679 454.146 109.36C449.617 102.708 454.907 101.302 456.363 94.1567" stroke="#DDDDDD" stroke-linecap="round" stroke-linejoin="round"/>
<path d="M451.083 138.79C450.311 140.549 449.645 142.387 449.091 144.289C448.673 145.73 448.17 147.124 447.588 148.457C445.502 153.183 442.711 155.07 437.778 152.359C432.846 149.648 431.859 145.657 432.827 140.323C433.099 138.816 433.464 137.341 433.917 135.914C434.501 134.035 434.982 132.1 435.354 130.125C440.157 134.292 445.489 137.23 451.083 138.79V138.79Z" fill="#F9F9F9" stroke="#DDDDDD" stroke-linecap="round" stroke-linejoin="round"/>
<path d="M451.083 138.79C450.39 140.363 449.79 142.007 449.288 143.706C449.213 143.896 449.157 144.099 449.091 144.289C448.673 145.73 448.17 147.124 447.587 148.457C445.567 149.065 442.974 148.558 439.517 146.645C436.059 144.732 433.945 142.654 432.827 140.311C433.099 138.803 433.464 137.328 433.917 135.902L434.086 135.306C434.599 133.617 435.023 131.882 435.354 130.112C440.157 134.284 445.489 137.226 451.083 138.79Z" fill="#F9F9F9" stroke="#DDDDDD" stroke-linecap="round" stroke-linejoin="round"/>
<path d="M451.083 138.79C450.39 140.363 449.79 142.006 449.288 143.706C443.852 142.327 438.68 139.474 434.086 135.319C434.599 133.63 435.023 131.894 435.354 130.125C440.157 134.292 445.489 137.23 451.083 138.79V138.79Z" fill="#F9F9F9" stroke="#DDDDDD" stroke-linecap="round" stroke-linejoin="round"/>
<path d="M464.556 68.5142L468.681 54.8948" stroke="#DDDDDD" stroke-width="2" stroke-linecap="round" stroke-linejoin="round"/>
<path d="M480.585 89.4184L490.516 87.4927" stroke="#DDDDDD" stroke-width="2" stroke-linecap="round" stroke-linejoin="round"/>
<path d="M436.388 70.858L427.509 58.0241" stroke="#DDDDDD" stroke-width="2" stroke-linecap="round" stroke-linejoin="round"/>
<path d="M450.585 65.4736V56.4278" stroke="#DDDDDD" stroke-linecap="round" stroke-linejoin="round"/>
<path d="M427.481 92.4337L420.03 93.878" stroke="#DDDDDD" stroke-linecap="round" stroke-linejoin="round"/>
<path d="M476.751 117.481L479.495 123.828" stroke="#DDDDDD" stroke-linecap="round" stroke-linejoin="round"/>
<path d="M474.816 78.8396L480.181 75.4063" stroke="#DDDDDD" stroke-linecap="round" stroke-linejoin="round"/>
<path d="M99.3105 139.17H77.3059C75.4094 150.351 75.9511 162.032 78.8656 172.807L101.932 172.313C101.932 172.313 95.712 154.095 99.3105 139.17Z" fill="#DDDDDD" stroke="#DDDDDD" stroke-miterlimit="10"/>
<path d="M94.3494 147.557H83.1498" stroke="#F9F9F9" stroke-linecap="round" stroke-linejoin="round"/>
<path d="M93.6354 154.107H85.1699" stroke="#F9F9F9" stroke-linecap="round" stroke-linejoin="round"/>
<path d="M94.1802 160.353H82.4451" stroke="#F9F9F9" stroke-linecap="round" stroke-linejoin="round"/>
<path d="M82.5861 89.6084H103.764C105.418 99.6298 104.096 110.126 100.081 118.849L77.1648 117.582C77.1648 117.582 84.1551 104.051 82.5861 89.6084Z" stroke="#DDDDDD" stroke-linecap="round" stroke-linejoin="round"/>
<path d="M86.457 96.4372H100.287" stroke="#DDDDDD" stroke-linecap="round" stroke-linejoin="round"/>
<path d="M86.6544 102.696H97.6943" stroke="#DDDDDD" stroke-linecap="round" stroke-linejoin="round"/>
<path d="M86.457 110.88H91.6716" stroke="#DDDDDD" stroke-linecap="round" stroke-linejoin="round"/>
<path d="M92.8555 110.88H96.3225" stroke="#DDDDDD" stroke-linecap="round" stroke-linejoin="round"/>
<path d="M134.76 183.31L155.947 183.373C157.61 193.384 156.301 203.874 152.302 212.601L129.395 211.334C129.395 211.334 136.329 197.727 134.76 183.31Z" stroke="#DDDDDD" stroke-linecap="round" stroke-linejoin="round"/>
<path d="M138.631 190.151H152.461" stroke="#DDDDDD" stroke-linecap="round" stroke-linejoin="round"/>
<path d="M138.828 196.397H149.868" stroke="#DDDDDD" stroke-linecap="round" stroke-linejoin="round"/>
<path d="M138.631 204.582H143.846" stroke="#DDDDDD" stroke-linecap="round" stroke-linejoin="round"/>
<path d="M145.03 204.582H148.497" stroke="#DDDDDD" stroke-linecap="round" stroke-linejoin="round"/>
<path d="M311.088 197.956H332.266C333.917 207.973 332.595 218.464 328.582 227.183L305.667 225.916C305.667 225.916 312.647 212.373 311.088 197.956Z" stroke="#DDDDDD" stroke-linecap="round" stroke-linejoin="round"/>
<path d="M314.949 204.797H328.78" stroke="#DDDDDD" stroke-linecap="round" stroke-linejoin="round"/>
<path d="M315.147 211.043H326.187" stroke="#DDDDDD" stroke-linecap="round" stroke-linejoin="round"/>
<path d="M314.949 219.227H320.164" stroke="#DDDDDD" stroke-linecap="round" stroke-linejoin="round"/>
<path d="M321.348 219.227H324.815" stroke="#DDDDDD" stroke-linecap="round" stroke-linejoin="round"/>
<path d="M382.495 86.9099L361.317 86.9733C359.666 96.9906 360.988 107.481 365 116.201L387.916 114.934C387.916 114.934 380.944 101.327 382.495 86.9099Z" stroke="#DDDDDD" stroke-linecap="round" stroke-linejoin="round"/>
<path d="M378.642 93.7513H364.812" stroke="#DDDDDD" stroke-linecap="round" stroke-linejoin="round"/>
<path d="M378.445 99.9972H367.415" stroke="#DDDDDD" stroke-linecap="round" stroke-linejoin="round"/>
<path d="M378.643 108.182H373.428" stroke="#DDDDDD" stroke-linecap="round" stroke-linejoin="round"/>
<path d="M372.244 108.182H368.777" stroke="#DDDDDD" stroke-linecap="round" stroke-linejoin="round"/>
<path d="M243.43 51.3981V350.404" stroke="#DDDDDD" stroke-linecap="round" stroke-linejoin="round"/>
<path d="M354.016 126.729C348.877 106.205 346.613 98.8571 343.681 94.4102C340.75 89.9633 332.453 85.2377 332.453 85.2377C332.453 85.2377 328.996 67.1714 324.57 67.7542C320.145 68.337 327.483 92.3705 327.483 92.3705L323.593 115.961C324.855 118.729 325.837 121.711 326.515 124.829C329.541 138.233 337.837 139.5 340.12 150.75C339.979 150.104 353.969 138.803 354.016 126.729Z" fill="#FEBD9D"/>
<path d="M354.016 126.729C348.877 106.205 346.613 98.8571 343.681 94.4102C340.75 89.9633 332.453 85.2377 332.453 85.2377C332.453 85.2377 328.996 67.1714 324.57 67.7542C320.145 68.337 327.483 92.3705 327.483 92.3705L323.593 115.961C324.855 118.729 325.837 121.711 326.515 124.829C329.541 138.233 337.837 139.5 340.12 150.75C339.979 150.104 353.969 138.803 354.016 126.729Z" fill="#FEBD9D"/>
<path d="M343.69 94.4102C340.778 89.8873 332.463 85.2377 332.463 85.2377C332.463 85.2377 329.005 67.1714 324.58 67.7542C320.154 68.337 327.492 92.3705 327.492 92.3705L323.603 115.961" stroke="#F4A789" stroke-width="0.75" stroke-linecap="round" stroke-linejoin="round"/>
<path d="M319.206 106.725C322.86 102.823 329.127 117.113 325.341 121.016C322.626 123.815 315.729 110.386 319.206 106.725Z" fill="#FEBD9D" stroke="#F4A789" stroke-miterlimit="10"/>
<path d="M332.463 85.2377C329.55 83.6921 329.184 90.3054 331.73 92.8392C334.276 95.3731 335.902 95.9052 336.268 97.5015C336.635 99.0978 337.358 104.102 337.358 104.102C336.542 107.264 336.229 110.623 336.441 113.959C336.653 117.294 337.385 120.532 338.589 123.461" stroke="#F4A789" stroke-width="0.75" stroke-linecap="round" stroke-linejoin="round"/>
<path d="M321.94 98.553C325.595 94.6509 333.337 112.489 329.55 116.366C326.844 119.153 318.463 102.252 321.94 98.553Z" fill="#FEBD9D" stroke="#F4A789" stroke-miterlimit="10"/>
<path d="M325.115 92.7759C328.77 88.8738 336.522 106.712 332.735 110.589C330.029 113.376 321.648 96.4499 325.115 92.7759Z" fill="#FEBD9D" stroke="#F4A789" stroke-miterlimit="10"/>
<path d="M340.637 163.749L335.704 150.763C335.704 150.763 347.768 139.627 354.016 126.691L358.16 136.054C358.16 136.054 353.208 165.408 340.637 163.749Z" fill="white"/>
<path d="M412.748 226.335C395.921 193.635 374.367 161.456 371.304 156.958C369.683 154.376 367.404 152.704 364.915 152.271L357.399 134.268C357.399 134.268 349.196 150.738 335.704 159.606L342.525 177.242C342.525 177.242 340.44 179.383 345.025 192.369C349.61 205.355 367.358 254.954 376.331 264.798C397.791 288.338 434.866 269.321 412.748 226.335Z" fill="#A7CAF0"/>
<path d="M353.452 167.182L345.861 150.763" stroke="#83ADDF" stroke-width="0.75" stroke-linecap="round" stroke-linejoin="round"/>
<path d="M348.924 171.262L341.464 155.134" stroke="#83ADDF" stroke-width="0.75" stroke-linecap="round" stroke-linejoin="round"/>
<path d="M354.016 140.083L362.021 157.402" stroke="#83ADDF" stroke-width="0.75" stroke-linecap="round" stroke-linejoin="round"/>
<path d="M350.004 145.543L358.019 162.862" stroke="#83ADDF" stroke-width="0.75" stroke-linecap="round" stroke-linejoin="round"/>
<path d="M412.748 226.335C395.921 193.635 374.367 161.456 371.304 156.958C369.682 154.376 367.404 152.704 364.915 152.271L357.399 134.268" stroke="#83ADDF" stroke-width="0.75" stroke-linecap="round" stroke-linejoin="round"/>
<path d="M569.646 536.173H476.742V437.467L559.828 435.909C566.226 472.307 569.646 536.173 569.646 536.173Z" fill="#683F1D"/>
<path d="M521.973 536.173C521.973 536.173 518.928 496.417 518.618 492.629C518.528 491.626 518.195 490.692 517.673 489.968C517.15 489.245 516.465 488.773 515.725 488.625C513.942 488.131 512.104 488.131 510.322 488.625" stroke="#7F542D" stroke-width="0.75" stroke-linecap="round" stroke-linejoin="round"/>
<path d="M576.336 296.408C574.852 329.462 569.759 380.848 566.236 413.586C564.253 432.019 562.797 444.549 562.797 444.549C562.797 444.549 503.351 447.666 487.2 447.083C471.049 446.5 469.282 444.891 469.282 436.112C469.282 427.332 469.555 317.692 469.555 317.692C469.555 317.692 389.805 279.685 378.323 266.775C366.842 253.865 380.588 211.436 410.109 220.139C417.531 222.331 424.907 224.561 432.442 226.804C454.841 233.506 478.603 240.246 508.396 245.947C540.755 252.18 561.012 252.535 574.842 264.798C576.89 266.61 577.125 278.963 576.336 296.408Z" fill="#A7CAF0"/>
<path d="M554.867 329.639C542.305 340.383 542.277 355.497 547.191 367.204C558.522 394.151 525.581 376.642 524.162 410.064L571.854 394.784L554.867 329.639Z" fill="#83ADDF"/>
<path d="M593.774 306.759C588.326 302.297 582.462 298.833 576.336 296.459C566.198 292.658 556.417 293.456 549.925 302.477C548.764 304.084 547.751 305.875 546.909 307.81C530.645 344.551 485.17 337.849 476.742 299.107C469.573 266.167 458.515 245.693 432.442 226.892C454.841 233.505 478.602 240.246 508.396 245.947C540.755 252.18 561.011 252.535 574.842 264.798C581.25 268.447 587.93 285.145 593.774 306.759Z" fill="#A7CAF0"/>
<path d="M511.431 243.552C500.832 243.552 492.235 252.687 492.235 263.937C492.235 270.272 494.96 275.947 499.245 279.685C501.317 281.485 503.611 282.772 506.019 283.485C507.793 284.041 509.609 284.317 511.431 284.309C511.835 284.309 512.229 284.309 512.624 284.309C515.178 284.159 517.697 283.435 520.075 282.168C522.326 281.012 524.395 279.293 526.172 277.1C527.548 275.454 528.656 273.441 529.426 271.189C530.196 268.936 530.611 266.493 530.645 264.013C530.645 252.687 522.048 243.552 511.431 243.552ZM517.791 273.819C515.915 274.601 513.967 275.027 512.004 275.086H511.431C509.893 275.094 508.359 274.881 506.855 274.452C504.92 273.943 503.065 272.992 501.368 271.64C498.643 269.423 496.952 266.306 496.952 262.86C496.952 256.095 503.435 250.622 511.431 250.622C519.426 250.622 525.919 256.095 525.919 262.86C525.919 265.837 524.66 268.561 522.555 270.69C521.115 272.1 519.503 273.159 517.791 273.819V273.819Z" stroke="#83ADDF" stroke-width="0.75" stroke-linecap="round" stroke-linejoin="round"/>
<path d="M501.885 238.345C498.296 239.27 494.302 240.879 492.301 245.516C490.3 250.153 490.206 269.473 492.038 271.589C493.87 273.705 496.313 263.595 507.24 258.667L501.885 238.345Z" fill="white"/>
<path d="M516.429 259.579L527.582 235.811C527.582 235.811 533.501 240.043 534.459 247.682C535.418 255.322 532.825 280.369 528.127 274.022C524.791 269.587 525.543 265.926 516.429 259.579Z" fill="white"/>
<path d="M499.245 279.685L501.368 271.602" stroke="#83ADDF" stroke-width="0.75" stroke-linecap="round" stroke-linejoin="round"/>
<path d="M506.019 283.498L506.855 274.414" stroke="#83ADDF" stroke-width="0.75" stroke-linecap="round" stroke-linejoin="round"/>
<path d="M512.624 284.284L512.004 275.035" stroke="#83ADDF" stroke-width="0.75" stroke-linecap="round" stroke-linejoin="round"/>
<path d="M520.075 282.143L517.792 273.794" stroke="#83ADDF" stroke-width="0.75" stroke-linecap="round" stroke-linejoin="round"/>
<path d="M526.173 277.024L522.555 270.652" stroke="#83ADDF" stroke-width="0.75" stroke-linecap="round" stroke-linejoin="round"/>
<path d="M529.273 239.029C529.358 241.994 524.876 261.479 512.436 263.101C499.996 264.722 498.174 246.453 498.249 241.652C498.249 239.713 498.408 236.293 498.587 232.011C498.831 226.132 499.16 218.644 499.404 211.22L499.461 209.599C500.833 166.523 528.258 175.126 526.548 197.956C525.505 212.031 529.17 236.077 529.273 239.029Z" fill="#FEBD9D"/>
<path d="M498.587 232.011C498.831 226.132 499.16 218.644 499.404 211.22L514.597 208.053C515.151 221.115 510.472 232.353 498.587 232.011Z" fill="#F4A789"/>
<path d="M560.072 391.339C560.072 391.085 559.968 390.832 559.921 390.566C555.665 367.495 552.132 343.36 550.648 322.291" stroke="#83ADDF" stroke-width="0.75" stroke-linecap="round" stroke-linejoin="round"/>
<path d="M490.544 362.377C489.173 354.344 492.762 351.988 495.891 350.544C495.599 348.276 496.219 344.602 499.949 343.816C503.482 343.069 504.751 347.756 504.751 347.756C504.751 347.756 512.183 344.361 514.062 354.56L490.544 362.377Z" fill="#DDDDDD"/>
<path d="M472.495 364.619L528.634 347.123L549.925 468.76L493.297 484.128L472.495 364.619Z" fill="#F9F9F9" stroke="#DDDDDD" stroke-linecap="round" stroke-linejoin="round"/>
<path d="M498.061 349.986C498.059 350.661 498.206 351.321 498.482 351.883C498.759 352.445 499.153 352.884 499.614 353.144C500.076 353.404 500.585 353.473 501.076 353.343C501.566 353.213 502.018 352.889 502.372 352.413C502.726 351.937 502.968 351.33 503.066 350.668C503.165 350.007 503.115 349.321 502.924 348.698C502.733 348.074 502.409 347.541 501.993 347.166C501.578 346.791 501.089 346.591 500.588 346.591C499.92 346.591 499.278 346.948 498.804 347.585C498.331 348.221 498.063 349.084 498.061 349.986V349.986Z" fill="#F9F9F9" stroke="#DDDDDD" stroke-linecap="round" stroke-linejoin="round"/>
<path d="M610.808 416.132C610.826 418.544 610.745 420.954 610.564 423.354V423.708C610.505 424.196 610.423 424.679 610.32 425.153C608.027 435.288 593.52 444.853 580.047 434.338C578.866 433.414 577.735 432.377 576.665 431.234C572.3 426.375 568.743 420.332 566.226 413.497C563.543 406.458 561.478 399.022 560.072 391.339C560.072 391.085 559.969 390.832 559.922 390.566C554.284 359.805 549.849 327.144 549.887 302.426C549.887 272.628 556.398 254.359 574.842 264.824C581.212 268.447 587.892 285.094 593.736 306.708C598.682 325.437 602.672 344.599 605.678 364.062C608.929 384.294 610.808 403.273 610.808 416.132Z" fill="#A7CAF0"/>
<path d="M610.602 423.392V423.746C610.543 424.234 610.461 424.717 610.357 425.191C608.065 435.326 593.558 444.891 580.085 434.376C578.903 433.452 577.773 432.415 576.702 431.272C580.812 428.411 585.435 427.169 590.044 427.687C614.839 430.702 588.531 393.771 605.744 364.062C608.91 384.332 610.846 403.273 610.874 416.132C610.992 418.558 610.901 420.994 610.602 423.392V423.392Z" fill="#83ADDF"/>
<path d="M593.774 306.759C588.326 302.297 582.462 298.833 576.336 296.459C566.198 292.658 556.417 293.456 549.925 302.477C549.925 272.679 556.436 254.41 574.879 264.874C581.25 268.447 587.93 285.145 593.774 306.759Z" fill="#A7CAF0"/>
<path d="M500.006 416.677C498.474 415.41 489.407 408.341 486.777 408.112C484.146 407.884 478.537 413.117 478.537 413.117C478.537 413.117 467.403 414.004 466.172 416.677C464.941 419.35 467.44 423.113 469.357 424.456C471.274 425.799 469.47 428.561 469.714 430.79C469.958 433.02 472.025 434.591 472.27 436.124C472.514 437.657 471.443 441.838 473.998 442.864C476.554 443.89 474.938 446.006 476.225 449.009C477.512 452.011 485.377 451.454 505.352 446.12L500.006 416.677Z" fill="#FEBD9D"/>
<path d="M486.786 408.112C484.146 407.897 478.546 413.117 478.546 413.117C478.546 413.117 467.412 414.004 466.181 416.677C464.95 419.35 467.45 423.113 469.366 424.456C471.283 425.799 469.479 428.561 469.723 430.79C469.968 433.02 472.035 434.591 472.279 436.124C472.523 437.657 471.452 441.838 474.008 442.864C476.563 443.89 474.947 446.006 476.235 449.009C476.751 450.187 478.283 450.82 481.158 450.82" stroke="#F4A789" stroke-width="0.75" stroke-linecap="round" stroke-linejoin="round"/>
<path d="M498.605 414.244L502.617 448.857L511.083 447.172L508.452 413.396L498.605 414.244Z" fill="white"/>
<path d="M610.574 423.746C610.498 424.228 610.423 424.722 610.329 425.191C608.093 437.062 598.66 444.739 572.803 447.172C570.548 447.391 568.315 447.585 566.104 447.754C535.437 450.212 508.913 449.503 508.913 449.503L504.92 412.521C518.825 406.96 541.929 396.419 560.11 391.338C567.626 389.248 574.25 388.07 579.089 388.551C584.6 388.955 590.063 390.165 595.381 392.162C596.796 392.712 598.183 393.385 599.534 394.176C605.754 397.977 609.935 403.957 610.724 413.712C610.79 414.523 610.837 415.334 610.884 416.107C611.006 418.661 610.902 421.225 610.574 423.746Z" fill="#A7CAF0"/>
<path d="M579.089 388.551C574.25 388.07 567.598 389.248 560.11 391.338C541.929 396.406 518.825 406.96 504.92 412.521L508.913 449.503" stroke="#83ADDF" stroke-width="0.75" stroke-linecap="round" stroke-linejoin="round"/>
<path d="M505.399 416.905L521.672 413.396" stroke="#83ADDF" stroke-width="0.75" stroke-linecap="round" stroke-linejoin="round"/>
<path d="M506.169 424.012L521.982 421.352" stroke="#83ADDF" stroke-width="0.75" stroke-linecap="round" stroke-linejoin="round"/>
<path d="M506.751 429.473L522.367 427.686" stroke="#83ADDF" stroke-width="0.75" stroke-linecap="round" stroke-linejoin="round"/>
<path d="M507.616 437.48L522.687 435.909" stroke="#83ADDF" stroke-width="0.75" stroke-linecap="round" stroke-linejoin="round"/>
<path d="M508.452 444.004L523.231 442.003" stroke="#83ADDF" stroke-width="0.75" stroke-linecap="round" stroke-linejoin="round"/>
<path d="M478.536 413.18C482.567 412.623 486.194 412.395 486.194 412.395" stroke="#F4A789" stroke-width="0.75" stroke-linecap="round" stroke-linejoin="round"/>
<path d="M610.573 423.746C610.514 424.234 610.433 424.716 610.329 425.191C608.093 437.062 598.66 444.739 572.803 447.172C570.548 447.391 568.315 447.586 566.104 447.754C571.854 428.573 584.623 427.028 590.016 427.686C606.618 429.713 600.351 413.839 599.496 394.202C605.716 398.002 609.897 403.982 610.686 413.738C610.752 414.548 610.799 415.359 610.846 416.132C610.979 418.676 610.887 421.232 610.573 423.746V423.746Z" fill="#83ADDF"/>
<path d="M524.754 169.374C524.137 175.519 523.038 181.558 521.474 187.39C519.041 195.929 515.104 203.391 508.687 203.327C508.01 203.316 507.334 203.231 506.667 203.074L489.604 193.636C489.604 193.636 489.68 193.192 489.849 192.369C491.048 186.776 492.802 181.428 495.063 176.469C495.261 176.051 495.477 175.633 495.683 175.202C499.742 166.903 503.801 160.265 503.801 160.265C503.801 160.265 504.036 152.321 508.847 151.156C513.657 149.99 526.088 157.262 524.754 169.374Z" fill="#FEBD9D"/>
<path d="M521.475 187.39C519.041 195.929 515.104 203.391 508.687 203.327C507.527 202.328 506.552 200.984 505.838 199.397C505.123 197.811 504.688 196.024 504.566 194.176C504.444 192.327 504.637 190.465 505.133 188.733C505.628 187.001 506.411 185.445 507.422 184.185C508.433 182.925 509.644 181.995 510.964 181.465C512.283 180.936 513.675 180.821 515.032 181.131C516.389 181.44 517.676 182.165 518.793 183.25C519.91 184.335 520.827 185.751 521.475 187.39V187.39Z" fill="#F4A789"/>
<path d="M496.313 182.132C496.313 184.595 495.666 186.978 494.489 188.861C493.311 190.743 491.677 192.004 489.877 192.419C491.076 186.827 492.83 181.478 495.092 176.519C495.891 178.193 496.315 180.141 496.313 182.132V182.132Z" fill="#F4A789"/>
<path d="M535.784 171.008C535.014 173.973 532.392 183.107 530.945 188.137C530.353 190.177 529.949 191.545 529.949 191.545L525.797 189.505L522.818 188.048L521.766 187.542C521.766 187.542 521.766 188.137 521.653 189.176C521.353 193.034 520.803 196.849 520.009 200.578C519.069 205.218 517.533 209.601 515.471 213.526C509.833 223.662 495.195 222.623 488.439 214.793C483.742 209.295 484.681 199.235 488.768 188.77C490.706 183.937 493.035 179.408 495.712 175.265C495.712 175.265 492.414 185.692 491.878 187.934C491.23 190.734 493.663 190.468 494.603 188.086C495.543 185.705 497.356 184.058 502.617 185.958C507.879 187.858 510.021 191.532 509.044 196.663C508.471 199.691 512.643 200.743 515.715 196.752C515.978 196.413 516.223 196.049 516.448 195.663C516.87 194.959 517.232 194.194 517.528 193.382C520.347 185.641 521.991 173.795 522.151 169.133C519.003 169.399 516.288 166.169 518.073 162.152C514.381 164.243 511.637 160.67 512.267 155.907C510.67 159.289 507.08 159.074 506.629 155.07L503.811 160.265C503.268 158.297 503.012 156.206 503.059 154.108C503.266 147.773 507.259 145.467 510.416 146.924C510.904 142.351 518.872 141.438 519.454 147.976C521.164 143.719 526.83 144.593 526.971 151.168C527.707 150.629 528.553 150.421 529.383 150.576C530.213 150.73 530.985 151.239 531.586 152.028C532.186 152.816 532.584 153.843 532.72 154.958C532.857 156.073 532.726 157.218 532.345 158.225C534.929 157.465 536.583 162.026 534.356 165.294C534.384 165.358 536.883 166.84 535.784 171.008Z" fill="#BF8228"/>
<path d="M508.396 176.266C508.396 176.602 508.47 176.93 508.608 177.209C508.746 177.488 508.943 177.706 509.173 177.834C509.403 177.963 509.656 177.997 509.9 177.931C510.145 177.866 510.369 177.704 510.545 177.466C510.721 177.229 510.841 176.927 510.89 176.597C510.938 176.268 510.913 175.927 510.818 175.616C510.723 175.306 510.561 175.041 510.354 174.854C510.147 174.668 509.904 174.568 509.655 174.568C509.321 174.568 509.001 174.747 508.764 175.066C508.528 175.384 508.396 175.816 508.396 176.266V176.266Z" fill="#683F1D"/>
<path d="M500.344 172.63C500.342 172.967 500.414 173.297 500.552 173.578C500.69 173.859 500.886 174.079 501.117 174.209C501.347 174.339 501.601 174.373 501.846 174.308C502.091 174.243 502.316 174.081 502.493 173.843C502.67 173.605 502.79 173.301 502.838 172.971C502.886 172.64 502.861 172.298 502.764 171.987C502.668 171.676 502.505 171.411 502.296 171.226C502.088 171.04 501.843 170.942 501.593 170.945C501.263 170.948 500.946 171.127 500.713 171.442C500.479 171.757 500.346 172.184 500.344 172.63V172.63Z" fill="#683F1D"/>
<path d="M510.933 167.322C510.284 170.349 516.871 173.339 517.152 171.49C517.359 170.159 511.891 162.837 510.933 167.322Z" fill="#BF8228"/>
<path d="M501.593 163.305C501.208 164.927 506.742 167.727 507.39 165.003C508.161 161.76 501.932 161.912 501.593 163.305Z" fill="#BF8228"/>
<path d="M525.797 189.505L521.766 187.542C521.513 191.969 520.924 196.35 520.009 200.616C518.703 200.882 517.19 199.957 515.715 196.815C516.46 195.843 517.074 194.702 517.528 193.445C520.347 185.705 521.991 173.859 522.151 169.197C519.004 169.463 516.288 166.232 518.073 162.216C514.381 164.306 511.637 160.734 512.267 155.97C510.67 159.353 507.08 159.137 506.629 155.134L503.811 160.328C503.268 158.36 503.012 156.269 503.059 154.171C504.581 152.08 506.667 150.636 508.415 151.358C508.415 151.358 513.009 152.853 514.625 149.889C513.733 154.652 517.34 159.188 521.597 157.237C521.597 157.237 523.081 165.89 528.277 165.877C528.277 165.877 527.713 173.618 530.682 174.328C532.928 174.847 528.39 183.576 525.797 189.505Z" fill="#BF8228"/>
<path d="M521.653 189.176C521.353 193.034 520.803 196.849 520.009 200.578C519.069 205.218 517.533 209.601 515.471 213.526C509.833 223.661 495.195 222.623 488.439 214.793C483.742 209.295 484.681 199.235 488.768 188.77C489.351 206.875 502.11 217.251 515.715 196.815L516.448 195.726C518.044 193.35 519.785 191.159 521.653 189.176V189.176Z" fill="#BF8228"/>
<path d="M530.946 188.137C530.354 190.177 529.95 191.545 529.95 191.545L525.797 189.505L522.818 188.048C527.422 183.931 529.762 185.705 530.946 188.137Z" fill="#BF8228"/>
<path d="M520.178 199.767C520.997 195.77 521.529 191.676 521.766 187.542C524.359 184.374 528.907 184.476 530.983 187.998C531.553 188.976 531.913 190.146 532.026 191.38C532.825 199.071 528.061 207.166 520.178 199.767Z" fill="#FEBD9D"/>
<path d="M526.144 202.681C523.977 202.586 521.888 201.566 520.178 199.767" stroke="#F4A789" stroke-width="0.75" stroke-linecap="round" stroke-linejoin="round"/>
<path d="M498.239 180.307C498.653 177.089 499.977 177.089 502.477 176.507C504.976 175.924 506.911 172.921 506.639 169.881" stroke="#F4A789" stroke-width="0.75" stroke-linecap="round" stroke-linejoin="round"/>
<path d="M523.476 192.736C523.88 192.131 524.384 191.664 524.948 191.372C525.511 191.081 526.118 190.973 526.718 191.058C527.318 191.144 527.895 191.419 528.401 191.863C528.907 192.306 529.328 192.905 529.63 193.61" stroke="#F4A789" stroke-width="0.75" stroke-linecap="round" stroke-linejoin="round"/>
<path d="M524.669 191.596C528.935 191.051 528.287 199.691 524.162 198.095" stroke="#F4A789" stroke-width="0.75" stroke-linecap="round" stroke-linejoin="round"/>
<path d="M486.194 210.752C490.215 207.116 495.59 208.953 499.921 214.172C505.681 221.115 515.095 214.172 515.095 214.172" stroke="#7F542D" stroke-width="0.75" stroke-linecap="round" stroke-linejoin="round"/>
<path d="M519.361 203.327C517.012 205.861 508.086 212.842 501.659 206.393C495.233 199.945 485.536 208.028 485.536 208.028" stroke="#7F542D" stroke-width="0.75" stroke-linecap="round" stroke-linejoin="round"/>
<path d="M485.715 199.501C487.791 196.967 495.355 191.558 500.278 198.779C505.201 206.001 511.619 199.4 511.619 199.4" stroke="#7F542D" stroke-width="0.75" stroke-linecap="round" stroke-linejoin="round"/>
<path d="M494.302 188.77C495.495 190.531 504.027 194.573 508.988 192.128" stroke="#7F542D" stroke-width="0.75" stroke-linecap="round" stroke-linejoin="round"/>
<path d="M506.611 155.134C506.084 151.498 508.49 147.228 510.435 146.987" stroke="#7F542D" stroke-width="0.75" stroke-linecap="round" stroke-linejoin="round"/>
<path d="M512.267 155.995C512.652 153.107 515.208 146.177 518.844 145.86" stroke="#7F542D" stroke-width="0.75" stroke-linecap="round" stroke-linejoin="round"/>
<path d="M518.073 162.216C519.013 156.591 521.766 150.535 526.144 148.039" stroke="#7F542D" stroke-width="0.75" stroke-linecap="round" stroke-linejoin="round"/>
<path d="M522.151 169.197C522.734 163.052 529.038 157.972 532.374 158.288" stroke="#7F542D" stroke-width="0.75" stroke-linecap="round" stroke-linejoin="round"/>
<path d="M521.155 178.242C525.242 173.504 532.327 169.311 536.066 168.969" stroke="#7F542D" stroke-width="0.75" stroke-linecap="round" stroke-linejoin="round"/>
<path d="M498.709 190.329C502.401 191.406 506.536 190.823 506.404 191.051C506.272 191.279 505.634 198.652 501.593 197.88C497.553 197.107 498.709 190.329 498.709 190.329Z" fill="white" stroke="#F4A789" stroke-width="0.75" stroke-linecap="round" stroke-linejoin="round"/>
<path d="M408.046 210.533C410.582 200.993 413.927 191.314 415.487 192.593C418.127 194.76 412.894 213.307 412.894 213.307L408.046 210.533Z" fill="#B25E47" stroke="#914839" stroke-width="0.75" stroke-miterlimit="10"/>
<path d="M404.776 212.712C404.776 212.117 406.336 184.84 409.286 185.461C413.288 186.271 410.103 213.333 410.103 213.333L404.776 212.712Z" fill="#B25E47" stroke="#914839" stroke-width="0.75" stroke-miterlimit="10"/>
<path d="M399.947 216.563C399.834 189.236 400.228 182.205 402.69 182.192C406.091 182.192 406.533 213.675 406.533 213.675L399.947 216.563Z" fill="#B25E47" stroke="#914839" stroke-width="0.75" stroke-miterlimit="10"/>
<path d="M411.306 214.904C410.714 227.814 410.432 234.668 410.432 234.668C410.432 234.668 401.863 241.002 401.309 225.495C400.755 209.988 411.306 214.904 411.306 214.904Z" fill="#B25E47" stroke="#914839" stroke-width="0.75" stroke-miterlimit="10"/>
<path d="M362.317 295.214C350.995 317.854 337.165 349.324 348.336 359.421C359.508 369.519 374.39 365.401 383.288 337.63C392.186 309.86 403.16 261.514 405.358 256.75C407.557 251.987 412.668 246.387 415.966 237.189C419.264 227.991 420.842 227.484 419.724 224.862C418.606 222.239 415.825 223.215 414.359 226.129C412.894 229.043 408.995 234.68 406.796 233.033C404.597 231.386 403.667 228.067 403.63 224C403.592 219.933 405.387 215.563 408.835 216.982C412.283 218.4 413.871 224.494 416.793 222.353C419.715 220.212 413.504 212.003 411.306 209.367C409.107 206.732 407.407 208.544 403.789 210.191C400.172 211.838 399.035 212.003 397.212 217.792C395.39 223.582 388.437 242.535 387.338 245.981C386.238 249.427 372.925 273.968 362.317 295.214Z" fill="#B25E47"/>
<path d="M415.966 237.227C419.255 228.016 420.842 227.522 419.724 224.9C418.606 222.277 415.825 223.253 414.359 226.167C412.894 229.081 408.995 234.718 406.796 233.071C404.597 231.424 403.667 228.105 403.63 224.038C403.592 219.971 405.387 215.601 408.835 217.019C412.283 218.438 413.871 224.532 416.793 222.391C419.715 220.25 413.504 212.04 411.306 209.405C409.107 206.77 407.407 208.582 403.789 210.229C400.172 211.876 399.035 212.04 397.212 217.83" stroke="#914839" stroke-width="0.75" stroke-linecap="round" stroke-linejoin="round"/>
<path d="M359.517 300.902C357.572 304.931 355.618 309.137 353.786 313.381" stroke="#914839" stroke-width="0.75" stroke-linecap="round" stroke-linejoin="round"/>
<path d="M188.441 316.739C185.341 323.238 191.73 328.141 197.499 333.209C203.268 338.276 204.78 315.219 204.78 315.219C204.78 315.219 190.151 313.153 188.441 316.739Z" fill="#FCC71F"/>
<path d="M361.03 288.575C362.984 290.551 360.09 297.127 354.537 304.437L349.98 296.506C349.98 296.506 356.473 286.307 361.03 288.575Z" fill="#FCC71F"/>
<path d="M351.822 290.552C364.826 309.112 379.915 333.538 371.901 352.086C363.886 370.634 344.757 360.79 333.181 346.562C333.181 346.562 323.757 322.111 351.822 290.552Z" fill="#B25E47"/>
<path d="M197.386 316.219C192.388 331.182 177.928 364.603 193.252 378.387C208.576 392.171 227.217 343.813 227.217 343.813C227.217 343.813 221.523 314.902 197.386 316.219Z" fill="#B25E47"/>
<path d="M361.03 288.575C350.542 299.049 342.324 313.117 337.231 329.319C335.405 334.844 334.047 340.628 333.181 346.562C330.175 343.623 323.072 336.427 323.072 336.427C322.545 340.899 321.859 346.043 321.192 351.237C319.135 366.149 316.767 381.352 316.767 381.352H246.478L245.295 375.017L236.106 325.911L227.217 343.788C227.039 343.496 226.86 343.217 226.663 342.951C216.328 327.888 188.442 316.713 188.442 316.713C196.018 299.479 205.062 283.496 215.388 269.09C218.411 264.928 221.588 260.975 224.906 257.244C229.552 252.281 234.648 248.134 240.071 244.904C246.236 241.128 252.625 238.055 259.172 235.719C259.172 235.719 259.322 215.55 260.957 191.706C261.68 180.95 277.869 178.847 281.627 197.141C285.386 215.436 288.204 227.193 288.204 227.193C292.247 226.388 296.336 226.095 300.419 226.319C305.596 226.597 311.487 227.877 316.1 231.462C318.58 233.401 323.532 239.191 329.254 246.374C342.924 263.515 361.03 288.575 361.03 288.575Z" fill="#FED81D"/>
<path d="M337.231 329.319C335.405 334.844 334.046 340.628 333.181 346.562C330.174 343.623 323.071 336.427 323.071 336.427C325.175 322.544 326.214 308.407 326.172 294.238C326.147 288 325.04 281.857 322.94 276.299C329.46 281.252 334.872 286.649 331.706 298.406C328.709 309.302 329.169 327.495 337.231 329.319Z" fill="#FCC71F"/>
<path d="M269.047 378.767L245.294 374.967L236.105 325.911C238.631 320.323 240.83 314.477 242.682 308.428C252.172 323.631 232.178 341.368 263.287 350.616C278.809 355.253 269.047 378.767 269.047 378.767Z" fill="#FCC71F"/>
<path d="M329.282 246.399C321.042 247.413 313.037 255.876 308.01 278.49C298.953 319.247 265.843 314.458 254.455 286.257C245.539 264.161 234.555 261.678 215.369 269.115C218.392 264.954 221.569 261 224.887 257.269C229.534 252.306 234.629 248.159 240.052 244.93C246.217 241.153 252.607 238.081 259.153 235.744C259.153 235.744 259.303 215.575 260.938 191.732C261.662 180.975 277.85 178.872 281.609 197.167C285.367 215.461 288.186 227.218 288.186 227.218C292.228 226.413 296.317 226.121 300.4 226.344C305.577 226.623 311.468 227.902 316.081 231.488C318.599 233.426 323.551 239.216 329.282 246.399Z" fill="#FED81D"/>
<path d="M300.437 226.344C300.588 240.014 291.803 249.149 281.721 251.29C271.64 253.431 254.915 251.834 240.07 244.955C246.236 241.179 252.625 238.106 259.172 235.77C259.172 235.77 259.322 215.601 260.957 191.757C261.68 181.001 277.869 178.898 281.627 197.192C282.482 201.31 283.29 205.098 284.014 208.493C285.564 215.651 286.776 221.086 287.49 224.203C287.941 226.179 288.195 227.244 288.195 227.244C292.246 226.428 296.345 226.127 300.437 226.344V226.344Z" fill="#B25E47"/>
<path d="M287.509 224.178C278.602 225.14 273.416 218.02 273.481 208.506C273.481 208.506 279.72 208.506 284.033 208.506C285.583 215.689 286.795 221.061 287.509 224.178Z" fill="#914839"/>
<path d="M324.678 532.521H228.457C228.457 532.521 224.558 468.085 230.412 433.815C232.778 420.045 235.919 406.539 239.807 393.413C241.503 387.531 243.416 381.768 245.539 376.145L316.776 381.364C317.49 385.241 318.139 389.27 318.74 393.413C327.111 451.767 324.678 532.521 324.678 532.521Z" fill="#A7CAF0"/>
<mask id="mask0_85_3" style="mask-type:alpha" maskUnits="userSpaceOnUse" x="227" y="376" width="99" height="157">
<path d="M324.678 532.521H228.457C228.457 532.521 224.558 468.085 230.412 433.815C232.778 420.045 235.919 406.539 239.807 393.413C241.503 387.531 243.416 381.768 245.539 376.145L316.776 381.364C317.49 385.241 318.139 389.27 318.74 393.413C327.111 451.767 324.678 532.521 324.678 532.521Z" fill="#A7CAF0"/>
</mask>
<g mask="url(#mask0_85_3)">
<path d="M251.739 452.497C255.072 447.59 254.824 439.968 251.186 435.474C247.547 430.979 241.895 431.313 238.561 436.22C235.228 441.127 235.476 448.748 239.115 453.243C242.754 457.737 248.406 457.403 251.739 452.497Z" stroke="white" stroke-miterlimit="10"/>
<path d="M260.409 534.617C263.899 529.912 263.899 522.283 260.409 517.578C256.92 512.873 251.262 512.873 247.773 517.578C244.283 522.283 244.283 529.912 247.773 534.617C251.262 539.323 256.92 539.322 260.409 534.617Z" stroke="white" stroke-miterlimit="10"/>
<path d="M297.259 455.162C300.748 450.457 300.748 442.828 297.259 438.123C293.769 433.418 288.112 433.418 284.623 438.123C281.133 442.828 281.133 450.457 284.622 455.162C288.112 459.867 293.769 459.867 297.259 455.162Z" stroke="white" stroke-miterlimit="10"/>
<path d="M300.458 541.294C305.262 539.771 308.24 533.285 307.111 526.808C305.982 520.33 301.172 516.314 296.368 517.836C291.564 519.359 288.585 525.845 289.715 532.322C290.844 538.8 295.654 542.817 300.458 541.294Z" stroke="white" stroke-miterlimit="10"/>
<path d="M288.309 410.907C293.111 409.372 296.08 402.879 294.942 396.404C293.803 389.929 288.988 385.925 284.186 387.461C279.384 388.996 276.415 395.489 277.554 401.964C278.692 408.439 283.508 412.443 288.309 410.907Z" stroke="white" stroke-miterlimit="10"/>
<path d="M273.453 492.98C276.463 492.98 278.902 489.69 278.902 485.632C278.902 481.574 276.463 478.284 273.453 478.284C270.443 478.284 268.003 481.574 268.003 485.632C268.003 489.69 270.443 492.98 273.453 492.98Z" stroke="white" stroke-miterlimit="10"/>
<path d="M324.142 474.521C327.152 474.521 329.592 471.231 329.592 467.173C329.592 463.115 327.152 459.825 324.142 459.825C321.133 459.825 318.693 463.115 318.693 467.173C318.693 471.231 321.133 474.521 324.142 474.521Z" stroke="white" stroke-miterlimit="10"/>
<path d="M325.514 415.255C325.514 416.708 325.195 418.129 324.596 419.337C323.997 420.545 323.146 421.487 322.15 422.043C321.154 422.6 320.059 422.745 319.002 422.462C317.944 422.178 316.973 421.478 316.211 420.451C315.449 419.423 314.93 418.114 314.72 416.688C314.51 415.263 314.618 413.785 315.03 412.443C315.443 411.1 316.141 409.952 317.037 409.145C317.933 408.337 318.987 407.906 320.065 407.906C321.51 407.906 322.896 408.681 323.918 410.059C324.94 411.437 325.514 413.306 325.514 415.255V415.255Z" stroke="white" stroke-miterlimit="10"/>
<path d="M235.034 489.484C235.034 490.937 234.715 492.358 234.116 493.566C233.517 494.774 232.666 495.716 231.67 496.272C230.674 496.829 229.579 496.974 228.522 496.691C227.465 496.407 226.494 495.707 225.731 494.68C224.969 493.652 224.45 492.343 224.24 490.917C224.03 489.492 224.138 488.014 224.55 486.672C224.963 485.329 225.661 484.181 226.557 483.374C227.453 482.566 228.507 482.135 229.585 482.135C231.029 482.139 232.414 482.914 233.435 484.291C234.457 485.669 235.032 487.536 235.034 489.484V489.484Z" stroke="white" stroke-miterlimit="10"/>
<path d="M254.088 415.255C257.098 415.255 259.538 411.965 259.538 407.906C259.538 403.848 257.098 400.558 254.088 400.558C251.079 400.558 248.639 403.848 248.639 407.906C248.639 411.965 251.079 415.255 254.088 415.255Z" stroke="white" stroke-miterlimit="10"/>
</g>
<path d="M257.584 236.302C257.584 236.302 269.347 263.693 283.685 275.412C283.685 275.412 291.652 259.702 290.346 226.838" stroke="#683F1D" stroke-miterlimit="10"/>
<path d="M279.795 276.248C279.795 277.348 280.037 278.423 280.49 279.338C280.944 280.253 281.588 280.965 282.341 281.386C283.095 281.807 283.925 281.918 284.725 281.703C285.525 281.488 286.26 280.959 286.837 280.181C287.413 279.403 287.806 278.412 287.965 277.333C288.125 276.254 288.043 275.136 287.731 274.12C287.418 273.103 286.89 272.235 286.212 271.624C285.533 271.012 284.736 270.686 283.92 270.686C282.826 270.686 281.777 271.272 281.003 272.315C280.23 273.358 279.795 274.773 279.795 276.248V276.248Z" fill="white"/>
<path d="M323.071 336.439C325.175 322.553 326.214 308.412 326.172 294.238C326.147 288 325.04 281.857 322.94 276.299C321.192 271.231 319.304 266.581 318.909 260.336" stroke="#FCC71F" stroke-width="0.75" stroke-linecap="round" stroke-linejoin="round"/>
<path d="M243.885 304.538C243.885 304.538 243.444 306.084 242.692 308.453C240.84 314.502 238.641 320.348 236.115 325.937" stroke="#FCC71F" stroke-width="0.75" stroke-linecap="round" stroke-linejoin="round"/>
<path d="M318.655 393.413H239.732C241.428 387.531 243.34 381.768 245.463 376.145L316.776 381.364C317.443 385.241 318.092 389.257 318.655 393.413Z" fill="#83ADDF"/>
<path d="M287.302 393.413V422.387" stroke="#83ADDF" stroke-width="0.75" stroke-linecap="round" stroke-linejoin="round"/>
<path d="M288.956 424.338C291.192 422.679 292.479 421.893 292.714 420.069C292.949 418.245 294.067 398.126 294.067 398.126" stroke="#83ADDF" stroke-width="0.75" stroke-linecap="round" stroke-linejoin="round"/>
<path d="M286.241 532.521C286.241 532.521 286.804 451.729 287.274 448.055C287.271 448.017 287.271 447.979 287.274 447.941C287.753 446.738 288.721 444.951 294.039 440.758" stroke="#83ADDF" stroke-width="0.75" stroke-linecap="round" stroke-linejoin="round"/>
<path d="M169.735 239.571C174.489 237.113 179.666 237.607 186.28 241.864C194.022 246.855 200.731 259.689 197.461 277.338C196.926 280.188 188.695 286.117 187.333 284.812C185.97 283.507 196.757 247.362 169.735 239.571Z" fill="white"/>
<path d="M255.094 192.099C250.885 191.554 248.235 193.886 246.272 198.713C244.308 203.539 241.827 208.354 241.827 208.354C241.827 208.354 246.939 211.166 251.928 203.527C256.569 196.407 255.094 192.099 255.094 192.099Z" fill="#FED81D"/>
<path d="M258.166 194.304C253.412 196.014 251.185 198.598 250.33 206.365C249.475 214.131 249.776 217.691 249.165 220.618C249.165 220.618 255.254 218.717 258.166 211.344C260.938 204.287 260.233 199.764 258.166 194.304Z" fill="#FED81D"/>
<path d="M264.161 152.85C264.161 152.85 259.576 166.279 259.463 177.542C259.392 180.09 259.673 182.633 260.29 185.042L255.207 185.841C250.857 191.478 242.993 189.54 245.811 182.344C241.114 186.297 234.959 180.887 238.013 175.173C234.358 176.339 232.498 168.37 237.205 166.305C233.287 165.735 232.507 156.309 237.816 155.764C237.353 155.116 237.035 154.305 236.899 153.424C236.763 152.543 236.814 151.628 237.047 150.784C237.279 149.941 237.684 149.203 238.214 148.656C238.744 148.11 239.378 147.776 240.042 147.694C240.596 147.672 241.146 147.82 241.651 148.127C242.155 148.434 242.601 148.893 242.955 149.467C240.681 138.42 250.293 134.898 253.243 140.7C253.76 136.025 260.262 135.544 261.23 141.574C266.134 137.926 269.329 146.794 264.161 152.85Z" fill="#683F1D"/>
<path d="M260.327 185.042L255.244 185.841C250.894 191.478 243.03 189.54 245.849 182.344C241.151 186.297 234.997 180.887 238.05 175.173C234.396 176.339 232.535 168.37 237.242 166.305C233.324 165.735 232.545 156.309 237.853 155.764C237.39 155.116 237.072 154.305 236.936 153.424C236.8 152.543 236.851 151.628 237.084 150.784C237.317 149.941 237.721 149.203 238.251 148.657C238.782 148.11 239.415 147.776 240.08 147.694C239.742 151.596 241.019 157.119 243.838 157.5C239.986 159.413 240.014 165.57 243.838 167.736C241.442 171.322 245.031 176.364 248.029 173.526C247.916 177.479 252.322 183.915 259.444 177.479C259.386 180.052 259.685 182.618 260.327 185.042V185.042Z" fill="#683F1D"/>
<path d="M288.411 214.866C274.759 217.4 262.845 196.673 262.845 196.673C256.616 199.612 251.787 193.087 253.732 186.537C254.083 185.321 254.679 184.259 255.451 183.471V183.471C256.076 182.84 256.799 182.407 257.565 182.205C258.153 182.055 258.755 182.025 259.35 182.116C260.492 182.292 261.581 182.855 262.518 183.752C263.454 184.649 264.207 185.851 264.706 187.247C265.138 188.26 268.041 188.083 266.745 183.623C265.608 179.747 264.367 180.038 264.367 180.038C266.247 179.24 264.753 173.564 262.488 174.375C264.367 173.285 265.025 168.484 262.921 166.773C265.185 166.609 267.665 165.392 266.745 160.743C267.161 161.422 267.715 161.923 268.339 162.185C268.962 162.448 269.629 162.461 270.258 162.222C270.887 161.983 271.451 161.503 271.881 160.84C272.312 160.177 272.59 159.36 272.683 158.488C273.101 159.038 273.628 159.412 274.201 159.566C274.774 159.72 275.367 159.646 275.909 159.353C276.452 159.061 276.919 158.562 277.255 157.918C277.592 157.275 277.782 156.513 277.803 155.726C278.085 157.436 279.57 157.943 280.744 156.993C283.394 160.895 285.754 165.139 287.791 169.662L287.866 169.827C289.012 172.234 290.093 174.666 291.07 177.086C298.483 195.418 300.428 212.623 288.411 214.866Z" fill="#B25E47"/>
<path d="M271.912 180.279C271.414 182.547 268.361 183.319 265.1 182.014C261.84 180.71 259.585 177.808 260.083 175.541C260.581 173.273 263.635 172.513 266.895 173.817C270.155 175.122 272.41 178.024 271.912 180.279Z" fill="#914839"/>
<path d="M291.126 177.175C289.783 178.442 288.458 178.847 287.593 178.036C286.287 176.845 286.475 173.374 287.922 169.915C289.069 172.323 290.149 174.755 291.126 177.175Z" fill="#914839"/>
<path d="M259.36 182.192C258.765 182.101 258.163 182.13 257.575 182.28C256.808 182.483 256.086 182.916 255.461 183.547V183.547C251.12 166.343 262.564 157.588 262.564 157.588C258.204 166.14 258.881 177.682 259.36 182.192Z" fill="white"/>
<path d="M281.674 169.485C281.672 169.82 281.744 170.148 281.881 170.429C282.017 170.709 282.212 170.928 282.441 171.059C282.669 171.191 282.922 171.227 283.166 171.165C283.411 171.103 283.636 170.945 283.813 170.711C283.991 170.476 284.114 170.176 284.165 169.848C284.216 169.52 284.195 169.179 284.103 168.868C284.01 168.557 283.852 168.289 283.647 168.099C283.443 167.909 283.201 167.805 282.952 167.8C282.786 167.795 282.62 167.834 282.465 167.917C282.31 167.999 282.169 168.123 282.05 168.279C281.931 168.436 281.837 168.624 281.772 168.831C281.707 169.038 281.674 169.26 281.674 169.485Z" fill="#683F1D"/>
<path d="M273.481 173.07C273.481 173.406 273.555 173.734 273.693 174.013C273.832 174.292 274.028 174.51 274.258 174.638C274.488 174.767 274.742 174.801 274.986 174.735C275.23 174.67 275.454 174.508 275.63 174.27C275.807 174.033 275.926 173.73 275.975 173.401C276.024 173.072 275.999 172.731 275.903 172.42C275.808 172.11 275.647 171.845 275.44 171.658C275.233 171.472 274.989 171.372 274.74 171.372C274.575 171.372 274.411 171.416 274.258 171.502C274.106 171.587 273.967 171.712 273.85 171.87C273.733 172.027 273.64 172.214 273.577 172.42C273.514 172.626 273.481 172.847 273.481 173.07V173.07Z" fill="#683F1D"/>
<path d="M281.862 155.384C281.631 156.061 281.263 156.636 280.801 157.043C279.626 158.044 278.142 157.538 277.86 155.777C277.838 156.564 277.648 157.325 277.312 157.969C276.976 158.613 276.508 159.112 275.966 159.404C275.424 159.697 274.83 159.77 274.257 159.617C273.685 159.463 273.157 159.088 272.739 158.538C272.647 159.411 272.368 160.228 271.938 160.891C271.507 161.553 270.943 162.033 270.315 162.272C269.686 162.511 269.019 162.499 268.395 162.236C267.771 161.974 267.218 161.472 266.801 160.794C267.741 165.443 265.241 166.659 262.977 166.824C265.082 168.509 264.377 173.311 262.545 174.426C264.762 173.615 266.303 179.291 264.424 180.089C264.424 180.089 265.664 179.797 266.801 183.674C268.098 188.134 265.195 188.311 264.762 187.298C264.141 185.523 263.108 184.068 261.82 183.154C260.532 182.24 259.058 181.916 257.622 182.23C257.002 178.737 256.878 175.118 257.255 171.562C257.842 166.213 259.721 161.275 262.601 157.512C260.572 153.179 264.396 147.516 267.59 150.785C267.177 146.845 272.213 144.349 274.12 149.062C275.22 144.83 279.889 147.415 279.363 150.544C280.885 149.429 282.952 152.343 281.862 155.384Z" fill="#683F1D"/>
<path d="M277.193 167.8C280.284 176.731 284.972 171.841 286.156 178.581" stroke="#914839" stroke-width="0.75" stroke-linecap="round" stroke-linejoin="round"/>
<path d="M274.581 182.749C279.936 184.789 283.676 183.459 284.559 182.749C284.559 182.749 285.085 189.16 280.293 188.641C279.001 188.6 277.752 188.008 276.726 186.949C275.699 185.89 274.948 184.42 274.581 182.749V182.749Z" fill="white" stroke="#914839" stroke-width="0.75" stroke-linecap="round" stroke-linejoin="round"/>
<path d="M256.541 190.085C257.208 185.536 262.47 185.587 263.447 192.099" stroke="#914839" stroke-width="0.75" stroke-linecap="round" stroke-linejoin="round"/>
<path d="M260.778 194.304C257.838 193.277 259.228 187.272 262.441 188.995" stroke="#914839" stroke-width="0.75" stroke-linecap="round" stroke-linejoin="round"/>
<path d="M269.084 169.041C268.849 171.157 274.722 166.583 273.51 163.973C272.297 161.364 269.3 166.989 269.084 169.041Z" fill="#683F1D"/>
<path d="M284.033 161.275C285.254 162.643 278.611 164.556 278.254 161.554C277.897 158.551 282.849 159.945 284.033 161.275Z" fill="#683F1D"/>
<path d="M226.747 345.08C221.965 343.798 217.135 342.868 212.278 342.293" stroke="#914839" stroke-width="0.75" stroke-linecap="round" stroke-linejoin="round"/>
<path d="M212.278 342.293C195.028 340.24 182.344 359.675 190.039 374.574C199.773 393.413 262.084 388.599 268.483 388.383C272.542 388.257 272.241 392.285 278.452 393.071C282.21 393.565 287.96 393.59 289.172 392.767C290.083 391.942 290.818 390.811 291.305 389.485C291.305 389.485 294.856 391.399 296.275 385.925C296.275 385.925 299.892 387.028 300.484 380.174C300.484 380.174 302.674 383.848 304.694 382.505C307.005 380.972 307.334 378.704 305.708 375.803C304.083 372.901 297.393 362.652 295.166 361.575C292.94 360.498 276.215 364.489 273.359 363.628C259.012 359.307 239.375 345.511 212.278 342.293Z" fill="#B25E47"/>
<path d="M285.273 393.4C286.589 393.465 287.905 393.251 289.172 392.767C290.083 391.942 290.818 390.811 291.305 389.485C291.305 389.485 294.856 391.399 296.275 385.925C296.275 385.925 299.892 387.028 300.484 380.174C300.484 380.174 302.674 383.848 304.694 382.505C307.005 380.972 307.334 378.704 305.708 375.803C304.083 372.901 297.393 362.652 295.166 361.575" stroke="#914839" stroke-width="0.75" stroke-linecap="round" stroke-linejoin="round"/>
<path d="M300.945 380.858L295.852 373.332" stroke="#914839" stroke-width="0.75" stroke-linecap="round" stroke-linejoin="round"/>
<path d="M296.275 385.925L290.938 381.364" stroke="#914839" stroke-width="0.75" stroke-linecap="round" stroke-linejoin="round"/>
<path d="M291.305 389.485L287.659 387.978" stroke="#914839" stroke-width="0.75" stroke-linecap="round" stroke-linejoin="round"/>
<path d="M181.512 124.829L177.679 125.361L173.15 126.02L176.223 121.687L179.06 117.696L181.512 124.829Z" fill="white"/>
<path d="M166.526 279.064C178.421 289.199 189.254 278 192.242 257.602C196.649 227.488 200.435 151.409 200.435 151.409C200.435 151.409 206.476 133.774 208.403 127.401C210.329 121.028 210.019 115.365 207.219 113.731C207.219 113.731 204.4 101.948 200.059 101.581C199.225 100.98 198.354 100.476 197.457 100.073C195.286 99.478 191.293 102.177 190.241 103.671C189.189 105.166 192.684 106.737 194.676 106.294C196.667 105.851 198.124 112.629 197.231 115.492C196.339 118.355 192.533 124.107 191.18 122.612C189.827 121.117 189.405 115.948 189.959 111.906C190.513 107.865 190.128 105.838 188.127 107.409C186.126 108.98 182.245 122.08 182.687 124.474C183.128 126.869 185.684 136.751 185.853 138.41C186.022 140.07 166.498 226.715 162.646 241.753C158.794 256.792 158.117 271.906 166.526 279.064Z" fill="#FEBD9D"/>
<path d="M207.219 113.731C207.447 115.749 207.579 117.784 207.613 119.825" stroke="#F4A789" stroke-width="0.75" stroke-linecap="round" stroke-linejoin="round"/>
<path d="M202.098 110.386C202.661 113.172 202.976 116.039 203.038 118.925" stroke="#F4A789" stroke-width="0.75" stroke-linecap="round" stroke-linejoin="round"/>
<path d="M179.06 117.696L185.44 112.806C183.974 116.86 182.621 122.017 182.621 124.018L181.484 124.829C180.977 124.577 180.512 124.192 180.115 123.696C179.719 123.201 179.399 122.604 179.173 121.942C178.948 121.279 178.822 120.563 178.803 119.834C178.783 119.106 178.871 118.379 179.06 117.696V117.696Z" fill="#683F1D"/>
<path d="M177.679 125.361L173.15 126.02L176.223 121.687L177.679 125.361Z" fill="#683F1D"/>
<path d="M182.687 124.487C182.245 122.093 186.135 108.98 188.127 107.422C189.602 106.256 190.203 107.042 190.194 109.17C190.177 110.09 190.099 111.006 189.959 111.906C189.773 113.32 189.691 114.754 189.715 116.189C189.715 116.379 189.715 116.569 189.715 116.746V117.291C189.715 117.557 189.715 117.823 189.781 118.076L189.865 118.837C189.953 120.262 190.401 121.603 191.134 122.637C192.524 124.145 196.301 118.444 197.184 115.543C197.369 114.883 197.462 114.183 197.457 113.477" stroke="#F4A789" stroke-width="0.75" stroke-linecap="round" stroke-linejoin="round"/>
<path d="M193.83 106.37C191.838 106.37 189.32 104.976 190.232 103.671C191.293 102.177 195.286 99.478 197.457 100.073C198.354 100.473 199.224 100.973 200.059 101.568" stroke="#F4A789" stroke-width="0.75" stroke-linecap="round" stroke-linejoin="round"/>
<path d="M205.302 107.852C206.047 109.73 206.675 111.688 207.181 113.706C209.004 114.77 209.774 117.506 209.549 121.117" stroke="#F4A789" stroke-width="0.75" stroke-linecap="round" stroke-linejoin="round"/>
<path d="M209.342 105.014L205.302 107.878L197.504 113.439L189.884 118.837C189.604 116.54 189.62 114.196 189.931 111.907C190.07 111.006 190.149 110.09 190.166 109.17L193.802 106.37L200.059 101.568L206.195 96.8808L209.342 105.014Z" fill="#683F1D"/>
<path d="M205.058 96.8808C204.71 99.0219 205.838 105.28 208.76 106.535L210.639 104.964L207.022 95.4492L205.058 96.8808Z" fill="white"/>
<path d="M210.31 98.9839C211.4 101.67 211.635 104.305 210.845 104.888C210.056 105.471 208.534 103.773 207.454 101.087C206.373 98.4011 206.129 95.7659 206.918 95.1831C207.707 94.6004 209.22 96.298 210.31 98.9839Z" fill="#683F1D"/>
<path d="M182.687 124.487C182.245 122.093 186.135 108.98 188.127 107.422C189.602 106.256 190.203 107.042 190.194 109.17C190.177 110.09 190.099 111.006 189.959 111.906C189.773 113.32 189.691 114.754 189.715 116.189C189.715 116.379 189.715 116.569 189.715 116.746V117.291C189.715 117.557 189.715 117.823 189.781 118.076L189.865 118.837C189.953 120.262 190.401 121.603 191.134 122.637C192.524 124.145 196.301 118.444 197.184 115.543C197.369 114.883 197.462 114.183 197.457 113.477" stroke="#F4A789" stroke-width="0.75" stroke-linecap="round" stroke-linejoin="round"/>
<path d="M76.5912 255.613C73.8383 272.083 54.7933 266.813 53.7222 258.375C52.6511 249.937 54.3799 247.847 55.8456 232.391C57.0483 219.721 73.002 219.481 75.8301 227.982C76.2858 229.354 76.3915 230.891 76.1308 232.353C75.5367 236.668 75.5208 241.092 76.0838 245.415C76.4878 249.469 77.0328 252.915 76.5912 255.613Z" fill="#FEBD9D"/>
<path d="M76.131 232.353C75.5369 236.668 75.521 241.092 76.084 245.415C67.9474 242.247 66.5287 229.933 66.5287 229.933L75.8304 227.982C76.286 229.354 76.3917 230.891 76.131 232.353Z" fill="#F4A789"/>
<path d="M27.7153 372.195L46.0368 381.672C46.0368 381.672 43.4906 410.228 43.2932 409.81C43.0959 409.392 12.4568 405.085 12.4568 405.085L27.7153 372.195Z" fill="#FEBD9D"/>
<path d="M1.03162 388.817C3.58723 401.271 9.99505 405.807 16.1304 405.528C22.2657 405.249 30.7594 400.904 33.9163 387.842C36.331 377.846 31.0976 365.861 31.0976 365.861L1.03162 388.817Z" fill="white"/>
<path d="M35.9082 536.173C35.9082 536.173 38.2572 518.892 33.2869 490.298C31.162 479.13 30.2131 467.615 30.4682 456.091C30.4682 456.091 30.4682 456.091 30.4682 456.091C31.0413 438.455 35.0908 418.755 45.0596 391.959L108.95 388.425C111.806 400.41 114.399 411.423 116.729 421.466C123.804 451.872 128.624 473.79 131.997 488.613C136.488 508.326 144.08 536.186 144.08 536.186L35.9082 536.173Z" fill="#FED81D"/>
<path d="M116.767 421.479C110.03 447.881 100.447 459.841 75.661 447.539C53.3746 436.492 45.2004 428.535 30.5056 456.104C31.0787 438.468 35.1283 418.767 45.097 391.972L108.987 388.437C111.844 400.422 114.437 411.436 116.767 421.479Z" fill="#FED81D"/>
<path d="M110.82 343.867C107.296 362.301 110.556 382.318 111.985 386.702C113.413 391.085 112.248 394.088 110.171 394.607C108.095 395.127 46.8823 397.597 44.1387 397.065C41.3952 396.533 40.5026 393.733 40.5026 390.578C40.5026 387.424 35.6827 365.24 33.3338 356.372C33.3338 356.372 33.0801 381.127 27.997 388.501C22.914 395.874 11.0849 398.864 3.65296 393.429C2.26704 392.246 1.28163 390.376 0.909433 388.222C-1.90926 376.389 2.45032 349.365 5.47571 330.045C6.67835 322.291 8.41654 312.599 10.6339 302.92C15.0968 283.422 21.5141 263.937 29.4252 260.453C47.0702 252.687 59.914 255.715 69.2721 254.536C72.1847 254.156 75.0034 253.7 77.7281 253.269H77.8315C92.6672 250.736 104.026 248.417 109.664 261.276C110.536 263.316 111.224 265.49 111.712 267.75C115.198 283.257 113.751 293.482 112.99 307.798C112.99 308.368 112.943 308.938 112.915 309.521C113.641 321.047 112.932 332.656 110.82 343.867V343.867Z" fill="#A7CAF0"/>
<path d="M33.3337 356.321C33.3337 356.321 33.0801 381.076 27.997 388.45C22.914 395.823 11.0849 398.813 3.65295 393.378C2.26703 392.195 1.28162 390.325 0.909424 388.171C24.8401 397.762 32.8076 363.428 26.428 357.094C20.2174 350.924 20.3114 334.378 24.1072 325.775C26.6347 335.645 31.3888 348.212 33.3337 356.321Z" fill="#A7CAF0"/>
<path d="M109.654 261.15C102.88 268.118 97.2052 277.037 94.9221 288.604C93.3812 296.383 90.882 302.451 87.509 306.759C78.367 318.491 62.7891 317.249 42.6354 301.957C28.6829 291.391 19.1464 293.634 10.6339 302.831C15.0968 283.334 21.5141 263.848 29.4252 260.364C47.0702 252.598 59.914 255.626 69.272 254.448C72.1847 254.068 75.0034 253.612 77.7281 253.181H77.8315C92.6578 250.698 104.017 248.341 109.654 261.15Z" fill="#A7CAF0"/>
<path d="M22.4913 316.983C22.7683 319.994 23.3108 322.95 24.1074 325.788C26.6348 335.645 31.389 348.213 33.3339 356.321" stroke="#83ADDF" stroke-width="0.75" stroke-linecap="round" stroke-linejoin="round"/>
<path d="M177.237 283.574C173.357 287.058 151.418 295.319 134.14 302.008C127.221 304.727 120.142 306.639 112.981 307.722C106.662 308.709 100.287 308.866 93.945 308.191C91.7625 307.945 89.5978 307.467 87.4714 306.759C60.5154 297.966 64.8092 256.323 77.6812 253.155H77.7846C96.1501 248.792 114.672 245.726 133.275 243.97C141.337 243.299 149.567 242.995 157.506 243.274C188.381 244.401 181.118 280.154 177.237 283.574Z" fill="#A7CAF0"/>
<path d="M177.237 283.574C173.357 287.058 151.418 295.319 134.14 302.008C127.221 304.727 120.142 306.639 112.981 307.722C106.662 308.709 100.287 308.866 93.9451 308.191" stroke="#83ADDF" stroke-width="0.75" stroke-linecap="round" stroke-linejoin="round"/>
<path d="M133.313 244.008C126.219 247.974 117.246 253.371 109.655 261.2C102.88 268.169 97.2055 277.088 94.9223 288.655C93.3814 296.434 90.8822 302.502 87.5092 306.81C60.5531 298.017 64.8469 256.374 77.7189 253.206H77.8223C96.1876 248.838 114.71 245.768 133.313 244.008V244.008Z" fill="#A7CAF0"/>
<path d="M154.65 243.223C159.404 240.765 164.581 241.259 171.196 245.516C178.938 250.508 185.646 263.342 182.377 280.99C181.841 283.84 173.611 289.77 172.248 288.465C170.886 287.16 181.672 251.014 154.65 243.223Z" fill="white"/>
<path d="M58.345 233.835C74.6652 239.042 82.9052 236.8 85.0098 225.207C87.1144 213.615 78.3483 195.992 78.3483 195.992L79.0436 189.657C77.0971 188.448 75.1968 187.107 73.3498 185.641C72.4666 184.691 69.5916 174.872 66.942 173.922C64.2924 172.972 45.7173 185.869 51.2419 207.154C56.7665 228.438 58.345 233.835 58.345 233.835Z" fill="#FEBD9D"/>
<path d="M74.186 202.035C73.6223 204.442 70.6815 205.355 67.6091 204.062C64.5367 202.77 62.5167 199.755 63.071 197.335C63.6254 194.915 66.5756 194.003 69.648 195.308C72.7203 196.613 74.7498 199.615 74.186 202.035Z" fill="#F4A789"/>
<path d="M78.3201 195.992L79.0154 189.657C77.0689 188.448 75.1687 187.107 73.3217 185.641" stroke="#F4A789" stroke-width="0.75" stroke-linecap="round" stroke-linejoin="round"/>
<path d="M64.9689 278.355C57.2927 280.888 55.3947 270.411 55.3947 270.411C49.203 279.064 41.8838 276.581 40.1926 272.007C40.1926 272.007 33.8881 275.517 28.8427 270.411C21.9087 263.405 26.428 252.978 26.428 252.978C19.1558 250.444 20.49 240.651 24.6616 236.508L25.2817 235.925C29.6225 232.125 37.4209 229.591 34.5552 221.989C31.5674 213.894 29.1152 202.745 36.829 196.511C36.829 196.511 37.2236 184.488 42.767 180.548C48.3104 176.608 48.6769 175.05 48.799 172.82C49.2218 164.61 54.9719 156.857 61.4925 162.9C61.6992 163.09 61.9153 163.293 62.122 163.508C69.103 162.571 70.9445 171.426 69.7701 175.696C72.2693 186.744 66.3125 195.029 68.0037 198.893C69.9392 203.302 68.4641 208.573 68.4641 208.573C65.5796 202.403 62.0281 200.452 59.5852 205.735C57.6027 210.042 59.2188 215.68 65.636 221.052C72.5042 226.804 69.2533 234.19 67.75 239.751C66.8728 243.008 66.5782 246.497 66.89 249.936C67.2018 253.375 68.1114 256.666 69.5446 259.541C72.8612 265.913 72.6451 275.871 64.9689 278.355Z" fill="#7F542D"/>
<path d="M64.9689 278.355C57.2927 280.888 55.3947 270.411 55.3947 270.411C49.203 279.064 41.8838 276.581 40.1926 272.007C40.1926 272.007 33.8881 275.517 28.8427 270.411C21.9087 263.405 26.428 252.978 26.428 252.978C19.1558 250.444 20.49 240.651 24.6616 236.508L25.2817 235.925C28.2038 246.986 33.5217 252.966 38.943 251.242C46.1494 248.987 50.2177 243.641 56.9638 249.241C63.7099 254.841 65.7299 228.717 55.8457 224.777C45.9615 220.836 44.0636 198.425 52.6136 195.637C59.0121 193.61 64.7622 176.165 61.4925 162.786C61.6992 162.976 61.9153 163.179 62.122 163.394C69.103 162.457 70.9445 171.312 69.7701 175.582C72.2693 186.63 66.3125 194.915 68.0037 198.779C69.9392 203.188 68.4641 208.459 68.4641 208.459C65.5796 202.289 62.0281 200.338 59.5852 205.621C57.6027 209.928 59.2188 215.566 65.636 220.938C72.5042 226.69 69.2533 234.076 67.75 239.637C66.8728 242.894 66.5782 246.383 66.89 249.822C67.2018 253.261 68.1114 256.552 69.5446 259.427C72.8612 265.913 72.6451 275.871 64.9689 278.355Z" fill="#683F1D"/>
<path d="M71.2076 191.811C71.2076 192.144 71.2808 192.47 71.4181 192.747C71.5555 193.024 71.7506 193.24 71.979 193.368C72.2073 193.495 72.4586 193.529 72.701 193.464C72.9434 193.399 73.166 193.238 73.3408 193.003C73.5155 192.767 73.6346 192.467 73.6828 192.14C73.731 191.813 73.7063 191.474 73.6117 191.166C73.5171 190.858 73.3569 190.595 73.1514 190.41C72.9459 190.225 72.7043 190.126 72.4572 190.126C72.2927 190.125 72.1297 190.167 71.9775 190.251C71.8253 190.335 71.6871 190.459 71.5708 190.616C71.4545 190.773 71.3625 190.959 71.3001 191.164C71.2378 191.37 71.2063 191.589 71.2076 191.811Z" fill="#683F1D"/>
<path d="M26.3998 252.991C29.9607 243.476 33.2022 243.755 36.2276 240.613C39.253 237.471 40.5778 230.934 39.9859 227.944" stroke="#BF8228" stroke-width="0.75" stroke-linecap="round" stroke-linejoin="round"/>
<path d="M40.1925 272.007C39.2313 269.903 38.8032 267.434 38.9726 264.973C39.1421 262.512 39.9 260.192 41.1321 258.363" stroke="#BF8228" stroke-width="0.75" stroke-linecap="round" stroke-linejoin="round"/>
<path d="M55.3947 270.411C54.9352 268.802 54.732 267.08 54.7984 265.358C54.8648 263.636 55.1992 261.951 55.78 260.415" stroke="#BF8228" stroke-width="0.75" stroke-linecap="round" stroke-linejoin="round"/>
<path d="M49.5789 181.131C53.7505 179.864 54.1545 175.848 55.4041 172.541C56.6538 169.235 58.5893 164.116 62.122 163.42" stroke="#BF8228" stroke-width="0.75" stroke-linecap="round" stroke-linejoin="round"/>
<path d="M69.7701 175.607C68.5016 171.807 64.4803 167.258 60.7502 171.807" stroke="#BF8228" stroke-width="0.75" stroke-linecap="round" stroke-linejoin="round"/>
<path d="M62.5259 212.779C62.4414 208.015 65.9271 206.9 68.6331 210.536" stroke="#F4A789" stroke-width="0.75" stroke-linecap="round" stroke-linejoin="round"/>
<path d="M67.2144 214.844C64.4897 214.844 64.3958 209.333 67.8627 209.649" stroke="#F4A789" stroke-width="0.75" stroke-linecap="round" stroke-linejoin="round"/>
<path d="M75.6611 203.112C76.1632 203.971 76.8365 204.619 77.6019 204.98C78.3674 205.342 79.1934 205.401 79.9831 205.152" stroke="#F4A789" stroke-width="0.75" stroke-linecap="round" stroke-linejoin="round"/>
<path d="M62.1031 217.378C64.1702 219.62 67.9003 219.303 67.9003 219.303" stroke="#F4A789" stroke-width="0.75" stroke-linecap="round" stroke-linejoin="round"/>
<path d="M70.127 221.989C71.5903 221.989 72.7766 220.39 72.7766 218.417C72.7766 216.443 71.5903 214.844 70.127 214.844C68.6637 214.844 67.4774 216.443 67.4774 218.417C67.4774 220.39 68.6637 221.989 70.127 221.989Z" fill="white"/>
<path d="M68.1162 190.202C69.4128 191.342 72.5322 183.26 70.0893 181.042C67.6465 178.825 66.3687 188.669 68.1162 190.202Z" fill="#7F542D"/>
<path d="M594.281 529.75H11.5926C6.46059 529.75 2.30029 535.359 2.30029 542.279V544.243C2.30029 551.163 6.46059 556.773 11.5926 556.773H594.281C599.413 556.773 603.574 551.163 603.574 544.243V542.279C603.574 535.359 599.413 529.75 594.281 529.75Z" fill="#DDDDDD"/>
<path d="M20.3212 556.773C35.73 546.84 58.5896 544.649 76.0091 556.773" stroke="#DDDDDD" stroke-width="0.75" stroke-linecap="round" stroke-linejoin="round"/>
<path d="M15.0031 529.737C30.1958 541.139 40.2961 540.214 59.0404 539.872C73.0023 539.632 89.8111 549.222 101.001 556.76" stroke="#DDDDDD" stroke-width="0.75" stroke-linecap="round" stroke-linejoin="round"/>
<path d="M87.1145 529.737C98.1356 546.448 105.784 548.538 109.485 544.23C113.413 539.657 117.453 538.415 121.625 543.242C126.454 548.842 133.172 537.503 136.949 529.737" stroke="#DDDDDD" stroke-width="0.75" stroke-linecap="round" stroke-linejoin="round"/>
<path d="M130.09 556.773C134.544 551.237 142.483 544.395 154.848 543.255C169.505 541.988 188.127 551.085 198.068 556.773" stroke="#DDDDDD" stroke-width="0.75" stroke-linecap="round" stroke-linejoin="round"/>
<path d="M178.825 529.737C196.019 541.899 214.811 549.019 229.994 543.242C244.811 537.63 280.195 544.623 293.067 529.737" stroke="#DDDDDD" stroke-width="0.75" stroke-linecap="round" stroke-linejoin="round"/>
<path d="M244.041 556.773C255.052 548.323 272.227 543.154 285.588 556.773" stroke="#DDDDDD" stroke-width="0.75" stroke-linecap="round" stroke-linejoin="round"/>
<path d="M304.511 556.773C324.984 535.311 365.855 531.434 399.989 543.141C440.39 557.014 458.505 541 465.843 529.75" stroke="#DDDDDD" stroke-width="0.75" stroke-linecap="round" stroke-linejoin="round"/>
<path d="M341.323 556.773C356.149 547.791 376.086 545.941 397.142 556.773" stroke="#DDDDDD" stroke-width="0.75" stroke-linecap="round" stroke-linejoin="round"/>
<path d="M470.56 556.773C495.383 541.19 515.245 543.002 533.661 556.773" stroke="#DDDDDD" stroke-width="0.75" stroke-linecap="round" stroke-linejoin="round"/>
<path d="M505.577 529.737C546.476 548.259 580.319 562.601 602.615 537.465" stroke="#DDDDDD" stroke-width="0.75" stroke-linecap="round" stroke-linejoin="round"/>
<path d="M538.199 529.737C558.954 546.207 583.194 544.94 598.115 531.219" stroke="#DDDDDD" stroke-width="0.75" stroke-linecap="round" stroke-linejoin="round"/>
</svg>
