<svg width="107" height="78" viewBox="0 0 107 78" fill="none" xmlns="http://www.w3.org/2000/svg">
<path d="M3.59593 9.88873H98.8881C100.378 9.88873 101.585 11.0962 101.585 12.5857V73.7165C101.585 75.206 100.378 76.4135 98.8881 76.4135H3.59593C2.10645 76.4135 0.898983 75.206 0.898983 73.7165V12.5857C0.898983 11.0962 2.10645 9.88873 3.59593 9.88873Z" fill="#EEB53D" stroke="#EEB53D" stroke-width="1.79797"/>
<path d="M94.3932 6.23845V8.09085H9.88882V0.956924L94.3932 6.23845Z" fill="#22BA8E" stroke="#EEB53D" stroke-width="1.79797"/>
<path d="M76.4136 39.5476C76.4136 36.0777 79.2229 33.2623 82.7195 33.2623H105.181V53.0399H82.7195C79.2355 53.0399 76.4136 50.211 76.4136 46.7545V39.5476Z" fill="#9C4D4D" stroke="#EEB53D" stroke-width="1.79797"/>
<path d="M88.9993 43.1511C88.9993 44.6406 87.7919 45.8481 86.3024 45.8481C84.8129 45.8481 83.6054 44.6406 83.6054 43.1511C83.6054 41.6616 84.8129 40.4542 86.3024 40.4542C87.7919 40.4542 88.9993 41.6616 88.9993 43.1511Z" fill="#EEB53D" stroke="#EEB53D" stroke-width="1.79797"/>
<path d="M17.9797 10.7876V73.7164" stroke="#EEB53D" stroke-width="3.59593" stroke-linecap="square" stroke-dasharray="7.19 7.19"/>
</svg>
